<?xml version="1.0" encoding="utf-8" standalone="no"?>
<!DOCTYPE svg PUBLIC "-//W3C//DTD SVG 1.1//EN"
  "http://www.w3.org/Graphics/SVG/1.1/DTD/svg11.dtd">
<!-- Created with matplotlib (https://matplotlib.org/) -->
<svg height="345.6pt" version="1.1" viewBox="0 0 460.8 345.6" width="460.8pt" xmlns="http://www.w3.org/2000/svg" xmlns:xlink="http://www.w3.org/1999/xlink">
 <metadata>
  <rdf:RDF xmlns:cc="http://creativecommons.org/ns#" xmlns:dc="http://purl.org/dc/elements/1.1/" xmlns:rdf="http://www.w3.org/1999/02/22-rdf-syntax-ns#">
   <cc:Work>
    <dc:type rdf:resource="http://purl.org/dc/dcmitype/StillImage"/>
    <dc:date>2021-07-19T23:53:19.729805</dc:date>
    <dc:format>image/svg+xml</dc:format>
    <dc:creator>
     <cc:Agent>
      <dc:title>Matplotlib v3.3.3, https://matplotlib.org/</dc:title>
     </cc:Agent>
    </dc:creator>
   </cc:Work>
  </rdf:RDF>
 </metadata>
 <defs>
  <style type="text/css">*{stroke-linecap:butt;stroke-linejoin:round;}</style>
 </defs>
 <g id="figure_1">
  <g id="patch_1">
   <path d="M 0 345.6 
L 460.8 345.6 
L 460.8 0 
L 0 0 
z
" style="fill:#ffffff;"/>
  </g>
  <g id="axes_1">
   <g id="patch_2">
    <path d="M 57.6 307.584 
L 414.72 307.584 
L 414.72 41.472 
L 57.6 41.472 
z
" style="fill:#ffffff;"/>
   </g>
   <g id="matplotlib.axis_1">
    <g id="xtick_1">
     <g id="line2d_1">
      <defs>
       <path d="M 0 0 
L 0 3.5 
" id="m35fd4acf67" style="stroke:#000000;stroke-width:0.8;"/>
      </defs>
      <g>
       <use style="stroke:#000000;stroke-width:0.8;" x="73.832727" xlink:href="#m35fd4acf67" y="307.584"/>
      </g>
     </g>
     <g id="text_1">
      <!-- 0 -->
      <g transform="translate(70.651477 322.182437)scale(0.1 -0.1)">
       <defs>
        <path d="M 31.78125 66.40625 
Q 24.171875 66.40625 20.328125 58.90625 
Q 16.5 51.421875 16.5 36.375 
Q 16.5 21.390625 20.328125 13.890625 
Q 24.171875 6.390625 31.78125 6.390625 
Q 39.453125 6.390625 43.28125 13.890625 
Q 47.125 21.390625 47.125 36.375 
Q 47.125 51.421875 43.28125 58.90625 
Q 39.453125 66.40625 31.78125 66.40625 
z
M 31.78125 74.21875 
Q 44.046875 74.21875 50.515625 64.515625 
Q 56.984375 54.828125 56.984375 36.375 
Q 56.984375 17.96875 50.515625 8.265625 
Q 44.046875 -1.421875 31.78125 -1.421875 
Q 19.53125 -1.421875 13.0625 8.265625 
Q 6.59375 17.96875 6.59375 36.375 
Q 6.59375 54.828125 13.0625 64.515625 
Q 19.53125 74.21875 31.78125 74.21875 
z
" id="DejaVuSans-48"/>
       </defs>
       <use xlink:href="#DejaVuSans-48"/>
      </g>
     </g>
    </g>
    <g id="xtick_2">
     <g id="line2d_2">
      <g>
       <use style="stroke:#000000;stroke-width:0.8;" x="115.669653" xlink:href="#m35fd4acf67" y="307.584"/>
      </g>
     </g>
     <g id="text_2">
      <!-- 50 -->
      <g transform="translate(109.307153 322.182437)scale(0.1 -0.1)">
       <defs>
        <path d="M 10.796875 72.90625 
L 49.515625 72.90625 
L 49.515625 64.59375 
L 19.828125 64.59375 
L 19.828125 46.734375 
Q 21.96875 47.46875 24.109375 47.828125 
Q 26.265625 48.1875 28.421875 48.1875 
Q 40.625 48.1875 47.75 41.5 
Q 54.890625 34.8125 54.890625 23.390625 
Q 54.890625 11.625 47.5625 5.09375 
Q 40.234375 -1.421875 26.90625 -1.421875 
Q 22.3125 -1.421875 17.546875 -0.640625 
Q 12.796875 0.140625 7.71875 1.703125 
L 7.71875 11.625 
Q 12.109375 9.234375 16.796875 8.0625 
Q 21.484375 6.890625 26.703125 6.890625 
Q 35.15625 6.890625 40.078125 11.328125 
Q 45.015625 15.765625 45.015625 23.390625 
Q 45.015625 31 40.078125 35.4375 
Q 35.15625 39.890625 26.703125 39.890625 
Q 22.75 39.890625 18.8125 39.015625 
Q 14.890625 38.140625 10.796875 36.28125 
z
" id="DejaVuSans-53"/>
       </defs>
       <use xlink:href="#DejaVuSans-53"/>
       <use x="63.623047" xlink:href="#DejaVuSans-48"/>
      </g>
     </g>
    </g>
    <g id="xtick_3">
     <g id="line2d_3">
      <g>
       <use style="stroke:#000000;stroke-width:0.8;" x="157.506579" xlink:href="#m35fd4acf67" y="307.584"/>
      </g>
     </g>
     <g id="text_3">
      <!-- 100 -->
      <g transform="translate(147.962829 322.182437)scale(0.1 -0.1)">
       <defs>
        <path d="M 12.40625 8.296875 
L 28.515625 8.296875 
L 28.515625 63.921875 
L 10.984375 60.40625 
L 10.984375 69.390625 
L 28.421875 72.90625 
L 38.28125 72.90625 
L 38.28125 8.296875 
L 54.390625 8.296875 
L 54.390625 0 
L 12.40625 0 
z
" id="DejaVuSans-49"/>
       </defs>
       <use xlink:href="#DejaVuSans-49"/>
       <use x="63.623047" xlink:href="#DejaVuSans-48"/>
       <use x="127.246094" xlink:href="#DejaVuSans-48"/>
      </g>
     </g>
    </g>
    <g id="xtick_4">
     <g id="line2d_4">
      <g>
       <use style="stroke:#000000;stroke-width:0.8;" x="199.343505" xlink:href="#m35fd4acf67" y="307.584"/>
      </g>
     </g>
     <g id="text_4">
      <!-- 150 -->
      <g transform="translate(189.799755 322.182437)scale(0.1 -0.1)">
       <use xlink:href="#DejaVuSans-49"/>
       <use x="63.623047" xlink:href="#DejaVuSans-53"/>
       <use x="127.246094" xlink:href="#DejaVuSans-48"/>
      </g>
     </g>
    </g>
    <g id="xtick_5">
     <g id="line2d_5">
      <g>
       <use style="stroke:#000000;stroke-width:0.8;" x="241.180431" xlink:href="#m35fd4acf67" y="307.584"/>
      </g>
     </g>
     <g id="text_5">
      <!-- 200 -->
      <g transform="translate(231.636681 322.182437)scale(0.1 -0.1)">
       <defs>
        <path d="M 19.1875 8.296875 
L 53.609375 8.296875 
L 53.609375 0 
L 7.328125 0 
L 7.328125 8.296875 
Q 12.9375 14.109375 22.625 23.890625 
Q 32.328125 33.6875 34.8125 36.53125 
Q 39.546875 41.84375 41.421875 45.53125 
Q 43.3125 49.21875 43.3125 52.78125 
Q 43.3125 58.59375 39.234375 62.25 
Q 35.15625 65.921875 28.609375 65.921875 
Q 23.96875 65.921875 18.8125 64.3125 
Q 13.671875 62.703125 7.8125 59.421875 
L 7.8125 69.390625 
Q 13.765625 71.78125 18.9375 73 
Q 24.125 74.21875 28.421875 74.21875 
Q 39.75 74.21875 46.484375 68.546875 
Q 53.21875 62.890625 53.21875 53.421875 
Q 53.21875 48.921875 51.53125 44.890625 
Q 49.859375 40.875 45.40625 35.40625 
Q 44.1875 33.984375 37.640625 27.21875 
Q 31.109375 20.453125 19.1875 8.296875 
z
" id="DejaVuSans-50"/>
       </defs>
       <use xlink:href="#DejaVuSans-50"/>
       <use x="63.623047" xlink:href="#DejaVuSans-48"/>
       <use x="127.246094" xlink:href="#DejaVuSans-48"/>
      </g>
     </g>
    </g>
    <g id="xtick_6">
     <g id="line2d_6">
      <g>
       <use style="stroke:#000000;stroke-width:0.8;" x="283.017357" xlink:href="#m35fd4acf67" y="307.584"/>
      </g>
     </g>
     <g id="text_6">
      <!-- 250 -->
      <g transform="translate(273.473607 322.182437)scale(0.1 -0.1)">
       <use xlink:href="#DejaVuSans-50"/>
       <use x="63.623047" xlink:href="#DejaVuSans-53"/>
       <use x="127.246094" xlink:href="#DejaVuSans-48"/>
      </g>
     </g>
    </g>
    <g id="xtick_7">
     <g id="line2d_7">
      <g>
       <use style="stroke:#000000;stroke-width:0.8;" x="324.854283" xlink:href="#m35fd4acf67" y="307.584"/>
      </g>
     </g>
     <g id="text_7">
      <!-- 300 -->
      <g transform="translate(315.310533 322.182437)scale(0.1 -0.1)">
       <defs>
        <path d="M 40.578125 39.3125 
Q 47.65625 37.796875 51.625 33 
Q 55.609375 28.21875 55.609375 21.1875 
Q 55.609375 10.40625 48.1875 4.484375 
Q 40.765625 -1.421875 27.09375 -1.421875 
Q 22.515625 -1.421875 17.65625 -0.515625 
Q 12.796875 0.390625 7.625 2.203125 
L 7.625 11.71875 
Q 11.71875 9.328125 16.59375 8.109375 
Q 21.484375 6.890625 26.8125 6.890625 
Q 36.078125 6.890625 40.9375 10.546875 
Q 45.796875 14.203125 45.796875 21.1875 
Q 45.796875 27.640625 41.28125 31.265625 
Q 36.765625 34.90625 28.71875 34.90625 
L 20.21875 34.90625 
L 20.21875 43.015625 
L 29.109375 43.015625 
Q 36.375 43.015625 40.234375 45.921875 
Q 44.09375 48.828125 44.09375 54.296875 
Q 44.09375 59.90625 40.109375 62.90625 
Q 36.140625 65.921875 28.71875 65.921875 
Q 24.65625 65.921875 20.015625 65.03125 
Q 15.375 64.15625 9.8125 62.3125 
L 9.8125 71.09375 
Q 15.4375 72.65625 20.34375 73.4375 
Q 25.25 74.21875 29.59375 74.21875 
Q 40.828125 74.21875 47.359375 69.109375 
Q 53.90625 64.015625 53.90625 55.328125 
Q 53.90625 49.265625 50.4375 45.09375 
Q 46.96875 40.921875 40.578125 39.3125 
z
" id="DejaVuSans-51"/>
       </defs>
       <use xlink:href="#DejaVuSans-51"/>
       <use x="63.623047" xlink:href="#DejaVuSans-48"/>
       <use x="127.246094" xlink:href="#DejaVuSans-48"/>
      </g>
     </g>
    </g>
    <g id="xtick_8">
     <g id="line2d_8">
      <g>
       <use style="stroke:#000000;stroke-width:0.8;" x="366.691209" xlink:href="#m35fd4acf67" y="307.584"/>
      </g>
     </g>
     <g id="text_8">
      <!-- 350 -->
      <g transform="translate(357.147459 322.182437)scale(0.1 -0.1)">
       <use xlink:href="#DejaVuSans-51"/>
       <use x="63.623047" xlink:href="#DejaVuSans-53"/>
       <use x="127.246094" xlink:href="#DejaVuSans-48"/>
      </g>
     </g>
    </g>
    <g id="xtick_9">
     <g id="line2d_9">
      <g>
       <use style="stroke:#000000;stroke-width:0.8;" x="408.528135" xlink:href="#m35fd4acf67" y="307.584"/>
      </g>
     </g>
     <g id="text_9">
      <!-- 400 -->
      <g transform="translate(398.984385 322.182437)scale(0.1 -0.1)">
       <defs>
        <path d="M 37.796875 64.3125 
L 12.890625 25.390625 
L 37.796875 25.390625 
z
M 35.203125 72.90625 
L 47.609375 72.90625 
L 47.609375 25.390625 
L 58.015625 25.390625 
L 58.015625 17.1875 
L 47.609375 17.1875 
L 47.609375 0 
L 37.796875 0 
L 37.796875 17.1875 
L 4.890625 17.1875 
L 4.890625 26.703125 
z
" id="DejaVuSans-52"/>
       </defs>
       <use xlink:href="#DejaVuSans-52"/>
       <use x="63.623047" xlink:href="#DejaVuSans-48"/>
       <use x="127.246094" xlink:href="#DejaVuSans-48"/>
      </g>
     </g>
    </g>
    <g id="text_10">
     <!-- Epoch -->
     <g transform="translate(220.849063 335.860562)scale(0.1 -0.1)">
      <defs>
       <path d="M 9.8125 72.90625 
L 55.90625 72.90625 
L 55.90625 64.59375 
L 19.671875 64.59375 
L 19.671875 43.015625 
L 54.390625 43.015625 
L 54.390625 34.71875 
L 19.671875 34.71875 
L 19.671875 8.296875 
L 56.78125 8.296875 
L 56.78125 0 
L 9.8125 0 
z
" id="DejaVuSans-69"/>
       <path d="M 18.109375 8.203125 
L 18.109375 -20.796875 
L 9.078125 -20.796875 
L 9.078125 54.6875 
L 18.109375 54.6875 
L 18.109375 46.390625 
Q 20.953125 51.265625 25.265625 53.625 
Q 29.59375 56 35.59375 56 
Q 45.5625 56 51.78125 48.09375 
Q 58.015625 40.1875 58.015625 27.296875 
Q 58.015625 14.40625 51.78125 6.484375 
Q 45.5625 -1.421875 35.59375 -1.421875 
Q 29.59375 -1.421875 25.265625 0.953125 
Q 20.953125 3.328125 18.109375 8.203125 
z
M 48.6875 27.296875 
Q 48.6875 37.203125 44.609375 42.84375 
Q 40.53125 48.484375 33.40625 48.484375 
Q 26.265625 48.484375 22.1875 42.84375 
Q 18.109375 37.203125 18.109375 27.296875 
Q 18.109375 17.390625 22.1875 11.75 
Q 26.265625 6.109375 33.40625 6.109375 
Q 40.53125 6.109375 44.609375 11.75 
Q 48.6875 17.390625 48.6875 27.296875 
z
" id="DejaVuSans-112"/>
       <path d="M 30.609375 48.390625 
Q 23.390625 48.390625 19.1875 42.75 
Q 14.984375 37.109375 14.984375 27.296875 
Q 14.984375 17.484375 19.15625 11.84375 
Q 23.34375 6.203125 30.609375 6.203125 
Q 37.796875 6.203125 41.984375 11.859375 
Q 46.1875 17.53125 46.1875 27.296875 
Q 46.1875 37.015625 41.984375 42.703125 
Q 37.796875 48.390625 30.609375 48.390625 
z
M 30.609375 56 
Q 42.328125 56 49.015625 48.375 
Q 55.71875 40.765625 55.71875 27.296875 
Q 55.71875 13.875 49.015625 6.21875 
Q 42.328125 -1.421875 30.609375 -1.421875 
Q 18.84375 -1.421875 12.171875 6.21875 
Q 5.515625 13.875 5.515625 27.296875 
Q 5.515625 40.765625 12.171875 48.375 
Q 18.84375 56 30.609375 56 
z
" id="DejaVuSans-111"/>
       <path d="M 48.78125 52.59375 
L 48.78125 44.1875 
Q 44.96875 46.296875 41.140625 47.34375 
Q 37.3125 48.390625 33.40625 48.390625 
Q 24.65625 48.390625 19.8125 42.84375 
Q 14.984375 37.3125 14.984375 27.296875 
Q 14.984375 17.28125 19.8125 11.734375 
Q 24.65625 6.203125 33.40625 6.203125 
Q 37.3125 6.203125 41.140625 7.25 
Q 44.96875 8.296875 48.78125 10.40625 
L 48.78125 2.09375 
Q 45.015625 0.34375 40.984375 -0.53125 
Q 36.96875 -1.421875 32.421875 -1.421875 
Q 20.0625 -1.421875 12.78125 6.34375 
Q 5.515625 14.109375 5.515625 27.296875 
Q 5.515625 40.671875 12.859375 48.328125 
Q 20.21875 56 33.015625 56 
Q 37.15625 56 41.109375 55.140625 
Q 45.0625 54.296875 48.78125 52.59375 
z
" id="DejaVuSans-99"/>
       <path d="M 54.890625 33.015625 
L 54.890625 0 
L 45.90625 0 
L 45.90625 32.71875 
Q 45.90625 40.484375 42.875 44.328125 
Q 39.84375 48.1875 33.796875 48.1875 
Q 26.515625 48.1875 22.3125 43.546875 
Q 18.109375 38.921875 18.109375 30.90625 
L 18.109375 0 
L 9.078125 0 
L 9.078125 75.984375 
L 18.109375 75.984375 
L 18.109375 46.1875 
Q 21.34375 51.125 25.703125 53.5625 
Q 30.078125 56 35.796875 56 
Q 45.21875 56 50.046875 50.171875 
Q 54.890625 44.34375 54.890625 33.015625 
z
" id="DejaVuSans-104"/>
      </defs>
      <use xlink:href="#DejaVuSans-69"/>
      <use x="63.183594" xlink:href="#DejaVuSans-112"/>
      <use x="126.660156" xlink:href="#DejaVuSans-111"/>
      <use x="187.841797" xlink:href="#DejaVuSans-99"/>
      <use x="242.822266" xlink:href="#DejaVuSans-104"/>
     </g>
    </g>
   </g>
   <g id="matplotlib.axis_2">
    <g id="ytick_1">
     <g id="line2d_10">
      <defs>
       <path d="M 0 0 
L -3.5 0 
" id="m0568a816f6" style="stroke:#000000;stroke-width:0.8;"/>
      </defs>
      <g>
       <use style="stroke:#000000;stroke-width:0.8;" x="57.6" xlink:href="#m0568a816f6" y="303.329803"/>
      </g>
     </g>
     <g id="text_11">
      <!-- 0.00 -->
      <g transform="translate(28.334375 307.129021)scale(0.1 -0.1)">
       <defs>
        <path d="M 10.6875 12.40625 
L 21 12.40625 
L 21 0 
L 10.6875 0 
z
" id="DejaVuSans-46"/>
       </defs>
       <use xlink:href="#DejaVuSans-48"/>
       <use x="63.623047" xlink:href="#DejaVuSans-46"/>
       <use x="95.410156" xlink:href="#DejaVuSans-48"/>
       <use x="159.033203" xlink:href="#DejaVuSans-48"/>
      </g>
     </g>
    </g>
    <g id="ytick_2">
     <g id="line2d_11">
      <g>
       <use style="stroke:#000000;stroke-width:0.8;" x="57.6" xlink:href="#m0568a816f6" y="256.960697"/>
      </g>
     </g>
     <g id="text_12">
      <!-- 0.01 -->
      <g transform="translate(28.334375 260.759915)scale(0.1 -0.1)">
       <use xlink:href="#DejaVuSans-48"/>
       <use x="63.623047" xlink:href="#DejaVuSans-46"/>
       <use x="95.410156" xlink:href="#DejaVuSans-48"/>
       <use x="159.033203" xlink:href="#DejaVuSans-49"/>
      </g>
     </g>
    </g>
    <g id="ytick_3">
     <g id="line2d_12">
      <g>
       <use style="stroke:#000000;stroke-width:0.8;" x="57.6" xlink:href="#m0568a816f6" y="210.591591"/>
      </g>
     </g>
     <g id="text_13">
      <!-- 0.02 -->
      <g transform="translate(28.334375 214.390809)scale(0.1 -0.1)">
       <use xlink:href="#DejaVuSans-48"/>
       <use x="63.623047" xlink:href="#DejaVuSans-46"/>
       <use x="95.410156" xlink:href="#DejaVuSans-48"/>
       <use x="159.033203" xlink:href="#DejaVuSans-50"/>
      </g>
     </g>
    </g>
    <g id="ytick_4">
     <g id="line2d_13">
      <g>
       <use style="stroke:#000000;stroke-width:0.8;" x="57.6" xlink:href="#m0568a816f6" y="164.222485"/>
      </g>
     </g>
     <g id="text_14">
      <!-- 0.03 -->
      <g transform="translate(28.334375 168.021704)scale(0.1 -0.1)">
       <use xlink:href="#DejaVuSans-48"/>
       <use x="63.623047" xlink:href="#DejaVuSans-46"/>
       <use x="95.410156" xlink:href="#DejaVuSans-48"/>
       <use x="159.033203" xlink:href="#DejaVuSans-51"/>
      </g>
     </g>
    </g>
    <g id="ytick_5">
     <g id="line2d_14">
      <g>
       <use style="stroke:#000000;stroke-width:0.8;" x="57.6" xlink:href="#m0568a816f6" y="117.853379"/>
      </g>
     </g>
     <g id="text_15">
      <!-- 0.04 -->
      <g transform="translate(28.334375 121.652598)scale(0.1 -0.1)">
       <use xlink:href="#DejaVuSans-48"/>
       <use x="63.623047" xlink:href="#DejaVuSans-46"/>
       <use x="95.410156" xlink:href="#DejaVuSans-48"/>
       <use x="159.033203" xlink:href="#DejaVuSans-52"/>
      </g>
     </g>
    </g>
    <g id="ytick_6">
     <g id="line2d_15">
      <g>
       <use style="stroke:#000000;stroke-width:0.8;" x="57.6" xlink:href="#m0568a816f6" y="71.484273"/>
      </g>
     </g>
     <g id="text_16">
      <!-- 0.05 -->
      <g transform="translate(28.334375 75.283492)scale(0.1 -0.1)">
       <use xlink:href="#DejaVuSans-48"/>
       <use x="63.623047" xlink:href="#DejaVuSans-46"/>
       <use x="95.410156" xlink:href="#DejaVuSans-48"/>
       <use x="159.033203" xlink:href="#DejaVuSans-53"/>
      </g>
     </g>
    </g>
   </g>
   <g id="line2d_16">
    <path clip-path="url(#p9eb224c0fc)" d="M 73.832727 53.568 
L 74.669466 229.490433 
L 75.506204 250.899822 
L 76.342943 260.944896 
L 77.179681 266.532149 
L 78.01642 270.688448 
L 78.853158 274.000506 
L 79.689897 276.165962 
L 82.200112 280.488406 
L 83.036851 281.844456 
L 83.87359 282.416855 
L 84.710328 283.298823 
L 85.547067 283.941565 
L 86.383805 284.77069 
L 88.894021 285.952122 
L 90.567498 286.558581 
L 91.404236 287.126642 
L 92.240975 287.254901 
L 93.077713 287.184361 
L 93.914452 287.858788 
L 94.75119 287.993462 
L 95.587929 287.95692 
L 97.261406 288.769086 
L 98.098144 288.790529 
L 98.934883 289.072992 
L 99.771621 288.968774 
L 100.60836 289.193202 
L 101.445098 289.099409 
L 103.118575 289.674379 
L 103.955314 289.922003 
L 108.139007 290.298059 
L 108.975745 290.494362 
L 109.812484 289.96245 
L 110.649222 290.036493 
L 111.485961 290.876828 
L 112.322699 290.732416 
L 113.996176 290.90587 
L 114.832915 291.134698 
L 116.506392 290.924024 
L 117.34313 291.34818 
L 119.016607 291.435908 
L 119.853346 291.381417 
L 120.690084 291.439553 
L 121.526823 287.715985 
L 122.363561 290.913699 
L 123.2003 291.687049 
L 124.037038 291.706944 
L 124.873777 291.941848 
L 126.547254 291.875916 
L 128.220731 291.995656 
L 129.05747 291.903102 
L 132.404424 292.202946 
L 133.241162 292.107167 
L 134.077901 292.36303 
L 134.914639 292.440657 
L 135.751378 292.335611 
L 136.588116 292.445019 
L 138.261593 292.372202 
L 139.93507 292.497329 
L 140.771809 292.321183 
L 141.608547 292.499225 
L 142.445286 292.364069 
L 143.282024 292.048153 
L 144.118763 292.672675 
L 144.955501 292.630506 
L 146.628978 292.830163 
L 147.465717 292.687745 
L 148.302455 292.724829 
L 149.139194 292.890746 
L 149.975933 292.769406 
L 151.64941 292.927649 
L 153.322887 292.727168 
L 154.996364 292.86003 
L 155.833102 292.81604 
L 156.669841 292.996031 
L 157.506579 292.988218 
L 158.343318 293.204724 
L 160.853533 293.100186 
L 161.690272 293.280895 
L 162.52701 292.974868 
L 164.200487 293.244999 
L 165.037226 293.251862 
L 165.873964 293.037571 
L 166.710703 293.258643 
L 168.38418 293.169429 
L 169.220918 292.898401 
L 170.057657 292.994912 
L 170.894396 293.318869 
L 172.567873 293.468441 
L 173.404611 293.490064 
L 174.24135 293.281041 
L 175.914827 293.513323 
L 176.751565 293.592222 
L 177.588304 293.536333 
L 178.425042 293.158677 
L 179.261781 293.536602 
L 180.098519 293.632192 
L 181.771996 293.625461 
L 182.608735 293.180278 
L 184.282212 293.727058 
L 185.11895 293.524963 
L 185.955689 293.587124 
L 186.792427 293.094684 
L 187.629166 293.717433 
L 188.465904 293.710821 
L 189.302643 292.087873 
L 190.139381 293.070668 
L 190.97612 293.695422 
L 193.486336 293.936922 
L 194.323074 293.805446 
L 197.670028 293.902926 
L 199.343505 293.842444 
L 200.180244 293.519885 
L 201.016982 293.803464 
L 201.853721 293.96793 
L 203.527198 293.721271 
L 204.363936 293.885155 
L 206.037413 293.964486 
L 207.71089 293.671044 
L 208.547629 294.00239 
L 209.384367 293.818093 
L 210.221106 294.079195 
L 211.057844 294.042941 
L 211.894583 293.293284 
L 212.731321 293.494138 
L 213.56806 293.899818 
L 214.404799 294.095063 
L 215.241537 293.982269 
L 216.078276 293.572814 
L 216.915014 294.075274 
L 219.42523 294.116902 
L 220.261968 294.085864 
L 221.098707 294.218492 
L 222.772184 293.905012 
L 223.608922 294.068088 
L 225.282399 293.94609 
L 226.119138 294.16212 
L 226.955876 294.018393 
L 227.792615 294.258113 
L 229.466092 293.965978 
L 230.30283 294.196816 
L 231.139569 294.246447 
L 232.813046 294.199962 
L 233.649784 293.067032 
L 234.486523 293.96722 
L 235.323261 294.316722 
L 237.833477 294.182261 
L 238.670216 294.346307 
L 240.343693 294.36987 
L 244.527385 294.256272 
L 245.364124 294.10481 
L 246.200862 294.341995 
L 247.874339 294.344206 
L 248.711078 294.18243 
L 249.547816 293.482846 
L 250.384555 293.421315 
L 251.221293 294.37961 
L 252.058032 294.502973 
L 256.241724 294.486687 
L 257.078463 294.264666 
L 257.915201 294.507422 
L 258.75194 294.39666 
L 259.588679 294.50755 
L 262.098894 294.332059 
L 262.935633 294.470573 
L 263.772371 294.495797 
L 264.60911 294.30511 
L 266.282587 294.562245 
L 267.119325 294.535934 
L 268.792802 294.174972 
L 269.629541 294.455207 
L 271.303018 294.361104 
L 272.139756 294.490909 
L 272.976495 294.242974 
L 273.813233 294.486708 
L 277.160187 294.627455 
L 277.996926 294.36058 
L 278.833664 294.270282 
L 279.670403 294.601038 
L 280.507142 294.582601 
L 281.34388 294.690253 
L 282.180619 294.506694 
L 283.854096 294.668766 
L 284.690834 294.328965 
L 285.527573 294.299102 
L 286.364311 294.6511 
L 287.20105 294.501319 
L 288.037788 294.693344 
L 288.874527 294.69338 
L 289.711265 294.545361 
L 290.548004 294.693639 
L 291.384742 294.688967 
L 292.221481 294.340266 
L 293.058219 294.561051 
L 296.405173 294.660762 
L 297.241912 293.998213 
L 298.07865 293.009158 
L 298.915389 294.563512 
L 299.752127 294.770816 
L 301.425604 294.81725 
L 302.262343 294.309095 
L 303.099082 294.291644 
L 303.93582 294.82156 
L 305.609297 294.923274 
L 306.446036 294.641302 
L 308.119513 294.799053 
L 313.976682 294.73112 
L 314.813421 294.702352 
L 315.650159 294.906589 
L 316.486898 294.918681 
L 317.323636 294.598129 
L 318.160375 292.001612 
L 318.997113 293.736063 
L 319.833852 294.862724 
L 322.344067 294.995324 
L 325.691022 294.953345 
L 329.037976 294.826488 
L 329.874714 294.633149 
L 330.711453 294.2627 
L 331.548191 294.914316 
L 333.221668 294.941708 
L 334.895145 294.812634 
L 335.731884 294.411649 
L 336.568622 294.940981 
L 337.405361 295.008023 
L 338.242099 294.960411 
L 339.078838 295.073163 
L 339.915576 294.946848 
L 340.752315 295.038023 
L 341.589053 294.852576 
L 343.26253 295.009071 
L 344.936007 294.756777 
L 345.772746 294.848657 
L 346.609485 294.727493 
L 347.446223 294.961917 
L 348.282962 294.751725 
L 349.956439 295.02287 
L 350.793177 294.917368 
L 354.140131 295.012256 
L 354.97687 294.857323 
L 355.813608 294.285635 
L 356.650347 294.943288 
L 357.487085 294.490368 
L 358.323824 295.014857 
L 359.160562 294.943538 
L 361.670778 295.120585 
L 362.507516 295.043792 
L 364.180993 295.134058 
L 369.201425 294.90109 
L 370.038163 295.116247 
L 371.71164 295.168958 
L 372.548379 294.70515 
L 373.385117 294.446096 
L 374.221856 294.91718 
L 375.058594 293.897901 
L 375.895333 295.026245 
L 376.732071 295.163941 
L 378.405548 295.157707 
L 380.079025 295.262692 
L 384.262718 295.015071 
L 385.936195 295.176092 
L 386.772933 295.1147 
L 388.44641 295.213015 
L 389.283149 295.170335 
L 390.119888 294.913323 
L 392.630103 295.128387 
L 395.140319 295.190713 
L 395.977057 294.948983 
L 396.813796 295.216137 
L 397.650534 294.691703 
L 398.487273 294.685557 
L 398.487273 294.685557 
" style="fill:none;stroke:#1f77b4;stroke-linecap:square;stroke-width:1.5;"/>
   </g>
   <g id="line2d_17">
    <path clip-path="url(#p9eb224c0fc)" d="M 73.832727 219.380375 
L 74.669466 245.767488 
L 75.506204 260.014876 
L 76.342943 267.060391 
L 77.179681 271.163062 
L 78.01642 274.67319 
L 78.853158 277.025193 
L 80.526635 279.610454 
L 81.363374 281.770768 
L 82.200112 282.637904 
L 83.87359 283.676424 
L 85.547067 285.684193 
L 86.383805 286.222401 
L 87.220544 286.114844 
L 88.057282 286.478186 
L 88.894021 287.416573 
L 89.730759 286.903464 
L 90.567498 287.863752 
L 91.404236 288.247388 
L 92.240975 286.796535 
L 93.077713 288.600213 
L 93.914452 288.439375 
L 94.75119 288.511179 
L 96.424667 289.137483 
L 97.261406 289.640369 
L 98.934883 289.72475 
L 100.60836 289.339628 
L 101.445098 290.048834 
L 103.118575 290.586457 
L 105.628791 290.804022 
L 106.46553 291.030069 
L 108.139007 290.955825 
L 108.975745 290.641011 
L 109.812484 289.402477 
L 110.649222 291.431483 
L 111.485961 291.284997 
L 112.322699 291.461333 
L 113.159438 291.355153 
L 113.996176 291.712037 
L 114.832915 291.687746 
L 115.669653 291.500523 
L 116.506392 291.981559 
L 118.179869 292.016838 
L 119.016607 291.79235 
L 119.853346 291.812115 
L 120.690084 290.81264 
L 121.526823 289.518768 
L 122.363561 292.209309 
L 125.710515 292.383076 
L 126.547254 292.364912 
L 127.383993 292.553927 
L 128.220731 292.325093 
L 129.05747 292.408822 
L 129.894208 292.29038 
L 131.567685 292.629389 
L 132.404424 292.381538 
L 133.241162 292.968787 
L 134.914639 292.78335 
L 135.751378 292.945652 
L 136.588116 292.961079 
L 137.424855 292.783944 
L 138.261593 293.101984 
L 139.93507 292.273781 
L 140.771809 292.777325 
L 141.608547 292.518623 
L 144.118763 293.310262 
L 144.955501 293.054494 
L 145.79224 293.353107 
L 146.628978 293.032771 
L 147.465717 292.847537 
L 148.302455 293.346942 
L 149.139194 293.029654 
L 150.812671 293.363486 
L 151.64941 293.174256 
L 152.486148 293.222496 
L 153.322887 292.940548 
L 154.159625 293.370114 
L 154.996364 292.982818 
L 156.669841 293.602138 
L 157.506579 293.488679 
L 159.180056 293.671348 
L 160.016795 293.408117 
L 160.853533 293.781661 
L 162.52701 293.630484 
L 165.037226 293.598223 
L 165.873964 293.498974 
L 166.710703 293.801162 
L 167.547441 293.781689 
L 168.38418 293.234069 
L 169.220918 293.437613 
L 170.057657 293.857643 
L 171.731134 293.985889 
L 174.24135 293.829471 
L 175.078088 293.989385 
L 175.914827 293.956708 
L 176.751565 294.050871 
L 177.588304 293.586169 
L 178.425042 293.717717 
L 179.261781 294.119423 
L 182.608735 293.927887 
L 183.445473 294.161084 
L 184.282212 293.731615 
L 185.11895 293.967318 
L 185.955689 293.888034 
L 186.792427 294.001831 
L 187.629166 294.246353 
L 188.465904 293.325334 
L 189.302643 293.46616 
L 191.812858 294.326851 
L 192.649597 294.241014 
L 194.323074 294.324563 
L 195.996551 294.292662 
L 196.83329 294.099474 
L 197.670028 294.370385 
L 198.506767 294.226389 
L 199.343505 294.242906 
L 200.180244 293.702372 
L 201.016982 294.431645 
L 203.527198 294.122698 
L 205.200675 294.321586 
L 206.037413 294.364028 
L 206.874152 293.856673 
L 207.71089 294.314261 
L 208.547629 294.168926 
L 209.384367 294.475383 
L 210.221106 294.521352 
L 211.057844 293.859777 
L 211.894583 291.823381 
L 212.731321 294.521501 
L 213.56806 294.494016 
L 214.404799 294.279303 
L 215.241537 293.649244 
L 216.078276 294.462559 
L 217.751753 294.523698 
L 218.588491 294.577409 
L 219.42523 293.997499 
L 220.261968 294.48758 
L 224.445661 294.376291 
L 225.282399 294.508546 
L 226.119138 294.433026 
L 226.955876 294.663677 
L 227.792615 294.554874 
L 228.629353 293.937205 
L 229.466092 294.663367 
L 231.139569 294.301726 
L 231.976307 294.655866 
L 232.813046 294.326856 
L 233.649784 293.165831 
L 234.486523 294.778263 
L 236.16 294.547479 
L 238.670216 294.637405 
L 239.506954 294.791139 
L 240.343693 294.664033 
L 241.180431 294.736481 
L 242.01717 294.598302 
L 243.690647 294.748666 
L 245.364124 294.563239 
L 246.200862 294.797049 
L 247.037601 294.881555 
L 247.874339 294.710106 
L 249.547816 294.191888 
L 250.384555 294.544554 
L 252.058032 294.86845 
L 255.404986 294.846787 
L 256.241724 294.571772 
L 257.078463 294.8013 
L 260.425417 294.807189 
L 261.262156 294.182718 
L 262.098894 294.859897 
L 262.935633 294.685026 
L 263.772371 294.809709 
L 264.60911 294.238554 
L 265.445848 294.713063 
L 266.282587 294.924641 
L 267.119325 294.814243 
L 267.956064 294.358236 
L 270.466279 294.805279 
L 271.303018 294.891197 
L 272.139756 294.712013 
L 272.976495 294.954464 
L 273.813233 295.030298 
L 277.160187 294.884319 
L 277.996926 293.868643 
L 278.833664 294.936589 
L 279.670403 294.846438 
L 280.507142 295.006068 
L 281.34388 294.955329 
L 282.180619 294.680104 
L 283.017357 294.962689 
L 283.854096 294.519491 
L 284.690834 294.857887 
L 287.20105 294.943201 
L 288.037788 295.060489 
L 288.874527 294.900782 
L 289.711265 295.081621 
L 290.548004 294.887526 
L 291.384742 294.571201 
L 292.221481 294.435934 
L 293.058219 294.446772 
L 293.894958 294.962805 
L 295.568435 295.009418 
L 296.405173 295.11272 
L 297.241912 288.526348 
L 298.07865 294.871387 
L 298.915389 295.045532 
L 300.588866 295.105786 
L 301.425604 294.724141 
L 302.262343 293.801809 
L 303.099082 295.04574 
L 304.772559 295.229147 
L 305.609297 294.523828 
L 306.446036 295.083461 
L 308.119513 295.125496 
L 308.956251 295.042677 
L 312.303205 295.146817 
L 313.139944 294.582369 
L 313.976682 294.7358 
L 314.813421 295.133037 
L 315.650159 295.140959 
L 316.486898 294.940899 
L 317.323636 295.041944 
L 318.160375 289.885793 
L 318.997113 295.045876 
L 319.833852 295.255696 
L 321.507329 295.268756 
L 323.180806 295.257255 
L 324.017545 295.184215 
L 325.691022 295.314157 
L 326.52776 295.185013 
L 327.364499 295.309945 
L 329.037976 294.963112 
L 329.874714 292.791852 
L 330.711453 295.019849 
L 332.38493 295.228928 
L 333.221668 295.14899 
L 334.058407 295.201595 
L 334.895145 294.30361 
L 335.731884 295.101152 
L 338.242099 295.327302 
L 340.752315 295.044413 
L 341.589053 295.142834 
L 342.425792 295.364431 
L 343.26253 295.277512 
L 344.099269 294.513605 
L 344.936007 294.986871 
L 345.772746 294.846966 
L 346.609485 295.236353 
L 347.446223 294.978584 
L 348.282962 294.933137 
L 349.1197 295.263414 
L 349.956439 295.11041 
L 351.629916 295.225757 
L 354.140131 295.249854 
L 354.97687 295.008121 
L 355.813608 294.919888 
L 356.650347 293.36046 
L 357.487085 295.257177 
L 359.160562 295.221742 
L 359.997301 295.411796 
L 360.834039 295.343203 
L 361.670778 295.155752 
L 362.507516 295.338298 
L 363.344255 295.044774 
L 364.180993 295.463302 
L 365.017732 295.324052 
L 370.038163 295.393963 
L 370.874902 295.471215 
L 371.71164 295.353309 
L 372.548379 293.101543 
L 373.385117 294.923177 
L 374.221856 292.086736 
L 375.058594 295.182715 
L 375.895333 295.397776 
L 376.732071 295.385769 
L 377.56881 295.488 
L 383.425979 295.299345 
L 384.262718 295.156722 
L 385.099456 295.458126 
L 388.44641 295.381216 
L 389.283149 295.125699 
L 390.119888 295.291312 
L 391.793365 295.398287 
L 392.630103 295.145256 
L 393.466842 295.432264 
L 394.30358 295.481912 
L 395.140319 294.393234 
L 395.977057 295.348588 
L 396.813796 295.332374 
L 397.650534 294.472994 
L 398.487273 295.156698 
L 398.487273 295.156698 
" style="fill:none;stroke:#ff7f0e;stroke-linecap:square;stroke-width:1.5;"/>
   </g>
   <g id="patch_3">
    <path d="M 57.6 307.584 
L 57.6 41.472 
" style="fill:none;stroke:#000000;stroke-linecap:square;stroke-linejoin:miter;stroke-width:0.8;"/>
   </g>
   <g id="patch_4">
    <path d="M 414.72 307.584 
L 414.72 41.472 
" style="fill:none;stroke:#000000;stroke-linecap:square;stroke-linejoin:miter;stroke-width:0.8;"/>
   </g>
   <g id="patch_5">
    <path d="M 57.6 307.584 
L 414.72 307.584 
" style="fill:none;stroke:#000000;stroke-linecap:square;stroke-linejoin:miter;stroke-width:0.8;"/>
   </g>
   <g id="patch_6">
    <path d="M 57.6 41.472 
L 414.72 41.472 
" style="fill:none;stroke:#000000;stroke-linecap:square;stroke-linejoin:miter;stroke-width:0.8;"/>
   </g>
   <g id="text_17">
    <!-- Pretrain loss -->
    <g transform="translate(199.1625 35.472)scale(0.12 -0.12)">
     <defs>
      <path d="M 19.671875 64.796875 
L 19.671875 37.40625 
L 32.078125 37.40625 
Q 38.96875 37.40625 42.71875 40.96875 
Q 46.484375 44.53125 46.484375 51.125 
Q 46.484375 57.671875 42.71875 61.234375 
Q 38.96875 64.796875 32.078125 64.796875 
z
M 9.8125 72.90625 
L 32.078125 72.90625 
Q 44.34375 72.90625 50.609375 67.359375 
Q 56.890625 61.8125 56.890625 51.125 
Q 56.890625 40.328125 50.609375 34.8125 
Q 44.34375 29.296875 32.078125 29.296875 
L 19.671875 29.296875 
L 19.671875 0 
L 9.8125 0 
z
" id="DejaVuSans-80"/>
      <path d="M 41.109375 46.296875 
Q 39.59375 47.171875 37.8125 47.578125 
Q 36.03125 48 33.890625 48 
Q 26.265625 48 22.1875 43.046875 
Q 18.109375 38.09375 18.109375 28.8125 
L 18.109375 0 
L 9.078125 0 
L 9.078125 54.6875 
L 18.109375 54.6875 
L 18.109375 46.1875 
Q 20.953125 51.171875 25.484375 53.578125 
Q 30.03125 56 36.53125 56 
Q 37.453125 56 38.578125 55.875 
Q 39.703125 55.765625 41.0625 55.515625 
z
" id="DejaVuSans-114"/>
      <path d="M 56.203125 29.59375 
L 56.203125 25.203125 
L 14.890625 25.203125 
Q 15.484375 15.921875 20.484375 11.0625 
Q 25.484375 6.203125 34.421875 6.203125 
Q 39.59375 6.203125 44.453125 7.46875 
Q 49.3125 8.734375 54.109375 11.28125 
L 54.109375 2.78125 
Q 49.265625 0.734375 44.1875 -0.34375 
Q 39.109375 -1.421875 33.890625 -1.421875 
Q 20.796875 -1.421875 13.15625 6.1875 
Q 5.515625 13.8125 5.515625 26.8125 
Q 5.515625 40.234375 12.765625 48.109375 
Q 20.015625 56 32.328125 56 
Q 43.359375 56 49.78125 48.890625 
Q 56.203125 41.796875 56.203125 29.59375 
z
M 47.21875 32.234375 
Q 47.125 39.59375 43.09375 43.984375 
Q 39.0625 48.390625 32.421875 48.390625 
Q 24.90625 48.390625 20.390625 44.140625 
Q 15.875 39.890625 15.1875 32.171875 
z
" id="DejaVuSans-101"/>
      <path d="M 18.3125 70.21875 
L 18.3125 54.6875 
L 36.8125 54.6875 
L 36.8125 47.703125 
L 18.3125 47.703125 
L 18.3125 18.015625 
Q 18.3125 11.328125 20.140625 9.421875 
Q 21.96875 7.515625 27.59375 7.515625 
L 36.8125 7.515625 
L 36.8125 0 
L 27.59375 0 
Q 17.1875 0 13.234375 3.875 
Q 9.28125 7.765625 9.28125 18.015625 
L 9.28125 47.703125 
L 2.6875 47.703125 
L 2.6875 54.6875 
L 9.28125 54.6875 
L 9.28125 70.21875 
z
" id="DejaVuSans-116"/>
      <path d="M 34.28125 27.484375 
Q 23.390625 27.484375 19.1875 25 
Q 14.984375 22.515625 14.984375 16.5 
Q 14.984375 11.71875 18.140625 8.90625 
Q 21.296875 6.109375 26.703125 6.109375 
Q 34.1875 6.109375 38.703125 11.40625 
Q 43.21875 16.703125 43.21875 25.484375 
L 43.21875 27.484375 
z
M 52.203125 31.203125 
L 52.203125 0 
L 43.21875 0 
L 43.21875 8.296875 
Q 40.140625 3.328125 35.546875 0.953125 
Q 30.953125 -1.421875 24.3125 -1.421875 
Q 15.921875 -1.421875 10.953125 3.296875 
Q 6 8.015625 6 15.921875 
Q 6 25.140625 12.171875 29.828125 
Q 18.359375 34.515625 30.609375 34.515625 
L 43.21875 34.515625 
L 43.21875 35.40625 
Q 43.21875 41.609375 39.140625 45 
Q 35.0625 48.390625 27.6875 48.390625 
Q 23 48.390625 18.546875 47.265625 
Q 14.109375 46.140625 10.015625 43.890625 
L 10.015625 52.203125 
Q 14.9375 54.109375 19.578125 55.046875 
Q 24.21875 56 28.609375 56 
Q 40.484375 56 46.34375 49.84375 
Q 52.203125 43.703125 52.203125 31.203125 
z
" id="DejaVuSans-97"/>
      <path d="M 9.421875 54.6875 
L 18.40625 54.6875 
L 18.40625 0 
L 9.421875 0 
z
M 9.421875 75.984375 
L 18.40625 75.984375 
L 18.40625 64.59375 
L 9.421875 64.59375 
z
" id="DejaVuSans-105"/>
      <path d="M 54.890625 33.015625 
L 54.890625 0 
L 45.90625 0 
L 45.90625 32.71875 
Q 45.90625 40.484375 42.875 44.328125 
Q 39.84375 48.1875 33.796875 48.1875 
Q 26.515625 48.1875 22.3125 43.546875 
Q 18.109375 38.921875 18.109375 30.90625 
L 18.109375 0 
L 9.078125 0 
L 9.078125 54.6875 
L 18.109375 54.6875 
L 18.109375 46.1875 
Q 21.34375 51.125 25.703125 53.5625 
Q 30.078125 56 35.796875 56 
Q 45.21875 56 50.046875 50.171875 
Q 54.890625 44.34375 54.890625 33.015625 
z
" id="DejaVuSans-110"/>
      <path id="DejaVuSans-32"/>
      <path d="M 9.421875 75.984375 
L 18.40625 75.984375 
L 18.40625 0 
L 9.421875 0 
z
" id="DejaVuSans-108"/>
      <path d="M 44.28125 53.078125 
L 44.28125 44.578125 
Q 40.484375 46.53125 36.375 47.5 
Q 32.28125 48.484375 27.875 48.484375 
Q 21.1875 48.484375 17.84375 46.4375 
Q 14.5 44.390625 14.5 40.28125 
Q 14.5 37.15625 16.890625 35.375 
Q 19.28125 33.59375 26.515625 31.984375 
L 29.59375 31.296875 
Q 39.15625 29.25 43.1875 25.515625 
Q 47.21875 21.78125 47.21875 15.09375 
Q 47.21875 7.46875 41.1875 3.015625 
Q 35.15625 -1.421875 24.609375 -1.421875 
Q 20.21875 -1.421875 15.453125 -0.5625 
Q 10.6875 0.296875 5.421875 2 
L 5.421875 11.28125 
Q 10.40625 8.6875 15.234375 7.390625 
Q 20.0625 6.109375 24.8125 6.109375 
Q 31.15625 6.109375 34.5625 8.28125 
Q 37.984375 10.453125 37.984375 14.40625 
Q 37.984375 18.0625 35.515625 20.015625 
Q 33.0625 21.96875 24.703125 23.78125 
L 21.578125 24.515625 
Q 13.234375 26.265625 9.515625 29.90625 
Q 5.8125 33.546875 5.8125 39.890625 
Q 5.8125 47.609375 11.28125 51.796875 
Q 16.75 56 26.8125 56 
Q 31.78125 56 36.171875 55.265625 
Q 40.578125 54.546875 44.28125 53.078125 
z
" id="DejaVuSans-115"/>
     </defs>
     <use xlink:href="#DejaVuSans-80"/>
     <use x="58.552734" xlink:href="#DejaVuSans-114"/>
     <use x="97.416016" xlink:href="#DejaVuSans-101"/>
     <use x="158.939453" xlink:href="#DejaVuSans-116"/>
     <use x="198.148438" xlink:href="#DejaVuSans-114"/>
     <use x="239.261719" xlink:href="#DejaVuSans-97"/>
     <use x="300.541016" xlink:href="#DejaVuSans-105"/>
     <use x="328.324219" xlink:href="#DejaVuSans-110"/>
     <use x="391.703125" xlink:href="#DejaVuSans-32"/>
     <use x="423.490234" xlink:href="#DejaVuSans-108"/>
     <use x="451.273438" xlink:href="#DejaVuSans-111"/>
     <use x="512.455078" xlink:href="#DejaVuSans-115"/>
     <use x="564.554688" xlink:href="#DejaVuSans-115"/>
    </g>
   </g>
   <g id="legend_1">
    <g id="patch_7">
     <path d="M 303.845 78.82825 
L 407.72 78.82825 
Q 409.72 78.82825 409.72 76.82825 
L 409.72 48.472 
Q 409.72 46.472 407.72 46.472 
L 303.845 46.472 
Q 301.845 46.472 301.845 48.472 
L 301.845 76.82825 
Q 301.845 78.82825 303.845 78.82825 
z
" style="fill:#ffffff;opacity:0.8;stroke:#cccccc;stroke-linejoin:miter;"/>
    </g>
    <g id="line2d_18">
     <path d="M 305.845 54.570437 
L 325.845 54.570437 
" style="fill:none;stroke:#1f77b4;stroke-linecap:square;stroke-width:1.5;"/>
    </g>
    <g id="line2d_19"/>
    <g id="text_18">
     <!-- Training loss -->
     <g transform="translate(333.845 58.070437)scale(0.1 -0.1)">
      <defs>
       <path d="M -0.296875 72.90625 
L 61.375 72.90625 
L 61.375 64.59375 
L 35.5 64.59375 
L 35.5 0 
L 25.59375 0 
L 25.59375 64.59375 
L -0.296875 64.59375 
z
" id="DejaVuSans-84"/>
       <path d="M 45.40625 27.984375 
Q 45.40625 37.75 41.375 43.109375 
Q 37.359375 48.484375 30.078125 48.484375 
Q 22.859375 48.484375 18.828125 43.109375 
Q 14.796875 37.75 14.796875 27.984375 
Q 14.796875 18.265625 18.828125 12.890625 
Q 22.859375 7.515625 30.078125 7.515625 
Q 37.359375 7.515625 41.375 12.890625 
Q 45.40625 18.265625 45.40625 27.984375 
z
M 54.390625 6.78125 
Q 54.390625 -7.171875 48.1875 -13.984375 
Q 42 -20.796875 29.203125 -20.796875 
Q 24.46875 -20.796875 20.265625 -20.09375 
Q 16.0625 -19.390625 12.109375 -17.921875 
L 12.109375 -9.1875 
Q 16.0625 -11.328125 19.921875 -12.34375 
Q 23.78125 -13.375 27.78125 -13.375 
Q 36.625 -13.375 41.015625 -8.765625 
Q 45.40625 -4.15625 45.40625 5.171875 
L 45.40625 9.625 
Q 42.625 4.78125 38.28125 2.390625 
Q 33.9375 0 27.875 0 
Q 17.828125 0 11.671875 7.65625 
Q 5.515625 15.328125 5.515625 27.984375 
Q 5.515625 40.671875 11.671875 48.328125 
Q 17.828125 56 27.875 56 
Q 33.9375 56 38.28125 53.609375 
Q 42.625 51.21875 45.40625 46.390625 
L 45.40625 54.6875 
L 54.390625 54.6875 
z
" id="DejaVuSans-103"/>
      </defs>
      <use xlink:href="#DejaVuSans-84"/>
      <use x="46.333984" xlink:href="#DejaVuSans-114"/>
      <use x="87.447266" xlink:href="#DejaVuSans-97"/>
      <use x="148.726562" xlink:href="#DejaVuSans-105"/>
      <use x="176.509766" xlink:href="#DejaVuSans-110"/>
      <use x="239.888672" xlink:href="#DejaVuSans-105"/>
      <use x="267.671875" xlink:href="#DejaVuSans-110"/>
      <use x="331.050781" xlink:href="#DejaVuSans-103"/>
      <use x="394.527344" xlink:href="#DejaVuSans-32"/>
      <use x="426.314453" xlink:href="#DejaVuSans-108"/>
      <use x="454.097656" xlink:href="#DejaVuSans-111"/>
      <use x="515.279297" xlink:href="#DejaVuSans-115"/>
      <use x="567.378906" xlink:href="#DejaVuSans-115"/>
     </g>
    </g>
    <g id="line2d_20">
     <path d="M 305.845 69.248562 
L 325.845 69.248562 
" style="fill:none;stroke:#ff7f0e;stroke-linecap:square;stroke-width:1.5;"/>
    </g>
    <g id="line2d_21"/>
    <g id="text_19">
     <!-- Validation loss -->
     <g transform="translate(333.845 72.748562)scale(0.1 -0.1)">
      <defs>
       <path d="M 28.609375 0 
L 0.78125 72.90625 
L 11.078125 72.90625 
L 34.1875 11.53125 
L 57.328125 72.90625 
L 67.578125 72.90625 
L 39.796875 0 
z
" id="DejaVuSans-86"/>
       <path d="M 45.40625 46.390625 
L 45.40625 75.984375 
L 54.390625 75.984375 
L 54.390625 0 
L 45.40625 0 
L 45.40625 8.203125 
Q 42.578125 3.328125 38.25 0.953125 
Q 33.9375 -1.421875 27.875 -1.421875 
Q 17.96875 -1.421875 11.734375 6.484375 
Q 5.515625 14.40625 5.515625 27.296875 
Q 5.515625 40.1875 11.734375 48.09375 
Q 17.96875 56 27.875 56 
Q 33.9375 56 38.25 53.625 
Q 42.578125 51.265625 45.40625 46.390625 
z
M 14.796875 27.296875 
Q 14.796875 17.390625 18.875 11.75 
Q 22.953125 6.109375 30.078125 6.109375 
Q 37.203125 6.109375 41.296875 11.75 
Q 45.40625 17.390625 45.40625 27.296875 
Q 45.40625 37.203125 41.296875 42.84375 
Q 37.203125 48.484375 30.078125 48.484375 
Q 22.953125 48.484375 18.875 42.84375 
Q 14.796875 37.203125 14.796875 27.296875 
z
" id="DejaVuSans-100"/>
      </defs>
      <use xlink:href="#DejaVuSans-86"/>
      <use x="60.658203" xlink:href="#DejaVuSans-97"/>
      <use x="121.9375" xlink:href="#DejaVuSans-108"/>
      <use x="149.720703" xlink:href="#DejaVuSans-105"/>
      <use x="177.503906" xlink:href="#DejaVuSans-100"/>
      <use x="240.980469" xlink:href="#DejaVuSans-97"/>
      <use x="302.259766" xlink:href="#DejaVuSans-116"/>
      <use x="341.46875" xlink:href="#DejaVuSans-105"/>
      <use x="369.251953" xlink:href="#DejaVuSans-111"/>
      <use x="430.433594" xlink:href="#DejaVuSans-110"/>
      <use x="493.8125" xlink:href="#DejaVuSans-32"/>
      <use x="525.599609" xlink:href="#DejaVuSans-108"/>
      <use x="553.382812" xlink:href="#DejaVuSans-111"/>
      <use x="614.564453" xlink:href="#DejaVuSans-115"/>
      <use x="666.664062" xlink:href="#DejaVuSans-115"/>
     </g>
    </g>
   </g>
  </g>
 </g>
 <defs>
  <clipPath id="p9eb224c0fc">
   <rect height="266.112" width="357.12" x="57.6" y="41.472"/>
  </clipPath>
 </defs>
</svg>
