<?xml version="1.0" encoding="utf-8" standalone="no"?>
<!DOCTYPE svg PUBLIC "-//W3C//DTD SVG 1.1//EN"
  "http://www.w3.org/Graphics/SVG/1.1/DTD/svg11.dtd">
<!-- Created with matplotlib (https://matplotlib.org/) -->
<svg height="345.6pt" version="1.1" viewBox="0 0 460.8 345.6" width="460.8pt" xmlns="http://www.w3.org/2000/svg" xmlns:xlink="http://www.w3.org/1999/xlink">
 <metadata>
  <rdf:RDF xmlns:cc="http://creativecommons.org/ns#" xmlns:dc="http://purl.org/dc/elements/1.1/" xmlns:rdf="http://www.w3.org/1999/02/22-rdf-syntax-ns#">
   <cc:Work>
    <dc:type rdf:resource="http://purl.org/dc/dcmitype/StillImage"/>
    <dc:date>2021-07-08T21:05:16.766774</dc:date>
    <dc:format>image/svg+xml</dc:format>
    <dc:creator>
     <cc:Agent>
      <dc:title>Matplotlib v3.3.3, https://matplotlib.org/</dc:title>
     </cc:Agent>
    </dc:creator>
   </cc:Work>
  </rdf:RDF>
 </metadata>
 <defs>
  <style type="text/css">*{stroke-linecap:butt;stroke-linejoin:round;}</style>
 </defs>
 <g id="figure_1">
  <g id="patch_1">
   <path d="M 0 345.6 
L 460.8 345.6 
L 460.8 0 
L 0 0 
z
" style="fill:#ffffff;"/>
  </g>
  <g id="axes_1">
   <g id="patch_2">
    <path d="M 57.6 307.584 
L 414.72 307.584 
L 414.72 41.472 
L 57.6 41.472 
z
" style="fill:#ffffff;"/>
   </g>
   <g id="PathCollection_1">
    <defs>
     <path d="M 0 2.236068 
C 0.593012 2.236068 1.161816 2.000462 1.581139 1.581139 
C 2.000462 1.161816 2.236068 0.593012 2.236068 -0 
C 2.236068 -0.593012 2.000462 -1.161816 1.581139 -1.581139 
C 1.161816 -2.000462 0.593012 -2.236068 0 -2.236068 
C -0.593012 -2.236068 -1.161816 -2.000462 -1.581139 -1.581139 
C -2.000462 -1.161816 -2.236068 -0.593012 -2.236068 0 
C -2.236068 0.593012 -2.000462 1.161816 -1.581139 1.581139 
C -1.161816 2.000462 -0.593012 2.236068 0 2.236068 
z
" id="C0_0_23b2032864"/>
    </defs>
    <g clip-path="url(#p08e607310b)">
     <use style="fill:#fe0100;stroke:#fe0100;" x="73.832727" xlink:href="#C0_0_23b2032864" y="166.385166"/>
    </g>
    <g clip-path="url(#p08e607310b)">
     <use style="fill:#fe0100;stroke:#fe0100;" x="79.263037" xlink:href="#C0_0_23b2032864" y="169.046488"/>
    </g>
    <g clip-path="url(#p08e607310b)">
     <use style="fill:#fe0100;stroke:#fe0100;" x="82.553765" xlink:href="#C0_0_23b2032864" y="169.424043"/>
    </g>
    <g clip-path="url(#p08e607310b)">
     <use style="fill:#fe0100;stroke:#fe0100;" x="110.692611" xlink:href="#C0_0_23b2032864" y="173.031601"/>
    </g>
    <g clip-path="url(#p08e607310b)">
     <use style="fill:#fe0100;stroke:#fe0100;" x="112.802932" xlink:href="#C0_0_23b2032864" y="173.661215"/>
    </g>
    <g clip-path="url(#p08e607310b)">
     <use style="fill:#fe0100;stroke:#fe0100;" x="120.521358" xlink:href="#C0_0_23b2032864" y="177.613773"/>
    </g>
    <g clip-path="url(#p08e607310b)">
     <use style="fill:#fe0100;stroke:#fe0100;" x="124.833174" xlink:href="#C0_0_23b2032864" y="178.320739"/>
    </g>
    <g clip-path="url(#p08e607310b)">
     <use style="fill:#fe0100;stroke:#fe0100;" x="128.037094" xlink:href="#C0_0_23b2032864" y="178.988736"/>
    </g>
    <g clip-path="url(#p08e607310b)">
     <use style="fill:#fe0100;stroke:#fe0100;" x="139.42282" xlink:href="#C0_0_23b2032864" y="182.047456"/>
    </g>
    <g clip-path="url(#p08e607310b)">
     <use style="fill:#fe0100;stroke:#fe0100;" x="204.880897" xlink:href="#C0_0_23b2032864" y="90.043008"/>
    </g>
    <g clip-path="url(#p08e607310b)">
     <use style="fill:#0000ff;stroke:#0000ff;" x="229.886088" xlink:href="#C0_0_23b2032864" y="186.347028"/>
    </g>
    <g clip-path="url(#p08e607310b)">
     <use style="fill:#0000ff;stroke:#0000ff;" x="327.728262" xlink:href="#C0_0_23b2032864" y="137.191053"/>
    </g>
    <g clip-path="url(#p08e607310b)">
     <use style="fill:#fe0100;stroke:#fe0100;" x="220.528483" xlink:href="#C0_0_23b2032864" y="76.728457"/>
    </g>
    <g clip-path="url(#p08e607310b)">
     <use style="fill:#fe0100;stroke:#fe0100;" x="135.176036" xlink:href="#C0_0_23b2032864" y="53.568"/>
    </g>
    <g clip-path="url(#p08e607310b)">
     <use style="fill:#fe0100;stroke:#fe0100;" x="88.317406" xlink:href="#C0_0_23b2032864" y="145.139047"/>
    </g>
    <g clip-path="url(#p08e607310b)">
     <use style="fill:#fe0100;stroke:#fe0100;" x="99.119531" xlink:href="#C0_0_23b2032864" y="149.402073"/>
    </g>
    <g clip-path="url(#p08e607310b)">
     <use style="fill:#fe0100;stroke:#fe0100;" x="99.742918" xlink:href="#C0_0_23b2032864" y="149.407563"/>
    </g>
    <g clip-path="url(#p08e607310b)">
     <use style="fill:#fe0100;stroke:#fe0100;" x="122.624958" xlink:href="#C0_0_23b2032864" y="151.929298"/>
    </g>
    <g clip-path="url(#p08e607310b)">
     <use style="fill:#fe0100;stroke:#fe0100;" x="126.196994" xlink:href="#C0_0_23b2032864" y="152.858282"/>
    </g>
    <g clip-path="url(#p08e607310b)">
     <use style="fill:#fe0100;stroke:#fe0100;" x="129.405404" xlink:href="#C0_0_23b2032864" y="154.862875"/>
    </g>
    <g clip-path="url(#p08e607310b)">
     <use style="fill:#fe0100;stroke:#fe0100;" x="219.392661" xlink:href="#C0_0_23b2032864" y="105.186822"/>
    </g>
    <g clip-path="url(#p08e607310b)">
     <use style="fill:#fe0100;stroke:#fe0100;" x="226.442758" xlink:href="#C0_0_23b2032864" y="111.481943"/>
    </g>
    <g clip-path="url(#p08e607310b)">
     <use style="fill:#0000ff;stroke:#0000ff;" x="241.695941" xlink:href="#C0_0_23b2032864" y="186.23759"/>
    </g>
    <g clip-path="url(#p08e607310b)">
     <use style="fill:#0000ff;stroke:#0000ff;" x="297.896203" xlink:href="#C0_0_23b2032864" y="121.806811"/>
    </g>
    <g clip-path="url(#p08e607310b)">
     <use style="fill:#0000ff;stroke:#0000ff;" x="305.763224" xlink:href="#C0_0_23b2032864" y="122.345966"/>
    </g>
    <g clip-path="url(#p08e607310b)">
     <use style="fill:#0000ff;stroke:#0000ff;" x="309.835582" xlink:href="#C0_0_23b2032864" y="123.202038"/>
    </g>
    <g clip-path="url(#p08e607310b)">
     <use style="fill:#0000ff;stroke:#0000ff;" x="313.533749" xlink:href="#C0_0_23b2032864" y="124.676333"/>
    </g>
    <g clip-path="url(#p08e607310b)">
     <use style="fill:#0000ff;stroke:#0000ff;" x="327.138944" xlink:href="#C0_0_23b2032864" y="146.663494"/>
    </g>
    <g clip-path="url(#p08e607310b)">
     <use style="fill:#00ff00;stroke:#00ff00;" x="348.782013" xlink:href="#C0_0_23b2032864" y="206.103353"/>
    </g>
    <g clip-path="url(#p08e607310b)">
     <use style="fill:#fe0100;stroke:#fe0100;" x="83.069622" xlink:href="#C0_0_23b2032864" y="93.367393"/>
    </g>
    <g clip-path="url(#p08e607310b)">
     <use style="fill:#fe0100;stroke:#fe0100;" x="82.244261" xlink:href="#C0_0_23b2032864" y="95.954614"/>
    </g>
    <g clip-path="url(#p08e607310b)">
     <use style="fill:#fe0100;stroke:#fe0100;" x="81.530107" xlink:href="#C0_0_23b2032864" y="96.787174"/>
    </g>
    <g clip-path="url(#p08e607310b)">
     <use style="fill:#fe0100;stroke:#fe0100;" x="83.928053" xlink:href="#C0_0_23b2032864" y="103.64438"/>
    </g>
    <g clip-path="url(#p08e607310b)">
     <use style="fill:#fe0100;stroke:#fe0100;" x="102.425739" xlink:href="#C0_0_23b2032864" y="118.279699"/>
    </g>
    <g clip-path="url(#p08e607310b)">
     <use style="fill:#fe0100;stroke:#fe0100;" x="114.414351" xlink:href="#C0_0_23b2032864" y="127.994805"/>
    </g>
    <g clip-path="url(#p08e607310b)">
     <use style="fill:#fe0100;stroke:#fe0100;" x="119.714378" xlink:href="#C0_0_23b2032864" y="130.353613"/>
    </g>
    <g clip-path="url(#p08e607310b)">
     <use style="fill:#0000ff;stroke:#0000ff;" x="250.23054" xlink:href="#C0_0_23b2032864" y="106.922675"/>
    </g>
    <g clip-path="url(#p08e607310b)">
     <use style="fill:#0000ff;stroke:#0000ff;" x="262.965747" xlink:href="#C0_0_23b2032864" y="103.381969"/>
    </g>
    <g clip-path="url(#p08e607310b)">
     <use style="fill:#0000ff;stroke:#0000ff;" x="266.049497" xlink:href="#C0_0_23b2032864" y="102.074618"/>
    </g>
    <g clip-path="url(#p08e607310b)">
     <use style="fill:#0000ff;stroke:#0000ff;" x="277.404199" xlink:href="#C0_0_23b2032864" y="98.11526"/>
    </g>
    <g clip-path="url(#p08e607310b)">
     <use style="fill:#0000ff;stroke:#0000ff;" x="328.48227" xlink:href="#C0_0_23b2032864" y="127.437751"/>
    </g>
    <g clip-path="url(#p08e607310b)">
     <use style="fill:#0000ff;stroke:#0000ff;" x="338.744233" xlink:href="#C0_0_23b2032864" y="144.551414"/>
    </g>
    <g clip-path="url(#p08e607310b)">
     <use style="fill:#00ff00;stroke:#00ff00;" x="345.058166" xlink:href="#C0_0_23b2032864" y="162.476725"/>
    </g>
    <g clip-path="url(#p08e607310b)">
     <use style="fill:#00ff00;stroke:#00ff00;" x="354.345981" xlink:href="#C0_0_23b2032864" y="187.894155"/>
    </g>
    <g clip-path="url(#p08e607310b)">
     <use style="fill:#fe0100;stroke:#fe0100;" x="145.998814" xlink:href="#C0_0_23b2032864" y="125.968628"/>
    </g>
    <g clip-path="url(#p08e607310b)">
     <use style="fill:#fe0100;stroke:#fe0100;" x="143.036404" xlink:href="#C0_0_23b2032864" y="128.60199"/>
    </g>
    <g clip-path="url(#p08e607310b)">
     <use style="fill:#fe0100;stroke:#fe0100;" x="146.44672" xlink:href="#C0_0_23b2032864" y="144.683033"/>
    </g>
    <g clip-path="url(#p08e607310b)">
     <use style="fill:#fe0100;stroke:#fe0100;" x="146.944045" xlink:href="#C0_0_23b2032864" y="145.93758"/>
    </g>
    <g clip-path="url(#p08e607310b)">
     <use style="fill:#fe0100;stroke:#fe0100;" x="148.478498" xlink:href="#C0_0_23b2032864" y="147.209813"/>
    </g>
    <g clip-path="url(#p08e607310b)">
     <use style="fill:#fe0100;stroke:#fe0100;" x="150.102533" xlink:href="#C0_0_23b2032864" y="153.638479"/>
    </g>
    <g clip-path="url(#p08e607310b)">
     <use style="fill:#fe0100;stroke:#fe0100;" x="154.841271" xlink:href="#C0_0_23b2032864" y="161.085428"/>
    </g>
    <g clip-path="url(#p08e607310b)">
     <use style="fill:#fe0100;stroke:#fe0100;" x="165.83194" xlink:href="#C0_0_23b2032864" y="163.752094"/>
    </g>
    <g clip-path="url(#p08e607310b)">
     <use style="fill:#fe0100;stroke:#fe0100;" x="171.273118" xlink:href="#C0_0_23b2032864" y="164.761926"/>
    </g>
    <g clip-path="url(#p08e607310b)">
     <use style="fill:#fe0100;stroke:#fe0100;" x="206.975022" xlink:href="#C0_0_23b2032864" y="152.302028"/>
    </g>
    <g clip-path="url(#p08e607310b)">
     <use style="fill:#fe0100;stroke:#fe0100;" x="212.907006" xlink:href="#C0_0_23b2032864" y="156.363518"/>
    </g>
    <g clip-path="url(#p08e607310b)">
     <use style="fill:#fe0100;stroke:#fe0100;" x="219.4236" xlink:href="#C0_0_23b2032864" y="160.795774"/>
    </g>
    <g clip-path="url(#p08e607310b)">
     <use style="fill:#0000ff;stroke:#0000ff;" x="235.945952" xlink:href="#C0_0_23b2032864" y="173.677884"/>
    </g>
    <g clip-path="url(#p08e607310b)">
     <use style="fill:#0000ff;stroke:#0000ff;" x="239.559271" xlink:href="#C0_0_23b2032864" y="173.540822"/>
    </g>
    <g clip-path="url(#p08e607310b)">
     <use style="fill:#0000ff;stroke:#0000ff;" x="290.4155" xlink:href="#C0_0_23b2032864" y="135.139405"/>
    </g>
    <g clip-path="url(#p08e607310b)">
     <use style="fill:#00ff00;stroke:#00ff00;" x="306.965083" xlink:href="#C0_0_23b2032864" y="213.287528"/>
    </g>
    <g clip-path="url(#p08e607310b)">
     <use style="fill:#00ff00;stroke:#00ff00;" x="310.355964" xlink:href="#C0_0_23b2032864" y="215.026228"/>
    </g>
    <g clip-path="url(#p08e607310b)">
     <use style="fill:#fe0100;stroke:#fe0100;" x="126.251413" xlink:href="#C0_0_23b2032864" y="79.414917"/>
    </g>
    <g clip-path="url(#p08e607310b)">
     <use style="fill:#fe0100;stroke:#fe0100;" x="121.77506" xlink:href="#C0_0_23b2032864" y="81.151595"/>
    </g>
    <g clip-path="url(#p08e607310b)">
     <use style="fill:#fe0100;stroke:#fe0100;" x="99.428759" xlink:href="#C0_0_23b2032864" y="83.559909"/>
    </g>
    <g clip-path="url(#p08e607310b)">
     <use style="fill:#fe0100;stroke:#fe0100;" x="99.680138" xlink:href="#C0_0_23b2032864" y="93.208107"/>
    </g>
    <g clip-path="url(#p08e607310b)">
     <use style="fill:#fe0100;stroke:#fe0100;" x="104.366392" xlink:href="#C0_0_23b2032864" y="98.401474"/>
    </g>
    <g clip-path="url(#p08e607310b)">
     <use style="fill:#fe0100;stroke:#fe0100;" x="110.707403" xlink:href="#C0_0_23b2032864" y="105.890818"/>
    </g>
    <g clip-path="url(#p08e607310b)">
     <use style="fill:#fe0100;stroke:#fe0100;" x="113.254385" xlink:href="#C0_0_23b2032864" y="109.221058"/>
    </g>
    <g clip-path="url(#p08e607310b)">
     <use style="fill:#fe0100;stroke:#fe0100;" x="114.965716" xlink:href="#C0_0_23b2032864" y="112.643997"/>
    </g>
    <g clip-path="url(#p08e607310b)">
     <use style="fill:#fe0100;stroke:#fe0100;" x="116.586171" xlink:href="#C0_0_23b2032864" y="114.839156"/>
    </g>
    <g clip-path="url(#p08e607310b)">
     <use style="fill:#fe0100;stroke:#fe0100;" x="238.194917" xlink:href="#C0_0_23b2032864" y="100.041477"/>
    </g>
    <g clip-path="url(#p08e607310b)">
     <use style="fill:#0000ff;stroke:#0000ff;" x="278.987524" xlink:href="#C0_0_23b2032864" y="97.257959"/>
    </g>
    <g clip-path="url(#p08e607310b)">
     <use style="fill:#0000ff;stroke:#0000ff;" x="281.16455" xlink:href="#C0_0_23b2032864" y="97.336578"/>
    </g>
    <g clip-path="url(#p08e607310b)">
     <use style="fill:#0000ff;stroke:#0000ff;" x="339.323669" xlink:href="#C0_0_23b2032864" y="145.464208"/>
    </g>
    <g clip-path="url(#p08e607310b)">
     <use style="fill:#00ff00;stroke:#00ff00;" x="354.336257" xlink:href="#C0_0_23b2032864" y="187.961154"/>
    </g>
    <g clip-path="url(#p08e607310b)">
     <use style="fill:#00ff00;stroke:#00ff00;" x="354.097315" xlink:href="#C0_0_23b2032864" y="198.034228"/>
    </g>
    <g clip-path="url(#p08e607310b)">
     <use style="fill:#fe0100;stroke:#fe0100;" x="154.507031" xlink:href="#C0_0_23b2032864" y="85.151974"/>
    </g>
    <g clip-path="url(#p08e607310b)">
     <use style="fill:#fe0100;stroke:#fe0100;" x="154.591462" xlink:href="#C0_0_23b2032864" y="85.133956"/>
    </g>
    <g clip-path="url(#p08e607310b)">
     <use style="fill:#fe0100;stroke:#fe0100;" x="157.877864" xlink:href="#C0_0_23b2032864" y="107.112103"/>
    </g>
    <g clip-path="url(#p08e607310b)">
     <use style="fill:#fe0100;stroke:#fe0100;" x="179.563466" xlink:href="#C0_0_23b2032864" y="193.204239"/>
    </g>
    <g clip-path="url(#p08e607310b)">
     <use style="fill:#fe0100;stroke:#fe0100;" x="180.92207" xlink:href="#C0_0_23b2032864" y="196.515632"/>
    </g>
    <g clip-path="url(#p08e607310b)">
     <use style="fill:#0000ff;stroke:#0000ff;" x="248.032723" xlink:href="#C0_0_23b2032864" y="128.80231"/>
    </g>
    <g clip-path="url(#p08e607310b)">
     <use style="fill:#00ff00;stroke:#00ff00;" x="325.965769" xlink:href="#C0_0_23b2032864" y="180.413648"/>
    </g>
    <g clip-path="url(#p08e607310b)">
     <use style="fill:#00ff00;stroke:#00ff00;" x="328.0643" xlink:href="#C0_0_23b2032864" y="189.378998"/>
    </g>
    <g clip-path="url(#p08e607310b)">
     <use style="fill:#00ff00;stroke:#00ff00;" x="329.453567" xlink:href="#C0_0_23b2032864" y="199.947243"/>
    </g>
    <g clip-path="url(#p08e607310b)">
     <use style="fill:#fe0100;stroke:#fe0100;" x="197.640647" xlink:href="#C0_0_23b2032864" y="131.353729"/>
    </g>
    <g clip-path="url(#p08e607310b)">
     <use style="fill:#fe0100;stroke:#fe0100;" x="163.212098" xlink:href="#C0_0_23b2032864" y="119.650777"/>
    </g>
    <g clip-path="url(#p08e607310b)">
     <use style="fill:#fe0100;stroke:#fe0100;" x="224.812395" xlink:href="#C0_0_23b2032864" y="146.652737"/>
    </g>
    <g clip-path="url(#p08e607310b)">
     <use style="fill:#0000ff;stroke:#0000ff;" x="240.594226" xlink:href="#C0_0_23b2032864" y="150.42298"/>
    </g>
    <g clip-path="url(#p08e607310b)">
     <use style="fill:#0000ff;stroke:#0000ff;" x="247.616272" xlink:href="#C0_0_23b2032864" y="152.280811"/>
    </g>
    <g clip-path="url(#p08e607310b)">
     <use style="fill:#0000ff;stroke:#0000ff;" x="253.429852" xlink:href="#C0_0_23b2032864" y="153.41034"/>
    </g>
    <g clip-path="url(#p08e607310b)">
     <use style="fill:#0000ff;stroke:#0000ff;" x="264.089114" xlink:href="#C0_0_23b2032864" y="156.983167"/>
    </g>
    <g clip-path="url(#p08e607310b)">
     <use style="fill:#0000ff;stroke:#0000ff;" x="278.488608" xlink:href="#C0_0_23b2032864" y="166.566002"/>
    </g>
    <g clip-path="url(#p08e607310b)">
     <use style="fill:#00ff00;stroke:#00ff00;" x="294.291731" xlink:href="#C0_0_23b2032864" y="191.150345"/>
    </g>
    <g clip-path="url(#p08e607310b)">
     <use style="fill:#00ff00;stroke:#00ff00;" x="294.789813" xlink:href="#C0_0_23b2032864" y="202.067328"/>
    </g>
    <g clip-path="url(#p08e607310b)">
     <use style="fill:#fe0100;stroke:#fe0100;" x="199.444116" xlink:href="#C0_0_23b2032864" y="120.347718"/>
    </g>
    <g clip-path="url(#p08e607310b)">
     <use style="fill:#fe0100;stroke:#fe0100;" x="196.441232" xlink:href="#C0_0_23b2032864" y="117.236305"/>
    </g>
    <g clip-path="url(#p08e607310b)">
     <use style="fill:#fe0100;stroke:#fe0100;" x="194.366291" xlink:href="#C0_0_23b2032864" y="114.9899"/>
    </g>
    <g clip-path="url(#p08e607310b)">
     <use style="fill:#fe0100;stroke:#fe0100;" x="186.593804" xlink:href="#C0_0_23b2032864" y="109.167452"/>
    </g>
    <g clip-path="url(#p08e607310b)">
     <use style="fill:#fe0100;stroke:#fe0100;" x="177.389343" xlink:href="#C0_0_23b2032864" y="111.131713"/>
    </g>
    <g clip-path="url(#p08e607310b)">
     <use style="fill:#fe0100;stroke:#fe0100;" x="168.876949" xlink:href="#C0_0_23b2032864" y="124.432002"/>
    </g>
    <g clip-path="url(#p08e607310b)">
     <use style="fill:#fe0100;stroke:#fe0100;" x="168.391882" xlink:href="#C0_0_23b2032864" y="128.471685"/>
    </g>
    <g clip-path="url(#p08e607310b)">
     <use style="fill:#fe0100;stroke:#fe0100;" x="168.725327" xlink:href="#C0_0_23b2032864" y="130.434917"/>
    </g>
    <g clip-path="url(#p08e607310b)">
     <use style="fill:#fe0100;stroke:#fe0100;" x="181.790049" xlink:href="#C0_0_23b2032864" y="149.205119"/>
    </g>
    <g clip-path="url(#p08e607310b)">
     <use style="fill:#fe0100;stroke:#fe0100;" x="183.696581" xlink:href="#C0_0_23b2032864" y="151.616496"/>
    </g>
    <g clip-path="url(#p08e607310b)">
     <use style="fill:#fe0100;stroke:#fe0100;" x="189.171662" xlink:href="#C0_0_23b2032864" y="157.05896"/>
    </g>
    <g clip-path="url(#p08e607310b)">
     <use style="fill:#fe0100;stroke:#fe0100;" x="219.340514" xlink:href="#C0_0_23b2032864" y="142.805548"/>
    </g>
    <g clip-path="url(#p08e607310b)">
     <use style="fill:#0000ff;stroke:#0000ff;" x="233.892969" xlink:href="#C0_0_23b2032864" y="145.711026"/>
    </g>
    <g clip-path="url(#p08e607310b)">
     <use style="fill:#0000ff;stroke:#0000ff;" x="246.31994" xlink:href="#C0_0_23b2032864" y="156.905296"/>
    </g>
    <g clip-path="url(#p08e607310b)">
     <use style="fill:#0000ff;stroke:#0000ff;" x="264.388797" xlink:href="#C0_0_23b2032864" y="166.613978"/>
    </g>
    <g clip-path="url(#p08e607310b)">
     <use style="fill:#0000ff;stroke:#0000ff;" x="283.934186" xlink:href="#C0_0_23b2032864" y="175.775906"/>
    </g>
    <g clip-path="url(#p08e607310b)">
     <use style="fill:#00ff00;stroke:#00ff00;" x="288.881192" xlink:href="#C0_0_23b2032864" y="197.628486"/>
    </g>
    <g clip-path="url(#p08e607310b)">
     <use style="fill:#fe0100;stroke:#fe0100;" x="187.224577" xlink:href="#C0_0_23b2032864" y="128.735463"/>
    </g>
    <g clip-path="url(#p08e607310b)">
     <use style="fill:#fe0100;stroke:#fe0100;" x="178.976686" xlink:href="#C0_0_23b2032864" y="121.969991"/>
    </g>
    <g clip-path="url(#p08e607310b)">
     <use style="fill:#fe0100;stroke:#fe0100;" x="176.587851" xlink:href="#C0_0_23b2032864" y="145.849442"/>
    </g>
    <g clip-path="url(#p08e607310b)">
     <use style="fill:#fe0100;stroke:#fe0100;" x="196.871312" xlink:href="#C0_0_23b2032864" y="164.470887"/>
    </g>
    <g clip-path="url(#p08e607310b)">
     <use style="fill:#fe0100;stroke:#fe0100;" x="220.832671" xlink:href="#C0_0_23b2032864" y="134.547943"/>
    </g>
    <g clip-path="url(#p08e607310b)">
     <use style="fill:#fe0100;stroke:#fe0100;" x="222.7391" xlink:href="#C0_0_23b2032864" y="134.193003"/>
    </g>
    <g clip-path="url(#p08e607310b)">
     <use style="fill:#0000ff;stroke:#0000ff;" x="255.573962" xlink:href="#C0_0_23b2032864" y="167.335695"/>
    </g>
    <g clip-path="url(#p08e607310b)">
     <use style="fill:#0000ff;stroke:#0000ff;" x="275.582515" xlink:href="#C0_0_23b2032864" y="183.123616"/>
    </g>
    <g clip-path="url(#p08e607310b)">
     <use style="fill:#00ff00;stroke:#00ff00;" x="279.331957" xlink:href="#C0_0_23b2032864" y="188.325186"/>
    </g>
    <g clip-path="url(#p08e607310b)">
     <use style="fill:#00ff00;stroke:#00ff00;" x="283.251284" xlink:href="#C0_0_23b2032864" y="194.753661"/>
    </g>
    <g clip-path="url(#p08e607310b)">
     <use style="fill:#fe0100;stroke:#fe0100;" x="165.114081" xlink:href="#C0_0_23b2032864" y="90.234086"/>
    </g>
    <g clip-path="url(#p08e607310b)">
     <use style="fill:#fe0100;stroke:#fe0100;" x="167.165104" xlink:href="#C0_0_23b2032864" y="81.990482"/>
    </g>
    <g clip-path="url(#p08e607310b)">
     <use style="fill:#fe0100;stroke:#fe0100;" x="170.03467" xlink:href="#C0_0_23b2032864" y="61.815034"/>
    </g>
    <g clip-path="url(#p08e607310b)">
     <use style="fill:#fe0100;stroke:#fe0100;" x="171.879914" xlink:href="#C0_0_23b2032864" y="61.489396"/>
    </g>
    <g clip-path="url(#p08e607310b)">
     <use style="fill:#fe0100;stroke:#fe0100;" x="178.860703" xlink:href="#C0_0_23b2032864" y="67.216255"/>
    </g>
    <g clip-path="url(#p08e607310b)">
     <use style="fill:#fe0100;stroke:#fe0100;" x="165.126113" xlink:href="#C0_0_23b2032864" y="196.404293"/>
    </g>
    <g clip-path="url(#p08e607310b)">
     <use style="fill:#fe0100;stroke:#fe0100;" x="171.133644" xlink:href="#C0_0_23b2032864" y="200.95264"/>
    </g>
    <g clip-path="url(#p08e607310b)">
     <use style="fill:#fe0100;stroke:#fe0100;" x="174.645825" xlink:href="#C0_0_23b2032864" y="204.730636"/>
    </g>
    <g clip-path="url(#p08e607310b)">
     <use style="fill:#0000ff;stroke:#0000ff;" x="244.66254" xlink:href="#C0_0_23b2032864" y="133.189308"/>
    </g>
    <g clip-path="url(#p08e607310b)">
     <use style="fill:#0000ff;stroke:#0000ff;" x="309.780068" xlink:href="#C0_0_23b2032864" y="169.731508"/>
    </g>
    <g clip-path="url(#p08e607310b)">
     <use style="fill:#0000ff;stroke:#0000ff;" x="313.042146" xlink:href="#C0_0_23b2032864" y="175.290018"/>
    </g>
    <g clip-path="url(#p08e607310b)">
     <use style="fill:#00ff00;stroke:#00ff00;" x="315.140354" xlink:href="#C0_0_23b2032864" y="184.016824"/>
    </g>
    <g clip-path="url(#p08e607310b)">
     <use style="fill:#00ff00;stroke:#00ff00;" x="317.943473" xlink:href="#C0_0_23b2032864" y="195.296588"/>
    </g>
    <g clip-path="url(#p08e607310b)">
     <use style="fill:#00ff00;stroke:#00ff00;" x="326.959324" xlink:href="#C0_0_23b2032864" y="210.698196"/>
    </g>
    <g clip-path="url(#p08e607310b)">
     <use style="fill:#00ff00;stroke:#00ff00;" x="330.9488" xlink:href="#C0_0_23b2032864" y="216.63099"/>
    </g>
    <g clip-path="url(#p08e607310b)">
     <use style="fill:#00ff00;stroke:#00ff00;" x="236.966692" xlink:href="#C0_0_23b2032864" y="269.481038"/>
    </g>
    <g clip-path="url(#p08e607310b)">
     <use style="fill:#00ff00;stroke:#00ff00;" x="237.703972" xlink:href="#C0_0_23b2032864" y="270.93413"/>
    </g>
    <g clip-path="url(#p08e607310b)">
     <use style="fill:#00ff00;stroke:#00ff00;" x="248.523852" xlink:href="#C0_0_23b2032864" y="280.438989"/>
    </g>
    <g clip-path="url(#p08e607310b)">
     <use style="fill:#00ff00;stroke:#00ff00;" x="250.909376" xlink:href="#C0_0_23b2032864" y="281.602969"/>
    </g>
    <g clip-path="url(#p08e607310b)">
     <use style="fill:#00ff00;stroke:#00ff00;" x="259.797008" xlink:href="#C0_0_23b2032864" y="284.151262"/>
    </g>
    <g clip-path="url(#p08e607310b)">
     <use style="fill:#00ff00;stroke:#00ff00;" x="264.37094" xlink:href="#C0_0_23b2032864" y="282.845499"/>
    </g>
    <g clip-path="url(#p08e607310b)">
     <use style="fill:#00ff00;stroke:#00ff00;" x="294.689109" xlink:href="#C0_0_23b2032864" y="262.013219"/>
    </g>
    <g clip-path="url(#p08e607310b)">
     <use style="fill:#00ff00;stroke:#00ff00;" x="299.538985" xlink:href="#C0_0_23b2032864" y="262.377372"/>
    </g>
    <g clip-path="url(#p08e607310b)">
     <use style="fill:#00ff00;stroke:#00ff00;" x="325.397703" xlink:href="#C0_0_23b2032864" y="265.022984"/>
    </g>
    <g clip-path="url(#p08e607310b)">
     <use style="fill:#00ff00;stroke:#00ff00;" x="354.893022" xlink:href="#C0_0_23b2032864" y="263.160463"/>
    </g>
    <g clip-path="url(#p08e607310b)">
     <use style="fill:#00ff00;stroke:#00ff00;" x="368.686879" xlink:href="#C0_0_23b2032864" y="255.265296"/>
    </g>
    <g clip-path="url(#p08e607310b)">
     <use style="fill:#00ff00;stroke:#00ff00;" x="370.889228" xlink:href="#C0_0_23b2032864" y="253.508705"/>
    </g>
    <g clip-path="url(#p08e607310b)">
     <use style="fill:#00ff00;stroke:#00ff00;" x="398.487273" xlink:href="#C0_0_23b2032864" y="226.522524"/>
    </g>
    <g clip-path="url(#p08e607310b)">
     <use style="fill:#00ff00;stroke:#00ff00;" x="242.065408" xlink:href="#C0_0_23b2032864" y="238.898152"/>
    </g>
    <g clip-path="url(#p08e607310b)">
     <use style="fill:#00ff00;stroke:#00ff00;" x="247.482646" xlink:href="#C0_0_23b2032864" y="260.259374"/>
    </g>
    <g clip-path="url(#p08e607310b)">
     <use style="fill:#00ff00;stroke:#00ff00;" x="256.139996" xlink:href="#C0_0_23b2032864" y="260.109566"/>
    </g>
    <g clip-path="url(#p08e607310b)">
     <use style="fill:#00ff00;stroke:#00ff00;" x="263.208883" xlink:href="#C0_0_23b2032864" y="259.240882"/>
    </g>
    <g clip-path="url(#p08e607310b)">
     <use style="fill:#00ff00;stroke:#00ff00;" x="269.247519" xlink:href="#C0_0_23b2032864" y="256.299091"/>
    </g>
    <g clip-path="url(#p08e607310b)">
     <use style="fill:#00ff00;stroke:#00ff00;" x="274.789139" xlink:href="#C0_0_23b2032864" y="252.55349"/>
    </g>
    <g clip-path="url(#p08e607310b)">
     <use style="fill:#00ff00;stroke:#00ff00;" x="276.568949" xlink:href="#C0_0_23b2032864" y="251.743802"/>
    </g>
    <g clip-path="url(#p08e607310b)">
     <use style="fill:#00ff00;stroke:#00ff00;" x="318.024055" xlink:href="#C0_0_23b2032864" y="254.172498"/>
    </g>
    <g clip-path="url(#p08e607310b)">
     <use style="fill:#00ff00;stroke:#00ff00;" x="319.578658" xlink:href="#C0_0_23b2032864" y="254.084295"/>
    </g>
    <g clip-path="url(#p08e607310b)">
     <use style="fill:#00ff00;stroke:#00ff00;" x="331.663945" xlink:href="#C0_0_23b2032864" y="249.432232"/>
    </g>
    <g clip-path="url(#p08e607310b)">
     <use style="fill:#00ff00;stroke:#00ff00;" x="353.293896" xlink:href="#C0_0_23b2032864" y="244.567795"/>
    </g>
    <g clip-path="url(#p08e607310b)">
     <use style="fill:#00ff00;stroke:#00ff00;" x="361.286469" xlink:href="#C0_0_23b2032864" y="241.288295"/>
    </g>
    <g clip-path="url(#p08e607310b)">
     <use style="fill:#00ff00;stroke:#00ff00;" x="392.251821" xlink:href="#C0_0_23b2032864" y="232.351253"/>
    </g>
    <g clip-path="url(#p08e607310b)">
     <use style="fill:#00ff00;stroke:#00ff00;" x="229.801347" xlink:href="#C0_0_23b2032864" y="249.517442"/>
    </g>
    <g clip-path="url(#p08e607310b)">
     <use style="fill:#00ff00;stroke:#00ff00;" x="228.191167" xlink:href="#C0_0_23b2032864" y="253.096352"/>
    </g>
    <g clip-path="url(#p08e607310b)">
     <use style="fill:#00ff00;stroke:#00ff00;" x="232.844543" xlink:href="#C0_0_23b2032864" y="281.179374"/>
    </g>
    <g clip-path="url(#p08e607310b)">
     <use style="fill:#00ff00;stroke:#00ff00;" x="239.89609" xlink:href="#C0_0_23b2032864" y="285.297524"/>
    </g>
    <g clip-path="url(#p08e607310b)">
     <use style="fill:#00ff00;stroke:#00ff00;" x="276.313004" xlink:href="#C0_0_23b2032864" y="281.18691"/>
    </g>
    <g clip-path="url(#p08e607310b)">
     <use style="fill:#00ff00;stroke:#00ff00;" x="281.65735" xlink:href="#C0_0_23b2032864" y="278.199138"/>
    </g>
    <g clip-path="url(#p08e607310b)">
     <use style="fill:#00ff00;stroke:#00ff00;" x="294.568494" xlink:href="#C0_0_23b2032864" y="272.352015"/>
    </g>
    <g clip-path="url(#p08e607310b)">
     <use style="fill:#00ff00;stroke:#00ff00;" x="329.549327" xlink:href="#C0_0_23b2032864" y="273.678581"/>
    </g>
    <g clip-path="url(#p08e607310b)">
     <use style="fill:#00ff00;stroke:#00ff00;" x="371.78953" xlink:href="#C0_0_23b2032864" y="261.497331"/>
    </g>
    <g clip-path="url(#p08e607310b)">
     <use style="fill:#00ff00;stroke:#00ff00;" x="395.852754" xlink:href="#C0_0_23b2032864" y="227.333394"/>
    </g>
    <g clip-path="url(#p08e607310b)">
     <use style="fill:#00ff00;stroke:#00ff00;" x="242.459371" xlink:href="#C0_0_23b2032864" y="295.488"/>
    </g>
    <g clip-path="url(#p08e607310b)">
     <use style="fill:#00ff00;stroke:#00ff00;" x="284.805619" xlink:href="#C0_0_23b2032864" y="294.223523"/>
    </g>
    <g clip-path="url(#p08e607310b)">
     <use style="fill:#00ff00;stroke:#00ff00;" x="286.830014" xlink:href="#C0_0_23b2032864" y="293.143018"/>
    </g>
    <g clip-path="url(#p08e607310b)">
     <use style="fill:#00ff00;stroke:#00ff00;" x="289.41791" xlink:href="#C0_0_23b2032864" y="291.561873"/>
    </g>
    <g clip-path="url(#p08e607310b)">
     <use style="fill:#00ff00;stroke:#00ff00;" x="305.99915" xlink:href="#C0_0_23b2032864" y="277.337506"/>
    </g>
    <g clip-path="url(#p08e607310b)">
     <use style="fill:#00ff00;stroke:#00ff00;" x="334.499997" xlink:href="#C0_0_23b2032864" y="267.091839"/>
    </g>
    <g clip-path="url(#p08e607310b)">
     <use style="fill:#00ff00;stroke:#00ff00;" x="339.204563" xlink:href="#C0_0_23b2032864" y="264.98737"/>
    </g>
    <g clip-path="url(#p08e607310b)">
     <use style="fill:#00ff00;stroke:#00ff00;" x="344.072303" xlink:href="#C0_0_23b2032864" y="261.776827"/>
    </g>
    <g clip-path="url(#p08e607310b)">
     <use style="fill:#00ff00;stroke:#00ff00;" x="372.845872" xlink:href="#C0_0_23b2032864" y="238.051868"/>
    </g>
    <g clip-path="url(#p08e607310b)">
     <use style="fill:#00ff00;stroke:#00ff00;" x="375.178242" xlink:href="#C0_0_23b2032864" y="236.591271"/>
    </g>
    <g clip-path="url(#p08e607310b)">
     <use style="fill:#00ff00;stroke:#00ff00;" x="382.024229" xlink:href="#C0_0_23b2032864" y="232.077152"/>
    </g>
    <g clip-path="url(#p08e607310b)">
     <use style="fill:#00ff00;stroke:#00ff00;" x="385.319626" xlink:href="#C0_0_23b2032864" y="229.307485"/>
    </g>
   </g>
   <g id="matplotlib.axis_1">
    <g id="xtick_1">
     <g id="line2d_1">
      <defs>
       <path d="M 0 0 
L 0 3.5 
" id="mc5be69fcad" style="stroke:#000000;stroke-width:0.8;"/>
      </defs>
      <g>
       <use style="stroke:#000000;stroke-width:0.8;" x="79.325982" xlink:href="#mc5be69fcad" y="307.584"/>
      </g>
     </g>
     <g id="text_1">
      <!-- −10 -->
      <g transform="translate(68.773638 322.182437)scale(0.1 -0.1)">
       <defs>
        <path d="M 10.59375 35.5 
L 73.1875 35.5 
L 73.1875 27.203125 
L 10.59375 27.203125 
z
" id="DejaVuSans-8722"/>
        <path d="M 12.40625 8.296875 
L 28.515625 8.296875 
L 28.515625 63.921875 
L 10.984375 60.40625 
L 10.984375 69.390625 
L 28.421875 72.90625 
L 38.28125 72.90625 
L 38.28125 8.296875 
L 54.390625 8.296875 
L 54.390625 0 
L 12.40625 0 
z
" id="DejaVuSans-49"/>
        <path d="M 31.78125 66.40625 
Q 24.171875 66.40625 20.328125 58.90625 
Q 16.5 51.421875 16.5 36.375 
Q 16.5 21.390625 20.328125 13.890625 
Q 24.171875 6.390625 31.78125 6.390625 
Q 39.453125 6.390625 43.28125 13.890625 
Q 47.125 21.390625 47.125 36.375 
Q 47.125 51.421875 43.28125 58.90625 
Q 39.453125 66.40625 31.78125 66.40625 
z
M 31.78125 74.21875 
Q 44.046875 74.21875 50.515625 64.515625 
Q 56.984375 54.828125 56.984375 36.375 
Q 56.984375 17.96875 50.515625 8.265625 
Q 44.046875 -1.421875 31.78125 -1.421875 
Q 19.53125 -1.421875 13.0625 8.265625 
Q 6.59375 17.96875 6.59375 36.375 
Q 6.59375 54.828125 13.0625 64.515625 
Q 19.53125 74.21875 31.78125 74.21875 
z
" id="DejaVuSans-48"/>
       </defs>
       <use xlink:href="#DejaVuSans-8722"/>
       <use x="83.789062" xlink:href="#DejaVuSans-49"/>
       <use x="147.412109" xlink:href="#DejaVuSans-48"/>
      </g>
     </g>
    </g>
    <g id="xtick_2">
     <g id="line2d_2">
      <g>
       <use style="stroke:#000000;stroke-width:0.8;" x="151.538575" xlink:href="#mc5be69fcad" y="307.584"/>
      </g>
     </g>
     <g id="text_2">
      <!-- −5 -->
      <g transform="translate(144.167481 322.182437)scale(0.1 -0.1)">
       <defs>
        <path d="M 10.796875 72.90625 
L 49.515625 72.90625 
L 49.515625 64.59375 
L 19.828125 64.59375 
L 19.828125 46.734375 
Q 21.96875 47.46875 24.109375 47.828125 
Q 26.265625 48.1875 28.421875 48.1875 
Q 40.625 48.1875 47.75 41.5 
Q 54.890625 34.8125 54.890625 23.390625 
Q 54.890625 11.625 47.5625 5.09375 
Q 40.234375 -1.421875 26.90625 -1.421875 
Q 22.3125 -1.421875 17.546875 -0.640625 
Q 12.796875 0.140625 7.71875 1.703125 
L 7.71875 11.625 
Q 12.109375 9.234375 16.796875 8.0625 
Q 21.484375 6.890625 26.703125 6.890625 
Q 35.15625 6.890625 40.078125 11.328125 
Q 45.015625 15.765625 45.015625 23.390625 
Q 45.015625 31 40.078125 35.4375 
Q 35.15625 39.890625 26.703125 39.890625 
Q 22.75 39.890625 18.8125 39.015625 
Q 14.890625 38.140625 10.796875 36.28125 
z
" id="DejaVuSans-53"/>
       </defs>
       <use xlink:href="#DejaVuSans-8722"/>
       <use x="83.789062" xlink:href="#DejaVuSans-53"/>
      </g>
     </g>
    </g>
    <g id="xtick_3">
     <g id="line2d_3">
      <g>
       <use style="stroke:#000000;stroke-width:0.8;" x="223.751167" xlink:href="#mc5be69fcad" y="307.584"/>
      </g>
     </g>
     <g id="text_3">
      <!-- 0 -->
      <g transform="translate(220.569917 322.182437)scale(0.1 -0.1)">
       <use xlink:href="#DejaVuSans-48"/>
      </g>
     </g>
    </g>
    <g id="xtick_4">
     <g id="line2d_4">
      <g>
       <use style="stroke:#000000;stroke-width:0.8;" x="295.96376" xlink:href="#mc5be69fcad" y="307.584"/>
      </g>
     </g>
     <g id="text_4">
      <!-- 5 -->
      <g transform="translate(292.78251 322.182437)scale(0.1 -0.1)">
       <use xlink:href="#DejaVuSans-53"/>
      </g>
     </g>
    </g>
    <g id="xtick_5">
     <g id="line2d_5">
      <g>
       <use style="stroke:#000000;stroke-width:0.8;" x="368.176352" xlink:href="#mc5be69fcad" y="307.584"/>
      </g>
     </g>
     <g id="text_5">
      <!-- 10 -->
      <g transform="translate(361.813852 322.182437)scale(0.1 -0.1)">
       <use xlink:href="#DejaVuSans-49"/>
       <use x="63.623047" xlink:href="#DejaVuSans-48"/>
      </g>
     </g>
    </g>
   </g>
   <g id="matplotlib.axis_2">
    <g id="ytick_1">
     <g id="line2d_6">
      <defs>
       <path d="M 0 0 
L -3.5 0 
" id="me92886a85d" style="stroke:#000000;stroke-width:0.8;"/>
      </defs>
      <g>
       <use style="stroke:#000000;stroke-width:0.8;" x="57.6" xlink:href="#me92886a85d" y="287.145449"/>
      </g>
     </g>
     <g id="text_6">
      <!-- −8 -->
      <g transform="translate(35.857813 290.944668)scale(0.1 -0.1)">
       <defs>
        <path d="M 31.78125 34.625 
Q 24.75 34.625 20.71875 30.859375 
Q 16.703125 27.09375 16.703125 20.515625 
Q 16.703125 13.921875 20.71875 10.15625 
Q 24.75 6.390625 31.78125 6.390625 
Q 38.8125 6.390625 42.859375 10.171875 
Q 46.921875 13.96875 46.921875 20.515625 
Q 46.921875 27.09375 42.890625 30.859375 
Q 38.875 34.625 31.78125 34.625 
z
M 21.921875 38.8125 
Q 15.578125 40.375 12.03125 44.71875 
Q 8.5 49.078125 8.5 55.328125 
Q 8.5 64.0625 14.71875 69.140625 
Q 20.953125 74.21875 31.78125 74.21875 
Q 42.671875 74.21875 48.875 69.140625 
Q 55.078125 64.0625 55.078125 55.328125 
Q 55.078125 49.078125 51.53125 44.71875 
Q 48 40.375 41.703125 38.8125 
Q 48.828125 37.15625 52.796875 32.3125 
Q 56.78125 27.484375 56.78125 20.515625 
Q 56.78125 9.90625 50.3125 4.234375 
Q 43.84375 -1.421875 31.78125 -1.421875 
Q 19.734375 -1.421875 13.25 4.234375 
Q 6.78125 9.90625 6.78125 20.515625 
Q 6.78125 27.484375 10.78125 32.3125 
Q 14.796875 37.15625 21.921875 38.8125 
z
M 18.3125 54.390625 
Q 18.3125 48.734375 21.84375 45.5625 
Q 25.390625 42.390625 31.78125 42.390625 
Q 38.140625 42.390625 41.71875 45.5625 
Q 45.3125 48.734375 45.3125 54.390625 
Q 45.3125 60.0625 41.71875 63.234375 
Q 38.140625 66.40625 31.78125 66.40625 
Q 25.390625 66.40625 21.84375 63.234375 
Q 18.3125 60.0625 18.3125 54.390625 
z
" id="DejaVuSans-56"/>
       </defs>
       <use xlink:href="#DejaVuSans-8722"/>
       <use x="83.789062" xlink:href="#DejaVuSans-56"/>
      </g>
     </g>
    </g>
    <g id="ytick_2">
     <g id="line2d_7">
      <g>
       <use style="stroke:#000000;stroke-width:0.8;" x="57.6" xlink:href="#me92886a85d" y="254.959103"/>
      </g>
     </g>
     <g id="text_7">
      <!-- −6 -->
      <g transform="translate(35.857813 258.758322)scale(0.1 -0.1)">
       <defs>
        <path d="M 33.015625 40.375 
Q 26.375 40.375 22.484375 35.828125 
Q 18.609375 31.296875 18.609375 23.390625 
Q 18.609375 15.53125 22.484375 10.953125 
Q 26.375 6.390625 33.015625 6.390625 
Q 39.65625 6.390625 43.53125 10.953125 
Q 47.40625 15.53125 47.40625 23.390625 
Q 47.40625 31.296875 43.53125 35.828125 
Q 39.65625 40.375 33.015625 40.375 
z
M 52.59375 71.296875 
L 52.59375 62.3125 
Q 48.875 64.0625 45.09375 64.984375 
Q 41.3125 65.921875 37.59375 65.921875 
Q 27.828125 65.921875 22.671875 59.328125 
Q 17.53125 52.734375 16.796875 39.40625 
Q 19.671875 43.65625 24.015625 45.921875 
Q 28.375 48.1875 33.59375 48.1875 
Q 44.578125 48.1875 50.953125 41.515625 
Q 57.328125 34.859375 57.328125 23.390625 
Q 57.328125 12.15625 50.6875 5.359375 
Q 44.046875 -1.421875 33.015625 -1.421875 
Q 20.359375 -1.421875 13.671875 8.265625 
Q 6.984375 17.96875 6.984375 36.375 
Q 6.984375 53.65625 15.1875 63.9375 
Q 23.390625 74.21875 37.203125 74.21875 
Q 40.921875 74.21875 44.703125 73.484375 
Q 48.484375 72.75 52.59375 71.296875 
z
" id="DejaVuSans-54"/>
       </defs>
       <use xlink:href="#DejaVuSans-8722"/>
       <use x="83.789062" xlink:href="#DejaVuSans-54"/>
      </g>
     </g>
    </g>
    <g id="ytick_3">
     <g id="line2d_8">
      <g>
       <use style="stroke:#000000;stroke-width:0.8;" x="57.6" xlink:href="#me92886a85d" y="222.772757"/>
      </g>
     </g>
     <g id="text_8">
      <!-- −4 -->
      <g transform="translate(35.857813 226.571976)scale(0.1 -0.1)">
       <defs>
        <path d="M 37.796875 64.3125 
L 12.890625 25.390625 
L 37.796875 25.390625 
z
M 35.203125 72.90625 
L 47.609375 72.90625 
L 47.609375 25.390625 
L 58.015625 25.390625 
L 58.015625 17.1875 
L 47.609375 17.1875 
L 47.609375 0 
L 37.796875 0 
L 37.796875 17.1875 
L 4.890625 17.1875 
L 4.890625 26.703125 
z
" id="DejaVuSans-52"/>
       </defs>
       <use xlink:href="#DejaVuSans-8722"/>
       <use x="83.789062" xlink:href="#DejaVuSans-52"/>
      </g>
     </g>
    </g>
    <g id="ytick_4">
     <g id="line2d_9">
      <g>
       <use style="stroke:#000000;stroke-width:0.8;" x="57.6" xlink:href="#me92886a85d" y="190.586411"/>
      </g>
     </g>
     <g id="text_9">
      <!-- −2 -->
      <g transform="translate(35.857813 194.385629)scale(0.1 -0.1)">
       <defs>
        <path d="M 19.1875 8.296875 
L 53.609375 8.296875 
L 53.609375 0 
L 7.328125 0 
L 7.328125 8.296875 
Q 12.9375 14.109375 22.625 23.890625 
Q 32.328125 33.6875 34.8125 36.53125 
Q 39.546875 41.84375 41.421875 45.53125 
Q 43.3125 49.21875 43.3125 52.78125 
Q 43.3125 58.59375 39.234375 62.25 
Q 35.15625 65.921875 28.609375 65.921875 
Q 23.96875 65.921875 18.8125 64.3125 
Q 13.671875 62.703125 7.8125 59.421875 
L 7.8125 69.390625 
Q 13.765625 71.78125 18.9375 73 
Q 24.125 74.21875 28.421875 74.21875 
Q 39.75 74.21875 46.484375 68.546875 
Q 53.21875 62.890625 53.21875 53.421875 
Q 53.21875 48.921875 51.53125 44.890625 
Q 49.859375 40.875 45.40625 35.40625 
Q 44.1875 33.984375 37.640625 27.21875 
Q 31.109375 20.453125 19.1875 8.296875 
z
" id="DejaVuSans-50"/>
       </defs>
       <use xlink:href="#DejaVuSans-8722"/>
       <use x="83.789062" xlink:href="#DejaVuSans-50"/>
      </g>
     </g>
    </g>
    <g id="ytick_5">
     <g id="line2d_10">
      <g>
       <use style="stroke:#000000;stroke-width:0.8;" x="57.6" xlink:href="#me92886a85d" y="158.400064"/>
      </g>
     </g>
     <g id="text_10">
      <!-- 0 -->
      <g transform="translate(44.2375 162.199283)scale(0.1 -0.1)">
       <use xlink:href="#DejaVuSans-48"/>
      </g>
     </g>
    </g>
    <g id="ytick_6">
     <g id="line2d_11">
      <g>
       <use style="stroke:#000000;stroke-width:0.8;" x="57.6" xlink:href="#me92886a85d" y="126.213718"/>
      </g>
     </g>
     <g id="text_11">
      <!-- 2 -->
      <g transform="translate(44.2375 130.012937)scale(0.1 -0.1)">
       <use xlink:href="#DejaVuSans-50"/>
      </g>
     </g>
    </g>
    <g id="ytick_7">
     <g id="line2d_12">
      <g>
       <use style="stroke:#000000;stroke-width:0.8;" x="57.6" xlink:href="#me92886a85d" y="94.027372"/>
      </g>
     </g>
     <g id="text_12">
      <!-- 4 -->
      <g transform="translate(44.2375 97.826591)scale(0.1 -0.1)">
       <use xlink:href="#DejaVuSans-52"/>
      </g>
     </g>
    </g>
    <g id="ytick_8">
     <g id="line2d_13">
      <g>
       <use style="stroke:#000000;stroke-width:0.8;" x="57.6" xlink:href="#me92886a85d" y="61.841026"/>
      </g>
     </g>
     <g id="text_13">
      <!-- 6 -->
      <g transform="translate(44.2375 65.640244)scale(0.1 -0.1)">
       <use xlink:href="#DejaVuSans-54"/>
      </g>
     </g>
    </g>
   </g>
   <g id="patch_3">
    <path d="M 57.6 307.584 
L 57.6 41.472 
" style="fill:none;stroke:#000000;stroke-linecap:square;stroke-linejoin:miter;stroke-width:0.8;"/>
   </g>
   <g id="patch_4">
    <path d="M 414.72 307.584 
L 414.72 41.472 
" style="fill:none;stroke:#000000;stroke-linecap:square;stroke-linejoin:miter;stroke-width:0.8;"/>
   </g>
   <g id="patch_5">
    <path d="M 57.6 307.584 
L 414.72 307.584 
" style="fill:none;stroke:#000000;stroke-linecap:square;stroke-linejoin:miter;stroke-width:0.8;"/>
   </g>
   <g id="patch_6">
    <path d="M 57.6 41.472 
L 414.72 41.472 
" style="fill:none;stroke:#000000;stroke-linecap:square;stroke-linejoin:miter;stroke-width:0.8;"/>
   </g>
  </g>
 </g>
 <defs>
  <clipPath id="p08e607310b">
   <rect height="266.112" width="357.12" x="57.6" y="41.472"/>
  </clipPath>
 </defs>
</svg>
