<?xml version="1.0" encoding="utf-8" standalone="no"?>
<!DOCTYPE svg PUBLIC "-//W3C//DTD SVG 1.1//EN"
  "http://www.w3.org/Graphics/SVG/1.1/DTD/svg11.dtd">
<!-- Created with matplotlib (https://matplotlib.org/) -->
<svg height="345.6pt" version="1.1" viewBox="0 0 460.8 345.6" width="460.8pt" xmlns="http://www.w3.org/2000/svg" xmlns:xlink="http://www.w3.org/1999/xlink">
 <metadata>
  <rdf:RDF xmlns:cc="http://creativecommons.org/ns#" xmlns:dc="http://purl.org/dc/elements/1.1/" xmlns:rdf="http://www.w3.org/1999/02/22-rdf-syntax-ns#">
   <cc:Work>
    <dc:type rdf:resource="http://purl.org/dc/dcmitype/StillImage"/>
    <dc:date>2021-07-14T12:24:33.177705</dc:date>
    <dc:format>image/svg+xml</dc:format>
    <dc:creator>
     <cc:Agent>
      <dc:title>Matplotlib v3.3.3, https://matplotlib.org/</dc:title>
     </cc:Agent>
    </dc:creator>
   </cc:Work>
  </rdf:RDF>
 </metadata>
 <defs>
  <style type="text/css">*{stroke-linecap:butt;stroke-linejoin:round;}</style>
 </defs>
 <g id="figure_1">
  <g id="patch_1">
   <path d="M 0 345.6 
L 460.8 345.6 
L 460.8 0 
L 0 0 
z
" style="fill:#ffffff;"/>
  </g>
  <g id="axes_1">
   <g id="patch_2">
    <path d="M 57.6 307.584 
L 414.72 307.584 
L 414.72 41.472 
L 57.6 41.472 
z
" style="fill:#ffffff;"/>
   </g>
   <g id="PathCollection_1">
    <defs>
     <path d="M 0 2.236068 
C 0.593012 2.236068 1.161816 2.000462 1.581139 1.581139 
C 2.000462 1.161816 2.236068 0.593012 2.236068 -0 
C 2.236068 -0.593012 2.000462 -1.161816 1.581139 -1.581139 
C 1.161816 -2.000462 0.593012 -2.236068 0 -2.236068 
C -0.593012 -2.236068 -1.161816 -2.000462 -1.581139 -1.581139 
C -2.000462 -1.161816 -2.236068 -0.593012 -2.236068 0 
C -2.236068 0.593012 -2.000462 1.161816 -1.581139 1.581139 
C -1.161816 2.000462 -0.593012 2.236068 0 2.236068 
z
" id="C0_0_c00aead578"/>
    </defs>
    <g clip-path="url(#pe0144026b0)">
     <use style="fill:#0000ff;stroke:#0000ff;" x="383.584072" xlink:href="#C0_0_c00aead578" y="233.087165"/>
    </g>
    <g clip-path="url(#pe0144026b0)">
     <use style="fill:#0000ff;stroke:#0000ff;" x="386.27774" xlink:href="#C0_0_c00aead578" y="235.625143"/>
    </g>
    <g clip-path="url(#pe0144026b0)">
     <use style="fill:#0000ff;stroke:#0000ff;" x="384.481835" xlink:href="#C0_0_c00aead578" y="240.314523"/>
    </g>
    <g clip-path="url(#pe0144026b0)">
     <use style="fill:#0000ff;stroke:#0000ff;" x="373.172311" xlink:href="#C0_0_c00aead578" y="242.995879"/>
    </g>
    <g clip-path="url(#pe0144026b0)">
     <use style="fill:#0000ff;stroke:#0000ff;" x="371.582136" xlink:href="#C0_0_c00aead578" y="242.8362"/>
    </g>
    <g clip-path="url(#pe0144026b0)">
     <use style="fill:#0000ff;stroke:#0000ff;" x="363.392077" xlink:href="#C0_0_c00aead578" y="240.638506"/>
    </g>
    <g clip-path="url(#pe0144026b0)">
     <use style="fill:#0000ff;stroke:#0000ff;" x="360.429091" xlink:href="#C0_0_c00aead578" y="239.175942"/>
    </g>
    <g clip-path="url(#pe0144026b0)">
     <use style="fill:#0000ff;stroke:#0000ff;" x="356.657863" xlink:href="#C0_0_c00aead578" y="238.484537"/>
    </g>
    <g clip-path="url(#pe0144026b0)">
     <use style="fill:#0000ff;stroke:#0000ff;" x="339.93533" xlink:href="#C0_0_c00aead578" y="235.586104"/>
    </g>
    <g clip-path="url(#pe0144026b0)">
     <use style="fill:#0000ff;stroke:#0000ff;" x="323.75521" xlink:href="#C0_0_c00aead578" y="232.122463"/>
    </g>
    <g clip-path="url(#pe0144026b0)">
     <use style="fill:#fe0100;stroke:#fe0100;" x="237.840813" xlink:href="#C0_0_c00aead578" y="223.02709"/>
    </g>
    <g clip-path="url(#pe0144026b0)">
     <use style="fill:#fe0100;stroke:#fe0100;" x="176.831972" xlink:href="#C0_0_c00aead578" y="211.996171"/>
    </g>
    <g clip-path="url(#pe0144026b0)">
     <use style="fill:#0000ff;stroke:#0000ff;" x="328.020903" xlink:href="#C0_0_c00aead578" y="257.998385"/>
    </g>
    <g clip-path="url(#pe0144026b0)">
     <use style="fill:#0000ff;stroke:#0000ff;" x="352.338031" xlink:href="#C0_0_c00aead578" y="245.115735"/>
    </g>
    <g clip-path="url(#pe0144026b0)">
     <use style="fill:#0000ff;stroke:#0000ff;" x="374.958547" xlink:href="#C0_0_c00aead578" y="234.399349"/>
    </g>
    <g clip-path="url(#pe0144026b0)">
     <use style="fill:#0000ff;stroke:#0000ff;" x="377.006867" xlink:href="#C0_0_c00aead578" y="239.804877"/>
    </g>
    <g clip-path="url(#pe0144026b0)">
     <use style="fill:#0000ff;stroke:#0000ff;" x="375.129026" xlink:href="#C0_0_c00aead578" y="236.370061"/>
    </g>
    <g clip-path="url(#pe0144026b0)">
     <use style="fill:#0000ff;stroke:#0000ff;" x="364.942321" xlink:href="#C0_0_c00aead578" y="233.341833"/>
    </g>
    <g clip-path="url(#pe0144026b0)">
     <use style="fill:#0000ff;stroke:#0000ff;" x="355.798175" xlink:href="#C0_0_c00aead578" y="232.996944"/>
    </g>
    <g clip-path="url(#pe0144026b0)">
     <use style="fill:#0000ff;stroke:#0000ff;" x="346.919864" xlink:href="#C0_0_c00aead578" y="233.293931"/>
    </g>
    <g clip-path="url(#pe0144026b0)">
     <use style="fill:#0000ff;stroke:#0000ff;" x="322.43091" xlink:href="#C0_0_c00aead578" y="229.991468"/>
    </g>
    <g clip-path="url(#pe0144026b0)">
     <use style="fill:#0000ff;stroke:#0000ff;" x="301.342085" xlink:href="#C0_0_c00aead578" y="226.12141"/>
    </g>
    <g clip-path="url(#pe0144026b0)">
     <use style="fill:#fe0100;stroke:#fe0100;" x="236.90689" xlink:href="#C0_0_c00aead578" y="220.989499"/>
    </g>
    <g clip-path="url(#pe0144026b0)">
     <use style="fill:#fe0100;stroke:#fe0100;" x="211.464039" xlink:href="#C0_0_c00aead578" y="219.792482"/>
    </g>
    <g clip-path="url(#pe0144026b0)">
     <use style="fill:#fe0100;stroke:#fe0100;" x="200.498964" xlink:href="#C0_0_c00aead578" y="218.342343"/>
    </g>
    <g clip-path="url(#pe0144026b0)">
     <use style="fill:#fe0100;stroke:#fe0100;" x="195.724339" xlink:href="#C0_0_c00aead578" y="217.004794"/>
    </g>
    <g clip-path="url(#pe0144026b0)">
     <use style="fill:#fe0100;stroke:#fe0100;" x="191.28243" xlink:href="#C0_0_c00aead578" y="215.570296"/>
    </g>
    <g clip-path="url(#pe0144026b0)">
     <use style="fill:#fe0100;stroke:#fe0100;" x="175.548946" xlink:href="#C0_0_c00aead578" y="208.057367"/>
    </g>
    <g clip-path="url(#pe0144026b0)">
     <use style="fill:#fe0100;stroke:#fe0100;" x="159.663921" xlink:href="#C0_0_c00aead578" y="175.463927"/>
    </g>
    <g clip-path="url(#pe0144026b0)">
     <use style="fill:#0000ff;stroke:#0000ff;" x="244.466617" xlink:href="#C0_0_c00aead578" y="295.271834"/>
    </g>
    <g clip-path="url(#pe0144026b0)">
     <use style="fill:#0000ff;stroke:#0000ff;" x="247.760631" xlink:href="#C0_0_c00aead578" y="293.537483"/>
    </g>
    <g clip-path="url(#pe0144026b0)">
     <use style="fill:#0000ff;stroke:#0000ff;" x="249.809989" xlink:href="#C0_0_c00aead578" y="291.000745"/>
    </g>
    <g clip-path="url(#pe0144026b0)">
     <use style="fill:#0000ff;stroke:#0000ff;" x="248.991795" xlink:href="#C0_0_c00aead578" y="288.526669"/>
    </g>
    <g clip-path="url(#pe0144026b0)">
     <use style="fill:#0000ff;stroke:#0000ff;" x="242.644057" xlink:href="#C0_0_c00aead578" y="284.805929"/>
    </g>
    <g clip-path="url(#pe0144026b0)">
     <use style="fill:#0000ff;stroke:#0000ff;" x="231.195232" xlink:href="#C0_0_c00aead578" y="281.255313"/>
    </g>
    <g clip-path="url(#pe0144026b0)">
     <use style="fill:#0000ff;stroke:#0000ff;" x="222.701689" xlink:href="#C0_0_c00aead578" y="277.419358"/>
    </g>
    <g clip-path="url(#pe0144026b0)">
     <use style="fill:#fe0100;stroke:#fe0100;" x="205.06736" xlink:href="#C0_0_c00aead578" y="248.920881"/>
    </g>
    <g clip-path="url(#pe0144026b0)">
     <use style="fill:#fe0100;stroke:#fe0100;" x="200.833267" xlink:href="#C0_0_c00aead578" y="242.017681"/>
    </g>
    <g clip-path="url(#pe0144026b0)">
     <use style="fill:#fe0100;stroke:#fe0100;" x="199.77177" xlink:href="#C0_0_c00aead578" y="240.57186"/>
    </g>
    <g clip-path="url(#pe0144026b0)">
     <use style="fill:#fe0100;stroke:#fe0100;" x="194.388815" xlink:href="#C0_0_c00aead578" y="234.291424"/>
    </g>
    <g clip-path="url(#pe0144026b0)">
     <use style="fill:#fe0100;stroke:#fe0100;" x="172.844722" xlink:href="#C0_0_c00aead578" y="218.957562"/>
    </g>
    <g clip-path="url(#pe0144026b0)">
     <use style="fill:#fe0100;stroke:#fe0100;" x="165.961082" xlink:href="#C0_0_c00aead578" y="213.764247"/>
    </g>
    <g clip-path="url(#pe0144026b0)">
     <use style="fill:#fe0100;stroke:#fe0100;" x="155.632394" xlink:href="#C0_0_c00aead578" y="201.225684"/>
    </g>
    <g clip-path="url(#pe0144026b0)">
     <use style="fill:#fe0100;stroke:#fe0100;" x="151.591389" xlink:href="#C0_0_c00aead578" y="195.248095"/>
    </g>
    <g clip-path="url(#pe0144026b0)">
     <use style="fill:#0000ff;stroke:#0000ff;" x="387.848528" xlink:href="#C0_0_c00aead578" y="193.505257"/>
    </g>
    <g clip-path="url(#pe0144026b0)">
     <use style="fill:#0000ff;stroke:#0000ff;" x="388.128692" xlink:href="#C0_0_c00aead578" y="195.22098"/>
    </g>
    <g clip-path="url(#pe0144026b0)">
     <use style="fill:#0000ff;stroke:#0000ff;" x="386.398261" xlink:href="#C0_0_c00aead578" y="198.684776"/>
    </g>
    <g clip-path="url(#pe0144026b0)">
     <use style="fill:#0000ff;stroke:#0000ff;" x="385.616947" xlink:href="#C0_0_c00aead578" y="198.550311"/>
    </g>
    <g clip-path="url(#pe0144026b0)">
     <use style="fill:#0000ff;stroke:#0000ff;" x="383.272808" xlink:href="#C0_0_c00aead578" y="199.848922"/>
    </g>
    <g clip-path="url(#pe0144026b0)">
     <use style="fill:#0000ff;stroke:#0000ff;" x="379.193429" xlink:href="#C0_0_c00aead578" y="200.858299"/>
    </g>
    <g clip-path="url(#pe0144026b0)">
     <use style="fill:#0000ff;stroke:#0000ff;" x="370.013772" xlink:href="#C0_0_c00aead578" y="204.37302"/>
    </g>
    <g clip-path="url(#pe0144026b0)">
     <use style="fill:#0000ff;stroke:#0000ff;" x="359.730323" xlink:href="#C0_0_c00aead578" y="207.490547"/>
    </g>
    <g clip-path="url(#pe0144026b0)">
     <use style="fill:#0000ff;stroke:#0000ff;" x="353.449326" xlink:href="#C0_0_c00aead578" y="208.322426"/>
    </g>
    <g clip-path="url(#pe0144026b0)">
     <use style="fill:#0000ff;stroke:#0000ff;" x="337.890586" xlink:href="#C0_0_c00aead578" y="209.691473"/>
    </g>
    <g clip-path="url(#pe0144026b0)">
     <use style="fill:#0000ff;stroke:#0000ff;" x="328.161832" xlink:href="#C0_0_c00aead578" y="210.034889"/>
    </g>
    <g clip-path="url(#pe0144026b0)">
     <use style="fill:#0000ff;stroke:#0000ff;" x="320.551338" xlink:href="#C0_0_c00aead578" y="210.099255"/>
    </g>
    <g clip-path="url(#pe0144026b0)">
     <use style="fill:#0000ff;stroke:#0000ff;" x="285.189206" xlink:href="#C0_0_c00aead578" y="212.078988"/>
    </g>
    <g clip-path="url(#pe0144026b0)">
     <use style="fill:#0000ff;stroke:#0000ff;" x="275.579426" xlink:href="#C0_0_c00aead578" y="212.200631"/>
    </g>
    <g clip-path="url(#pe0144026b0)">
     <use style="fill:#fe0100;stroke:#fe0100;" x="254.160704" xlink:href="#C0_0_c00aead578" y="212.246307"/>
    </g>
    <g clip-path="url(#pe0144026b0)">
     <use style="fill:#fe0100;stroke:#fe0100;" x="181.693179" xlink:href="#C0_0_c00aead578" y="169.421681"/>
    </g>
    <g clip-path="url(#pe0144026b0)">
     <use style="fill:#00ff00;stroke:#00ff00;" x="185.482791" xlink:href="#C0_0_c00aead578" y="162.502285"/>
    </g>
    <g clip-path="url(#pe0144026b0)">
     <use style="fill:#0000ff;stroke:#0000ff;" x="220.644731" xlink:href="#C0_0_c00aead578" y="291.641422"/>
    </g>
    <g clip-path="url(#pe0144026b0)">
     <use style="fill:#0000ff;stroke:#0000ff;" x="228.407368" xlink:href="#C0_0_c00aead578" y="294.547278"/>
    </g>
    <g clip-path="url(#pe0144026b0)">
     <use style="fill:#0000ff;stroke:#0000ff;" x="235.803307" xlink:href="#C0_0_c00aead578" y="295.488"/>
    </g>
    <g clip-path="url(#pe0144026b0)">
     <use style="fill:#0000ff;stroke:#0000ff;" x="236.986165" xlink:href="#C0_0_c00aead578" y="291.479288"/>
    </g>
    <g clip-path="url(#pe0144026b0)">
     <use style="fill:#0000ff;stroke:#0000ff;" x="240.846966" xlink:href="#C0_0_c00aead578" y="286.651805"/>
    </g>
    <g clip-path="url(#pe0144026b0)">
     <use style="fill:#0000ff;stroke:#0000ff;" x="229.78048" xlink:href="#C0_0_c00aead578" y="288.53458"/>
    </g>
    <g clip-path="url(#pe0144026b0)">
     <use style="fill:#0000ff;stroke:#0000ff;" x="226.411797" xlink:href="#C0_0_c00aead578" y="286.825766"/>
    </g>
    <g clip-path="url(#pe0144026b0)">
     <use style="fill:#0000ff;stroke:#0000ff;" x="234.737787" xlink:href="#C0_0_c00aead578" y="282.723992"/>
    </g>
    <g clip-path="url(#pe0144026b0)">
     <use style="fill:#0000ff;stroke:#0000ff;" x="223.612456" xlink:href="#C0_0_c00aead578" y="284.895124"/>
    </g>
    <g clip-path="url(#pe0144026b0)">
     <use style="fill:#0000ff;stroke:#0000ff;" x="214.94542" xlink:href="#C0_0_c00aead578" y="265.365288"/>
    </g>
    <g clip-path="url(#pe0144026b0)">
     <use style="fill:#fe0100;stroke:#fe0100;" x="193.951098" xlink:href="#C0_0_c00aead578" y="234.447128"/>
    </g>
    <g clip-path="url(#pe0144026b0)">
     <use style="fill:#fe0100;stroke:#fe0100;" x="191.35185" xlink:href="#C0_0_c00aead578" y="232.361048"/>
    </g>
    <g clip-path="url(#pe0144026b0)">
     <use style="fill:#fe0100;stroke:#fe0100;" x="165.588435" xlink:href="#C0_0_c00aead578" y="213.918588"/>
    </g>
    <g clip-path="url(#pe0144026b0)">
     <use style="fill:#fe0100;stroke:#fe0100;" x="151.351784" xlink:href="#C0_0_c00aead578" y="194.637597"/>
    </g>
    <g clip-path="url(#pe0144026b0)">
     <use style="fill:#fe0100;stroke:#fe0100;" x="150.076566" xlink:href="#C0_0_c00aead578" y="188.405359"/>
    </g>
    <g clip-path="url(#pe0144026b0)">
     <use style="fill:#0000ff;stroke:#0000ff;" x="304.340805" xlink:href="#C0_0_c00aead578" y="286.028803"/>
    </g>
    <g clip-path="url(#pe0144026b0)">
     <use style="fill:#0000ff;stroke:#0000ff;" x="306.078081" xlink:href="#C0_0_c00aead578" y="286.80382"/>
    </g>
    <g clip-path="url(#pe0144026b0)">
     <use style="fill:#0000ff;stroke:#0000ff;" x="315.118858" xlink:href="#C0_0_c00aead578" y="285.552421"/>
    </g>
    <g clip-path="url(#pe0144026b0)">
     <use style="fill:#0000ff;stroke:#0000ff;" x="306.113252" xlink:href="#C0_0_c00aead578" y="277.146497"/>
    </g>
    <g clip-path="url(#pe0144026b0)">
     <use style="fill:#0000ff;stroke:#0000ff;" x="303.331177" xlink:href="#C0_0_c00aead578" y="275.29779"/>
    </g>
    <g clip-path="url(#pe0144026b0)">
     <use style="fill:#0000ff;stroke:#0000ff;" x="278.915828" xlink:href="#C0_0_c00aead578" y="267.631064"/>
    </g>
    <g clip-path="url(#pe0144026b0)">
     <use style="fill:#fe0100;stroke:#fe0100;" x="170.347754" xlink:href="#C0_0_c00aead578" y="173.518651"/>
    </g>
    <g clip-path="url(#pe0144026b0)">
     <use style="fill:#fe0100;stroke:#fe0100;" x="159.602867" xlink:href="#C0_0_c00aead578" y="169.908231"/>
    </g>
    <g clip-path="url(#pe0144026b0)">
     <use style="fill:#00ff00;stroke:#00ff00;" x="168.084205" xlink:href="#C0_0_c00aead578" y="160.96468"/>
    </g>
    <g clip-path="url(#pe0144026b0)">
     <use style="fill:#0000ff;stroke:#0000ff;" x="377.254913" xlink:href="#C0_0_c00aead578" y="160.717626"/>
    </g>
    <g clip-path="url(#pe0144026b0)">
     <use style="fill:#0000ff;stroke:#0000ff;" x="398.082498" xlink:href="#C0_0_c00aead578" y="167.60022"/>
    </g>
    <g clip-path="url(#pe0144026b0)">
     <use style="fill:#0000ff;stroke:#0000ff;" x="344.01905" xlink:href="#C0_0_c00aead578" y="167.177152"/>
    </g>
    <g clip-path="url(#pe0144026b0)">
     <use style="fill:#0000ff;stroke:#0000ff;" x="318.617646" xlink:href="#C0_0_c00aead578" y="168.388074"/>
    </g>
    <g clip-path="url(#pe0144026b0)">
     <use style="fill:#0000ff;stroke:#0000ff;" x="309.217342" xlink:href="#C0_0_c00aead578" y="167.399709"/>
    </g>
    <g clip-path="url(#pe0144026b0)">
     <use style="fill:#0000ff;stroke:#0000ff;" x="303.760767" xlink:href="#C0_0_c00aead578" y="166.014812"/>
    </g>
    <g clip-path="url(#pe0144026b0)">
     <use style="fill:#0000ff;stroke:#0000ff;" x="294.5612" xlink:href="#C0_0_c00aead578" y="163.752242"/>
    </g>
    <g clip-path="url(#pe0144026b0)">
     <use style="fill:#0000ff;stroke:#0000ff;" x="282.549545" xlink:href="#C0_0_c00aead578" y="160.301026"/>
    </g>
    <g clip-path="url(#pe0144026b0)">
     <use style="fill:#00ff00;stroke:#00ff00;" x="222.150796" xlink:href="#C0_0_c00aead578" y="151.441314"/>
    </g>
    <g clip-path="url(#pe0144026b0)">
     <use style="fill:#00ff00;stroke:#00ff00;" x="234.231636" xlink:href="#C0_0_c00aead578" y="146.60923"/>
    </g>
    <g clip-path="url(#pe0144026b0)">
     <use style="fill:#0000ff;stroke:#0000ff;" x="387.297839" xlink:href="#C0_0_c00aead578" y="161.079571"/>
    </g>
    <g clip-path="url(#pe0144026b0)">
     <use style="fill:#0000ff;stroke:#0000ff;" x="398.428953" xlink:href="#C0_0_c00aead578" y="162.177908"/>
    </g>
    <g clip-path="url(#pe0144026b0)">
     <use style="fill:#0000ff;stroke:#0000ff;" x="388.995474" xlink:href="#C0_0_c00aead578" y="160.374641"/>
    </g>
    <g clip-path="url(#pe0144026b0)">
     <use style="fill:#0000ff;stroke:#0000ff;" x="398.487273" xlink:href="#C0_0_c00aead578" y="161.619767"/>
    </g>
    <g clip-path="url(#pe0144026b0)">
     <use style="fill:#0000ff;stroke:#0000ff;" x="386.33138" xlink:href="#C0_0_c00aead578" y="164.342675"/>
    </g>
    <g clip-path="url(#pe0144026b0)">
     <use style="fill:#0000ff;stroke:#0000ff;" x="392.617546" xlink:href="#C0_0_c00aead578" y="168.115264"/>
    </g>
    <g clip-path="url(#pe0144026b0)">
     <use style="fill:#0000ff;stroke:#0000ff;" x="388.776444" xlink:href="#C0_0_c00aead578" y="169.763924"/>
    </g>
    <g clip-path="url(#pe0144026b0)">
     <use style="fill:#0000ff;stroke:#0000ff;" x="385.802283" xlink:href="#C0_0_c00aead578" y="170.436655"/>
    </g>
    <g clip-path="url(#pe0144026b0)">
     <use style="fill:#0000ff;stroke:#0000ff;" x="374.120231" xlink:href="#C0_0_c00aead578" y="167.769565"/>
    </g>
    <g clip-path="url(#pe0144026b0)">
     <use style="fill:#0000ff;stroke:#0000ff;" x="371.909195" xlink:href="#C0_0_c00aead578" y="167.814216"/>
    </g>
    <g clip-path="url(#pe0144026b0)">
     <use style="fill:#0000ff;stroke:#0000ff;" x="367.275973" xlink:href="#C0_0_c00aead578" y="167.194065"/>
    </g>
    <g clip-path="url(#pe0144026b0)">
     <use style="fill:#0000ff;stroke:#0000ff;" x="353.616213" xlink:href="#C0_0_c00aead578" y="166.428941"/>
    </g>
    <g clip-path="url(#pe0144026b0)">
     <use style="fill:#0000ff;stroke:#0000ff;" x="333.647034" xlink:href="#C0_0_c00aead578" y="166.540913"/>
    </g>
    <g clip-path="url(#pe0144026b0)">
     <use style="fill:#0000ff;stroke:#0000ff;" x="317.238908" xlink:href="#C0_0_c00aead578" y="165.809584"/>
    </g>
    <g clip-path="url(#pe0144026b0)">
     <use style="fill:#0000ff;stroke:#0000ff;" x="296.938253" xlink:href="#C0_0_c00aead578" y="162.482016"/>
    </g>
    <g clip-path="url(#pe0144026b0)">
     <use style="fill:#0000ff;stroke:#0000ff;" x="276.495016" xlink:href="#C0_0_c00aead578" y="158.730835"/>
    </g>
    <g clip-path="url(#pe0144026b0)">
     <use style="fill:#00ff00;stroke:#00ff00;" x="226.405868" xlink:href="#C0_0_c00aead578" y="149.147334"/>
    </g>
    <g clip-path="url(#pe0144026b0)">
     <use style="fill:#0000ff;stroke:#0000ff;" x="389.616007" xlink:href="#C0_0_c00aead578" y="152.424448"/>
    </g>
    <g clip-path="url(#pe0144026b0)">
     <use style="fill:#0000ff;stroke:#0000ff;" x="397.033503" xlink:href="#C0_0_c00aead578" y="154.355379"/>
    </g>
    <g clip-path="url(#pe0144026b0)">
     <use style="fill:#0000ff;stroke:#0000ff;" x="383.414621" xlink:href="#C0_0_c00aead578" y="152.928414"/>
    </g>
    <g clip-path="url(#pe0144026b0)">
     <use style="fill:#0000ff;stroke:#0000ff;" x="372.353162" xlink:href="#C0_0_c00aead578" y="155.907614"/>
    </g>
    <g clip-path="url(#pe0144026b0)">
     <use style="fill:#0000ff;stroke:#0000ff;" x="362.441322" xlink:href="#C0_0_c00aead578" y="158.358632"/>
    </g>
    <g clip-path="url(#pe0144026b0)">
     <use style="fill:#0000ff;stroke:#0000ff;" x="358.039424" xlink:href="#C0_0_c00aead578" y="159.016057"/>
    </g>
    <g clip-path="url(#pe0144026b0)">
     <use style="fill:#0000ff;stroke:#0000ff;" x="323.34777" xlink:href="#C0_0_c00aead578" y="159.929119"/>
    </g>
    <g clip-path="url(#pe0144026b0)">
     <use style="fill:#00ff00;stroke:#00ff00;" x="259.093939" xlink:href="#C0_0_c00aead578" y="153.343907"/>
    </g>
    <g clip-path="url(#pe0144026b0)">
     <use style="fill:#00ff00;stroke:#00ff00;" x="238.572854" xlink:href="#C0_0_c00aead578" y="150.714515"/>
    </g>
    <g clip-path="url(#pe0144026b0)">
     <use style="fill:#00ff00;stroke:#00ff00;" x="241.330448" xlink:href="#C0_0_c00aead578" y="149.389905"/>
    </g>
    <g clip-path="url(#pe0144026b0)">
     <use style="fill:#0000ff;stroke:#0000ff;" x="302.523783" xlink:href="#C0_0_c00aead578" y="284.659823"/>
    </g>
    <g clip-path="url(#pe0144026b0)">
     <use style="fill:#0000ff;stroke:#0000ff;" x="312.620085" xlink:href="#C0_0_c00aead578" y="286.859558"/>
    </g>
    <g clip-path="url(#pe0144026b0)">
     <use style="fill:#0000ff;stroke:#0000ff;" x="317.490311" xlink:href="#C0_0_c00aead578" y="284.625981"/>
    </g>
    <g clip-path="url(#pe0144026b0)">
     <use style="fill:#0000ff;stroke:#0000ff;" x="320.586634" xlink:href="#C0_0_c00aead578" y="283.35527"/>
    </g>
    <g clip-path="url(#pe0144026b0)">
     <use style="fill:#0000ff;stroke:#0000ff;" x="320.786088" xlink:href="#C0_0_c00aead578" y="281.045548"/>
    </g>
    <g clip-path="url(#pe0144026b0)">
     <use style="fill:#0000ff;stroke:#0000ff;" x="315.998492" xlink:href="#C0_0_c00aead578" y="276.327583"/>
    </g>
    <g clip-path="url(#pe0144026b0)">
     <use style="fill:#0000ff;stroke:#0000ff;" x="312.12137" xlink:href="#C0_0_c00aead578" y="274.087916"/>
    </g>
    <g clip-path="url(#pe0144026b0)">
     <use style="fill:#0000ff;stroke:#0000ff;" x="309.394262" xlink:href="#C0_0_c00aead578" y="273.727621"/>
    </g>
    <g clip-path="url(#pe0144026b0)">
     <use style="fill:#0000ff;stroke:#0000ff;" x="280.720482" xlink:href="#C0_0_c00aead578" y="267.125323"/>
    </g>
    <g clip-path="url(#pe0144026b0)">
     <use style="fill:#fe0100;stroke:#fe0100;" x="195.409059" xlink:href="#C0_0_c00aead578" y="180.250737"/>
    </g>
    <g clip-path="url(#pe0144026b0)">
     <use style="fill:#fe0100;stroke:#fe0100;" x="193.359007" xlink:href="#C0_0_c00aead578" y="178.395871"/>
    </g>
    <g clip-path="url(#pe0144026b0)">
     <use style="fill:#fe0100;stroke:#fe0100;" x="173.47603" xlink:href="#C0_0_c00aead578" y="172.5373"/>
    </g>
    <g clip-path="url(#pe0144026b0)">
     <use style="fill:#fe0100;stroke:#fe0100;" x="162.753593" xlink:href="#C0_0_c00aead578" y="169.277609"/>
    </g>
    <g clip-path="url(#pe0144026b0)">
     <use style="fill:#00ff00;stroke:#00ff00;" x="169.860803" xlink:href="#C0_0_c00aead578" y="160.051531"/>
    </g>
    <g clip-path="url(#pe0144026b0)">
     <use style="fill:#00ff00;stroke:#00ff00;" x="168.70819" xlink:href="#C0_0_c00aead578" y="147.697587"/>
    </g>
    <g clip-path="url(#pe0144026b0)">
     <use style="fill:#00ff00;stroke:#00ff00;" x="78.347593" xlink:href="#C0_0_c00aead578" y="60.786124"/>
    </g>
    <g clip-path="url(#pe0144026b0)">
     <use style="fill:#00ff00;stroke:#00ff00;" x="76.649809" xlink:href="#C0_0_c00aead578" y="62.640256"/>
    </g>
    <g clip-path="url(#pe0144026b0)">
     <use style="fill:#00ff00;stroke:#00ff00;" x="74.426899" xlink:href="#C0_0_c00aead578" y="71.839355"/>
    </g>
    <g clip-path="url(#pe0144026b0)">
     <use style="fill:#00ff00;stroke:#00ff00;" x="74.699988" xlink:href="#C0_0_c00aead578" y="73.710392"/>
    </g>
    <g clip-path="url(#pe0144026b0)">
     <use style="fill:#00ff00;stroke:#00ff00;" x="81.199457" xlink:href="#C0_0_c00aead578" y="78.830374"/>
    </g>
    <g clip-path="url(#pe0144026b0)">
     <use style="fill:#00ff00;stroke:#00ff00;" x="83.312533" xlink:href="#C0_0_c00aead578" y="80.67625"/>
    </g>
    <g clip-path="url(#pe0144026b0)">
     <use style="fill:#00ff00;stroke:#00ff00;" x="94.545239" xlink:href="#C0_0_c00aead578" y="90.134273"/>
    </g>
    <g clip-path="url(#pe0144026b0)">
     <use style="fill:#00ff00;stroke:#00ff00;" x="103.854486" xlink:href="#C0_0_c00aead578" y="94.464986"/>
    </g>
    <g clip-path="url(#pe0144026b0)">
     <use style="fill:#00ff00;stroke:#00ff00;" x="125.976347" xlink:href="#C0_0_c00aead578" y="109.202018"/>
    </g>
    <g clip-path="url(#pe0144026b0)">
     <use style="fill:#00ff00;stroke:#00ff00;" x="143.810784" xlink:href="#C0_0_c00aead578" y="120.337189"/>
    </g>
    <g clip-path="url(#pe0144026b0)">
     <use style="fill:#00ff00;stroke:#00ff00;" x="162.64776" xlink:href="#C0_0_c00aead578" y="130.07081"/>
    </g>
    <g clip-path="url(#pe0144026b0)">
     <use style="fill:#00ff00;stroke:#00ff00;" x="167.376757" xlink:href="#C0_0_c00aead578" y="132.040097"/>
    </g>
    <g clip-path="url(#pe0144026b0)">
     <use style="fill:#00ff00;stroke:#00ff00;" x="212.047529" xlink:href="#C0_0_c00aead578" y="144.028837"/>
    </g>
    <g clip-path="url(#pe0144026b0)">
     <use style="fill:#0000ff;stroke:#0000ff;" x="81.816438" xlink:href="#C0_0_c00aead578" y="53.568"/>
    </g>
    <g clip-path="url(#pe0144026b0)">
     <use style="fill:#00ff00;stroke:#00ff00;" x="95.027022" xlink:href="#C0_0_c00aead578" y="67.090503"/>
    </g>
    <g clip-path="url(#pe0144026b0)">
     <use style="fill:#00ff00;stroke:#00ff00;" x="100.499088" xlink:href="#C0_0_c00aead578" y="71.908546"/>
    </g>
    <g clip-path="url(#pe0144026b0)">
     <use style="fill:#00ff00;stroke:#00ff00;" x="93.6551" xlink:href="#C0_0_c00aead578" y="75.544314"/>
    </g>
    <g clip-path="url(#pe0144026b0)">
     <use style="fill:#00ff00;stroke:#00ff00;" x="98.004894" xlink:href="#C0_0_c00aead578" y="75.904929"/>
    </g>
    <g clip-path="url(#pe0144026b0)">
     <use style="fill:#00ff00;stroke:#00ff00;" x="104.992093" xlink:href="#C0_0_c00aead578" y="78.524056"/>
    </g>
    <g clip-path="url(#pe0144026b0)">
     <use style="fill:#00ff00;stroke:#00ff00;" x="107.52508" xlink:href="#C0_0_c00aead578" y="79.858633"/>
    </g>
    <g clip-path="url(#pe0144026b0)">
     <use style="fill:#00ff00;stroke:#00ff00;" x="108.334789" xlink:href="#C0_0_c00aead578" y="110.943875"/>
    </g>
    <g clip-path="url(#pe0144026b0)">
     <use style="fill:#00ff00;stroke:#00ff00;" x="109.140967" xlink:href="#C0_0_c00aead578" y="113.266745"/>
    </g>
    <g clip-path="url(#pe0144026b0)">
     <use style="fill:#00ff00;stroke:#00ff00;" x="116.842987" xlink:href="#C0_0_c00aead578" y="119.204259"/>
    </g>
    <g clip-path="url(#pe0144026b0)">
     <use style="fill:#00ff00;stroke:#00ff00;" x="138.76724" xlink:href="#C0_0_c00aead578" y="127.821452"/>
    </g>
    <g clip-path="url(#pe0144026b0)">
     <use style="fill:#00ff00;stroke:#00ff00;" x="149.847707" xlink:href="#C0_0_c00aead578" y="131.916642"/>
    </g>
    <g clip-path="url(#pe0144026b0)">
     <use style="fill:#00ff00;stroke:#00ff00;" x="182.602202" xlink:href="#C0_0_c00aead578" y="141.404714"/>
    </g>
    <g clip-path="url(#pe0144026b0)">
     <use style="fill:#0000ff;stroke:#0000ff;" x="81.603733" xlink:href="#C0_0_c00aead578" y="55.685682"/>
    </g>
    <g clip-path="url(#pe0144026b0)">
     <use style="fill:#0000ff;stroke:#0000ff;" x="82.204311" xlink:href="#C0_0_c00aead578" y="58.260147"/>
    </g>
    <g clip-path="url(#pe0144026b0)">
     <use style="fill:#00ff00;stroke:#00ff00;" x="80.97883" xlink:href="#C0_0_c00aead578" y="68.404337"/>
    </g>
    <g clip-path="url(#pe0144026b0)">
     <use style="fill:#00ff00;stroke:#00ff00;" x="73.832727" xlink:href="#C0_0_c00aead578" y="79.25666"/>
    </g>
    <g clip-path="url(#pe0144026b0)">
     <use style="fill:#00ff00;stroke:#00ff00;" x="80.553322" xlink:href="#C0_0_c00aead578" y="88.203039"/>
    </g>
    <g clip-path="url(#pe0144026b0)">
     <use style="fill:#00ff00;stroke:#00ff00;" x="84.231997" xlink:href="#C0_0_c00aead578" y="90.220558"/>
    </g>
    <g clip-path="url(#pe0144026b0)">
     <use style="fill:#00ff00;stroke:#00ff00;" x="96.371606" xlink:href="#C0_0_c00aead578" y="95.989118"/>
    </g>
    <g clip-path="url(#pe0144026b0)">
     <use style="fill:#00ff00;stroke:#00ff00;" x="132.917738" xlink:href="#C0_0_c00aead578" y="110.616499"/>
    </g>
    <g clip-path="url(#pe0144026b0)">
     <use style="fill:#00ff00;stroke:#00ff00;" x="153.536849" xlink:href="#C0_0_c00aead578" y="126.35114"/>
    </g>
    <g clip-path="url(#pe0144026b0)">
     <use style="fill:#00ff00;stroke:#00ff00;" x="196.875879" xlink:href="#C0_0_c00aead578" y="142.703147"/>
    </g>
    <g clip-path="url(#pe0144026b0)">
     <use style="fill:#00ff00;stroke:#00ff00;" x="87.591446" xlink:href="#C0_0_c00aead578" y="68.847845"/>
    </g>
    <g clip-path="url(#pe0144026b0)">
     <use style="fill:#00ff00;stroke:#00ff00;" x="92.247566" xlink:href="#C0_0_c00aead578" y="84.799506"/>
    </g>
    <g clip-path="url(#pe0144026b0)">
     <use style="fill:#00ff00;stroke:#00ff00;" x="98.72721" xlink:href="#C0_0_c00aead578" y="85.828801"/>
    </g>
    <g clip-path="url(#pe0144026b0)">
     <use style="fill:#00ff00;stroke:#00ff00;" x="103.651121" xlink:href="#C0_0_c00aead578" y="86.612645"/>
    </g>
    <g clip-path="url(#pe0144026b0)">
     <use style="fill:#00ff00;stroke:#00ff00;" x="109.338924" xlink:href="#C0_0_c00aead578" y="95.837014"/>
    </g>
    <g clip-path="url(#pe0144026b0)">
     <use style="fill:#00ff00;stroke:#00ff00;" x="119.932769" xlink:href="#C0_0_c00aead578" y="112.500497"/>
    </g>
    <g clip-path="url(#pe0144026b0)">
     <use style="fill:#00ff00;stroke:#00ff00;" x="123.486853" xlink:href="#C0_0_c00aead578" y="116.973316"/>
    </g>
    <g clip-path="url(#pe0144026b0)">
     <use style="fill:#00ff00;stroke:#00ff00;" x="128.332939" xlink:href="#C0_0_c00aead578" y="120.166612"/>
    </g>
    <g clip-path="url(#pe0144026b0)">
     <use style="fill:#00ff00;stroke:#00ff00;" x="154.403831" xlink:href="#C0_0_c00aead578" y="135.029136"/>
    </g>
    <g clip-path="url(#pe0144026b0)">
     <use style="fill:#00ff00;stroke:#00ff00;" x="159.55223" xlink:href="#C0_0_c00aead578" y="137.186202"/>
    </g>
    <g clip-path="url(#pe0144026b0)">
     <use style="fill:#00ff00;stroke:#00ff00;" x="172.240622" xlink:href="#C0_0_c00aead578" y="141.761291"/>
    </g>
    <g clip-path="url(#pe0144026b0)">
     <use style="fill:#00ff00;stroke:#00ff00;" x="183.724667" xlink:href="#C0_0_c00aead578" y="145.589034"/>
    </g>
   </g>
   <g id="matplotlib.axis_1">
    <g id="xtick_1">
     <g id="line2d_1">
      <defs>
       <path d="M 0 0 
L 0 3.5 
" id="m722f5c28a0" style="stroke:#000000;stroke-width:0.8;"/>
      </defs>
      <g>
       <use style="stroke:#000000;stroke-width:0.8;" x="90.636379" xlink:href="#m722f5c28a0" y="307.584"/>
      </g>
     </g>
     <g id="text_1">
      <!-- −8 -->
      <g transform="translate(83.265285 322.182437)scale(0.1 -0.1)">
       <defs>
        <path d="M 10.59375 35.5 
L 73.1875 35.5 
L 73.1875 27.203125 
L 10.59375 27.203125 
z
" id="DejaVuSans-8722"/>
        <path d="M 31.78125 34.625 
Q 24.75 34.625 20.71875 30.859375 
Q 16.703125 27.09375 16.703125 20.515625 
Q 16.703125 13.921875 20.71875 10.15625 
Q 24.75 6.390625 31.78125 6.390625 
Q 38.8125 6.390625 42.859375 10.171875 
Q 46.921875 13.96875 46.921875 20.515625 
Q 46.921875 27.09375 42.890625 30.859375 
Q 38.875 34.625 31.78125 34.625 
z
M 21.921875 38.8125 
Q 15.578125 40.375 12.03125 44.71875 
Q 8.5 49.078125 8.5 55.328125 
Q 8.5 64.0625 14.71875 69.140625 
Q 20.953125 74.21875 31.78125 74.21875 
Q 42.671875 74.21875 48.875 69.140625 
Q 55.078125 64.0625 55.078125 55.328125 
Q 55.078125 49.078125 51.53125 44.71875 
Q 48 40.375 41.703125 38.8125 
Q 48.828125 37.15625 52.796875 32.3125 
Q 56.78125 27.484375 56.78125 20.515625 
Q 56.78125 9.90625 50.3125 4.234375 
Q 43.84375 -1.421875 31.78125 -1.421875 
Q 19.734375 -1.421875 13.25 4.234375 
Q 6.78125 9.90625 6.78125 20.515625 
Q 6.78125 27.484375 10.78125 32.3125 
Q 14.796875 37.15625 21.921875 38.8125 
z
M 18.3125 54.390625 
Q 18.3125 48.734375 21.84375 45.5625 
Q 25.390625 42.390625 31.78125 42.390625 
Q 38.140625 42.390625 41.71875 45.5625 
Q 45.3125 48.734375 45.3125 54.390625 
Q 45.3125 60.0625 41.71875 63.234375 
Q 38.140625 66.40625 31.78125 66.40625 
Q 25.390625 66.40625 21.84375 63.234375 
Q 18.3125 60.0625 18.3125 54.390625 
z
" id="DejaVuSans-56"/>
       </defs>
       <use xlink:href="#DejaVuSans-8722"/>
       <use x="83.789062" xlink:href="#DejaVuSans-56"/>
      </g>
     </g>
    </g>
    <g id="xtick_2">
     <g id="line2d_2">
      <g>
       <use style="stroke:#000000;stroke-width:0.8;" x="132.485854" xlink:href="#m722f5c28a0" y="307.584"/>
      </g>
     </g>
     <g id="text_2">
      <!-- −6 -->
      <g transform="translate(125.11476 322.182437)scale(0.1 -0.1)">
       <defs>
        <path d="M 33.015625 40.375 
Q 26.375 40.375 22.484375 35.828125 
Q 18.609375 31.296875 18.609375 23.390625 
Q 18.609375 15.53125 22.484375 10.953125 
Q 26.375 6.390625 33.015625 6.390625 
Q 39.65625 6.390625 43.53125 10.953125 
Q 47.40625 15.53125 47.40625 23.390625 
Q 47.40625 31.296875 43.53125 35.828125 
Q 39.65625 40.375 33.015625 40.375 
z
M 52.59375 71.296875 
L 52.59375 62.3125 
Q 48.875 64.0625 45.09375 64.984375 
Q 41.3125 65.921875 37.59375 65.921875 
Q 27.828125 65.921875 22.671875 59.328125 
Q 17.53125 52.734375 16.796875 39.40625 
Q 19.671875 43.65625 24.015625 45.921875 
Q 28.375 48.1875 33.59375 48.1875 
Q 44.578125 48.1875 50.953125 41.515625 
Q 57.328125 34.859375 57.328125 23.390625 
Q 57.328125 12.15625 50.6875 5.359375 
Q 44.046875 -1.421875 33.015625 -1.421875 
Q 20.359375 -1.421875 13.671875 8.265625 
Q 6.984375 17.96875 6.984375 36.375 
Q 6.984375 53.65625 15.1875 63.9375 
Q 23.390625 74.21875 37.203125 74.21875 
Q 40.921875 74.21875 44.703125 73.484375 
Q 48.484375 72.75 52.59375 71.296875 
z
" id="DejaVuSans-54"/>
       </defs>
       <use xlink:href="#DejaVuSans-8722"/>
       <use x="83.789062" xlink:href="#DejaVuSans-54"/>
      </g>
     </g>
    </g>
    <g id="xtick_3">
     <g id="line2d_3">
      <g>
       <use style="stroke:#000000;stroke-width:0.8;" x="174.335329" xlink:href="#m722f5c28a0" y="307.584"/>
      </g>
     </g>
     <g id="text_3">
      <!-- −4 -->
      <g transform="translate(166.964235 322.182437)scale(0.1 -0.1)">
       <defs>
        <path d="M 37.796875 64.3125 
L 12.890625 25.390625 
L 37.796875 25.390625 
z
M 35.203125 72.90625 
L 47.609375 72.90625 
L 47.609375 25.390625 
L 58.015625 25.390625 
L 58.015625 17.1875 
L 47.609375 17.1875 
L 47.609375 0 
L 37.796875 0 
L 37.796875 17.1875 
L 4.890625 17.1875 
L 4.890625 26.703125 
z
" id="DejaVuSans-52"/>
       </defs>
       <use xlink:href="#DejaVuSans-8722"/>
       <use x="83.789062" xlink:href="#DejaVuSans-52"/>
      </g>
     </g>
    </g>
    <g id="xtick_4">
     <g id="line2d_4">
      <g>
       <use style="stroke:#000000;stroke-width:0.8;" x="216.184804" xlink:href="#m722f5c28a0" y="307.584"/>
      </g>
     </g>
     <g id="text_4">
      <!-- −2 -->
      <g transform="translate(208.813711 322.182437)scale(0.1 -0.1)">
       <defs>
        <path d="M 19.1875 8.296875 
L 53.609375 8.296875 
L 53.609375 0 
L 7.328125 0 
L 7.328125 8.296875 
Q 12.9375 14.109375 22.625 23.890625 
Q 32.328125 33.6875 34.8125 36.53125 
Q 39.546875 41.84375 41.421875 45.53125 
Q 43.3125 49.21875 43.3125 52.78125 
Q 43.3125 58.59375 39.234375 62.25 
Q 35.15625 65.921875 28.609375 65.921875 
Q 23.96875 65.921875 18.8125 64.3125 
Q 13.671875 62.703125 7.8125 59.421875 
L 7.8125 69.390625 
Q 13.765625 71.78125 18.9375 73 
Q 24.125 74.21875 28.421875 74.21875 
Q 39.75 74.21875 46.484375 68.546875 
Q 53.21875 62.890625 53.21875 53.421875 
Q 53.21875 48.921875 51.53125 44.890625 
Q 49.859375 40.875 45.40625 35.40625 
Q 44.1875 33.984375 37.640625 27.21875 
Q 31.109375 20.453125 19.1875 8.296875 
z
" id="DejaVuSans-50"/>
       </defs>
       <use xlink:href="#DejaVuSans-8722"/>
       <use x="83.789062" xlink:href="#DejaVuSans-50"/>
      </g>
     </g>
    </g>
    <g id="xtick_5">
     <g id="line2d_5">
      <g>
       <use style="stroke:#000000;stroke-width:0.8;" x="258.03428" xlink:href="#m722f5c28a0" y="307.584"/>
      </g>
     </g>
     <g id="text_5">
      <!-- 0 -->
      <g transform="translate(254.85303 322.182437)scale(0.1 -0.1)">
       <defs>
        <path d="M 31.78125 66.40625 
Q 24.171875 66.40625 20.328125 58.90625 
Q 16.5 51.421875 16.5 36.375 
Q 16.5 21.390625 20.328125 13.890625 
Q 24.171875 6.390625 31.78125 6.390625 
Q 39.453125 6.390625 43.28125 13.890625 
Q 47.125 21.390625 47.125 36.375 
Q 47.125 51.421875 43.28125 58.90625 
Q 39.453125 66.40625 31.78125 66.40625 
z
M 31.78125 74.21875 
Q 44.046875 74.21875 50.515625 64.515625 
Q 56.984375 54.828125 56.984375 36.375 
Q 56.984375 17.96875 50.515625 8.265625 
Q 44.046875 -1.421875 31.78125 -1.421875 
Q 19.53125 -1.421875 13.0625 8.265625 
Q 6.59375 17.96875 6.59375 36.375 
Q 6.59375 54.828125 13.0625 64.515625 
Q 19.53125 74.21875 31.78125 74.21875 
z
" id="DejaVuSans-48"/>
       </defs>
       <use xlink:href="#DejaVuSans-48"/>
      </g>
     </g>
    </g>
    <g id="xtick_6">
     <g id="line2d_6">
      <g>
       <use style="stroke:#000000;stroke-width:0.8;" x="299.883755" xlink:href="#m722f5c28a0" y="307.584"/>
      </g>
     </g>
     <g id="text_6">
      <!-- 2 -->
      <g transform="translate(296.702505 322.182437)scale(0.1 -0.1)">
       <use xlink:href="#DejaVuSans-50"/>
      </g>
     </g>
    </g>
    <g id="xtick_7">
     <g id="line2d_7">
      <g>
       <use style="stroke:#000000;stroke-width:0.8;" x="341.73323" xlink:href="#m722f5c28a0" y="307.584"/>
      </g>
     </g>
     <g id="text_7">
      <!-- 4 -->
      <g transform="translate(338.55198 322.182437)scale(0.1 -0.1)">
       <use xlink:href="#DejaVuSans-52"/>
      </g>
     </g>
    </g>
    <g id="xtick_8">
     <g id="line2d_8">
      <g>
       <use style="stroke:#000000;stroke-width:0.8;" x="383.582706" xlink:href="#m722f5c28a0" y="307.584"/>
      </g>
     </g>
     <g id="text_8">
      <!-- 6 -->
      <g transform="translate(380.401456 322.182437)scale(0.1 -0.1)">
       <use xlink:href="#DejaVuSans-54"/>
      </g>
     </g>
    </g>
   </g>
   <g id="matplotlib.axis_2">
    <g id="ytick_1">
     <g id="line2d_9">
      <defs>
       <path d="M 0 0 
L -3.5 0 
" id="mef60cad7c7" style="stroke:#000000;stroke-width:0.8;"/>
      </defs>
      <g>
       <use style="stroke:#000000;stroke-width:0.8;" x="57.6" xlink:href="#mef60cad7c7" y="297.51268"/>
      </g>
     </g>
     <g id="text_9">
      <!-- −10 -->
      <g transform="translate(29.495313 301.311898)scale(0.1 -0.1)">
       <defs>
        <path d="M 12.40625 8.296875 
L 28.515625 8.296875 
L 28.515625 63.921875 
L 10.984375 60.40625 
L 10.984375 69.390625 
L 28.421875 72.90625 
L 38.28125 72.90625 
L 38.28125 8.296875 
L 54.390625 8.296875 
L 54.390625 0 
L 12.40625 0 
z
" id="DejaVuSans-49"/>
       </defs>
       <use xlink:href="#DejaVuSans-8722"/>
       <use x="83.789062" xlink:href="#DejaVuSans-49"/>
       <use x="147.412109" xlink:href="#DejaVuSans-48"/>
      </g>
     </g>
    </g>
    <g id="ytick_2">
     <g id="line2d_10">
      <g>
       <use style="stroke:#000000;stroke-width:0.8;" x="57.6" xlink:href="#mef60cad7c7" y="245.800063"/>
      </g>
     </g>
     <g id="text_10">
      <!-- −5 -->
      <g transform="translate(35.857813 249.599281)scale(0.1 -0.1)">
       <defs>
        <path d="M 10.796875 72.90625 
L 49.515625 72.90625 
L 49.515625 64.59375 
L 19.828125 64.59375 
L 19.828125 46.734375 
Q 21.96875 47.46875 24.109375 47.828125 
Q 26.265625 48.1875 28.421875 48.1875 
Q 40.625 48.1875 47.75 41.5 
Q 54.890625 34.8125 54.890625 23.390625 
Q 54.890625 11.625 47.5625 5.09375 
Q 40.234375 -1.421875 26.90625 -1.421875 
Q 22.3125 -1.421875 17.546875 -0.640625 
Q 12.796875 0.140625 7.71875 1.703125 
L 7.71875 11.625 
Q 12.109375 9.234375 16.796875 8.0625 
Q 21.484375 6.890625 26.703125 6.890625 
Q 35.15625 6.890625 40.078125 11.328125 
Q 45.015625 15.765625 45.015625 23.390625 
Q 45.015625 31 40.078125 35.4375 
Q 35.15625 39.890625 26.703125 39.890625 
Q 22.75 39.890625 18.8125 39.015625 
Q 14.890625 38.140625 10.796875 36.28125 
z
" id="DejaVuSans-53"/>
       </defs>
       <use xlink:href="#DejaVuSans-8722"/>
       <use x="83.789062" xlink:href="#DejaVuSans-53"/>
      </g>
     </g>
    </g>
    <g id="ytick_3">
     <g id="line2d_11">
      <g>
       <use style="stroke:#000000;stroke-width:0.8;" x="57.6" xlink:href="#mef60cad7c7" y="194.087446"/>
      </g>
     </g>
     <g id="text_11">
      <!-- 0 -->
      <g transform="translate(44.2375 197.886664)scale(0.1 -0.1)">
       <use xlink:href="#DejaVuSans-48"/>
      </g>
     </g>
    </g>
    <g id="ytick_4">
     <g id="line2d_12">
      <g>
       <use style="stroke:#000000;stroke-width:0.8;" x="57.6" xlink:href="#mef60cad7c7" y="142.374829"/>
      </g>
     </g>
     <g id="text_12">
      <!-- 5 -->
      <g transform="translate(44.2375 146.174047)scale(0.1 -0.1)">
       <use xlink:href="#DejaVuSans-53"/>
      </g>
     </g>
    </g>
    <g id="ytick_5">
     <g id="line2d_13">
      <g>
       <use style="stroke:#000000;stroke-width:0.8;" x="57.6" xlink:href="#mef60cad7c7" y="90.662212"/>
      </g>
     </g>
     <g id="text_13">
      <!-- 10 -->
      <g transform="translate(37.875 94.46143)scale(0.1 -0.1)">
       <use xlink:href="#DejaVuSans-49"/>
       <use x="63.623047" xlink:href="#DejaVuSans-48"/>
      </g>
     </g>
    </g>
   </g>
   <g id="patch_3">
    <path d="M 57.6 307.584 
L 57.6 41.472 
" style="fill:none;stroke:#000000;stroke-linecap:square;stroke-linejoin:miter;stroke-width:0.8;"/>
   </g>
   <g id="patch_4">
    <path d="M 414.72 307.584 
L 414.72 41.472 
" style="fill:none;stroke:#000000;stroke-linecap:square;stroke-linejoin:miter;stroke-width:0.8;"/>
   </g>
   <g id="patch_5">
    <path d="M 57.6 307.584 
L 414.72 307.584 
" style="fill:none;stroke:#000000;stroke-linecap:square;stroke-linejoin:miter;stroke-width:0.8;"/>
   </g>
   <g id="patch_6">
    <path d="M 57.6 41.472 
L 414.72 41.472 
" style="fill:none;stroke:#000000;stroke-linecap:square;stroke-linejoin:miter;stroke-width:0.8;"/>
   </g>
  </g>
 </g>
 <defs>
  <clipPath id="pe0144026b0">
   <rect height="266.112" width="357.12" x="57.6" y="41.472"/>
  </clipPath>
 </defs>
</svg>
