<svg viewBox="-1280 -636.5 2560 1273" width="2560" height="1273" style="background-color: rgb(255, 255, 255);" xmlns="http://www.w3.org/2000/svg"><path d="M-208.74128950446902,112.89288522682124L-214.5878379441678,112.26709620700669M-214.5878379441678,-224.0386474663319L-214.5878379441678,112.26709620700669M-214.5878379441678,112.26709620700669L-403.35571433535347,157.89666748102067M-208.74128950446902,-223.4128584465174L-208.74128950446902,112.89288522682124M-208.74128950446902,112.89288522682124L-397.5091658956547,158.52245650083518" style="fill:none;stroke:rgb(0,0,0);stroke-width:1;stroke-linecap:round"></path><path d="M-208.74128950446902,112.89288522682124L-214.58783794416777,112.26709620700669L-214.58783794416777,-224.0386474663319zM-208.74128950446902,-223.41285844651736L-208.74128950446902,112.89288522682124L-214.58783794416777,-224.0386474663319z" style="fill:rgb(238,238,238); fill-opacity: 0.2"></path><path d="M-208.74128950446902,-223.4128584465174L-214.5878379441678,-224.0386474663319M-214.5878379441678,-224.0386474663319L-403.35571433535347,-178.40907619231794M-208.74128950446902,-223.4128584465174L-397.5091658956547,-177.7832871725034" style="fill:none;stroke:rgb(0,0,0);stroke-width:1;stroke-linecap:round"></path><path d="M-403.3557143353534,157.89666748102064L-214.58783794416777,112.26709620700669L-208.74128950446902,112.89288522682124zM-397.50916589565463,158.5224565008352L-208.74128950446902,112.89288522682124L-208.74128950446902,-223.41285844651736z" style="fill:rgb(238,238,238); fill-opacity: 0.2"></path><path d="M40.40031166751408,100.9211643369204L-121.70043145728592,83.57060850085145M-121.70043145728592,-156.64779116892186L-121.70043145728592,83.57060850085145M-121.70043145728592,83.57060850085145L-256.53463524001205,116.16316094832979" style="fill:none;stroke:rgb(0,0,0);stroke-width:1;stroke-linecap:round"></path><path d="M-214.58783794416777,-224.0386474663319L-214.58783794416777,112.26709620700669L-403.3557143353534,-178.40907619231794zM-397.50916589565463,-177.7832871725034L-208.74128950446902,-223.41285844651736L-214.58783794416777,-224.0386474663319z" style="fill:rgb(238,238,238); fill-opacity: 0.2"></path><path d="M35.17323797909,-38.90634020414938L-126.92750514571,-56.256896040218315M-126.92750514571,-90.91308438473322L-126.92750514571,-56.256896040218315M-126.92750514571,-56.256896040218315L-146.37996827093514,-51.554784803938944M35.17323797909,-73.56252854866428L-126.92750514571,-90.91308438473322M-126.92750514571,-90.91308438473322L-146.37996827093514,-86.21097314845385M40.40031166751408,-139.29723533285292L-121.70043145728592,-156.64779116892186M-121.70043145728592,-156.64779116892186L-256.53463524001205,-124.05523872144353" style="fill:none;stroke:rgb(0,0,0);stroke-width:1;stroke-linecap:round"></path><path d="M-126.92750514571003,-90.9130843847332L-126.92750514571003,-56.25689604021831L-146.37996827093517,-86.21097314845383z" style="fill:rgb(153,221,255); fill-opacity: 0.4"></path><path d="M40.40031166751408,100.92116433692037L-121.70043145728593,83.57060850085145L-121.70043145728593,-156.64779116892186z" style="fill:rgb(238,238,238); fill-opacity: 0.2"></path><path d="M-126.92750514571003,-56.25689604021831L-146.37996827093517,-51.554784803938944L-146.37996827093517,-86.21097314845383z" style="fill:rgb(153,221,255); fill-opacity: 0.4"></path><path d="M-146.37996827093514,-86.21097314845385L-146.37996827093514,-51.554784803938944M-146.37996827093514,-51.554784803938944L15.720774853864858,-34.204228967870016" style="fill:none;stroke:rgb(0,0,0);stroke-width:1;stroke-linecap:round"></path><path d="M-397.50916589565463,158.5224565008352L-403.3557143353534,157.89666748102064L-208.74128950446902,112.89288522682124z" style="fill:rgb(238,238,238); fill-opacity: 0.2"></path><path d="M-146.37996827093514,-86.21097314845385L15.720774853864858,-68.86041731238491" style="fill:none;stroke:rgb(0,0,0);stroke-width:1;stroke-linecap:round"></path><path d="M35.17323797909,-38.906340204149366L-126.92750514571003,-56.25689604021831L-126.92750514571003,-90.9130843847332z" style="fill:rgb(153,221,255); fill-opacity: 0.4"></path><path d="M-319.72992241748534,-87.49289110748938L-325.57647085718406,-88.11868012730393M-325.57647085718406,-122.7748684718188L-325.57647085718406,-88.11868012730393M-325.57647085718406,-88.11868012730393L-345.0289339824092,-83.41656889102455" style="fill:none;stroke:rgb(0,0,0);stroke-width:1;stroke-linecap:round"></path><path d="M-146.37996827093517,-51.554784803938944L-126.92750514571003,-56.25689604021831L35.17323797909,-38.906340204149366z" style="fill:rgb(153,221,255); fill-opacity: 0.4"></path><path d="M-322.6531866517422,-122.46197542080144L-322.6531866517422,-87.80578707628653M-322.6531866517422,-87.80578707628653L-342.1056497769673,-83.10367584000716M-322.6531866517422,-87.80578707628653L-207.92532744146922,-70.25997868035174" style="fill:none;stroke:rgb(0,0,0);stroke-width:1;stroke-linecap:round"></path><path d="M-319.72992241748534,-87.49289110748938L-325.57647085718406,-88.11868012730393L-325.57647085718406,-122.77486847181883z" style="fill:rgb(153,221,255); fill-opacity: 0.4"></path><path d="M-214.58783794416777,112.26709620700669L-403.3557143353534,157.89666748102064L-403.3557143353534,-178.40907619231794z" style="fill:rgb(238,238,238); fill-opacity: 0.2"></path><path d="M-319.72992241748534,-122.14907945200429L-319.72992241748534,-87.49289110748938M-319.72992241748534,-87.49289110748938L-339.1823855427105,-82.79077987121003M-319.72992241748534,-122.14907945200429L-325.57647085718406,-122.7748684718188M-325.57647085718406,-122.7748684718188L-345.0289339824092,-118.07275723553946" style="fill:none;stroke:rgb(0,0,0);stroke-width:1;stroke-linecap:round"></path><path d="M-319.72992241748534,-122.14907945200432L-319.72992241748534,-87.49289110748938L-325.57647085718406,-122.77486847181883z" style="fill:rgb(153,221,255); fill-opacity: 0.4"></path><path d="M-322.6531866517422,-122.46197542080144L-342.1056497769673,-117.75986418452209M-322.6531866517422,-122.46197542080144L-207.92532744146922,-70.25997868035174M-319.72992241748534,-122.14907945200429L-339.1823855427105,-117.44696821572492" style="fill:none;stroke:rgb(0,0,0);stroke-width:1;stroke-linecap:round"></path><path d="M-345.0289339824092,-83.41656889102455L-325.57647085718406,-88.11868012730393L-319.72992241748534,-87.49289110748938zM-325.57647085718406,-122.77486847181883L-325.57647085718406,-88.11868012730393L-345.0289339824092,-118.07275723553946z" style="fill:rgb(153,221,255); fill-opacity: 0.4"></path><path d="M-322.6531966373347,-122.46197396191155L-322.6531966373347,-87.80578561739667L-342.10565976255987,-83.10367438111729z" style="fill:rgb(255,187,187); fill-opacity: 0.4"></path><path d="M-339.1823855427105,-82.79077987121003L-319.72992241748534,-87.49289110748938L-319.72992241748534,-122.14907945200432zM-146.37996827093517,-86.21097314845383L15.720774853864864,-68.8604173123849L-126.92750514571003,-90.9130843847332z" style="fill:rgb(153,221,255); fill-opacity: 0.4"></path><path d="M-121.70043145728593,-156.64779116892186L-121.70043145728593,83.57060850085145L-256.53463524001205,-124.05523872144353z" style="fill:rgb(238,238,238); fill-opacity: 0.2"></path><path d="M-339.1823855427105,-117.44696821572492L-319.72992241748534,-122.14907945200432L-325.57647085718406,-122.77486847181883zM-325.57647085718406,-88.11868012730393L-345.0289339824092,-83.41656889102455L-345.0289339824092,-118.07275723553946zM-339.1823855427105,-82.79077987121003L-345.0289339824092,-83.41656889102455L-319.72992241748534,-87.49289110748938z" style="fill:rgb(153,221,255); fill-opacity: 0.4"></path><path d="M40.40031166751408,-139.29723533285295L40.40031166751408,100.92116433692037L-121.70043145728593,-156.64779116892186z" style="fill:rgb(238,238,238); fill-opacity: 0.2"></path><path d="M-146.37996827093517,-86.21097314845383L-146.37996827093517,-51.554784803938944L15.720774853864864,-68.8604173123849z" style="fill:rgb(153,221,255); fill-opacity: 0.4"></path><path d="M-322.6531966373347,-122.46197396191155L-342.10565976255987,-83.10367438111729L-342.10565976255987,-117.75986272563219z" style="fill:rgb(255,187,187); fill-opacity: 0.4"></path><path d="M-397.50916589565463,-177.7832871725034L-397.50916589565463,158.5224565008352L-208.74128950446902,-223.41285844651736z" style="fill:rgb(238,238,238); fill-opacity: 0.2"></path><path d="M-345.0289339824092,-118.07275723553946L-339.1823855427105,-117.44696821572492L-325.57647085718406,-122.77486847181883zM-339.1823855427105,-117.44696821572492L-339.1823855427105,-82.79077987121003L-319.72992241748534,-122.14907945200432z" style="fill:rgb(153,221,255); fill-opacity: 0.4"></path><path d="M-256.53463524001205,116.16316094832979L-121.70043145728593,83.57060850085145L40.40031166751408,100.92116433692037z" style="fill:rgb(238,238,238); fill-opacity: 0.2"></path><path d="M-345.0289339824092,-118.07275723553946L-345.0289339824092,-83.41656889102455M-345.0289339824092,-83.41656889102455L-339.1823855427105,-82.79077987121003" style="fill:none;stroke:rgb(0,0,0);stroke-width:1;stroke-linecap:round"></path><path d="M-322.6531966373347,-87.80578561739667L-322.6531966373347,-122.46197396191155L-207.92533761167596,-70.25997843557644z" style="fill:rgb(255,187,187); fill-opacity: 0.4"></path><path d="M35.17323797909,-73.56252854866428L35.17323797909,-38.906340204149366L-126.92750514571003,-90.9130843847332z" style="fill:rgb(153,221,255); fill-opacity: 0.4"></path><path d="M-342.1056497769673,-83.10367584000716L-342.1056497769673,-117.75986418452209M-342.1056497769673,-83.10367584000716L-207.92532744146922,-70.25997868035174M40.40031166751408,-139.29723533285292L40.40031166751408,100.9211643369204M40.40031166751408,100.9211643369204L-94.43389211521207,133.51371678439872M-339.1823855427105,-117.44696821572492L-339.1823855427105,-82.79077987121003" style="fill:none;stroke:rgb(0,0,0);stroke-width:1;stroke-linecap:round"></path><path d="M-345.0289339824092,-83.41656889102455L-339.1823855427105,-82.79077987121003L-339.1823855427105,-117.44696821572492zM-345.0289339824092,-118.07275723553946L-345.0289339824092,-83.41656889102455L-339.1823855427105,-117.44696821572492z" style="fill:rgb(153,221,255); fill-opacity: 0.4"></path><path d="M-345.0289339824092,-118.07275723553946L-339.1823855427105,-117.44696821572492M-342.1056497769673,-117.75986418452209L-207.92532744146922,-70.25997868035174" style="fill:none;stroke:rgb(0,0,0);stroke-width:1;stroke-linecap:round"></path><path d="M-342.10565976255987,-83.10367438111729L-322.6531966373347,-87.80578561739667L-207.92533761167596,-70.25997843557644z" style="fill:rgb(255,187,187); fill-opacity: 0.4"></path><path d="M-403.3557143353534,-178.40907619231794L-397.50916589565463,-177.7832871725034L-214.58783794416777,-224.0386474663319z" style="fill:rgb(238,238,238); fill-opacity: 0.2"></path><path d="M-322.6531966373347,-122.46197396191155L-342.10565976255987,-117.75986272563219L-207.92533761167596,-70.25997843557644z" style="fill:rgb(255,187,187); fill-opacity: 0.4"></path><path d="M15.720774853864864,-68.8604173123849L35.17323797909,-73.56252854866428L-126.92750514571003,-90.9130843847332zM15.720774853864864,-34.20422896787L-146.37996827093517,-51.554784803938944L35.17323797909,-38.906340204149366z" style="fill:rgb(153,221,255); fill-opacity: 0.4"></path><path d="M-342.10565976255987,-117.75986272563219L-342.10565976255987,-83.10367438111729L-207.92533761167596,-70.25997843557644z" style="fill:rgb(255,187,187); fill-opacity: 0.4"></path><path d="M-146.37996827093517,-51.554784803938944L15.720774853864864,-34.20422896787L15.720774853864864,-68.8604173123849z" style="fill:rgb(153,221,255); fill-opacity: 0.4"></path><path d="M35.17323797909,-73.56252854866428L35.17323797909,-38.90634020414938M35.17323797909,-38.90634020414938L15.720774853864858,-34.204228967870016M35.173237350604055,-73.56253016828838L35.173237350604055,-38.90634017123763M35.173237350604055,-38.90634017123763L15.72077422537892,-34.204228934958266M35.173237350604055,-38.90634017123763L121.39245680050287,-20.970950740698555M35.17323797909,-73.56252854866428L15.720774853864858,-68.86041731238491M35.173237350604055,-73.56253016828838L15.72077422537892,-68.860418932009M35.173237350604055,-73.56253016828838L121.39245680050287,-20.970950740698555M40.40031166751408,-139.29723533285292L-94.43389211521207,-106.70468288537458" style="fill:none;stroke:rgb(0,0,0);stroke-width:1;stroke-linecap:round"></path><path d="M-121.70043145728593,83.57060850085145L-256.53463524001205,116.16316094832979L-256.53463524001205,-124.05523872144353z" style="fill:rgb(238,238,238); fill-opacity: 0.2"></path><path d="M35.17323775637693,-73.5625285725025L35.17323775637693,-38.9063402279876L15.720774631151793,-34.204228991708234z" style="fill:rgb(255,187,187); fill-opacity: 0.4"></path><path d="M15.720774853864864,-34.20422896787L35.17323797909,-38.906340204149366L35.17323797909,-73.56252854866428z" style="fill:rgb(153,221,255); fill-opacity: 0.4"></path><path d="M-403.35571433535347,-178.40907619231794L-403.35571433535347,157.89666748102067M-403.35571433535347,157.89666748102067L-397.5091658956547,158.52245650083518M-397.5091658956547,-177.7832871725034L-397.5091658956547,158.52245650083518" style="fill:none;stroke:rgb(0,0,0);stroke-width:1;stroke-linecap:round"></path><path d="M35.17323775637693,-73.5625285725025L15.720774631151793,-34.204228991708234L15.720774631151793,-68.86041733622314z" style="fill:rgb(255,187,187); fill-opacity: 0.4"></path><path d="M15.720774853864864,-68.8604173123849L15.720774853864864,-34.20422896787L35.17323797909,-73.56252854866428z" style="fill:rgb(153,221,255); fill-opacity: 0.4"></path><path d="M15.720774853864858,-68.86041731238491L15.720774853864858,-34.204228967870016M15.72077422537892,-34.204228934958266L15.72077422537892,-68.860418932009M15.72077422537892,-34.204228934958266L121.39245680050287,-20.970950740698555M15.72077422537892,-68.860418932009L121.39245680050287,-20.970950740698555" style="fill:none;stroke:rgb(0,0,0);stroke-width:1;stroke-linecap:round"></path><path d="M-403.3557143353534,157.89666748102064L-397.50916589565463,158.5224565008352L-397.50916589565463,-177.7832871725034zM-94.43389211521207,-106.70468288537461L40.40031166751408,-139.29723533285295L-121.70043145728593,-156.64779116892186z" style="fill:rgb(238,238,238); fill-opacity: 0.2"></path><path d="M35.17323775637693,-38.9063402279876L35.17323775637693,-73.5625285725025L121.39245633160911,-20.9709505921988z" style="fill:rgb(255,187,187); fill-opacity: 0.4"></path><path d="M-94.43389211521207,133.5137167843987L40.40031166751408,100.92116433692037L40.40031166751408,-139.29723533285295z" style="fill:rgb(238,238,238); fill-opacity: 0.2"></path><path d="M15.720774631151793,-34.204228991708234L35.17323775637693,-38.9063402279876L121.39245633160911,-20.9709505921988z" style="fill:rgb(255,187,187); fill-opacity: 0.4"></path><path d="M-403.3557143353534,-178.40907619231794L-403.3557143353534,157.89666748102064L-397.50916589565463,-177.7832871725034z" style="fill:rgb(238,238,238); fill-opacity: 0.2"></path><path d="M35.17323775637693,-73.5625285725025L15.720774631151793,-68.86041733622314L121.39245633160911,-20.9709505921988zM15.720774631151793,-68.86041733622314L15.720774631151793,-34.204228991708234L121.39245633160911,-20.9709505921988z" style="fill:rgb(255,187,187); fill-opacity: 0.4"></path><path d="M-256.53463524001205,-124.05523872144353L-256.53463524001205,116.16316094832979M-256.53463524001205,116.16316094832979L-94.43389211521207,133.51371678439872" style="fill:none;stroke:rgb(0,0,0);stroke-width:1;stroke-linecap:round"></path><path d="M-94.43389211521207,133.5137167843987L-256.53463524001205,116.16316094832979L40.40031166751408,100.92116433692037zM-256.53463524001205,-124.05523872144353L-94.43389211521207,-106.70468288537461L-121.70043145728593,-156.64779116892186z" style="fill:rgb(238,238,238); fill-opacity: 0.2"></path><path d="M-403.35571433535347,-178.40907619231794L-397.5091658956547,-177.7832871725034M332.990367929481,93.59996575797211L130.36443344777786,71.91177036608701M130.36443344777786,-72.21925885954762L130.36443344777786,71.91177036608701M130.36443344777786,71.91177036608701L49.463917114562825,91.46730039960353M-256.53463524001205,-124.05523872144353L-94.43389211521207,-106.70468288537458M332.990367929481,-50.53106346766253L130.36443344777786,-72.21925885954762M130.36443344777786,-72.21925885954762L49.463917114562825,-52.66372882603108" style="fill:none;stroke:rgb(0,0,0);stroke-width:1;stroke-linecap:round"></path><path d="M-256.53463524001205,-124.05523872144353L-256.53463524001205,116.16316094832979L-94.43389211521207,-106.70468288537461zM-94.43389211521207,-106.70468288537461L-94.43389211521207,133.5137167843987L40.40031166751408,-139.29723533285295z" style="fill:rgb(238,238,238); fill-opacity: 0.2"></path><path d="M314.16020493431336,-16.839616288776025L111.53427045261023,-38.52781168066111M111.53427045261023,-59.32152468737005L111.53427045261023,-38.52781168066111M111.53427045261023,-38.52781168066111L99.86279257747512,-35.706544938893494M314.16020493431336,-37.63332929548496L111.53427045261023,-59.32152468737005M111.53427045261023,-59.32152468737005L99.86279257747512,-56.50025794560243" style="fill:none;stroke:rgb(0,0,0);stroke-width:1;stroke-linecap:round"></path><path d="M332.990367929481,93.59996575797209L130.36443344777786,71.91177036608701L130.36443344777786,-72.21925885954762zM-256.53463524001205,116.16316094832979L-94.43389211521207,133.5137167843987L-94.43389211521207,-106.70468288537461z" style="fill:rgb(238,238,238); fill-opacity: 0.2"></path><path d="M111.5342704526102,-59.32152468737005L111.5342704526102,-38.5278116806611L99.86279257747512,-56.50025794560243z" style="fill:rgb(153,221,255); fill-opacity: 0.4"></path><path d="M130.36443344777786,-72.21925885954762L130.36443344777786,71.91177036608701L49.46391711456282,-52.66372882603109z" style="fill:rgb(238,238,238); fill-opacity: 0.2"></path><path d="M111.5342704526102,-38.5278116806611L99.86279257747512,-35.70654493889349L99.86279257747512,-56.50025794560243z" style="fill:rgb(153,221,255); fill-opacity: 0.4"></path><path d="M99.86279257747512,-56.50025794560243L99.86279257747512,-35.706544938893494M99.86279257747512,-35.706544938893494L302.48872705917825,-14.018349547008404M99.86279257747512,-56.50025794560243L302.48872705917825,-34.81206255371735M-94.43389211521207,-106.70468288537458L-94.43389211521207,133.51371678439872" style="fill:none;stroke:rgb(0,0,0);stroke-width:1;stroke-linecap:round"></path><path d="M49.46391711456282,91.46730039960353L130.36443344777786,71.91177036608701L332.990367929481,93.59996575797209zM130.36443344777786,71.91177036608701L49.46391711456282,91.46730039960353L49.46391711456282,-52.66372882603109z" style="fill:rgb(238,238,238); fill-opacity: 0.2"></path><path d="M314.16020493431336,-16.83961628877602L111.5342704526102,-38.5278116806611L111.5342704526102,-59.32152468737005zM99.86279257747512,-35.70654493889349L111.5342704526102,-38.5278116806611L314.16020493431336,-16.83961628877602z" style="fill:rgb(153,221,255); fill-opacity: 0.4"></path><path d="M332.990367929481,-50.53106346766254L332.990367929481,93.59996575797209L130.36443344777786,-72.21925885954762z" style="fill:rgb(238,238,238); fill-opacity: 0.2"></path><path d="M99.86279257747512,-56.50025794560243L302.48872705917825,-34.81206255371733L111.5342704526102,-59.32152468737005zM99.86279257747512,-56.50025794560243L99.86279257747512,-35.70654493889349L302.48872705917825,-34.81206255371733z" style="fill:rgb(153,221,255); fill-opacity: 0.4"></path><path d="M49.463917114562825,-52.66372882603108L49.463917114562825,91.46730039960353M49.463917114562825,91.46730039960353L252.08985159626593,113.15549579148863M332.990367929481,-50.53106346766253L332.990367929481,93.59996575797211M332.990367929481,93.59996575797211L252.08985159626593,113.15549579148863" style="fill:none;stroke:rgb(0,0,0);stroke-width:1;stroke-linecap:round"></path><path d="M314.16020493431336,-37.63332929548496L314.16020493431336,-16.83961628877602L111.5342704526102,-59.32152468737005z" style="fill:rgb(153,221,255); fill-opacity: 0.4"></path><path d="M49.463917114562825,-52.66372882603108L252.08985159626593,-30.975533434146" style="fill:none;stroke:rgb(0,0,0);stroke-width:1;stroke-linecap:round"></path><path d="M302.48872705917825,-34.81206255371733L314.16020493431336,-37.63332929548496L111.5342704526102,-59.32152468737005zM302.48872705917825,-14.018349547008404L99.86279257747512,-35.70654493889349L314.16020493431336,-16.83961628877602z" style="fill:rgb(153,221,255); fill-opacity: 0.4"></path><path d="M49.46391711456282,-52.66372882603109L252.08985159626593,-30.975533434146L130.36443344777786,-72.21925885954762zM252.08985159626593,-30.975533434146L332.990367929481,-50.53106346766254L130.36443344777786,-72.21925885954762z" style="fill:rgb(238,238,238); fill-opacity: 0.2"></path><path d="M99.86279257747512,-35.70654493889349L302.48872705917825,-14.018349547008404L302.48872705917825,-34.81206255371733z" style="fill:rgb(153,221,255); fill-opacity: 0.4"></path><path d="M332.990367929481,-50.53106346766253L252.08985159626593,-30.975533434146" style="fill:none;stroke:rgb(0,0,0);stroke-width:1;stroke-linecap:round"></path><path d="M252.08985159626593,113.15549579148862L49.46391711456282,91.46730039960353L332.990367929481,93.59996575797209z" style="fill:rgb(238,238,238); fill-opacity: 0.2"></path><path d="M314.1601967786011,-37.63333116162776L314.1601967786011,-16.839618154918828M314.1601967786011,-16.839618154918828L302.488718903466,-14.018351413151203M314.1601967786011,-16.839618154918828L419.9939742466333,5.735960245672191M314.16020493431336,-37.63332929548496L314.16020493431336,-16.839616288776025M314.16020493431336,-16.839616288776025L302.48872705917825,-14.018349547008404" style="fill:none;stroke:rgb(0,0,0);stroke-width:1;stroke-linecap:round"></path><path d="M49.46391711456282,-52.66372882603109L49.46391711456282,91.46730039960353L252.08985159626593,-30.975533434146zM252.08985159626593,113.15549579148862L332.990367929481,93.59996575797209L332.990367929481,-50.53106346766254z" style="fill:rgb(238,238,238); fill-opacity: 0.2"></path><path d="M314.1601967786011,-37.63333116162776L302.488718903466,-34.812064419860135M314.1601967786011,-37.63333116162776L419.9939742466333,5.735960245672191M314.16020493431336,-37.63332929548496L302.48872705917825,-34.81206255371735" style="fill:none;stroke:rgb(0,0,0);stroke-width:1;stroke-linecap:round"></path><path d="M314.16020186807043,-37.633329623682215L314.16020186807043,-16.83961661697327L302.4887239929353,-14.018349875205654z" style="fill:rgb(255,187,187); fill-opacity: 0.4"></path><path d="M302.48872705917825,-14.018349547008404L314.16020493431336,-16.83961628877602L314.16020493431336,-37.63332929548496z" style="fill:rgb(153,221,255); fill-opacity: 0.4"></path><path d="M314.16020186807043,-37.633329623682215L302.4887239929353,-14.018349875205654L302.4887239929353,-34.812062881914585z" style="fill:rgb(255,187,187); fill-opacity: 0.4"></path><path d="M302.48872705917825,-34.81206255371733L302.48872705917825,-14.018349547008404L314.16020493431336,-37.63332929548496z" style="fill:rgb(153,221,255); fill-opacity: 0.4"></path><path d="M302.488718903466,-14.018351413151203L302.488718903466,-34.812064419860135M302.488718903466,-14.018351413151203L419.9939742466333,5.735960245672191M302.48872705917825,-34.81206255371735L302.48872705917825,-14.018349547008404M302.488718903466,-34.812064419860135L419.9939742466333,5.735960245672191" style="fill:none;stroke:rgb(0,0,0);stroke-width:1;stroke-linecap:round"></path><path d="M314.16020186807043,-16.83961661697327L314.16020186807043,-37.633329623682215L419.99397964652076,5.735959174566527zM302.4887239929353,-14.018349875205654L314.16020186807043,-16.83961661697327L419.99397964652076,5.735959174566527z" style="fill:rgb(255,187,187); fill-opacity: 0.4"></path><path d="M49.46391711456282,91.46730039960353L252.08985159626593,113.15549579148862L252.08985159626593,-30.975533434146z" style="fill:rgb(238,238,238); fill-opacity: 0.2"></path><path d="M314.16020186807043,-37.633329623682215L302.4887239929353,-34.812062881914585L419.99397964652076,5.735959174566527zM302.4887239929353,-34.812062881914585L302.4887239929353,-14.018349875205654L419.99397964652076,5.735959174566527z" style="fill:rgb(255,187,187); fill-opacity: 0.4"></path><path d="M252.08985159626593,-30.975533434146L252.08985159626593,113.15549579148862L332.990367929481,-50.53106346766254z" style="fill:rgb(238,238,238); fill-opacity: 0.2"></path><path d="M639.0638469205588,107.04135959549582L436.4379124388557,85.35316420361072M436.4379124388557,-10.734193020241252L436.4379124388557,85.35316420361072M436.4379124388557,85.35316420361072L382.5042324098703,98.39018482385946M639.0638469205588,10.954002371643831L436.4379124388557,-10.734193020241252M436.4379124388557,-10.734193020241252L382.5042324098703,2.3028276000074634M252.08985159626593,-30.975533434146L252.08985159626593,113.15549579148863" style="fill:none;stroke:rgb(0,0,0);stroke-width:1;stroke-linecap:round"></path><path d="M436.4379124388557,-10.734193020241248L436.4379124388557,85.35316420361072L382.5042324098704,2.3028276000074674zM639.0638469205588,107.04135959549582L436.4379124388557,85.35316420361072L436.4379124388557,-10.734193020241248zM436.4379124388557,85.35316420361072L382.5042324098704,98.39018482385946L382.5042324098704,2.3028276000074674zM382.5042324098704,98.39018482385946L436.4379124388557,85.35316420361072L639.0638469205588,107.04135959549582z" style="fill:rgb(238,238,238); fill-opacity: 0.2"></path><path d="M382.5042324098703,2.3028276000074634L382.5042324098703,98.39018482385946M382.5042324098703,98.39018482385946L585.1301668915735,120.07838021574452M382.5042324098703,2.3028276000074634L585.1301668915735,23.991022991892546" style="fill:none;stroke:rgb(0,0,0);stroke-width:1;stroke-linecap:round"></path><path d="M639.0638469205588,10.954002371643835L639.0638469205588,107.04135959549582L436.4379124388557,-10.734193020241248zM382.5042324098704,2.3028276000074674L585.1301668915735,23.99102299189255L436.4379124388557,-10.734193020241248zM585.1301668915735,23.99102299189255L639.0638469205588,10.954002371643835L436.4379124388557,-10.734193020241248z" style="fill:rgb(238,238,238); fill-opacity: 0.2"></path><path d="M639.0638469205588,10.954002371643831L639.0638469205588,107.04135959549582M639.0638469205588,107.04135959549582L585.1301668915735,120.07838021574452" style="fill:none;stroke:rgb(0,0,0);stroke-width:1;stroke-linecap:round"></path><path d="M382.5042324098704,2.3028276000074674L382.5042324098704,98.39018482385946L585.1301668915735,23.99102299189255zM585.1301668915735,120.07838021574452L382.5042324098704,98.39018482385946L639.0638469205588,107.04135959549582z" style="fill:rgb(238,238,238); fill-opacity: 0.2"></path><path d="M639.0638469205588,10.954002371643831L585.1301668915735,23.991022991892546" style="fill:none;stroke:rgb(0,0,0);stroke-width:1;stroke-linecap:round"></path><path d="M585.1301668915735,120.07838021574452L639.0638469205588,107.04135959549582L639.0638469205588,10.954002371643835zM382.5042324098704,98.39018482385946L585.1301668915735,120.07838021574452L585.1301668915735,23.99102299189255zM585.1301668915735,23.99102299189255L585.1301668915735,120.07838021574452L639.0638469205588,10.954002371643835z" style="fill:rgb(238,238,238); fill-opacity: 0.2"></path><path d="M638.2061451144438,68.31079945886052L704.4670274310297,75.40307501675848M585.1301668915735,23.991022991892546L585.1301668915735,120.07838021574452M803.2991712014883,297.4757316920707L762.7739854202883,293.1380927330535M762.7739854202883,-139.25502138442383L762.7739854202883,293.1380927330535M762.7739854202883,293.1380927330535L735.8071454057956,299.6566030431778" style="fill:none;stroke:rgb(0,0,0);stroke-width:1;stroke-linecap:round"></path><path d="M735.8071454057958,299.6566030431778L762.7739854202883,293.1380927330535L803.2991712014883,297.4757316920707z" style="fill:rgb(238,238,238); fill-opacity: 0.2"></path><path d="M803.2991712014883,-134.9173824254066L803.2991712014883,297.4757316920707M803.2991712014883,297.4757316920707L776.3323311869956,303.99424200219505" style="fill:none;stroke:rgb(0,0,0);stroke-width:1;stroke-linecap:round"></path><path d="M803.2991712014883,297.4757316920707L762.7739854202883,293.1380927330535L762.7739854202883,-139.25502138442383z" style="fill:rgb(238,238,238); fill-opacity: 0.2"></path><path d="M710.1839628231442,60.00243640891292L698.7500920389153,62.76626800918828L743.4440170290214,79.57500181552199zM695.2168312937324,82.99373755990217L704.4670274310297,92.73116918901593L743.4440170290214,79.57500181552199z" style="fill:rgb(0,0,0)"></path><path d="M735.8071454057956,-132.7365110742995L735.8071454057956,299.6566030431778M735.8071454057956,299.6566030431778L776.3323311869956,303.99424200219505" style="fill:none;stroke:rgb(0,0,0);stroke-width:1;stroke-linecap:round"></path><path d="M698.7500920389153,62.76626800918828L695.2168312937324,82.99373755990217L743.4440170290214,79.57500181552199z" style="fill:rgb(0,0,0)"></path><path d="M776.3323311869958,303.99424200219505L735.8071454057958,299.6566030431778L803.2991712014883,297.4757316920707zM762.7739854202883,293.1380927330535L735.8071454057958,299.6566030431778L735.8071454057958,-132.7365110742995zM762.7739854202883,-139.25502138442383L762.7739854202883,293.1380927330535L735.8071454057958,-132.7365110742995zM776.3323311869958,303.99424200219505L803.2991712014883,297.4757316920707L803.2991712014883,-134.9173824254066zM803.2991712014883,-134.9173824254066L803.2991712014883,297.4757316920707L762.7739854202883,-139.25502138442383z" style="fill:rgb(238,238,238); fill-opacity: 0.2"></path><path d="M776.3323311869956,-128.39887211528227L776.3323311869956,303.99424200219505M803.2991712014883,-134.9173824254066L762.7739854202883,-139.25502138442383M762.7739854202883,-139.25502138442383L735.8071454057956,-132.7365110742995" style="fill:none;stroke:rgb(0,0,0);stroke-width:1;stroke-linecap:round"></path><path d="M735.8071454057958,299.6566030431778L776.3323311869958,303.99424200219505L776.3323311869958,-128.39887211528227z" style="fill:rgb(238,238,238); fill-opacity: 0.2"></path><path d="M795.6622995782624,85.16421880224918L861.9231818948483,92.25649436014714" style="fill:none;stroke:rgb(0,0,0);stroke-width:1;stroke-linecap:round"></path><path d="M735.8071454057958,-132.7365110742995L735.8071454057958,299.6566030431778L776.3323311869958,-128.39887211528227z" style="fill:rgb(238,238,238); fill-opacity: 0.2"></path><path d="M803.2991712014883,-134.9173824254066L776.3323311869956,-128.39887211528227" style="fill:none;stroke:rgb(0,0,0);stroke-width:1;stroke-linecap:round"></path><path d="M776.3323311869958,-128.39887211528227L776.3323311869958,303.99424200219505L803.2991712014883,-134.9173824254066zM776.3323311869958,-128.39887211528227L803.2991712014883,-134.9173824254066L762.7739854202883,-139.25502138442383zM735.8071454057958,-132.7365110742995L776.3323311869958,-128.39887211528227L762.7739854202883,-139.25502138442383z" style="fill:rgb(238,238,238); fill-opacity: 0.2"></path><path d="M735.8071454057956,-132.7365110742995L776.3323311869956,-128.39887211528227M960.755325665307,136.20630905777514L920.2301398841071,131.86867009875792M920.2301398841071,55.72123993664902L920.2301398841071,131.86867009875792M920.2301398841071,131.86867009875792L893.2632998696145,138.38718040888227" style="fill:none;stroke:rgb(0,0,0);stroke-width:1;stroke-linecap:round"></path><path d="M867.6401172869629,76.8558557523016L856.2062465027341,79.61968735257695L900.9001714928402,96.42842115891065zM852.6729857575513,99.84715690329084L861.9231818948485,109.58458853240458L900.9001714928402,96.42842115891065z" style="fill:rgb(0,0,0)"></path><path d="M960.755325665307,60.058878895666254L920.2301398841071,55.72123993664902M920.2301398841071,55.72123993664902L893.2632998696145,62.23975024677337" style="fill:none;stroke:rgb(0,0,0);stroke-width:1;stroke-linecap:round"></path><path d="M960.7553256653069,136.20630905777514L920.230139884107,131.86867009875792L920.230139884107,55.72123993664902z" style="fill:rgb(238,238,238); fill-opacity: 0.2"></path><path d="M856.2062465027341,79.61968735257695L852.6729857575513,99.84715690329084L900.9001714928402,96.42842115891065z" style="fill:rgb(0,0,0)"></path><path d="M920.230139884107,55.72123993664902L920.230139884107,131.86867009875792L893.2632998696145,62.239750246773376zM893.2632998696145,138.38718040888227L920.230139884107,131.86867009875792L960.7553256653069,136.20630905777514zM960.7553256653069,60.05887889566626L960.7553256653069,136.20630905777514L920.230139884107,55.72123993664902z" style="fill:rgb(238,238,238); fill-opacity: 0.2"></path><path d="M960.755325665307,60.058878895666254L960.755325665307,136.20630905777514M960.755325665307,136.20630905777514L933.7884856508144,142.7248193678995" style="fill:none;stroke:rgb(0,0,0);stroke-width:1;stroke-linecap:round"></path><path d="M920.230139884107,131.86867009875792L893.2632998696145,138.38718040888227L893.2632998696145,62.239750246773376z" style="fill:rgb(238,238,238); fill-opacity: 0.2"></path><path d="M960.755325665307,60.058878895666254L933.7884856508144,66.57738920579061M893.2632998696145,62.23975024677337L893.2632998696145,138.38718040888227M893.2632998696145,138.38718040888227L933.7884856508144,142.7248193678995" style="fill:none;stroke:rgb(0,0,0);stroke-width:1;stroke-linecap:round"></path><path d="M933.7884856508144,66.57738920579062L960.7553256653069,60.05887889566626L920.230139884107,55.72123993664902zM933.7884856508144,142.7248193678995L960.7553256653069,136.20630905777514L960.7553256653069,60.05887889566626zM933.7884856508144,142.7248193678995L893.2632998696145,138.38718040888227L960.7553256653069,136.20630905777514zM893.2632998696145,62.239750246773376L933.7884856508144,66.57738920579062L920.230139884107,55.72123993664902z" style="fill:rgb(238,238,238); fill-opacity: 0.2"></path><path d="M893.2632998696145,62.23975024677337L933.7884856508144,66.57738920579061M953.1184540420811,102.01763814563783L1019.3793363586672,109.1099137035358" style="fill:none;stroke:rgb(0,0,0);stroke-width:1;stroke-linecap:round"></path><path d="M893.2632998696145,62.239750246773376L893.2632998696145,138.38718040888227L933.7884856508144,66.57738920579062zM933.7884856508144,66.57738920579062L933.7884856508144,142.7248193678995L960.7553256653069,60.05887889566626zM893.2632998696145,138.38718040888227L933.7884856508144,142.7248193678995L933.7884856508144,66.57738920579062z" style="fill:rgb(238,238,238); fill-opacity: 0.2"></path><path d="M933.7884856508144,66.57738920579061L933.7884856508144,142.7248193678995M1118.2114801291257,153.05972840116382L1077.6862943479257,148.7220894421466M1077.6862943479257,72.5746592800377L1077.6862943479257,148.7220894421466M1077.6862943479257,148.7220894421466L1050.719454333433,155.24059975227092" style="fill:none;stroke:rgb(0,0,0);stroke-width:1;stroke-linecap:round"></path><path d="M1025.0962717507814,93.70927509569024L1013.6624009665527,96.4731066959656L1058.3563259566588,113.2818405022993zM1010.1291402213699,116.70057624667949L1019.3793363586672,126.43800787579325L1058.3563259566588,113.2818405022993z" style="fill:rgb(0,0,0)"></path><path d="M1118.2114801291257,76.91229823905493L1077.6862943479257,72.5746592800377M1077.6862943479257,72.5746592800377L1050.719454333433,79.09316959016205" style="fill:none;stroke:rgb(0,0,0);stroke-width:1;stroke-linecap:round"></path><path d="M1118.2114801291257,153.05972840116382L1077.6862943479257,148.7220894421466L1077.6862943479257,72.5746592800377z" style="fill:rgb(238,238,238); fill-opacity: 0.2"></path><path d="M1013.6624009665527,96.4731066959656L1010.1291402213699,116.70057624667949L1058.3563259566588,113.2818405022993z" style="fill:rgb(0,0,0)"></path><path d="M1077.6862943479257,72.5746592800377L1077.6862943479257,148.7220894421466L1050.719454333433,79.09316959016205zM1050.719454333433,155.24059975227092L1077.6862943479257,148.7220894421466L1118.2114801291257,153.05972840116382zM1118.2114801291257,76.91229823905492L1118.2114801291257,153.05972840116382L1077.6862943479257,72.5746592800377z" style="fill:rgb(238,238,238); fill-opacity: 0.2"></path><path d="M1118.2114801291257,76.91229823905493L1118.2114801291257,153.05972840116382M1118.2114801291257,153.05972840116382L1091.244640114633,159.57823871128815" style="fill:none;stroke:rgb(0,0,0);stroke-width:1;stroke-linecap:round"></path><path d="M1077.6862943479257,148.7220894421466L1050.719454333433,155.24059975227092L1050.719454333433,79.09316959016205z" style="fill:rgb(238,238,238); fill-opacity: 0.2"></path><path d="M1118.2114801291257,76.91229823905493L1091.244640114633,83.43080854917928M1050.719454333433,79.09316959016205L1050.719454333433,155.24059975227092M1050.719454333433,155.24059975227092L1091.244640114633,159.57823871128815" style="fill:none;stroke:rgb(0,0,0);stroke-width:1;stroke-linecap:round"></path><path d="M1091.244640114633,83.43080854917928L1118.2114801291257,76.91229823905492L1077.6862943479257,72.5746592800377zM1091.244640114633,159.57823871128815L1118.2114801291257,153.05972840116382L1118.2114801291257,76.91229823905492zM1091.244640114633,159.57823871128815L1050.719454333433,155.24059975227092L1118.2114801291257,153.05972840116382zM1050.719454333433,79.09316959016205L1091.244640114633,83.43080854917928L1077.6862943479257,72.5746592800377z" style="fill:rgb(238,238,238); fill-opacity: 0.2"></path><path d="M1050.719454333433,79.09316959016205L1091.244640114633,83.43080854917928" style="fill:none;stroke:rgb(0,0,0);stroke-width:1;stroke-linecap:round"></path><path d="M1050.719454333433,79.09316959016205L1050.719454333433,155.24059975227092L1091.244640114633,83.43080854917928zM1091.244640114633,83.43080854917928L1091.244640114633,159.57823871128815L1118.2114801291257,76.91229823905492zM1050.719454333433,155.24059975227092L1091.244640114633,159.57823871128815L1091.244640114633,83.43080854917928z" style="fill:rgb(238,238,238); fill-opacity: 0.2"></path><path d="M1091.244640114633,83.43080854917928L1091.244640114633,159.57823871128815" style="fill:none;stroke:rgb(0,0,0);stroke-width:1;stroke-linecap:round"></path></svg>