<?xml version="1.0" encoding="utf-8" standalone="no"?>
<!DOCTYPE svg PUBLIC "-//W3C//DTD SVG 1.1//EN"
  "http://www.w3.org/Graphics/SVG/1.1/DTD/svg11.dtd">
<!-- Created with matplotlib (https://matplotlib.org/) -->
<svg height="345.6pt" version="1.1" viewBox="0 0 460.8 345.6" width="460.8pt" xmlns="http://www.w3.org/2000/svg" xmlns:xlink="http://www.w3.org/1999/xlink">
 <metadata>
  <rdf:RDF xmlns:cc="http://creativecommons.org/ns#" xmlns:dc="http://purl.org/dc/elements/1.1/" xmlns:rdf="http://www.w3.org/1999/02/22-rdf-syntax-ns#">
   <cc:Work>
    <dc:type rdf:resource="http://purl.org/dc/dcmitype/StillImage"/>
    <dc:date>2021-07-14T13:26:00.245794</dc:date>
    <dc:format>image/svg+xml</dc:format>
    <dc:creator>
     <cc:Agent>
      <dc:title>Matplotlib v3.3.3, https://matplotlib.org/</dc:title>
     </cc:Agent>
    </dc:creator>
   </cc:Work>
  </rdf:RDF>
 </metadata>
 <defs>
  <style type="text/css">*{stroke-linecap:butt;stroke-linejoin:round;}</style>
 </defs>
 <g id="figure_1">
  <g id="patch_1">
   <path d="M 0 345.6 
L 460.8 345.6 
L 460.8 0 
L 0 0 
z
" style="fill:#ffffff;"/>
  </g>
  <g id="axes_1">
   <g id="patch_2">
    <path d="M 57.6 307.584 
L 414.72 307.584 
L 414.72 41.472 
L 57.6 41.472 
z
" style="fill:#ffffff;"/>
   </g>
   <g id="PathCollection_1">
    <defs>
     <path d="M 0 2.236068 
C 0.593012 2.236068 1.161816 2.000462 1.581139 1.581139 
C 2.000462 1.161816 2.236068 0.593012 2.236068 -0 
C 2.236068 -0.593012 2.000462 -1.161816 1.581139 -1.581139 
C 1.161816 -2.000462 0.593012 -2.236068 0 -2.236068 
C -0.593012 -2.236068 -1.161816 -2.000462 -1.581139 -1.581139 
C -2.000462 -1.161816 -2.236068 -0.593012 -2.236068 0 
C -2.236068 0.593012 -2.000462 1.161816 -1.581139 1.581139 
C -1.161816 2.000462 -0.593012 2.236068 0 2.236068 
z
" id="C0_0_2508699df2"/>
    </defs>
    <g clip-path="url(#pdb68c79119)">
     <use style="fill:#00ff00;stroke:#00ff00;" x="349.104365" xlink:href="#C0_0_2508699df2" y="149.995019"/>
    </g>
    <g clip-path="url(#pdb68c79119)">
     <use style="fill:#00ff00;stroke:#00ff00;" x="342.85864" xlink:href="#C0_0_2508699df2" y="155.394034"/>
    </g>
    <g clip-path="url(#pdb68c79119)">
     <use style="fill:#00ff00;stroke:#00ff00;" x="340.828815" xlink:href="#C0_0_2508699df2" y="157.298426"/>
    </g>
    <g clip-path="url(#pdb68c79119)">
     <use style="fill:#00ff00;stroke:#00ff00;" x="334.950211" xlink:href="#C0_0_2508699df2" y="161.805903"/>
    </g>
    <g clip-path="url(#pdb68c79119)">
     <use style="fill:#00ff00;stroke:#00ff00;" x="335.216447" xlink:href="#C0_0_2508699df2" y="161.487891"/>
    </g>
    <g clip-path="url(#pdb68c79119)">
     <use style="fill:#00ff00;stroke:#00ff00;" x="334.302926" xlink:href="#C0_0_2508699df2" y="162.271167"/>
    </g>
    <g clip-path="url(#pdb68c79119)">
     <use style="fill:#00ff00;stroke:#00ff00;" x="333.707667" xlink:href="#C0_0_2508699df2" y="162.719519"/>
    </g>
    <g clip-path="url(#pdb68c79119)">
     <use style="fill:#00ff00;stroke:#00ff00;" x="331.190333" xlink:href="#C0_0_2508699df2" y="165.078852"/>
    </g>
    <g clip-path="url(#pdb68c79119)">
     <use style="fill:#00ff00;stroke:#00ff00;" x="324.565341" xlink:href="#C0_0_2508699df2" y="170.812404"/>
    </g>
    <g clip-path="url(#pdb68c79119)">
     <use style="fill:#00ff00;stroke:#00ff00;" x="318.780719" xlink:href="#C0_0_2508699df2" y="175.947749"/>
    </g>
    <g clip-path="url(#pdb68c79119)">
     <use style="fill:#0000ff;stroke:#0000ff;" x="302.549064" xlink:href="#C0_0_2508699df2" y="184.894411"/>
    </g>
    <g clip-path="url(#pdb68c79119)">
     <use style="fill:#0000ff;stroke:#0000ff;" x="281.262854" xlink:href="#C0_0_2508699df2" y="187.899295"/>
    </g>
    <g clip-path="url(#pdb68c79119)">
     <use style="fill:#00ff00;stroke:#00ff00;" x="353.624148" xlink:href="#C0_0_2508699df2" y="156.458831"/>
    </g>
    <g clip-path="url(#pdb68c79119)">
     <use style="fill:#00ff00;stroke:#00ff00;" x="361.608267" xlink:href="#C0_0_2508699df2" y="148.177983"/>
    </g>
    <g clip-path="url(#pdb68c79119)">
     <use style="fill:#00ff00;stroke:#00ff00;" x="349.510902" xlink:href="#C0_0_2508699df2" y="152.531823"/>
    </g>
    <g clip-path="url(#pdb68c79119)">
     <use style="fill:#00ff00;stroke:#00ff00;" x="339.913472" xlink:href="#C0_0_2508699df2" y="157.59216"/>
    </g>
    <g clip-path="url(#pdb68c79119)">
     <use style="fill:#00ff00;stroke:#00ff00;" x="342.305576" xlink:href="#C0_0_2508699df2" y="155.439593"/>
    </g>
    <g clip-path="url(#pdb68c79119)">
     <use style="fill:#00ff00;stroke:#00ff00;" x="334.481645" xlink:href="#C0_0_2508699df2" y="163.172605"/>
    </g>
    <g clip-path="url(#pdb68c79119)">
     <use style="fill:#00ff00;stroke:#00ff00;" x="332.954255" xlink:href="#C0_0_2508699df2" y="163.256383"/>
    </g>
    <g clip-path="url(#pdb68c79119)">
     <use style="fill:#00ff00;stroke:#00ff00;" x="327.485979" xlink:href="#C0_0_2508699df2" y="168.401254"/>
    </g>
    <g clip-path="url(#pdb68c79119)">
     <use style="fill:#00ff00;stroke:#00ff00;" x="319.320972" xlink:href="#C0_0_2508699df2" y="175.232849"/>
    </g>
    <g clip-path="url(#pdb68c79119)">
     <use style="fill:#00ff00;stroke:#00ff00;" x="312.472565" xlink:href="#C0_0_2508699df2" y="178.762772"/>
    </g>
    <g clip-path="url(#pdb68c79119)">
     <use style="fill:#0000ff;stroke:#0000ff;" x="303.492888" xlink:href="#C0_0_2508699df2" y="182.125356"/>
    </g>
    <g clip-path="url(#pdb68c79119)">
     <use style="fill:#0000ff;stroke:#0000ff;" x="295.814073" xlink:href="#C0_0_2508699df2" y="183.715376"/>
    </g>
    <g clip-path="url(#pdb68c79119)">
     <use style="fill:#0000ff;stroke:#0000ff;" x="292.237769" xlink:href="#C0_0_2508699df2" y="188.00187"/>
    </g>
    <g clip-path="url(#pdb68c79119)">
     <use style="fill:#0000ff;stroke:#0000ff;" x="290.306502" xlink:href="#C0_0_2508699df2" y="187.366565"/>
    </g>
    <g clip-path="url(#pdb68c79119)">
     <use style="fill:#0000ff;stroke:#0000ff;" x="288.972344" xlink:href="#C0_0_2508699df2" y="187.342039"/>
    </g>
    <g clip-path="url(#pdb68c79119)">
     <use style="fill:#0000ff;stroke:#0000ff;" x="279.283033" xlink:href="#C0_0_2508699df2" y="185.890515"/>
    </g>
    <g clip-path="url(#pdb68c79119)">
     <use style="fill:#0000ff;stroke:#0000ff;" x="272.745371" xlink:href="#C0_0_2508699df2" y="179.359159"/>
    </g>
    <g clip-path="url(#pdb68c79119)">
     <use style="fill:#00ff00;stroke:#00ff00;" x="191.707458" xlink:href="#C0_0_2508699df2" y="211.771189"/>
    </g>
    <g clip-path="url(#pdb68c79119)">
     <use style="fill:#00ff00;stroke:#00ff00;" x="194.946278" xlink:href="#C0_0_2508699df2" y="211.152429"/>
    </g>
    <g clip-path="url(#pdb68c79119)">
     <use style="fill:#00ff00;stroke:#00ff00;" x="195.060653" xlink:href="#C0_0_2508699df2" y="211.70155"/>
    </g>
    <g clip-path="url(#pdb68c79119)">
     <use style="fill:#00ff00;stroke:#00ff00;" x="200.41758" xlink:href="#C0_0_2508699df2" y="208.797097"/>
    </g>
    <g clip-path="url(#pdb68c79119)">
     <use style="fill:#00ff00;stroke:#00ff00;" x="203.551663" xlink:href="#C0_0_2508699df2" y="208.860809"/>
    </g>
    <g clip-path="url(#pdb68c79119)">
     <use style="fill:#00ff00;stroke:#00ff00;" x="211.783043" xlink:href="#C0_0_2508699df2" y="207.61489"/>
    </g>
    <g clip-path="url(#pdb68c79119)">
     <use style="fill:#00ff00;stroke:#00ff00;" x="220.349106" xlink:href="#C0_0_2508699df2" y="204.651949"/>
    </g>
    <g clip-path="url(#pdb68c79119)">
     <use style="fill:#0000ff;stroke:#0000ff;" x="235.695827" xlink:href="#C0_0_2508699df2" y="197.482405"/>
    </g>
    <g clip-path="url(#pdb68c79119)">
     <use style="fill:#0000ff;stroke:#0000ff;" x="237.811898" xlink:href="#C0_0_2508699df2" y="196.526505"/>
    </g>
    <g clip-path="url(#pdb68c79119)">
     <use style="fill:#0000ff;stroke:#0000ff;" x="239.214431" xlink:href="#C0_0_2508699df2" y="196.827316"/>
    </g>
    <g clip-path="url(#pdb68c79119)">
     <use style="fill:#0000ff;stroke:#0000ff;" x="244.538521" xlink:href="#C0_0_2508699df2" y="194.325127"/>
    </g>
    <g clip-path="url(#pdb68c79119)">
     <use style="fill:#0000ff;stroke:#0000ff;" x="253.810361" xlink:href="#C0_0_2508699df2" y="190.787266"/>
    </g>
    <g clip-path="url(#pdb68c79119)">
     <use style="fill:#0000ff;stroke:#0000ff;" x="257.038592" xlink:href="#C0_0_2508699df2" y="189.496455"/>
    </g>
    <g clip-path="url(#pdb68c79119)">
     <use style="fill:#0000ff;stroke:#0000ff;" x="262.566809" xlink:href="#C0_0_2508699df2" y="187.891082"/>
    </g>
    <g clip-path="url(#pdb68c79119)">
     <use style="fill:#0000ff;stroke:#0000ff;" x="267.099774" xlink:href="#C0_0_2508699df2" y="184.097906"/>
    </g>
    <g clip-path="url(#pdb68c79119)">
     <use style="fill:#00ff00;stroke:#00ff00;" x="320.871868" xlink:href="#C0_0_2508699df2" y="223.140089"/>
    </g>
    <g clip-path="url(#pdb68c79119)">
     <use style="fill:#00ff00;stroke:#00ff00;" x="321.438594" xlink:href="#C0_0_2508699df2" y="218.777003"/>
    </g>
    <g clip-path="url(#pdb68c79119)">
     <use style="fill:#00ff00;stroke:#00ff00;" x="318.978008" xlink:href="#C0_0_2508699df2" y="215.140243"/>
    </g>
    <g clip-path="url(#pdb68c79119)">
     <use style="fill:#00ff00;stroke:#00ff00;" x="319.211054" xlink:href="#C0_0_2508699df2" y="215.880706"/>
    </g>
    <g clip-path="url(#pdb68c79119)">
     <use style="fill:#00ff00;stroke:#00ff00;" x="317.760805" xlink:href="#C0_0_2508699df2" y="214.333009"/>
    </g>
    <g clip-path="url(#pdb68c79119)">
     <use style="fill:#00ff00;stroke:#00ff00;" x="318.858046" xlink:href="#C0_0_2508699df2" y="213.664549"/>
    </g>
    <g clip-path="url(#pdb68c79119)">
     <use style="fill:#00ff00;stroke:#00ff00;" x="318.855559" xlink:href="#C0_0_2508699df2" y="210.542888"/>
    </g>
    <g clip-path="url(#pdb68c79119)">
     <use style="fill:#00ff00;stroke:#00ff00;" x="319.383547" xlink:href="#C0_0_2508699df2" y="208.554643"/>
    </g>
    <g clip-path="url(#pdb68c79119)">
     <use style="fill:#00ff00;stroke:#00ff00;" x="318.947798" xlink:href="#C0_0_2508699df2" y="207.179662"/>
    </g>
    <g clip-path="url(#pdb68c79119)">
     <use style="fill:#00ff00;stroke:#00ff00;" x="315.339249" xlink:href="#C0_0_2508699df2" y="200.33543"/>
    </g>
    <g clip-path="url(#pdb68c79119)">
     <use style="fill:#00ff00;stroke:#00ff00;" x="315.246717" xlink:href="#C0_0_2508699df2" y="199.816352"/>
    </g>
    <g clip-path="url(#pdb68c79119)">
     <use style="fill:#00ff00;stroke:#00ff00;" x="314.310581" xlink:href="#C0_0_2508699df2" y="198.416119"/>
    </g>
    <g clip-path="url(#pdb68c79119)">
     <use style="fill:#0000ff;stroke:#0000ff;" x="311.868207" xlink:href="#C0_0_2508699df2" y="194.420258"/>
    </g>
    <g clip-path="url(#pdb68c79119)">
     <use style="fill:#0000ff;stroke:#0000ff;" x="310.587937" xlink:href="#C0_0_2508699df2" y="192.749006"/>
    </g>
    <g clip-path="url(#pdb68c79119)">
     <use style="fill:#0000ff;stroke:#0000ff;" x="293.871287" xlink:href="#C0_0_2508699df2" y="171.644372"/>
    </g>
    <g clip-path="url(#pdb68c79119)">
     <use style="fill:#0000ff;stroke:#0000ff;" x="289.734629" xlink:href="#C0_0_2508699df2" y="167.078954"/>
    </g>
    <g clip-path="url(#pdb68c79119)">
     <use style="fill:#0000ff;stroke:#0000ff;" x="287.778274" xlink:href="#C0_0_2508699df2" y="163.896056"/>
    </g>
    <g clip-path="url(#pdb68c79119)">
     <use style="fill:#00ff00;stroke:#00ff00;" x="180.213303" xlink:href="#C0_0_2508699df2" y="215.329553"/>
    </g>
    <g clip-path="url(#pdb68c79119)">
     <use style="fill:#00ff00;stroke:#00ff00;" x="183.42784" xlink:href="#C0_0_2508699df2" y="215.436125"/>
    </g>
    <g clip-path="url(#pdb68c79119)">
     <use style="fill:#00ff00;stroke:#00ff00;" x="190.265296" xlink:href="#C0_0_2508699df2" y="213.221334"/>
    </g>
    <g clip-path="url(#pdb68c79119)">
     <use style="fill:#00ff00;stroke:#00ff00;" x="199.502256" xlink:href="#C0_0_2508699df2" y="212.785023"/>
    </g>
    <g clip-path="url(#pdb68c79119)">
     <use style="fill:#00ff00;stroke:#00ff00;" x="202.343639" xlink:href="#C0_0_2508699df2" y="208.969826"/>
    </g>
    <g clip-path="url(#pdb68c79119)">
     <use style="fill:#00ff00;stroke:#00ff00;" x="207.961055" xlink:href="#C0_0_2508699df2" y="208.901859"/>
    </g>
    <g clip-path="url(#pdb68c79119)">
     <use style="fill:#00ff00;stroke:#00ff00;" x="208.368217" xlink:href="#C0_0_2508699df2" y="208.697598"/>
    </g>
    <g clip-path="url(#pdb68c79119)">
     <use style="fill:#00ff00;stroke:#00ff00;" x="208.347066" xlink:href="#C0_0_2508699df2" y="208.57641"/>
    </g>
    <g clip-path="url(#pdb68c79119)">
     <use style="fill:#00ff00;stroke:#00ff00;" x="210.120639" xlink:href="#C0_0_2508699df2" y="208.147666"/>
    </g>
    <g clip-path="url(#pdb68c79119)">
     <use style="fill:#00ff00;stroke:#00ff00;" x="227.185927" xlink:href="#C0_0_2508699df2" y="201.305988"/>
    </g>
    <g clip-path="url(#pdb68c79119)">
     <use style="fill:#0000ff;stroke:#0000ff;" x="244.223253" xlink:href="#C0_0_2508699df2" y="192.741337"/>
    </g>
    <g clip-path="url(#pdb68c79119)">
     <use style="fill:#0000ff;stroke:#0000ff;" x="246.150276" xlink:href="#C0_0_2508699df2" y="194.477381"/>
    </g>
    <g clip-path="url(#pdb68c79119)">
     <use style="fill:#0000ff;stroke:#0000ff;" x="259.605904" xlink:href="#C0_0_2508699df2" y="188.186305"/>
    </g>
    <g clip-path="url(#pdb68c79119)">
     <use style="fill:#0000ff;stroke:#0000ff;" x="267.656323" xlink:href="#C0_0_2508699df2" y="184.049511"/>
    </g>
    <g clip-path="url(#pdb68c79119)">
     <use style="fill:#0000ff;stroke:#0000ff;" x="269.1491" xlink:href="#C0_0_2508699df2" y="182.302023"/>
    </g>
    <g clip-path="url(#pdb68c79119)">
     <use style="fill:#00ff00;stroke:#00ff00;" x="280.819283" xlink:href="#C0_0_2508699df2" y="60.639364"/>
    </g>
    <g clip-path="url(#pdb68c79119)">
     <use style="fill:#00ff00;stroke:#00ff00;" x="279.560203" xlink:href="#C0_0_2508699df2" y="62.112739"/>
    </g>
    <g clip-path="url(#pdb68c79119)">
     <use style="fill:#00ff00;stroke:#00ff00;" x="275.9895" xlink:href="#C0_0_2508699df2" y="75.310807"/>
    </g>
    <g clip-path="url(#pdb68c79119)">
     <use style="fill:#00ff00;stroke:#00ff00;" x="275.101692" xlink:href="#C0_0_2508699df2" y="89.321884"/>
    </g>
    <g clip-path="url(#pdb68c79119)">
     <use style="fill:#00ff00;stroke:#00ff00;" x="272.451812" xlink:href="#C0_0_2508699df2" y="92.555449"/>
    </g>
    <g clip-path="url(#pdb68c79119)">
     <use style="fill:#00ff00;stroke:#00ff00;" x="277.795776" xlink:href="#C0_0_2508699df2" y="115.930212"/>
    </g>
    <g clip-path="url(#pdb68c79119)">
     <use style="fill:#0000ff;stroke:#0000ff;" x="282.752452" xlink:href="#C0_0_2508699df2" y="146.22804"/>
    </g>
    <g clip-path="url(#pdb68c79119)">
     <use style="fill:#0000ff;stroke:#0000ff;" x="282.129497" xlink:href="#C0_0_2508699df2" y="153.057484"/>
    </g>
    <g clip-path="url(#pdb68c79119)">
     <use style="fill:#fe0100;stroke:#fe0100;" x="282.929521" xlink:href="#C0_0_2508699df2" y="156.865202"/>
    </g>
    <g clip-path="url(#pdb68c79119)">
     <use style="fill:#00ff00;stroke:#00ff00;" x="380.601649" xlink:href="#C0_0_2508699df2" y="292.787219"/>
    </g>
    <g clip-path="url(#pdb68c79119)">
     <use style="fill:#00ff00;stroke:#00ff00;" x="388.30365" xlink:href="#C0_0_2508699df2" y="274.396221"/>
    </g>
    <g clip-path="url(#pdb68c79119)">
     <use style="fill:#00ff00;stroke:#00ff00;" x="391.720604" xlink:href="#C0_0_2508699df2" y="226.09753"/>
    </g>
    <g clip-path="url(#pdb68c79119)">
     <use style="fill:#00ff00;stroke:#00ff00;" x="390.019935" xlink:href="#C0_0_2508699df2" y="216.857702"/>
    </g>
    <g clip-path="url(#pdb68c79119)">
     <use style="fill:#00ff00;stroke:#00ff00;" x="389.370642" xlink:href="#C0_0_2508699df2" y="210.500229"/>
    </g>
    <g clip-path="url(#pdb68c79119)">
     <use style="fill:#00ff00;stroke:#00ff00;" x="388.956216" xlink:href="#C0_0_2508699df2" y="210.323584"/>
    </g>
    <g clip-path="url(#pdb68c79119)">
     <use style="fill:#00ff00;stroke:#00ff00;" x="391.387058" xlink:href="#C0_0_2508699df2" y="203.587215"/>
    </g>
    <g clip-path="url(#pdb68c79119)">
     <use style="fill:#00ff00;stroke:#00ff00;" x="393.592688" xlink:href="#C0_0_2508699df2" y="194.966662"/>
    </g>
    <g clip-path="url(#pdb68c79119)">
     <use style="fill:#fe0100;stroke:#fe0100;" x="370.018385" xlink:href="#C0_0_2508699df2" y="204.132624"/>
    </g>
    <g clip-path="url(#pdb68c79119)">
     <use style="fill:#fe0100;stroke:#fe0100;" x="361.058689" xlink:href="#C0_0_2508699df2" y="192.258723"/>
    </g>
    <g clip-path="url(#pdb68c79119)">
     <use style="fill:#00ff00;stroke:#00ff00;" x="381.918701" xlink:href="#C0_0_2508699df2" y="292.114565"/>
    </g>
    <g clip-path="url(#pdb68c79119)">
     <use style="fill:#00ff00;stroke:#00ff00;" x="384.964968" xlink:href="#C0_0_2508699df2" y="292.677645"/>
    </g>
    <g clip-path="url(#pdb68c79119)">
     <use style="fill:#00ff00;stroke:#00ff00;" x="382.448751" xlink:href="#C0_0_2508699df2" y="291.522737"/>
    </g>
    <g clip-path="url(#pdb68c79119)">
     <use style="fill:#00ff00;stroke:#00ff00;" x="385.42981" xlink:href="#C0_0_2508699df2" y="289.9176"/>
    </g>
    <g clip-path="url(#pdb68c79119)">
     <use style="fill:#00ff00;stroke:#00ff00;" x="390.083708" xlink:href="#C0_0_2508699df2" y="284.5315"/>
    </g>
    <g clip-path="url(#pdb68c79119)">
     <use style="fill:#00ff00;stroke:#00ff00;" x="390.856076" xlink:href="#C0_0_2508699df2" y="276.867708"/>
    </g>
    <g clip-path="url(#pdb68c79119)">
     <use style="fill:#00ff00;stroke:#00ff00;" x="388.402328" xlink:href="#C0_0_2508699df2" y="274.788246"/>
    </g>
    <g clip-path="url(#pdb68c79119)">
     <use style="fill:#00ff00;stroke:#00ff00;" x="387.232136" xlink:href="#C0_0_2508699df2" y="271.174257"/>
    </g>
    <g clip-path="url(#pdb68c79119)">
     <use style="fill:#00ff00;stroke:#00ff00;" x="388.968189" xlink:href="#C0_0_2508699df2" y="252.235526"/>
    </g>
    <g clip-path="url(#pdb68c79119)">
     <use style="fill:#00ff00;stroke:#00ff00;" x="387.831864" xlink:href="#C0_0_2508699df2" y="249.746809"/>
    </g>
    <g clip-path="url(#pdb68c79119)">
     <use style="fill:#00ff00;stroke:#00ff00;" x="389.896914" xlink:href="#C0_0_2508699df2" y="247.342783"/>
    </g>
    <g clip-path="url(#pdb68c79119)">
     <use style="fill:#00ff00;stroke:#00ff00;" x="388.793554" xlink:href="#C0_0_2508699df2" y="233.283748"/>
    </g>
    <g clip-path="url(#pdb68c79119)">
     <use style="fill:#00ff00;stroke:#00ff00;" x="390.846285" xlink:href="#C0_0_2508699df2" y="223.302087"/>
    </g>
    <g clip-path="url(#pdb68c79119)">
     <use style="fill:#00ff00;stroke:#00ff00;" x="390.548895" xlink:href="#C0_0_2508699df2" y="215.483988"/>
    </g>
    <g clip-path="url(#pdb68c79119)">
     <use style="fill:#00ff00;stroke:#00ff00;" x="391.253075" xlink:href="#C0_0_2508699df2" y="207.023989"/>
    </g>
    <g clip-path="url(#pdb68c79119)">
     <use style="fill:#00ff00;stroke:#00ff00;" x="394.74008" xlink:href="#C0_0_2508699df2" y="191.906081"/>
    </g>
    <g clip-path="url(#pdb68c79119)">
     <use style="fill:#fe0100;stroke:#fe0100;" x="333.491488" xlink:href="#C0_0_2508699df2" y="224.817119"/>
    </g>
    <g clip-path="url(#pdb68c79119)">
     <use style="fill:#00ff00;stroke:#00ff00;" x="376.545112" xlink:href="#C0_0_2508699df2" y="283.09747"/>
    </g>
    <g clip-path="url(#pdb68c79119)">
     <use style="fill:#00ff00;stroke:#00ff00;" x="379.365982" xlink:href="#C0_0_2508699df2" y="278.016891"/>
    </g>
    <g clip-path="url(#pdb68c79119)">
     <use style="fill:#00ff00;stroke:#00ff00;" x="382.648528" xlink:href="#C0_0_2508699df2" y="260.450343"/>
    </g>
    <g clip-path="url(#pdb68c79119)">
     <use style="fill:#00ff00;stroke:#00ff00;" x="385.14072" xlink:href="#C0_0_2508699df2" y="246.519037"/>
    </g>
    <g clip-path="url(#pdb68c79119)">
     <use style="fill:#00ff00;stroke:#00ff00;" x="388.862274" xlink:href="#C0_0_2508699df2" y="235.857506"/>
    </g>
    <g clip-path="url(#pdb68c79119)">
     <use style="fill:#00ff00;stroke:#00ff00;" x="390.447211" xlink:href="#C0_0_2508699df2" y="233.570321"/>
    </g>
    <g clip-path="url(#pdb68c79119)">
     <use style="fill:#00ff00;stroke:#00ff00;" x="399.077884" xlink:href="#C0_0_2508699df2" y="209.691958"/>
    </g>
    <g clip-path="url(#pdb68c79119)">
     <use style="fill:#00ff00;stroke:#00ff00;" x="400.084562" xlink:href="#C0_0_2508699df2" y="194.810457"/>
    </g>
    <g clip-path="url(#pdb68c79119)">
     <use style="fill:#fe0100;stroke:#fe0100;" x="400.771343" xlink:href="#C0_0_2508699df2" y="190.83873"/>
    </g>
    <g clip-path="url(#pdb68c79119)">
     <use style="fill:#fe0100;stroke:#fe0100;" x="348.03019" xlink:href="#C0_0_2508699df2" y="217.449569"/>
    </g>
    <g clip-path="url(#pdb68c79119)">
     <use style="fill:#00ff00;stroke:#00ff00;" x="282.757972" xlink:href="#C0_0_2508699df2" y="56.268781"/>
    </g>
    <g clip-path="url(#pdb68c79119)">
     <use style="fill:#00ff00;stroke:#00ff00;" x="277.948209" xlink:href="#C0_0_2508699df2" y="64.519522"/>
    </g>
    <g clip-path="url(#pdb68c79119)">
     <use style="fill:#00ff00;stroke:#00ff00;" x="275.327409" xlink:href="#C0_0_2508699df2" y="73.779462"/>
    </g>
    <g clip-path="url(#pdb68c79119)">
     <use style="fill:#00ff00;stroke:#00ff00;" x="276.518685" xlink:href="#C0_0_2508699df2" y="75.359195"/>
    </g>
    <g clip-path="url(#pdb68c79119)">
     <use style="fill:#00ff00;stroke:#00ff00;" x="277.849172" xlink:href="#C0_0_2508699df2" y="77.359247"/>
    </g>
    <g clip-path="url(#pdb68c79119)">
     <use style="fill:#00ff00;stroke:#00ff00;" x="276.013391" xlink:href="#C0_0_2508699df2" y="88.828017"/>
    </g>
    <g clip-path="url(#pdb68c79119)">
     <use style="fill:#00ff00;stroke:#00ff00;" x="275.335058" xlink:href="#C0_0_2508699df2" y="90.804856"/>
    </g>
    <g clip-path="url(#pdb68c79119)">
     <use style="fill:#00ff00;stroke:#00ff00;" x="276.11739" xlink:href="#C0_0_2508699df2" y="94.479554"/>
    </g>
    <g clip-path="url(#pdb68c79119)">
     <use style="fill:#00ff00;stroke:#00ff00;" x="278.406972" xlink:href="#C0_0_2508699df2" y="118.362818"/>
    </g>
    <g clip-path="url(#pdb68c79119)">
     <use style="fill:#0000ff;stroke:#0000ff;" x="282.762469" xlink:href="#C0_0_2508699df2" y="143.199019"/>
    </g>
    <g clip-path="url(#pdb68c79119)">
     <use style="fill:#0000ff;stroke:#0000ff;" x="282.064328" xlink:href="#C0_0_2508699df2" y="145.542019"/>
    </g>
    <g clip-path="url(#pdb68c79119)">
     <use style="fill:#0000ff;stroke:#0000ff;" x="282.953492" xlink:href="#C0_0_2508699df2" y="148.424818"/>
    </g>
    <g clip-path="url(#pdb68c79119)">
     <use style="fill:#0000ff;stroke:#0000ff;" x="282.927353" xlink:href="#C0_0_2508699df2" y="153.033177"/>
    </g>
    <g clip-path="url(#pdb68c79119)">
     <use style="fill:#fe0100;stroke:#fe0100;" x="283.860149" xlink:href="#C0_0_2508699df2" y="155.447629"/>
    </g>
    <g clip-path="url(#pdb68c79119)">
     <use style="fill:#fe0100;stroke:#fe0100;" x="280.472461" xlink:href="#C0_0_2508699df2" y="156.062861"/>
    </g>
    <g clip-path="url(#pdb68c79119)">
     <use style="fill:#fe0100;stroke:#fe0100;" x="78.718037" xlink:href="#C0_0_2508699df2" y="160.525464"/>
    </g>
    <g clip-path="url(#pdb68c79119)">
     <use style="fill:#fe0100;stroke:#fe0100;" x="78.047389" xlink:href="#C0_0_2508699df2" y="158.021737"/>
    </g>
    <g clip-path="url(#pdb68c79119)">
     <use style="fill:#fe0100;stroke:#fe0100;" x="74.377655" xlink:href="#C0_0_2508699df2" y="151.607977"/>
    </g>
    <g clip-path="url(#pdb68c79119)">
     <use style="fill:#fe0100;stroke:#fe0100;" x="74.039812" xlink:href="#C0_0_2508699df2" y="147.441853"/>
    </g>
    <g clip-path="url(#pdb68c79119)">
     <use style="fill:#fe0100;stroke:#fe0100;" x="76.875784" xlink:href="#C0_0_2508699df2" y="136.043979"/>
    </g>
    <g clip-path="url(#pdb68c79119)">
     <use style="fill:#fe0100;stroke:#fe0100;" x="77.769903" xlink:href="#C0_0_2508699df2" y="130.644258"/>
    </g>
    <g clip-path="url(#pdb68c79119)">
     <use style="fill:#fe0100;stroke:#fe0100;" x="80.583074" xlink:href="#C0_0_2508699df2" y="121.018369"/>
    </g>
    <g clip-path="url(#pdb68c79119)">
     <use style="fill:#fe0100;stroke:#fe0100;" x="82.432361" xlink:href="#C0_0_2508699df2" y="117.737772"/>
    </g>
    <g clip-path="url(#pdb68c79119)">
     <use style="fill:#fe0100;stroke:#fe0100;" x="89.145037" xlink:href="#C0_0_2508699df2" y="102.612918"/>
    </g>
    <g clip-path="url(#pdb68c79119)">
     <use style="fill:#fe0100;stroke:#fe0100;" x="94.28074" xlink:href="#C0_0_2508699df2" y="87.647676"/>
    </g>
    <g clip-path="url(#pdb68c79119)">
     <use style="fill:#fe0100;stroke:#fe0100;" x="103.067877" xlink:href="#C0_0_2508699df2" y="79.695967"/>
    </g>
    <g clip-path="url(#pdb68c79119)">
     <use style="fill:#fe0100;stroke:#fe0100;" x="103.700846" xlink:href="#C0_0_2508699df2" y="78.491722"/>
    </g>
    <g clip-path="url(#pdb68c79119)">
     <use style="fill:#fe0100;stroke:#fe0100;" x="112.073931" xlink:href="#C0_0_2508699df2" y="61.235651"/>
    </g>
    <g clip-path="url(#pdb68c79119)">
     <use style="fill:#fe0100;stroke:#fe0100;" x="75.665641" xlink:href="#C0_0_2508699df2" y="180.230659"/>
    </g>
    <g clip-path="url(#pdb68c79119)">
     <use style="fill:#fe0100;stroke:#fe0100;" x="81.921413" xlink:href="#C0_0_2508699df2" y="154.585343"/>
    </g>
    <g clip-path="url(#pdb68c79119)">
     <use style="fill:#fe0100;stroke:#fe0100;" x="82.513629" xlink:href="#C0_0_2508699df2" y="145.521487"/>
    </g>
    <g clip-path="url(#pdb68c79119)">
     <use style="fill:#fe0100;stroke:#fe0100;" x="82.293796" xlink:href="#C0_0_2508699df2" y="140.674337"/>
    </g>
    <g clip-path="url(#pdb68c79119)">
     <use style="fill:#fe0100;stroke:#fe0100;" x="83.660589" xlink:href="#C0_0_2508699df2" y="134.872035"/>
    </g>
    <g clip-path="url(#pdb68c79119)">
     <use style="fill:#fe0100;stroke:#fe0100;" x="88.454987" xlink:href="#C0_0_2508699df2" y="128.453153"/>
    </g>
    <g clip-path="url(#pdb68c79119)">
     <use style="fill:#fe0100;stroke:#fe0100;" x="92.655623" xlink:href="#C0_0_2508699df2" y="123.985399"/>
    </g>
    <g clip-path="url(#pdb68c79119)">
     <use style="fill:#fe0100;stroke:#fe0100;" x="97.859818" xlink:href="#C0_0_2508699df2" y="114.740784"/>
    </g>
    <g clip-path="url(#pdb68c79119)">
     <use style="fill:#fe0100;stroke:#fe0100;" x="99.057084" xlink:href="#C0_0_2508699df2" y="111.916786"/>
    </g>
    <g clip-path="url(#pdb68c79119)">
     <use style="fill:#fe0100;stroke:#fe0100;" x="102.722904" xlink:href="#C0_0_2508699df2" y="105.019728"/>
    </g>
    <g clip-path="url(#pdb68c79119)">
     <use style="fill:#fe0100;stroke:#fe0100;" x="106.759224" xlink:href="#C0_0_2508699df2" y="94.027498"/>
    </g>
    <g clip-path="url(#pdb68c79119)">
     <use style="fill:#fe0100;stroke:#fe0100;" x="106.961437" xlink:href="#C0_0_2508699df2" y="86.602212"/>
    </g>
    <g clip-path="url(#pdb68c79119)">
     <use style="fill:#fe0100;stroke:#fe0100;" x="110.53738" xlink:href="#C0_0_2508699df2" y="72.850684"/>
    </g>
    <g clip-path="url(#pdb68c79119)">
     <use style="fill:#fe0100;stroke:#fe0100;" x="72.173115" xlink:href="#C0_0_2508699df2" y="173.558571"/>
    </g>
    <g clip-path="url(#pdb68c79119)">
     <use style="fill:#fe0100;stroke:#fe0100;" x="71.563184" xlink:href="#C0_0_2508699df2" y="163.128358"/>
    </g>
    <g clip-path="url(#pdb68c79119)">
     <use style="fill:#fe0100;stroke:#fe0100;" x="72.397628" xlink:href="#C0_0_2508699df2" y="154.667796"/>
    </g>
    <g clip-path="url(#pdb68c79119)">
     <use style="fill:#fe0100;stroke:#fe0100;" x="71.548657" xlink:href="#C0_0_2508699df2" y="147.575466"/>
    </g>
    <g clip-path="url(#pdb68c79119)">
     <use style="fill:#fe0100;stroke:#fe0100;" x="76.932858" xlink:href="#C0_0_2508699df2" y="131.854246"/>
    </g>
    <g clip-path="url(#pdb68c79119)">
     <use style="fill:#fe0100;stroke:#fe0100;" x="78.83164" xlink:href="#C0_0_2508699df2" y="128.129538"/>
    </g>
    <g clip-path="url(#pdb68c79119)">
     <use style="fill:#fe0100;stroke:#fe0100;" x="79.449045" xlink:href="#C0_0_2508699df2" y="121.059673"/>
    </g>
    <g clip-path="url(#pdb68c79119)">
     <use style="fill:#fe0100;stroke:#fe0100;" x="89.316163" xlink:href="#C0_0_2508699df2" y="98.891906"/>
    </g>
    <g clip-path="url(#pdb68c79119)">
     <use style="fill:#fe0100;stroke:#fe0100;" x="98.33598" xlink:href="#C0_0_2508699df2" y="86.926729"/>
    </g>
    <g clip-path="url(#pdb68c79119)">
     <use style="fill:#fe0100;stroke:#fe0100;" x="106.419391" xlink:href="#C0_0_2508699df2" y="68.90066"/>
    </g>
    <g clip-path="url(#pdb68c79119)">
     <use style="fill:#fe0100;stroke:#fe0100;" x="71.575548" xlink:href="#C0_0_2508699df2" y="154.720713"/>
    </g>
    <g clip-path="url(#pdb68c79119)">
     <use style="fill:#fe0100;stroke:#fe0100;" x="77.038223" xlink:href="#C0_0_2508699df2" y="129.754822"/>
    </g>
    <g clip-path="url(#pdb68c79119)">
     <use style="fill:#fe0100;stroke:#fe0100;" x="77.15328" xlink:href="#C0_0_2508699df2" y="128.708384"/>
    </g>
    <g clip-path="url(#pdb68c79119)">
     <use style="fill:#fe0100;stroke:#fe0100;" x="79.483591" xlink:href="#C0_0_2508699df2" y="125.806083"/>
    </g>
    <g clip-path="url(#pdb68c79119)">
     <use style="fill:#fe0100;stroke:#fe0100;" x="84.624985" xlink:href="#C0_0_2508699df2" y="114.646309"/>
    </g>
    <g clip-path="url(#pdb68c79119)">
     <use style="fill:#fe0100;stroke:#fe0100;" x="95.80691" xlink:href="#C0_0_2508699df2" y="104.693292"/>
    </g>
    <g clip-path="url(#pdb68c79119)">
     <use style="fill:#fe0100;stroke:#fe0100;" x="101.292781" xlink:href="#C0_0_2508699df2" y="102.465045"/>
    </g>
    <g clip-path="url(#pdb68c79119)">
     <use style="fill:#fe0100;stroke:#fe0100;" x="103.612371" xlink:href="#C0_0_2508699df2" y="101.148827"/>
    </g>
    <g clip-path="url(#pdb68c79119)">
     <use style="fill:#fe0100;stroke:#fe0100;" x="106.866993" xlink:href="#C0_0_2508699df2" y="91.001582"/>
    </g>
    <g clip-path="url(#pdb68c79119)">
     <use style="fill:#fe0100;stroke:#fe0100;" x="107.27978" xlink:href="#C0_0_2508699df2" y="84.998137"/>
    </g>
    <g clip-path="url(#pdb68c79119)">
     <use style="fill:#fe0100;stroke:#fe0100;" x="107.014795" xlink:href="#C0_0_2508699df2" y="76.365628"/>
    </g>
    <g clip-path="url(#pdb68c79119)">
     <use style="fill:#fe0100;stroke:#fe0100;" x="105.466169" xlink:href="#C0_0_2508699df2" y="70.429988"/>
    </g>
   </g>
   <g id="PathCollection_2">
    <defs>
     <path d="M 0 5 
C 1.326016 5 2.597899 4.473168 3.535534 3.535534 
C 4.473168 2.597899 5 1.326016 5 0 
C 5 -1.326016 4.473168 -2.597899 3.535534 -3.535534 
C 2.597899 -4.473168 1.326016 -5 0 -5 
C -1.326016 -5 -2.597899 -4.473168 -3.535534 -3.535534 
C -4.473168 -2.597899 -5 -1.326016 -5 0 
C -5 1.326016 -4.473168 2.597899 -3.535534 3.535534 
C -2.597899 4.473168 -1.326016 5 0 5 
z
" id="me97183b96f" style="stroke:#000000;"/>
    </defs>
    <g clip-path="url(#pdb68c79119)">
     <use style="stroke:#000000;" x="282.062639" xlink:href="#me97183b96f" y="143.344733"/>
     <use style="stroke:#000000;" x="78.725267" xlink:href="#me97183b96f" y="184.769773"/>
     <use style="stroke:#000000;" x="386.315116" xlink:href="#me97183b96f" y="233.613387"/>
     <use style="stroke:#000000;" x="603.789106" xlink:href="#me97183b96f" y="-1"/>
     <use style="stroke:#000000;" x="-1" xlink:href="#me97183b96f" y="115.637313"/>
     <use style="stroke:#000000;" x="14066.853831" xlink:href="#me97183b96f" y="15038.861875"/>
     <use style="stroke:#000000;" x="-1" xlink:href="#me97183b96f" y="15038.861875"/>
    </g>
   </g>
   <g id="patch_3">
    <path clip-path="url(#pdb68c79119)" d="M 213.26656 345.633095 
L -2068.864097 -12259.993094 
L 132.145155 -14638.216289 
L 6533.662253 -7868.530368 
z
" style="fill:#1f77b4;opacity:0.4;"/>
   </g>
   <g id="patch_4">
    <path clip-path="url(#pdb68c79119)" d="M -1593.840981 13151.761928 
L -13855.919764 256.878121 
L -2068.864097 -12259.993094 
L 213.26656 345.633095 
z
" style="fill:#ff7f0e;opacity:0.4;"/>
   </g>
   <g id="patch_5">
    <path clip-path="url(#pdb68c79119)" d="M -1593.840981 13151.761928 
L 213.26656 345.633095 
L 6533.662253 -7868.530368 
L 14323.367318 256.878121 
L 132.145155 15013.160302 
z
" style="fill:#2ca02c;opacity:0.4;"/>
   </g>
   <g id="patch_6">
    <path clip-path="url(#pdb68c79119)" d="M 6533.662253 -7868.530368 
L 14323.367318 256.878121 
L 42192.78467 256.878121 
L 132.145155 -44202.183797 
L 132.145155 -14638.216289 
z
" style="fill:#d62728;opacity:0.4;"/>
   </g>
   <g id="patch_7">
    <path clip-path="url(#pdb68c79119)" d="M -41725.337116 256.878121 
L -13855.919764 256.878121 
L -2068.864097 -12259.993094 
L 132.145155 -14638.216289 
L 132.145155 -44202.183797 
z
" style="fill:#9467bd;opacity:0.4;"/>
   </g>
   <g id="patch_8">
    <path clip-path="url(#pdb68c79119)" d="M 132.145155 44577.12781 
L 42192.78467 256.878121 
L 14323.367318 256.878121 
L 132.145155 15013.160302 
z
" style="fill:#8c564b;opacity:0.4;"/>
   </g>
   <g id="patch_9">
    <path clip-path="url(#pdb68c79119)" d="M 132.145155 44577.12781 
L 132.145155 15013.160302 
L -1593.840981 13151.761928 
L -13855.919764 256.878121 
L -41725.337116 256.878121 
z
" style="fill:#e377c2;opacity:0.4;"/>
   </g>
   <g id="matplotlib.axis_1">
    <g id="xtick_1">
     <g id="line2d_1">
      <defs>
       <path d="M 0 0 
L 0 3.5 
" id="m82d7d800af" style="stroke:#000000;stroke-width:0.8;"/>
      </defs>
      <g>
       <use style="stroke:#000000;stroke-width:0.8;" x="62.401868" xlink:href="#m82d7d800af" y="307.584"/>
      </g>
     </g>
     <g id="text_1">
      <!-- −5 -->
      <g transform="translate(55.030774 322.182437)scale(0.1 -0.1)">
       <defs>
        <path d="M 10.59375 35.5 
L 73.1875 35.5 
L 73.1875 27.203125 
L 10.59375 27.203125 
z
" id="DejaVuSans-8722"/>
        <path d="M 10.796875 72.90625 
L 49.515625 72.90625 
L 49.515625 64.59375 
L 19.828125 64.59375 
L 19.828125 46.734375 
Q 21.96875 47.46875 24.109375 47.828125 
Q 26.265625 48.1875 28.421875 48.1875 
Q 40.625 48.1875 47.75 41.5 
Q 54.890625 34.8125 54.890625 23.390625 
Q 54.890625 11.625 47.5625 5.09375 
Q 40.234375 -1.421875 26.90625 -1.421875 
Q 22.3125 -1.421875 17.546875 -0.640625 
Q 12.796875 0.140625 7.71875 1.703125 
L 7.71875 11.625 
Q 12.109375 9.234375 16.796875 8.0625 
Q 21.484375 6.890625 26.703125 6.890625 
Q 35.15625 6.890625 40.078125 11.328125 
Q 45.015625 15.765625 45.015625 23.390625 
Q 45.015625 31 40.078125 35.4375 
Q 35.15625 39.890625 26.703125 39.890625 
Q 22.75 39.890625 18.8125 39.015625 
Q 14.890625 38.140625 10.796875 36.28125 
z
" id="DejaVuSans-53"/>
       </defs>
       <use xlink:href="#DejaVuSans-8722"/>
       <use x="83.789062" xlink:href="#DejaVuSans-53"/>
      </g>
     </g>
    </g>
    <g id="xtick_2">
     <g id="line2d_2">
      <g>
       <use style="stroke:#000000;stroke-width:0.8;" x="132.145155" xlink:href="#m82d7d800af" y="307.584"/>
      </g>
     </g>
     <g id="text_2">
      <!-- 0 -->
      <g transform="translate(128.963905 322.182437)scale(0.1 -0.1)">
       <defs>
        <path d="M 31.78125 66.40625 
Q 24.171875 66.40625 20.328125 58.90625 
Q 16.5 51.421875 16.5 36.375 
Q 16.5 21.390625 20.328125 13.890625 
Q 24.171875 6.390625 31.78125 6.390625 
Q 39.453125 6.390625 43.28125 13.890625 
Q 47.125 21.390625 47.125 36.375 
Q 47.125 51.421875 43.28125 58.90625 
Q 39.453125 66.40625 31.78125 66.40625 
z
M 31.78125 74.21875 
Q 44.046875 74.21875 50.515625 64.515625 
Q 56.984375 54.828125 56.984375 36.375 
Q 56.984375 17.96875 50.515625 8.265625 
Q 44.046875 -1.421875 31.78125 -1.421875 
Q 19.53125 -1.421875 13.0625 8.265625 
Q 6.59375 17.96875 6.59375 36.375 
Q 6.59375 54.828125 13.0625 64.515625 
Q 19.53125 74.21875 31.78125 74.21875 
z
" id="DejaVuSans-48"/>
       </defs>
       <use xlink:href="#DejaVuSans-48"/>
      </g>
     </g>
    </g>
    <g id="xtick_3">
     <g id="line2d_3">
      <g>
       <use style="stroke:#000000;stroke-width:0.8;" x="201.888441" xlink:href="#m82d7d800af" y="307.584"/>
      </g>
     </g>
     <g id="text_3">
      <!-- 5 -->
      <g transform="translate(198.707191 322.182437)scale(0.1 -0.1)">
       <use xlink:href="#DejaVuSans-53"/>
      </g>
     </g>
    </g>
    <g id="xtick_4">
     <g id="line2d_4">
      <g>
       <use style="stroke:#000000;stroke-width:0.8;" x="271.631728" xlink:href="#m82d7d800af" y="307.584"/>
      </g>
     </g>
     <g id="text_4">
      <!-- 10 -->
      <g transform="translate(265.269228 322.182437)scale(0.1 -0.1)">
       <defs>
        <path d="M 12.40625 8.296875 
L 28.515625 8.296875 
L 28.515625 63.921875 
L 10.984375 60.40625 
L 10.984375 69.390625 
L 28.421875 72.90625 
L 38.28125 72.90625 
L 38.28125 8.296875 
L 54.390625 8.296875 
L 54.390625 0 
L 12.40625 0 
z
" id="DejaVuSans-49"/>
       </defs>
       <use xlink:href="#DejaVuSans-49"/>
       <use x="63.623047" xlink:href="#DejaVuSans-48"/>
      </g>
     </g>
    </g>
    <g id="xtick_5">
     <g id="line2d_5">
      <g>
       <use style="stroke:#000000;stroke-width:0.8;" x="341.375015" xlink:href="#m82d7d800af" y="307.584"/>
      </g>
     </g>
     <g id="text_5">
      <!-- 15 -->
      <g transform="translate(335.012515 322.182437)scale(0.1 -0.1)">
       <use xlink:href="#DejaVuSans-49"/>
       <use x="63.623047" xlink:href="#DejaVuSans-53"/>
      </g>
     </g>
    </g>
    <g id="xtick_6">
     <g id="line2d_6">
      <g>
       <use style="stroke:#000000;stroke-width:0.8;" x="411.118301" xlink:href="#m82d7d800af" y="307.584"/>
      </g>
     </g>
     <g id="text_6">
      <!-- 20 -->
      <g transform="translate(404.755801 322.182437)scale(0.1 -0.1)">
       <defs>
        <path d="M 19.1875 8.296875 
L 53.609375 8.296875 
L 53.609375 0 
L 7.328125 0 
L 7.328125 8.296875 
Q 12.9375 14.109375 22.625 23.890625 
Q 32.328125 33.6875 34.8125 36.53125 
Q 39.546875 41.84375 41.421875 45.53125 
Q 43.3125 49.21875 43.3125 52.78125 
Q 43.3125 58.59375 39.234375 62.25 
Q 35.15625 65.921875 28.609375 65.921875 
Q 23.96875 65.921875 18.8125 64.3125 
Q 13.671875 62.703125 7.8125 59.421875 
L 7.8125 69.390625 
Q 13.765625 71.78125 18.9375 73 
Q 24.125 74.21875 28.421875 74.21875 
Q 39.75 74.21875 46.484375 68.546875 
Q 53.21875 62.890625 53.21875 53.421875 
Q 53.21875 48.921875 51.53125 44.890625 
Q 49.859375 40.875 45.40625 35.40625 
Q 44.1875 33.984375 37.640625 27.21875 
Q 31.109375 20.453125 19.1875 8.296875 
z
" id="DejaVuSans-50"/>
       </defs>
       <use xlink:href="#DejaVuSans-50"/>
       <use x="63.623047" xlink:href="#DejaVuSans-48"/>
      </g>
     </g>
    </g>
   </g>
   <g id="matplotlib.axis_2">
    <g id="ytick_1">
     <g id="line2d_7">
      <defs>
       <path d="M 0 0 
L -3.5 0 
" id="mdaea7b17a5" style="stroke:#000000;stroke-width:0.8;"/>
      </defs>
      <g>
       <use style="stroke:#000000;stroke-width:0.8;" x="57.6" xlink:href="#mdaea7b17a5" y="286.471682"/>
      </g>
     </g>
     <g id="text_7">
      <!-- −2 -->
      <g transform="translate(35.857813 290.2709)scale(0.1 -0.1)">
       <use xlink:href="#DejaVuSans-8722"/>
       <use x="83.789062" xlink:href="#DejaVuSans-50"/>
      </g>
     </g>
    </g>
    <g id="ytick_2">
     <g id="line2d_8">
      <g>
       <use style="stroke:#000000;stroke-width:0.8;" x="57.6" xlink:href="#mdaea7b17a5" y="256.878121"/>
      </g>
     </g>
     <g id="text_8">
      <!-- 0 -->
      <g transform="translate(44.2375 260.677339)scale(0.1 -0.1)">
       <use xlink:href="#DejaVuSans-48"/>
      </g>
     </g>
    </g>
    <g id="ytick_3">
     <g id="line2d_9">
      <g>
       <use style="stroke:#000000;stroke-width:0.8;" x="57.6" xlink:href="#mdaea7b17a5" y="227.28456"/>
      </g>
     </g>
     <g id="text_9">
      <!-- 2 -->
      <g transform="translate(44.2375 231.083778)scale(0.1 -0.1)">
       <use xlink:href="#DejaVuSans-50"/>
      </g>
     </g>
    </g>
    <g id="ytick_4">
     <g id="line2d_10">
      <g>
       <use style="stroke:#000000;stroke-width:0.8;" x="57.6" xlink:href="#mdaea7b17a5" y="197.690998"/>
      </g>
     </g>
     <g id="text_10">
      <!-- 4 -->
      <g transform="translate(44.2375 201.490217)scale(0.1 -0.1)">
       <defs>
        <path d="M 37.796875 64.3125 
L 12.890625 25.390625 
L 37.796875 25.390625 
z
M 35.203125 72.90625 
L 47.609375 72.90625 
L 47.609375 25.390625 
L 58.015625 25.390625 
L 58.015625 17.1875 
L 47.609375 17.1875 
L 47.609375 0 
L 37.796875 0 
L 37.796875 17.1875 
L 4.890625 17.1875 
L 4.890625 26.703125 
z
" id="DejaVuSans-52"/>
       </defs>
       <use xlink:href="#DejaVuSans-52"/>
      </g>
     </g>
    </g>
    <g id="ytick_5">
     <g id="line2d_11">
      <g>
       <use style="stroke:#000000;stroke-width:0.8;" x="57.6" xlink:href="#mdaea7b17a5" y="168.097437"/>
      </g>
     </g>
     <g id="text_11">
      <!-- 6 -->
      <g transform="translate(44.2375 171.896656)scale(0.1 -0.1)">
       <defs>
        <path d="M 33.015625 40.375 
Q 26.375 40.375 22.484375 35.828125 
Q 18.609375 31.296875 18.609375 23.390625 
Q 18.609375 15.53125 22.484375 10.953125 
Q 26.375 6.390625 33.015625 6.390625 
Q 39.65625 6.390625 43.53125 10.953125 
Q 47.40625 15.53125 47.40625 23.390625 
Q 47.40625 31.296875 43.53125 35.828125 
Q 39.65625 40.375 33.015625 40.375 
z
M 52.59375 71.296875 
L 52.59375 62.3125 
Q 48.875 64.0625 45.09375 64.984375 
Q 41.3125 65.921875 37.59375 65.921875 
Q 27.828125 65.921875 22.671875 59.328125 
Q 17.53125 52.734375 16.796875 39.40625 
Q 19.671875 43.65625 24.015625 45.921875 
Q 28.375 48.1875 33.59375 48.1875 
Q 44.578125 48.1875 50.953125 41.515625 
Q 57.328125 34.859375 57.328125 23.390625 
Q 57.328125 12.15625 50.6875 5.359375 
Q 44.046875 -1.421875 33.015625 -1.421875 
Q 20.359375 -1.421875 13.671875 8.265625 
Q 6.984375 17.96875 6.984375 36.375 
Q 6.984375 53.65625 15.1875 63.9375 
Q 23.390625 74.21875 37.203125 74.21875 
Q 40.921875 74.21875 44.703125 73.484375 
Q 48.484375 72.75 52.59375 71.296875 
z
" id="DejaVuSans-54"/>
       </defs>
       <use xlink:href="#DejaVuSans-54"/>
      </g>
     </g>
    </g>
    <g id="ytick_6">
     <g id="line2d_12">
      <g>
       <use style="stroke:#000000;stroke-width:0.8;" x="57.6" xlink:href="#mdaea7b17a5" y="138.503876"/>
      </g>
     </g>
     <g id="text_12">
      <!-- 8 -->
      <g transform="translate(44.2375 142.303095)scale(0.1 -0.1)">
       <defs>
        <path d="M 31.78125 34.625 
Q 24.75 34.625 20.71875 30.859375 
Q 16.703125 27.09375 16.703125 20.515625 
Q 16.703125 13.921875 20.71875 10.15625 
Q 24.75 6.390625 31.78125 6.390625 
Q 38.8125 6.390625 42.859375 10.171875 
Q 46.921875 13.96875 46.921875 20.515625 
Q 46.921875 27.09375 42.890625 30.859375 
Q 38.875 34.625 31.78125 34.625 
z
M 21.921875 38.8125 
Q 15.578125 40.375 12.03125 44.71875 
Q 8.5 49.078125 8.5 55.328125 
Q 8.5 64.0625 14.71875 69.140625 
Q 20.953125 74.21875 31.78125 74.21875 
Q 42.671875 74.21875 48.875 69.140625 
Q 55.078125 64.0625 55.078125 55.328125 
Q 55.078125 49.078125 51.53125 44.71875 
Q 48 40.375 41.703125 38.8125 
Q 48.828125 37.15625 52.796875 32.3125 
Q 56.78125 27.484375 56.78125 20.515625 
Q 56.78125 9.90625 50.3125 4.234375 
Q 43.84375 -1.421875 31.78125 -1.421875 
Q 19.734375 -1.421875 13.25 4.234375 
Q 6.78125 9.90625 6.78125 20.515625 
Q 6.78125 27.484375 10.78125 32.3125 
Q 14.796875 37.15625 21.921875 38.8125 
z
M 18.3125 54.390625 
Q 18.3125 48.734375 21.84375 45.5625 
Q 25.390625 42.390625 31.78125 42.390625 
Q 38.140625 42.390625 41.71875 45.5625 
Q 45.3125 48.734375 45.3125 54.390625 
Q 45.3125 60.0625 41.71875 63.234375 
Q 38.140625 66.40625 31.78125 66.40625 
Q 25.390625 66.40625 21.84375 63.234375 
Q 18.3125 60.0625 18.3125 54.390625 
z
" id="DejaVuSans-56"/>
       </defs>
       <use xlink:href="#DejaVuSans-56"/>
      </g>
     </g>
    </g>
    <g id="ytick_7">
     <g id="line2d_13">
      <g>
       <use style="stroke:#000000;stroke-width:0.8;" x="57.6" xlink:href="#mdaea7b17a5" y="108.910315"/>
      </g>
     </g>
     <g id="text_13">
      <!-- 10 -->
      <g transform="translate(37.875 112.709534)scale(0.1 -0.1)">
       <use xlink:href="#DejaVuSans-49"/>
       <use x="63.623047" xlink:href="#DejaVuSans-48"/>
      </g>
     </g>
    </g>
    <g id="ytick_8">
     <g id="line2d_14">
      <g>
       <use style="stroke:#000000;stroke-width:0.8;" x="57.6" xlink:href="#mdaea7b17a5" y="79.316754"/>
      </g>
     </g>
     <g id="text_14">
      <!-- 12 -->
      <g transform="translate(37.875 83.115973)scale(0.1 -0.1)">
       <use xlink:href="#DejaVuSans-49"/>
       <use x="63.623047" xlink:href="#DejaVuSans-50"/>
      </g>
     </g>
    </g>
    <g id="ytick_9">
     <g id="line2d_15">
      <g>
       <use style="stroke:#000000;stroke-width:0.8;" x="57.6" xlink:href="#mdaea7b17a5" y="49.723193"/>
      </g>
     </g>
     <g id="text_15">
      <!-- 14 -->
      <g transform="translate(37.875 53.522412)scale(0.1 -0.1)">
       <use xlink:href="#DejaVuSans-49"/>
       <use x="63.623047" xlink:href="#DejaVuSans-52"/>
      </g>
     </g>
    </g>
   </g>
   <g id="patch_10">
    <path d="M 57.6 307.584 
L 57.6 41.472 
" style="fill:none;stroke:#000000;stroke-linecap:square;stroke-linejoin:miter;stroke-width:0.8;"/>
   </g>
   <g id="patch_11">
    <path d="M 414.72 307.584 
L 414.72 41.472 
" style="fill:none;stroke:#000000;stroke-linecap:square;stroke-linejoin:miter;stroke-width:0.8;"/>
   </g>
   <g id="patch_12">
    <path d="M 57.6 307.584 
L 414.72 307.584 
" style="fill:none;stroke:#000000;stroke-linecap:square;stroke-linejoin:miter;stroke-width:0.8;"/>
   </g>
   <g id="patch_13">
    <path d="M 57.6 41.472 
L 414.72 41.472 
" style="fill:none;stroke:#000000;stroke-linecap:square;stroke-linejoin:miter;stroke-width:0.8;"/>
   </g>
  </g>
 </g>
 <defs>
  <clipPath id="pdb68c79119">
   <rect height="266.112" width="357.12" x="57.6" y="41.472"/>
  </clipPath>
 </defs>
</svg>
