<?xml version="1.0" encoding="utf-8" standalone="no"?>
<!DOCTYPE svg PUBLIC "-//W3C//DTD SVG 1.1//EN"
  "http://www.w3.org/Graphics/SVG/1.1/DTD/svg11.dtd">
<!-- Created with matplotlib (https://matplotlib.org/) -->
<svg height="345.6pt" version="1.1" viewBox="0 0 460.8 345.6" width="460.8pt" xmlns="http://www.w3.org/2000/svg" xmlns:xlink="http://www.w3.org/1999/xlink">
 <metadata>
  <rdf:RDF xmlns:cc="http://creativecommons.org/ns#" xmlns:dc="http://purl.org/dc/elements/1.1/" xmlns:rdf="http://www.w3.org/1999/02/22-rdf-syntax-ns#">
   <cc:Work>
    <dc:type rdf:resource="http://purl.org/dc/dcmitype/StillImage"/>
    <dc:date>2021-07-10T10:56:56.031854</dc:date>
    <dc:format>image/svg+xml</dc:format>
    <dc:creator>
     <cc:Agent>
      <dc:title>Matplotlib v3.3.3, https://matplotlib.org/</dc:title>
     </cc:Agent>
    </dc:creator>
   </cc:Work>
  </rdf:RDF>
 </metadata>
 <defs>
  <style type="text/css">*{stroke-linecap:butt;stroke-linejoin:round;}</style>
 </defs>
 <g id="figure_1">
  <g id="patch_1">
   <path d="M 0 345.6 
L 460.8 345.6 
L 460.8 0 
L 0 0 
z
" style="fill:#ffffff;"/>
  </g>
  <g id="axes_1">
   <g id="patch_2">
    <path d="M 57.6 307.584 
L 414.72 307.584 
L 414.72 41.472 
L 57.6 41.472 
z
" style="fill:#ffffff;"/>
   </g>
   <g id="PathCollection_1">
    <defs>
     <path d="M 0 2.236068 
C 0.593012 2.236068 1.161816 2.000462 1.581139 1.581139 
C 2.000462 1.161816 2.236068 0.593012 2.236068 -0 
C 2.236068 -0.593012 2.000462 -1.161816 1.581139 -1.581139 
C 1.161816 -2.000462 0.593012 -2.236068 0 -2.236068 
C -0.593012 -2.236068 -1.161816 -2.000462 -1.581139 -1.581139 
C -2.000462 -1.161816 -2.236068 -0.593012 -2.236068 0 
C -2.236068 0.593012 -2.000462 1.161816 -1.581139 1.581139 
C -1.161816 2.000462 -0.593012 2.236068 0 2.236068 
z
" id="C0_0_4b758bab92"/>
    </defs>
    <g clip-path="url(#pd5e91de04e)">
     <use style="fill:#0000ff;stroke:#0000ff;" x="383.084935" xlink:href="#C0_0_4b758bab92" y="200.578571"/>
    </g>
    <g clip-path="url(#pd5e91de04e)">
     <use style="fill:#0000ff;stroke:#0000ff;" x="382.312379" xlink:href="#C0_0_4b758bab92" y="194.670626"/>
    </g>
    <g clip-path="url(#pd5e91de04e)">
     <use style="fill:#0000ff;stroke:#0000ff;" x="381.293856" xlink:href="#C0_0_4b758bab92" y="187.865544"/>
    </g>
    <g clip-path="url(#pd5e91de04e)">
     <use style="fill:#0000ff;stroke:#0000ff;" x="374.914558" xlink:href="#C0_0_4b758bab92" y="178.539468"/>
    </g>
    <g clip-path="url(#pd5e91de04e)">
     <use style="fill:#0000ff;stroke:#0000ff;" x="373.639668" xlink:href="#C0_0_4b758bab92" y="177.321342"/>
    </g>
    <g clip-path="url(#pd5e91de04e)">
     <use style="fill:#0000ff;stroke:#0000ff;" x="368.252732" xlink:href="#C0_0_4b758bab92" y="171.424917"/>
    </g>
    <g clip-path="url(#pd5e91de04e)">
     <use style="fill:#0000ff;stroke:#0000ff;" x="365.10839" xlink:href="#C0_0_4b758bab92" y="168.637263"/>
    </g>
    <g clip-path="url(#pd5e91de04e)">
     <use style="fill:#0000ff;stroke:#0000ff;" x="362.215013" xlink:href="#C0_0_4b758bab92" y="165.593074"/>
    </g>
    <g clip-path="url(#pd5e91de04e)">
     <use style="fill:#0000ff;stroke:#0000ff;" x="349.535243" xlink:href="#C0_0_4b758bab92" y="147.50266"/>
    </g>
    <g clip-path="url(#pd5e91de04e)">
     <use style="fill:#0000ff;stroke:#0000ff;" x="337.60554" xlink:href="#C0_0_4b758bab92" y="127.426386"/>
    </g>
    <g clip-path="url(#pd5e91de04e)">
     <use style="fill:#0000ff;stroke:#0000ff;" x="288.384633" xlink:href="#C0_0_4b758bab92" y="71.926465"/>
    </g>
    <g clip-path="url(#pd5e91de04e)">
     <use style="fill:#fe0100;stroke:#fe0100;" x="100.939574" xlink:href="#C0_0_4b758bab92" y="202.601149"/>
    </g>
    <g clip-path="url(#pd5e91de04e)">
     <use style="fill:#0000ff;stroke:#0000ff;" x="285.818102" xlink:href="#C0_0_4b758bab92" y="138.541739"/>
    </g>
    <g clip-path="url(#pd5e91de04e)">
     <use style="fill:#0000ff;stroke:#0000ff;" x="337.48922" xlink:href="#C0_0_4b758bab92" y="198.534214"/>
    </g>
    <g clip-path="url(#pd5e91de04e)">
     <use style="fill:#0000ff;stroke:#0000ff;" x="364.262743" xlink:href="#C0_0_4b758bab92" y="202.234818"/>
    </g>
    <g clip-path="url(#pd5e91de04e)">
     <use style="fill:#0000ff;stroke:#0000ff;" x="362.91336" xlink:href="#C0_0_4b758bab92" y="192.373676"/>
    </g>
    <g clip-path="url(#pd5e91de04e)">
     <use style="fill:#0000ff;stroke:#0000ff;" x="362.248512" xlink:href="#C0_0_4b758bab92" y="190.472394"/>
    </g>
    <g clip-path="url(#pd5e91de04e)">
     <use style="fill:#0000ff;stroke:#0000ff;" x="352.166646" xlink:href="#C0_0_4b758bab92" y="177.362121"/>
    </g>
    <g clip-path="url(#pd5e91de04e)">
     <use style="fill:#0000ff;stroke:#0000ff;" x="346.314237" xlink:href="#C0_0_4b758bab92" y="168.51658"/>
    </g>
    <g clip-path="url(#pd5e91de04e)">
     <use style="fill:#0000ff;stroke:#0000ff;" x="342.855051" xlink:href="#C0_0_4b758bab92" y="161.343061"/>
    </g>
    <g clip-path="url(#pd5e91de04e)">
     <use style="fill:#0000ff;stroke:#0000ff;" x="323.729981" xlink:href="#C0_0_4b758bab92" y="115.295118"/>
    </g>
    <g clip-path="url(#pd5e91de04e)">
     <use style="fill:#0000ff;stroke:#0000ff;" x="311.494361" xlink:href="#C0_0_4b758bab92" y="99.228433"/>
    </g>
    <g clip-path="url(#pd5e91de04e)">
     <use style="fill:#fe0100;stroke:#fe0100;" x="284.527509" xlink:href="#C0_0_4b758bab92" y="66.085062"/>
    </g>
    <g clip-path="url(#pd5e91de04e)">
     <use style="fill:#fe0100;stroke:#fe0100;" x="272.848714" xlink:href="#C0_0_4b758bab92" y="61.089564"/>
    </g>
    <g clip-path="url(#pd5e91de04e)">
     <use style="fill:#fe0100;stroke:#fe0100;" x="123.647433" xlink:href="#C0_0_4b758bab92" y="210.950346"/>
    </g>
    <g clip-path="url(#pd5e91de04e)">
     <use style="fill:#fe0100;stroke:#fe0100;" x="120.192938" xlink:href="#C0_0_4b758bab92" y="210.728366"/>
    </g>
    <g clip-path="url(#pd5e91de04e)">
     <use style="fill:#fe0100;stroke:#fe0100;" x="116.75407" xlink:href="#C0_0_4b758bab92" y="209.589653"/>
    </g>
    <g clip-path="url(#pd5e91de04e)">
     <use style="fill:#fe0100;stroke:#fe0100;" x="96.21692" xlink:href="#C0_0_4b758bab92" y="191.335801"/>
    </g>
    <g clip-path="url(#pd5e91de04e)">
     <use style="fill:#fe0100;stroke:#fe0100;" x="74.002597" xlink:href="#C0_0_4b758bab92" y="147.526487"/>
    </g>
    <g clip-path="url(#pd5e91de04e)">
     <use style="fill:#0000ff;stroke:#0000ff;" x="398.487273" xlink:href="#C0_0_4b758bab92" y="151.277093"/>
    </g>
    <g clip-path="url(#pd5e91de04e)">
     <use style="fill:#0000ff;stroke:#0000ff;" x="396.279937" xlink:href="#C0_0_4b758bab92" y="156.37601"/>
    </g>
    <g clip-path="url(#pd5e91de04e)">
     <use style="fill:#0000ff;stroke:#0000ff;" x="395.030703" xlink:href="#C0_0_4b758bab92" y="157.354372"/>
    </g>
    <g clip-path="url(#pd5e91de04e)">
     <use style="fill:#0000ff;stroke:#0000ff;" x="388.385104" xlink:href="#C0_0_4b758bab92" y="155.242239"/>
    </g>
    <g clip-path="url(#pd5e91de04e)">
     <use style="fill:#0000ff;stroke:#0000ff;" x="376.883657" xlink:href="#C0_0_4b758bab92" y="147.5794"/>
    </g>
    <g clip-path="url(#pd5e91de04e)">
     <use style="fill:#0000ff;stroke:#0000ff;" x="364.279829" xlink:href="#C0_0_4b758bab92" y="132.357016"/>
    </g>
    <g clip-path="url(#pd5e91de04e)">
     <use style="fill:#0000ff;stroke:#0000ff;" x="357.95383" xlink:href="#C0_0_4b758bab92" y="122.376176"/>
    </g>
    <g clip-path="url(#pd5e91de04e)">
     <use style="fill:#0000ff;stroke:#0000ff;" x="318.735359" xlink:href="#C0_0_4b758bab92" y="83.042175"/>
    </g>
    <g clip-path="url(#pd5e91de04e)">
     <use style="fill:#0000ff;stroke:#0000ff;" x="309.709169" xlink:href="#C0_0_4b758bab92" y="73.644485"/>
    </g>
    <g clip-path="url(#pd5e91de04e)">
     <use style="fill:#0000ff;stroke:#0000ff;" x="307.419239" xlink:href="#C0_0_4b758bab92" y="70.873198"/>
    </g>
    <g clip-path="url(#pd5e91de04e)">
     <use style="fill:#fe0100;stroke:#fe0100;" x="301.274849" xlink:href="#C0_0_4b758bab92" y="62.624162"/>
    </g>
    <g clip-path="url(#pd5e91de04e)">
     <use style="fill:#fe0100;stroke:#fe0100;" x="107.42052" xlink:href="#C0_0_4b758bab92" y="213.976452"/>
    </g>
    <g clip-path="url(#pd5e91de04e)">
     <use style="fill:#fe0100;stroke:#fe0100;" x="95.953301" xlink:href="#C0_0_4b758bab92" y="202.820697"/>
    </g>
    <g clip-path="url(#pd5e91de04e)">
     <use style="fill:#fe0100;stroke:#fe0100;" x="85.757837" xlink:href="#C0_0_4b758bab92" y="184.156348"/>
    </g>
    <g clip-path="url(#pd5e91de04e)">
     <use style="fill:#fe0100;stroke:#fe0100;" x="76.805012" xlink:href="#C0_0_4b758bab92" y="164.419838"/>
    </g>
    <g clip-path="url(#pd5e91de04e)">
     <use style="fill:#0000ff;stroke:#0000ff;" x="260.622961" xlink:href="#C0_0_4b758bab92" y="190.848268"/>
    </g>
    <g clip-path="url(#pd5e91de04e)">
     <use style="fill:#0000ff;stroke:#0000ff;" x="267.461472" xlink:href="#C0_0_4b758bab92" y="190.814233"/>
    </g>
    <g clip-path="url(#pd5e91de04e)">
     <use style="fill:#0000ff;stroke:#0000ff;" x="271.835332" xlink:href="#C0_0_4b758bab92" y="182.805423"/>
    </g>
    <g clip-path="url(#pd5e91de04e)">
     <use style="fill:#0000ff;stroke:#0000ff;" x="270.83953" xlink:href="#C0_0_4b758bab92" y="180.26587"/>
    </g>
    <g clip-path="url(#pd5e91de04e)">
     <use style="fill:#0000ff;stroke:#0000ff;" x="269.938963" xlink:href="#C0_0_4b758bab92" y="177.393814"/>
    </g>
    <g clip-path="url(#pd5e91de04e)">
     <use style="fill:#0000ff;stroke:#0000ff;" x="265.449226" xlink:href="#C0_0_4b758bab92" y="172.570015"/>
    </g>
    <g clip-path="url(#pd5e91de04e)">
     <use style="fill:#0000ff;stroke:#0000ff;" x="263.644113" xlink:href="#C0_0_4b758bab92" y="160.361358"/>
    </g>
    <g clip-path="url(#pd5e91de04e)">
     <use style="fill:#0000ff;stroke:#0000ff;" x="262.762976" xlink:href="#C0_0_4b758bab92" y="148.407596"/>
    </g>
    <g clip-path="url(#pd5e91de04e)">
     <use style="fill:#0000ff;stroke:#0000ff;" x="260.97309" xlink:href="#C0_0_4b758bab92" y="141.821187"/>
    </g>
    <g clip-path="url(#pd5e91de04e)">
     <use style="fill:#0000ff;stroke:#0000ff;" x="255.229287" xlink:href="#C0_0_4b758bab92" y="128.575428"/>
    </g>
    <g clip-path="url(#pd5e91de04e)">
     <use style="fill:#fe0100;stroke:#fe0100;" x="252.12259" xlink:href="#C0_0_4b758bab92" y="121.512978"/>
    </g>
    <g clip-path="url(#pd5e91de04e)">
     <use style="fill:#fe0100;stroke:#fe0100;" x="249.47872" xlink:href="#C0_0_4b758bab92" y="114.463073"/>
    </g>
    <g clip-path="url(#pd5e91de04e)">
     <use style="fill:#fe0100;stroke:#fe0100;" x="228.498702" xlink:href="#C0_0_4b758bab92" y="60.563257"/>
    </g>
    <g clip-path="url(#pd5e91de04e)">
     <use style="fill:#fe0100;stroke:#fe0100;" x="268.186291" xlink:href="#C0_0_4b758bab92" y="62.789911"/>
    </g>
    <g clip-path="url(#pd5e91de04e)">
     <use style="fill:#fe0100;stroke:#fe0100;" x="149.709436" xlink:href="#C0_0_4b758bab92" y="178.562895"/>
    </g>
    <g clip-path="url(#pd5e91de04e)">
     <use style="fill:#00ff00;stroke:#00ff00;" x="94.931457" xlink:href="#C0_0_4b758bab92" y="142.471565"/>
    </g>
    <g clip-path="url(#pd5e91de04e)">
     <use style="fill:#00ff00;stroke:#00ff00;" x="91.4564" xlink:href="#C0_0_4b758bab92" y="137.701877"/>
    </g>
    <g clip-path="url(#pd5e91de04e)">
     <use style="fill:#0000ff;stroke:#0000ff;" x="385.833127" xlink:href="#C0_0_4b758bab92" y="114.94326"/>
    </g>
    <g clip-path="url(#pd5e91de04e)">
     <use style="fill:#0000ff;stroke:#0000ff;" x="392.567137" xlink:href="#C0_0_4b758bab92" y="123.791307"/>
    </g>
    <g clip-path="url(#pd5e91de04e)">
     <use style="fill:#0000ff;stroke:#0000ff;" x="397.651048" xlink:href="#C0_0_4b758bab92" y="136.579531"/>
    </g>
    <g clip-path="url(#pd5e91de04e)">
     <use style="fill:#0000ff;stroke:#0000ff;" x="390.895886" xlink:href="#C0_0_4b758bab92" y="140.494649"/>
    </g>
    <g clip-path="url(#pd5e91de04e)">
     <use style="fill:#0000ff;stroke:#0000ff;" x="385.768487" xlink:href="#C0_0_4b758bab92" y="140.736846"/>
    </g>
    <g clip-path="url(#pd5e91de04e)">
     <use style="fill:#0000ff;stroke:#0000ff;" x="380.269777" xlink:href="#C0_0_4b758bab92" y="136.859303"/>
    </g>
    <g clip-path="url(#pd5e91de04e)">
     <use style="fill:#0000ff;stroke:#0000ff;" x="376.87724" xlink:href="#C0_0_4b758bab92" y="136.089128"/>
    </g>
    <g clip-path="url(#pd5e91de04e)">
     <use style="fill:#0000ff;stroke:#0000ff;" x="374.807191" xlink:href="#C0_0_4b758bab92" y="131.355443"/>
    </g>
    <g clip-path="url(#pd5e91de04e)">
     <use style="fill:#0000ff;stroke:#0000ff;" x="371.922214" xlink:href="#C0_0_4b758bab92" y="128.881646"/>
    </g>
    <g clip-path="url(#pd5e91de04e)">
     <use style="fill:#0000ff;stroke:#0000ff;" x="336.795401" xlink:href="#C0_0_4b758bab92" y="99.617566"/>
    </g>
    <g clip-path="url(#pd5e91de04e)">
     <use style="fill:#fe0100;stroke:#fe0100;" x="301.146357" xlink:href="#C0_0_4b758bab92" y="61.788986"/>
    </g>
    <g clip-path="url(#pd5e91de04e)">
     <use style="fill:#fe0100;stroke:#fe0100;" x="299.055259" xlink:href="#C0_0_4b758bab92" y="59.246594"/>
    </g>
    <g clip-path="url(#pd5e91de04e)">
     <use style="fill:#fe0100;stroke:#fe0100;" x="95.065292" xlink:href="#C0_0_4b758bab92" y="201.665817"/>
    </g>
    <g clip-path="url(#pd5e91de04e)">
     <use style="fill:#fe0100;stroke:#fe0100;" x="76.559848" xlink:href="#C0_0_4b758bab92" y="163.325277"/>
    </g>
    <g clip-path="url(#pd5e91de04e)">
     <use style="fill:#fe0100;stroke:#fe0100;" x="73.832727" xlink:href="#C0_0_4b758bab92" y="154.962967"/>
    </g>
    <g clip-path="url(#pd5e91de04e)">
     <use style="fill:#0000ff;stroke:#0000ff;" x="304.858168" xlink:href="#C0_0_4b758bab92" y="204.247109"/>
    </g>
    <g clip-path="url(#pd5e91de04e)">
     <use style="fill:#0000ff;stroke:#0000ff;" x="305.253824" xlink:href="#C0_0_4b758bab92" y="204.02124"/>
    </g>
    <g clip-path="url(#pd5e91de04e)">
     <use style="fill:#0000ff;stroke:#0000ff;" x="300.976511" xlink:href="#C0_0_4b758bab92" y="186.885559"/>
    </g>
    <g clip-path="url(#pd5e91de04e)">
     <use style="fill:#0000ff;stroke:#0000ff;" x="302.052699" xlink:href="#C0_0_4b758bab92" y="157.70297"/>
    </g>
    <g clip-path="url(#pd5e91de04e)">
     <use style="fill:#0000ff;stroke:#0000ff;" x="302.943523" xlink:href="#C0_0_4b758bab92" y="151.951683"/>
    </g>
    <g clip-path="url(#pd5e91de04e)">
     <use style="fill:#fe0100;stroke:#fe0100;" x="270.828779" xlink:href="#C0_0_4b758bab92" y="109.082909"/>
    </g>
    <g clip-path="url(#pd5e91de04e)">
     <use style="fill:#00ff00;stroke:#00ff00;" x="113.979062" xlink:href="#C0_0_4b758bab92" y="150.180085"/>
    </g>
    <g clip-path="url(#pd5e91de04e)">
     <use style="fill:#00ff00;stroke:#00ff00;" x="109.249214" xlink:href="#C0_0_4b758bab92" y="134.788753"/>
    </g>
    <g clip-path="url(#pd5e91de04e)">
     <use style="fill:#00ff00;stroke:#00ff00;" x="105.870109" xlink:href="#C0_0_4b758bab92" y="119.251856"/>
    </g>
    <g clip-path="url(#pd5e91de04e)">
     <use style="fill:#00ff00;stroke:#00ff00;" x="221.854456" xlink:href="#C0_0_4b758bab92" y="149.136687"/>
    </g>
    <g clip-path="url(#pd5e91de04e)">
     <use style="fill:#00ff00;stroke:#00ff00;" x="222.497654" xlink:href="#C0_0_4b758bab92" y="181.091624"/>
    </g>
    <g clip-path="url(#pd5e91de04e)">
     <use style="fill:#00ff00;stroke:#00ff00;" x="204.46563" xlink:href="#C0_0_4b758bab92" y="136.040724"/>
    </g>
    <g clip-path="url(#pd5e91de04e)">
     <use style="fill:#00ff00;stroke:#00ff00;" x="183.049756" xlink:href="#C0_0_4b758bab92" y="147.472846"/>
    </g>
    <g clip-path="url(#pd5e91de04e)">
     <use style="fill:#00ff00;stroke:#00ff00;" x="175.053494" xlink:href="#C0_0_4b758bab92" y="148.289884"/>
    </g>
    <g clip-path="url(#pd5e91de04e)">
     <use style="fill:#00ff00;stroke:#00ff00;" x="168.784391" xlink:href="#C0_0_4b758bab92" y="148.782303"/>
    </g>
    <g clip-path="url(#pd5e91de04e)">
     <use style="fill:#00ff00;stroke:#00ff00;" x="157.981518" xlink:href="#C0_0_4b758bab92" y="145.498444"/>
    </g>
    <g clip-path="url(#pd5e91de04e)">
     <use style="fill:#00ff00;stroke:#00ff00;" x="145.110523" xlink:href="#C0_0_4b758bab92" y="139.384258"/>
    </g>
    <g clip-path="url(#pd5e91de04e)">
     <use style="fill:#00ff00;stroke:#00ff00;" x="128.911632" xlink:href="#C0_0_4b758bab92" y="125.045087"/>
    </g>
    <g clip-path="url(#pd5e91de04e)">
     <use style="fill:#00ff00;stroke:#00ff00;" x="125.836768" xlink:href="#C0_0_4b758bab92" y="107.95975"/>
    </g>
    <g clip-path="url(#pd5e91de04e)">
     <use style="fill:#00ff00;stroke:#00ff00;" x="230.391656" xlink:href="#C0_0_4b758bab92" y="146.832845"/>
    </g>
    <g clip-path="url(#pd5e91de04e)">
     <use style="fill:#00ff00;stroke:#00ff00;" x="231.724133" xlink:href="#C0_0_4b758bab92" y="152.407608"/>
    </g>
    <g clip-path="url(#pd5e91de04e)">
     <use style="fill:#00ff00;stroke:#00ff00;" x="232.148277" xlink:href="#C0_0_4b758bab92" y="156.417377"/>
    </g>
    <g clip-path="url(#pd5e91de04e)">
     <use style="fill:#00ff00;stroke:#00ff00;" x="232.787249" xlink:href="#C0_0_4b758bab92" y="166.584735"/>
    </g>
    <g clip-path="url(#pd5e91de04e)">
     <use style="fill:#00ff00;stroke:#00ff00;" x="234.506971" xlink:href="#C0_0_4b758bab92" y="174.82991"/>
    </g>
    <g clip-path="url(#pd5e91de04e)">
     <use style="fill:#00ff00;stroke:#00ff00;" x="228.798206" xlink:href="#C0_0_4b758bab92" y="179.484192"/>
    </g>
    <g clip-path="url(#pd5e91de04e)">
     <use style="fill:#00ff00;stroke:#00ff00;" x="223.61988" xlink:href="#C0_0_4b758bab92" y="177.612322"/>
    </g>
    <g clip-path="url(#pd5e91de04e)">
     <use style="fill:#00ff00;stroke:#00ff00;" x="222.06222" xlink:href="#C0_0_4b758bab92" y="175.810714"/>
    </g>
    <g clip-path="url(#pd5e91de04e)">
     <use style="fill:#00ff00;stroke:#00ff00;" x="216.426415" xlink:href="#C0_0_4b758bab92" y="163.191687"/>
    </g>
    <g clip-path="url(#pd5e91de04e)">
     <use style="fill:#00ff00;stroke:#00ff00;" x="215.570779" xlink:href="#C0_0_4b758bab92" y="159.791023"/>
    </g>
    <g clip-path="url(#pd5e91de04e)">
     <use style="fill:#00ff00;stroke:#00ff00;" x="214.631638" xlink:href="#C0_0_4b758bab92" y="150.995266"/>
    </g>
    <g clip-path="url(#pd5e91de04e)">
     <use style="fill:#00ff00;stroke:#00ff00;" x="204.97063" xlink:href="#C0_0_4b758bab92" y="141.413952"/>
    </g>
    <g clip-path="url(#pd5e91de04e)">
     <use style="fill:#00ff00;stroke:#00ff00;" x="189.953044" xlink:href="#C0_0_4b758bab92" y="149.607739"/>
    </g>
    <g clip-path="url(#pd5e91de04e)">
     <use style="fill:#00ff00;stroke:#00ff00;" x="177.59148" xlink:href="#C0_0_4b758bab92" y="139.538451"/>
    </g>
    <g clip-path="url(#pd5e91de04e)">
     <use style="fill:#00ff00;stroke:#00ff00;" x="158.728563" xlink:href="#C0_0_4b758bab92" y="139.281003"/>
    </g>
    <g clip-path="url(#pd5e91de04e)">
     <use style="fill:#00ff00;stroke:#00ff00;" x="139.874743" xlink:href="#C0_0_4b758bab92" y="133.859823"/>
    </g>
    <g clip-path="url(#pd5e91de04e)">
     <use style="fill:#00ff00;stroke:#00ff00;" x="128.558663" xlink:href="#C0_0_4b758bab92" y="116.400657"/>
    </g>
    <g clip-path="url(#pd5e91de04e)">
     <use style="fill:#00ff00;stroke:#00ff00;" x="203.850731" xlink:href="#C0_0_4b758bab92" y="166.693089"/>
    </g>
    <g clip-path="url(#pd5e91de04e)">
     <use style="fill:#00ff00;stroke:#00ff00;" x="205.452343" xlink:href="#C0_0_4b758bab92" y="174.395216"/>
    </g>
    <g clip-path="url(#pd5e91de04e)">
     <use style="fill:#00ff00;stroke:#00ff00;" x="203.83836" xlink:href="#C0_0_4b758bab92" y="168.302967"/>
    </g>
    <g clip-path="url(#pd5e91de04e)">
     <use style="fill:#00ff00;stroke:#00ff00;" x="203.441295" xlink:href="#C0_0_4b758bab92" y="151.104459"/>
    </g>
    <g clip-path="url(#pd5e91de04e)">
     <use style="fill:#00ff00;stroke:#00ff00;" x="195.068915" xlink:href="#C0_0_4b758bab92" y="139.893333"/>
    </g>
    <g clip-path="url(#pd5e91de04e)">
     <use style="fill:#00ff00;stroke:#00ff00;" x="191.938539" xlink:href="#C0_0_4b758bab92" y="138.420454"/>
    </g>
    <g clip-path="url(#pd5e91de04e)">
     <use style="fill:#00ff00;stroke:#00ff00;" x="166.065534" xlink:href="#C0_0_4b758bab92" y="135.029759"/>
    </g>
    <g clip-path="url(#pd5e91de04e)">
     <use style="fill:#00ff00;stroke:#00ff00;" x="142.595107" xlink:href="#C0_0_4b758bab92" y="124.294674"/>
    </g>
    <g clip-path="url(#pd5e91de04e)">
     <use style="fill:#00ff00;stroke:#00ff00;" x="138.120688" xlink:href="#C0_0_4b758bab92" y="120.80704"/>
    </g>
    <g clip-path="url(#pd5e91de04e)">
     <use style="fill:#00ff00;stroke:#00ff00;" x="133.053652" xlink:href="#C0_0_4b758bab92" y="114.801028"/>
    </g>
    <g clip-path="url(#pd5e91de04e)">
     <use style="fill:#0000ff;stroke:#0000ff;" x="305.032749" xlink:href="#C0_0_4b758bab92" y="201.443255"/>
    </g>
    <g clip-path="url(#pd5e91de04e)">
     <use style="fill:#0000ff;stroke:#0000ff;" x="308.775022" xlink:href="#C0_0_4b758bab92" y="198.010571"/>
    </g>
    <g clip-path="url(#pd5e91de04e)">
     <use style="fill:#0000ff;stroke:#0000ff;" x="310.202474" xlink:href="#C0_0_4b758bab92" y="187.153655"/>
    </g>
    <g clip-path="url(#pd5e91de04e)">
     <use style="fill:#0000ff;stroke:#0000ff;" x="309.976846" xlink:href="#C0_0_4b758bab92" y="184.169956"/>
    </g>
    <g clip-path="url(#pd5e91de04e)">
     <use style="fill:#0000ff;stroke:#0000ff;" x="307.691992" xlink:href="#C0_0_4b758bab92" y="177.897121"/>
    </g>
    <g clip-path="url(#pd5e91de04e)">
     <use style="fill:#0000ff;stroke:#0000ff;" x="305.908959" xlink:href="#C0_0_4b758bab92" y="162.26579"/>
    </g>
    <g clip-path="url(#pd5e91de04e)">
     <use style="fill:#0000ff;stroke:#0000ff;" x="305.859305" xlink:href="#C0_0_4b758bab92" y="154.209294"/>
    </g>
    <g clip-path="url(#pd5e91de04e)">
     <use style="fill:#0000ff;stroke:#0000ff;" x="305.152876" xlink:href="#C0_0_4b758bab92" y="150.313423"/>
    </g>
    <g clip-path="url(#pd5e91de04e)">
     <use style="fill:#fe0100;stroke:#fe0100;" x="270.271045" xlink:href="#C0_0_4b758bab92" y="108.779977"/>
    </g>
    <g clip-path="url(#pd5e91de04e)">
     <use style="fill:#fe0100;stroke:#fe0100;" x="125.871636" xlink:href="#C0_0_4b758bab92" y="157.984307"/>
    </g>
    <g clip-path="url(#pd5e91de04e)">
     <use style="fill:#00ff00;stroke:#00ff00;" x="120.966409" xlink:href="#C0_0_4b758bab92" y="151.937005"/>
    </g>
    <g clip-path="url(#pd5e91de04e)">
     <use style="fill:#00ff00;stroke:#00ff00;" x="116.496454" xlink:href="#C0_0_4b758bab92" y="143.729317"/>
    </g>
    <g clip-path="url(#pd5e91de04e)">
     <use style="fill:#00ff00;stroke:#00ff00;" x="112.913519" xlink:href="#C0_0_4b758bab92" y="134.54611"/>
    </g>
    <g clip-path="url(#pd5e91de04e)">
     <use style="fill:#00ff00;stroke:#00ff00;" x="110.826472" xlink:href="#C0_0_4b758bab92" y="118.982507"/>
    </g>
    <g clip-path="url(#pd5e91de04e)">
     <use style="fill:#00ff00;stroke:#00ff00;" x="111.192315" xlink:href="#C0_0_4b758bab92" y="107.916655"/>
    </g>
    <g clip-path="url(#pd5e91de04e)">
     <use style="fill:#fe0100;stroke:#fe0100;" x="210.902562" xlink:href="#C0_0_4b758bab92" y="265.965062"/>
    </g>
    <g clip-path="url(#pd5e91de04e)">
     <use style="fill:#fe0100;stroke:#fe0100;" x="209.503882" xlink:href="#C0_0_4b758bab92" y="267.575936"/>
    </g>
    <g clip-path="url(#pd5e91de04e)">
     <use style="fill:#fe0100;stroke:#fe0100;" x="198.32766" xlink:href="#C0_0_4b758bab92" y="269.923514"/>
    </g>
    <g clip-path="url(#pd5e91de04e)">
     <use style="fill:#fe0100;stroke:#fe0100;" x="195.855616" xlink:href="#C0_0_4b758bab92" y="269.295474"/>
    </g>
    <g clip-path="url(#pd5e91de04e)">
     <use style="fill:#fe0100;stroke:#fe0100;" x="187.355128" xlink:href="#C0_0_4b758bab92" y="264.873152"/>
    </g>
    <g clip-path="url(#pd5e91de04e)">
     <use style="fill:#fe0100;stroke:#fe0100;" x="183.147094" xlink:href="#C0_0_4b758bab92" y="260.931614"/>
    </g>
    <g clip-path="url(#pd5e91de04e)">
     <use style="fill:#fe0100;stroke:#fe0100;" x="168.771437" xlink:href="#C0_0_4b758bab92" y="231.000545"/>
    </g>
    <g clip-path="url(#pd5e91de04e)">
     <use style="fill:#fe0100;stroke:#fe0100;" x="167.880422" xlink:href="#C0_0_4b758bab92" y="224.687147"/>
    </g>
    <g clip-path="url(#pd5e91de04e)">
     <use style="fill:#fe0100;stroke:#fe0100;" x="169.334491" xlink:href="#C0_0_4b758bab92" y="83.187054"/>
    </g>
    <g clip-path="url(#pd5e91de04e)">
     <use style="fill:#00ff00;stroke:#00ff00;" x="147.755973" xlink:href="#C0_0_4b758bab92" y="60.143755"/>
    </g>
    <g clip-path="url(#pd5e91de04e)">
     <use style="fill:#00ff00;stroke:#00ff00;" x="131.132084" xlink:href="#C0_0_4b758bab92" y="55.24888"/>
    </g>
    <g clip-path="url(#pd5e91de04e)">
     <use style="fill:#00ff00;stroke:#00ff00;" x="127.399898" xlink:href="#C0_0_4b758bab92" y="55.81296"/>
    </g>
    <g clip-path="url(#pd5e91de04e)">
     <use style="fill:#00ff00;stroke:#00ff00;" x="100.275358" xlink:href="#C0_0_4b758bab92" y="73.045505"/>
    </g>
    <g clip-path="url(#pd5e91de04e)">
     <use style="fill:#fe0100;stroke:#fe0100;" x="218.030345" xlink:href="#C0_0_4b758bab92" y="252.460296"/>
    </g>
    <g clip-path="url(#pd5e91de04e)">
     <use style="fill:#fe0100;stroke:#fe0100;" x="200.381929" xlink:href="#C0_0_4b758bab92" y="295.488"/>
    </g>
    <g clip-path="url(#pd5e91de04e)">
     <use style="fill:#fe0100;stroke:#fe0100;" x="190.063907" xlink:href="#C0_0_4b758bab92" y="292.017407"/>
    </g>
    <g clip-path="url(#pd5e91de04e)">
     <use style="fill:#fe0100;stroke:#fe0100;" x="183.263244" xlink:href="#C0_0_4b758bab92" y="288.127677"/>
    </g>
    <g clip-path="url(#pd5e91de04e)">
     <use style="fill:#fe0100;stroke:#fe0100;" x="176.979234" xlink:href="#C0_0_4b758bab92" y="283.443948"/>
    </g>
    <g clip-path="url(#pd5e91de04e)">
     <use style="fill:#fe0100;stroke:#fe0100;" x="171.712888" xlink:href="#C0_0_4b758bab92" y="279.907164"/>
    </g>
    <g clip-path="url(#pd5e91de04e)">
     <use style="fill:#fe0100;stroke:#fe0100;" x="170.011127" xlink:href="#C0_0_4b758bab92" y="278.859907"/>
    </g>
    <g clip-path="url(#pd5e91de04e)">
     <use style="fill:#fe0100;stroke:#fe0100;" x="185.191215" xlink:href="#C0_0_4b758bab92" y="84.16717"/>
    </g>
    <g clip-path="url(#pd5e91de04e)">
     <use style="fill:#fe0100;stroke:#fe0100;" x="183.621276" xlink:href="#C0_0_4b758bab92" y="83.43131"/>
    </g>
    <g clip-path="url(#pd5e91de04e)">
     <use style="fill:#fe0100;stroke:#fe0100;" x="168.424957" xlink:href="#C0_0_4b758bab92" y="76.306737"/>
    </g>
    <g clip-path="url(#pd5e91de04e)">
     <use style="fill:#00ff00;stroke:#00ff00;" x="141.308615" xlink:href="#C0_0_4b758bab92" y="67.931469"/>
    </g>
    <g clip-path="url(#pd5e91de04e)">
     <use style="fill:#00ff00;stroke:#00ff00;" x="131.417966" xlink:href="#C0_0_4b758bab92" y="66.61563"/>
    </g>
    <g clip-path="url(#pd5e91de04e)">
     <use style="fill:#00ff00;stroke:#00ff00;" x="106.71207" xlink:href="#C0_0_4b758bab92" y="68.598736"/>
    </g>
    <g clip-path="url(#pd5e91de04e)">
     <use style="fill:#fe0100;stroke:#fe0100;" x="223.026627" xlink:href="#C0_0_4b758bab92" y="264.082931"/>
    </g>
    <g clip-path="url(#pd5e91de04e)">
     <use style="fill:#fe0100;stroke:#fe0100;" x="222.012713" xlink:href="#C0_0_4b758bab92" y="268.998067"/>
    </g>
    <g clip-path="url(#pd5e91de04e)">
     <use style="fill:#fe0100;stroke:#fe0100;" x="212.059881" xlink:href="#C0_0_4b758bab92" y="281.003707"/>
    </g>
    <g clip-path="url(#pd5e91de04e)">
     <use style="fill:#fe0100;stroke:#fe0100;" x="202.698803" xlink:href="#C0_0_4b758bab92" y="281.833707"/>
    </g>
    <g clip-path="url(#pd5e91de04e)">
     <use style="fill:#fe0100;stroke:#fe0100;" x="167.307176" xlink:href="#C0_0_4b758bab92" y="256.214618"/>
    </g>
    <g clip-path="url(#pd5e91de04e)">
     <use style="fill:#fe0100;stroke:#fe0100;" x="164.661807" xlink:href="#C0_0_4b758bab92" y="251.807914"/>
    </g>
    <g clip-path="url(#pd5e91de04e)">
     <use style="fill:#fe0100;stroke:#fe0100;" x="162.308751" xlink:href="#C0_0_4b758bab92" y="239.466234"/>
    </g>
    <g clip-path="url(#pd5e91de04e)">
     <use style="fill:#00ff00;stroke:#00ff00;" x="164.953837" xlink:href="#C0_0_4b758bab92" y="81.973189"/>
    </g>
    <g clip-path="url(#pd5e91de04e)">
     <use style="fill:#00ff00;stroke:#00ff00;" x="133.881638" xlink:href="#C0_0_4b758bab92" y="53.568"/>
    </g>
    <g clip-path="url(#pd5e91de04e)">
     <use style="fill:#00ff00;stroke:#00ff00;" x="107.936416" xlink:href="#C0_0_4b758bab92" y="61.066473"/>
    </g>
    <g clip-path="url(#pd5e91de04e)">
     <use style="fill:#fe0100;stroke:#fe0100;" x="207.228697" xlink:href="#C0_0_4b758bab92" y="280.417737"/>
    </g>
    <g clip-path="url(#pd5e91de04e)">
     <use style="fill:#fe0100;stroke:#fe0100;" x="178.307497" xlink:href="#C0_0_4b758bab92" y="252.884859"/>
    </g>
    <g clip-path="url(#pd5e91de04e)">
     <use style="fill:#fe0100;stroke:#fe0100;" x="177.573098" xlink:href="#C0_0_4b758bab92" y="249.942617"/>
    </g>
    <g clip-path="url(#pd5e91de04e)">
     <use style="fill:#fe0100;stroke:#fe0100;" x="177.021871" xlink:href="#C0_0_4b758bab92" y="246.532064"/>
    </g>
    <g clip-path="url(#pd5e91de04e)">
     <use style="fill:#fe0100;stroke:#fe0100;" x="175.638438" xlink:href="#C0_0_4b758bab92" y="228.831107"/>
    </g>
    <g clip-path="url(#pd5e91de04e)">
     <use style="fill:#fe0100;stroke:#fe0100;" x="176.964708" xlink:href="#C0_0_4b758bab92" y="70.208987"/>
    </g>
    <g clip-path="url(#pd5e91de04e)">
     <use style="fill:#fe0100;stroke:#fe0100;" x="172.038628" xlink:href="#C0_0_4b758bab92" y="66.496524"/>
    </g>
    <g clip-path="url(#pd5e91de04e)">
     <use style="fill:#00ff00;stroke:#00ff00;" x="165.182823" xlink:href="#C0_0_4b758bab92" y="63.789258"/>
    </g>
    <g clip-path="url(#pd5e91de04e)">
     <use style="fill:#00ff00;stroke:#00ff00;" x="131.035702" xlink:href="#C0_0_4b758bab92" y="74.219445"/>
    </g>
    <g clip-path="url(#pd5e91de04e)">
     <use style="fill:#00ff00;stroke:#00ff00;" x="127.524861" xlink:href="#C0_0_4b758bab92" y="74.054741"/>
    </g>
    <g clip-path="url(#pd5e91de04e)">
     <use style="fill:#00ff00;stroke:#00ff00;" x="118.605463" xlink:href="#C0_0_4b758bab92" y="74.437073"/>
    </g>
    <g clip-path="url(#pd5e91de04e)">
     <use style="fill:#00ff00;stroke:#00ff00;" x="113.573587" xlink:href="#C0_0_4b758bab92" y="75.292415"/>
    </g>
   </g>
   <g id="matplotlib.axis_1">
    <g id="xtick_1">
     <g id="line2d_1">
      <defs>
       <path d="M 0 0 
L 0 3.5 
" id="mf1b5f66e44" style="stroke:#000000;stroke-width:0.8;"/>
      </defs>
      <g>
       <use style="stroke:#000000;stroke-width:0.8;" x="81.061237" xlink:href="#mf1b5f66e44" y="307.584"/>
      </g>
     </g>
     <g id="text_1">
      <!-- −10.0 -->
      <g transform="translate(65.738581 322.182437)scale(0.1 -0.1)">
       <defs>
        <path d="M 10.59375 35.5 
L 73.1875 35.5 
L 73.1875 27.203125 
L 10.59375 27.203125 
z
" id="DejaVuSans-8722"/>
        <path d="M 12.40625 8.296875 
L 28.515625 8.296875 
L 28.515625 63.921875 
L 10.984375 60.40625 
L 10.984375 69.390625 
L 28.421875 72.90625 
L 38.28125 72.90625 
L 38.28125 8.296875 
L 54.390625 8.296875 
L 54.390625 0 
L 12.40625 0 
z
" id="DejaVuSans-49"/>
        <path d="M 31.78125 66.40625 
Q 24.171875 66.40625 20.328125 58.90625 
Q 16.5 51.421875 16.5 36.375 
Q 16.5 21.390625 20.328125 13.890625 
Q 24.171875 6.390625 31.78125 6.390625 
Q 39.453125 6.390625 43.28125 13.890625 
Q 47.125 21.390625 47.125 36.375 
Q 47.125 51.421875 43.28125 58.90625 
Q 39.453125 66.40625 31.78125 66.40625 
z
M 31.78125 74.21875 
Q 44.046875 74.21875 50.515625 64.515625 
Q 56.984375 54.828125 56.984375 36.375 
Q 56.984375 17.96875 50.515625 8.265625 
Q 44.046875 -1.421875 31.78125 -1.421875 
Q 19.53125 -1.421875 13.0625 8.265625 
Q 6.59375 17.96875 6.59375 36.375 
Q 6.59375 54.828125 13.0625 64.515625 
Q 19.53125 74.21875 31.78125 74.21875 
z
" id="DejaVuSans-48"/>
        <path d="M 10.6875 12.40625 
L 21 12.40625 
L 21 0 
L 10.6875 0 
z
" id="DejaVuSans-46"/>
       </defs>
       <use xlink:href="#DejaVuSans-8722"/>
       <use x="83.789062" xlink:href="#DejaVuSans-49"/>
       <use x="147.412109" xlink:href="#DejaVuSans-48"/>
       <use x="211.035156" xlink:href="#DejaVuSans-46"/>
       <use x="242.822266" xlink:href="#DejaVuSans-48"/>
      </g>
     </g>
    </g>
    <g id="xtick_2">
     <g id="line2d_2">
      <g>
       <use style="stroke:#000000;stroke-width:0.8;" x="123.535828" xlink:href="#mf1b5f66e44" y="307.584"/>
      </g>
     </g>
     <g id="text_2">
      <!-- −7.5 -->
      <g transform="translate(111.394422 322.182437)scale(0.1 -0.1)">
       <defs>
        <path d="M 8.203125 72.90625 
L 55.078125 72.90625 
L 55.078125 68.703125 
L 28.609375 0 
L 18.3125 0 
L 43.21875 64.59375 
L 8.203125 64.59375 
z
" id="DejaVuSans-55"/>
        <path d="M 10.796875 72.90625 
L 49.515625 72.90625 
L 49.515625 64.59375 
L 19.828125 64.59375 
L 19.828125 46.734375 
Q 21.96875 47.46875 24.109375 47.828125 
Q 26.265625 48.1875 28.421875 48.1875 
Q 40.625 48.1875 47.75 41.5 
Q 54.890625 34.8125 54.890625 23.390625 
Q 54.890625 11.625 47.5625 5.09375 
Q 40.234375 -1.421875 26.90625 -1.421875 
Q 22.3125 -1.421875 17.546875 -0.640625 
Q 12.796875 0.140625 7.71875 1.703125 
L 7.71875 11.625 
Q 12.109375 9.234375 16.796875 8.0625 
Q 21.484375 6.890625 26.703125 6.890625 
Q 35.15625 6.890625 40.078125 11.328125 
Q 45.015625 15.765625 45.015625 23.390625 
Q 45.015625 31 40.078125 35.4375 
Q 35.15625 39.890625 26.703125 39.890625 
Q 22.75 39.890625 18.8125 39.015625 
Q 14.890625 38.140625 10.796875 36.28125 
z
" id="DejaVuSans-53"/>
       </defs>
       <use xlink:href="#DejaVuSans-8722"/>
       <use x="83.789062" xlink:href="#DejaVuSans-55"/>
       <use x="147.412109" xlink:href="#DejaVuSans-46"/>
       <use x="179.199219" xlink:href="#DejaVuSans-53"/>
      </g>
     </g>
    </g>
    <g id="xtick_3">
     <g id="line2d_3">
      <g>
       <use style="stroke:#000000;stroke-width:0.8;" x="166.01042" xlink:href="#mf1b5f66e44" y="307.584"/>
      </g>
     </g>
     <g id="text_3">
      <!-- −5.0 -->
      <g transform="translate(153.869014 322.182437)scale(0.1 -0.1)">
       <use xlink:href="#DejaVuSans-8722"/>
       <use x="83.789062" xlink:href="#DejaVuSans-53"/>
       <use x="147.412109" xlink:href="#DejaVuSans-46"/>
       <use x="179.199219" xlink:href="#DejaVuSans-48"/>
      </g>
     </g>
    </g>
    <g id="xtick_4">
     <g id="line2d_4">
      <g>
       <use style="stroke:#000000;stroke-width:0.8;" x="208.485011" xlink:href="#mf1b5f66e44" y="307.584"/>
      </g>
     </g>
     <g id="text_4">
      <!-- −2.5 -->
      <g transform="translate(196.343605 322.182437)scale(0.1 -0.1)">
       <defs>
        <path d="M 19.1875 8.296875 
L 53.609375 8.296875 
L 53.609375 0 
L 7.328125 0 
L 7.328125 8.296875 
Q 12.9375 14.109375 22.625 23.890625 
Q 32.328125 33.6875 34.8125 36.53125 
Q 39.546875 41.84375 41.421875 45.53125 
Q 43.3125 49.21875 43.3125 52.78125 
Q 43.3125 58.59375 39.234375 62.25 
Q 35.15625 65.921875 28.609375 65.921875 
Q 23.96875 65.921875 18.8125 64.3125 
Q 13.671875 62.703125 7.8125 59.421875 
L 7.8125 69.390625 
Q 13.765625 71.78125 18.9375 73 
Q 24.125 74.21875 28.421875 74.21875 
Q 39.75 74.21875 46.484375 68.546875 
Q 53.21875 62.890625 53.21875 53.421875 
Q 53.21875 48.921875 51.53125 44.890625 
Q 49.859375 40.875 45.40625 35.40625 
Q 44.1875 33.984375 37.640625 27.21875 
Q 31.109375 20.453125 19.1875 8.296875 
z
" id="DejaVuSans-50"/>
       </defs>
       <use xlink:href="#DejaVuSans-8722"/>
       <use x="83.789062" xlink:href="#DejaVuSans-50"/>
       <use x="147.412109" xlink:href="#DejaVuSans-46"/>
       <use x="179.199219" xlink:href="#DejaVuSans-53"/>
      </g>
     </g>
    </g>
    <g id="xtick_5">
     <g id="line2d_5">
      <g>
       <use style="stroke:#000000;stroke-width:0.8;" x="250.959603" xlink:href="#mf1b5f66e44" y="307.584"/>
      </g>
     </g>
     <g id="text_5">
      <!-- 0.0 -->
      <g transform="translate(243.00804 322.182437)scale(0.1 -0.1)">
       <use xlink:href="#DejaVuSans-48"/>
       <use x="63.623047" xlink:href="#DejaVuSans-46"/>
       <use x="95.410156" xlink:href="#DejaVuSans-48"/>
      </g>
     </g>
    </g>
    <g id="xtick_6">
     <g id="line2d_6">
      <g>
       <use style="stroke:#000000;stroke-width:0.8;" x="293.434194" xlink:href="#mf1b5f66e44" y="307.584"/>
      </g>
     </g>
     <g id="text_6">
      <!-- 2.5 -->
      <g transform="translate(285.482632 322.182437)scale(0.1 -0.1)">
       <use xlink:href="#DejaVuSans-50"/>
       <use x="63.623047" xlink:href="#DejaVuSans-46"/>
       <use x="95.410156" xlink:href="#DejaVuSans-53"/>
      </g>
     </g>
    </g>
    <g id="xtick_7">
     <g id="line2d_7">
      <g>
       <use style="stroke:#000000;stroke-width:0.8;" x="335.908786" xlink:href="#mf1b5f66e44" y="307.584"/>
      </g>
     </g>
     <g id="text_7">
      <!-- 5.0 -->
      <g transform="translate(327.957223 322.182437)scale(0.1 -0.1)">
       <use xlink:href="#DejaVuSans-53"/>
       <use x="63.623047" xlink:href="#DejaVuSans-46"/>
       <use x="95.410156" xlink:href="#DejaVuSans-48"/>
      </g>
     </g>
    </g>
    <g id="xtick_8">
     <g id="line2d_8">
      <g>
       <use style="stroke:#000000;stroke-width:0.8;" x="378.383377" xlink:href="#mf1b5f66e44" y="307.584"/>
      </g>
     </g>
     <g id="text_8">
      <!-- 7.5 -->
      <g transform="translate(370.431815 322.182437)scale(0.1 -0.1)">
       <use xlink:href="#DejaVuSans-55"/>
       <use x="63.623047" xlink:href="#DejaVuSans-46"/>
       <use x="95.410156" xlink:href="#DejaVuSans-53"/>
      </g>
     </g>
    </g>
   </g>
   <g id="matplotlib.axis_2">
    <g id="ytick_1">
     <g id="line2d_9">
      <defs>
       <path d="M 0 0 
L -3.5 0 
" id="m435c9c9733" style="stroke:#000000;stroke-width:0.8;"/>
      </defs>
      <g>
       <use style="stroke:#000000;stroke-width:0.8;" x="57.6" xlink:href="#m435c9c9733" y="298.591005"/>
      </g>
     </g>
     <g id="text_9">
      <!-- −8 -->
      <g transform="translate(35.857813 302.390224)scale(0.1 -0.1)">
       <defs>
        <path d="M 31.78125 34.625 
Q 24.75 34.625 20.71875 30.859375 
Q 16.703125 27.09375 16.703125 20.515625 
Q 16.703125 13.921875 20.71875 10.15625 
Q 24.75 6.390625 31.78125 6.390625 
Q 38.8125 6.390625 42.859375 10.171875 
Q 46.921875 13.96875 46.921875 20.515625 
Q 46.921875 27.09375 42.890625 30.859375 
Q 38.875 34.625 31.78125 34.625 
z
M 21.921875 38.8125 
Q 15.578125 40.375 12.03125 44.71875 
Q 8.5 49.078125 8.5 55.328125 
Q 8.5 64.0625 14.71875 69.140625 
Q 20.953125 74.21875 31.78125 74.21875 
Q 42.671875 74.21875 48.875 69.140625 
Q 55.078125 64.0625 55.078125 55.328125 
Q 55.078125 49.078125 51.53125 44.71875 
Q 48 40.375 41.703125 38.8125 
Q 48.828125 37.15625 52.796875 32.3125 
Q 56.78125 27.484375 56.78125 20.515625 
Q 56.78125 9.90625 50.3125 4.234375 
Q 43.84375 -1.421875 31.78125 -1.421875 
Q 19.734375 -1.421875 13.25 4.234375 
Q 6.78125 9.90625 6.78125 20.515625 
Q 6.78125 27.484375 10.78125 32.3125 
Q 14.796875 37.15625 21.921875 38.8125 
z
M 18.3125 54.390625 
Q 18.3125 48.734375 21.84375 45.5625 
Q 25.390625 42.390625 31.78125 42.390625 
Q 38.140625 42.390625 41.71875 45.5625 
Q 45.3125 48.734375 45.3125 54.390625 
Q 45.3125 60.0625 41.71875 63.234375 
Q 38.140625 66.40625 31.78125 66.40625 
Q 25.390625 66.40625 21.84375 63.234375 
Q 18.3125 60.0625 18.3125 54.390625 
z
" id="DejaVuSans-56"/>
       </defs>
       <use xlink:href="#DejaVuSans-8722"/>
       <use x="83.789062" xlink:href="#DejaVuSans-56"/>
      </g>
     </g>
    </g>
    <g id="ytick_2">
     <g id="line2d_10">
      <g>
       <use style="stroke:#000000;stroke-width:0.8;" x="57.6" xlink:href="#m435c9c9733" y="256.437191"/>
      </g>
     </g>
     <g id="text_10">
      <!-- −6 -->
      <g transform="translate(35.857813 260.23641)scale(0.1 -0.1)">
       <defs>
        <path d="M 33.015625 40.375 
Q 26.375 40.375 22.484375 35.828125 
Q 18.609375 31.296875 18.609375 23.390625 
Q 18.609375 15.53125 22.484375 10.953125 
Q 26.375 6.390625 33.015625 6.390625 
Q 39.65625 6.390625 43.53125 10.953125 
Q 47.40625 15.53125 47.40625 23.390625 
Q 47.40625 31.296875 43.53125 35.828125 
Q 39.65625 40.375 33.015625 40.375 
z
M 52.59375 71.296875 
L 52.59375 62.3125 
Q 48.875 64.0625 45.09375 64.984375 
Q 41.3125 65.921875 37.59375 65.921875 
Q 27.828125 65.921875 22.671875 59.328125 
Q 17.53125 52.734375 16.796875 39.40625 
Q 19.671875 43.65625 24.015625 45.921875 
Q 28.375 48.1875 33.59375 48.1875 
Q 44.578125 48.1875 50.953125 41.515625 
Q 57.328125 34.859375 57.328125 23.390625 
Q 57.328125 12.15625 50.6875 5.359375 
Q 44.046875 -1.421875 33.015625 -1.421875 
Q 20.359375 -1.421875 13.671875 8.265625 
Q 6.984375 17.96875 6.984375 36.375 
Q 6.984375 53.65625 15.1875 63.9375 
Q 23.390625 74.21875 37.203125 74.21875 
Q 40.921875 74.21875 44.703125 73.484375 
Q 48.484375 72.75 52.59375 71.296875 
z
" id="DejaVuSans-54"/>
       </defs>
       <use xlink:href="#DejaVuSans-8722"/>
       <use x="83.789062" xlink:href="#DejaVuSans-54"/>
      </g>
     </g>
    </g>
    <g id="ytick_3">
     <g id="line2d_11">
      <g>
       <use style="stroke:#000000;stroke-width:0.8;" x="57.6" xlink:href="#m435c9c9733" y="214.283377"/>
      </g>
     </g>
     <g id="text_11">
      <!-- −4 -->
      <g transform="translate(35.857813 218.082596)scale(0.1 -0.1)">
       <defs>
        <path d="M 37.796875 64.3125 
L 12.890625 25.390625 
L 37.796875 25.390625 
z
M 35.203125 72.90625 
L 47.609375 72.90625 
L 47.609375 25.390625 
L 58.015625 25.390625 
L 58.015625 17.1875 
L 47.609375 17.1875 
L 47.609375 0 
L 37.796875 0 
L 37.796875 17.1875 
L 4.890625 17.1875 
L 4.890625 26.703125 
z
" id="DejaVuSans-52"/>
       </defs>
       <use xlink:href="#DejaVuSans-8722"/>
       <use x="83.789062" xlink:href="#DejaVuSans-52"/>
      </g>
     </g>
    </g>
    <g id="ytick_4">
     <g id="line2d_12">
      <g>
       <use style="stroke:#000000;stroke-width:0.8;" x="57.6" xlink:href="#m435c9c9733" y="172.129563"/>
      </g>
     </g>
     <g id="text_12">
      <!-- −2 -->
      <g transform="translate(35.857813 175.928781)scale(0.1 -0.1)">
       <use xlink:href="#DejaVuSans-8722"/>
       <use x="83.789062" xlink:href="#DejaVuSans-50"/>
      </g>
     </g>
    </g>
    <g id="ytick_5">
     <g id="line2d_13">
      <g>
       <use style="stroke:#000000;stroke-width:0.8;" x="57.6" xlink:href="#m435c9c9733" y="129.975748"/>
      </g>
     </g>
     <g id="text_13">
      <!-- 0 -->
      <g transform="translate(44.2375 133.774967)scale(0.1 -0.1)">
       <use xlink:href="#DejaVuSans-48"/>
      </g>
     </g>
    </g>
    <g id="ytick_6">
     <g id="line2d_14">
      <g>
       <use style="stroke:#000000;stroke-width:0.8;" x="57.6" xlink:href="#m435c9c9733" y="87.821934"/>
      </g>
     </g>
     <g id="text_14">
      <!-- 2 -->
      <g transform="translate(44.2375 91.621153)scale(0.1 -0.1)">
       <use xlink:href="#DejaVuSans-50"/>
      </g>
     </g>
    </g>
    <g id="ytick_7">
     <g id="line2d_15">
      <g>
       <use style="stroke:#000000;stroke-width:0.8;" x="57.6" xlink:href="#m435c9c9733" y="45.66812"/>
      </g>
     </g>
     <g id="text_15">
      <!-- 4 -->
      <g transform="translate(44.2375 49.467338)scale(0.1 -0.1)">
       <use xlink:href="#DejaVuSans-52"/>
      </g>
     </g>
    </g>
   </g>
   <g id="patch_3">
    <path d="M 57.6 307.584 
L 57.6 41.472 
" style="fill:none;stroke:#000000;stroke-linecap:square;stroke-linejoin:miter;stroke-width:0.8;"/>
   </g>
   <g id="patch_4">
    <path d="M 414.72 307.584 
L 414.72 41.472 
" style="fill:none;stroke:#000000;stroke-linecap:square;stroke-linejoin:miter;stroke-width:0.8;"/>
   </g>
   <g id="patch_5">
    <path d="M 57.6 307.584 
L 414.72 307.584 
" style="fill:none;stroke:#000000;stroke-linecap:square;stroke-linejoin:miter;stroke-width:0.8;"/>
   </g>
   <g id="patch_6">
    <path d="M 57.6 41.472 
L 414.72 41.472 
" style="fill:none;stroke:#000000;stroke-linecap:square;stroke-linejoin:miter;stroke-width:0.8;"/>
   </g>
  </g>
 </g>
 <defs>
  <clipPath id="pd5e91de04e">
   <rect height="266.112" width="357.12" x="57.6" y="41.472"/>
  </clipPath>
 </defs>
</svg>
