<?xml version="1.0" encoding="utf-8" standalone="no"?>
<!DOCTYPE svg PUBLIC "-//W3C//DTD SVG 1.1//EN"
  "http://www.w3.org/Graphics/SVG/1.1/DTD/svg11.dtd">
<!-- Created with matplotlib (https://matplotlib.org/) -->
<svg height="345.6pt" version="1.1" viewBox="0 0 460.8 345.6" width="460.8pt" xmlns="http://www.w3.org/2000/svg" xmlns:xlink="http://www.w3.org/1999/xlink">
 <metadata>
  <rdf:RDF xmlns:cc="http://creativecommons.org/ns#" xmlns:dc="http://purl.org/dc/elements/1.1/" xmlns:rdf="http://www.w3.org/1999/02/22-rdf-syntax-ns#">
   <cc:Work>
    <dc:type rdf:resource="http://purl.org/dc/dcmitype/StillImage"/>
    <dc:date>2021-07-14T13:41:40.725079</dc:date>
    <dc:format>image/svg+xml</dc:format>
    <dc:creator>
     <cc:Agent>
      <dc:title>Matplotlib v3.3.3, https://matplotlib.org/</dc:title>
     </cc:Agent>
    </dc:creator>
   </cc:Work>
  </rdf:RDF>
 </metadata>
 <defs>
  <style type="text/css">*{stroke-linecap:butt;stroke-linejoin:round;}</style>
 </defs>
 <g id="figure_1">
  <g id="patch_1">
   <path d="M 0 345.6 
L 460.8 345.6 
L 460.8 0 
L 0 0 
z
" style="fill:#ffffff;"/>
  </g>
  <g id="axes_1">
   <g id="patch_2">
    <path d="M 57.6 307.584 
L 414.72 307.584 
L 414.72 41.472 
L 57.6 41.472 
z
" style="fill:#ffffff;"/>
   </g>
   <g id="matplotlib.axis_1">
    <g id="xtick_1">
     <g id="line2d_1">
      <defs>
       <path d="M 0 0 
L 0 3.5 
" id="md09ebdc65e" style="stroke:#000000;stroke-width:0.8;"/>
      </defs>
      <g>
       <use style="stroke:#000000;stroke-width:0.8;" x="73.832727" xlink:href="#md09ebdc65e" y="307.584"/>
      </g>
     </g>
     <g id="text_1">
      <!-- 0 -->
      <g transform="translate(70.651477 322.182437)scale(0.1 -0.1)">
       <defs>
        <path d="M 31.78125 66.40625 
Q 24.171875 66.40625 20.328125 58.90625 
Q 16.5 51.421875 16.5 36.375 
Q 16.5 21.390625 20.328125 13.890625 
Q 24.171875 6.390625 31.78125 6.390625 
Q 39.453125 6.390625 43.28125 13.890625 
Q 47.125 21.390625 47.125 36.375 
Q 47.125 51.421875 43.28125 58.90625 
Q 39.453125 66.40625 31.78125 66.40625 
z
M 31.78125 74.21875 
Q 44.046875 74.21875 50.515625 64.515625 
Q 56.984375 54.828125 56.984375 36.375 
Q 56.984375 17.96875 50.515625 8.265625 
Q 44.046875 -1.421875 31.78125 -1.421875 
Q 19.53125 -1.421875 13.0625 8.265625 
Q 6.59375 17.96875 6.59375 36.375 
Q 6.59375 54.828125 13.0625 64.515625 
Q 19.53125 74.21875 31.78125 74.21875 
z
" id="DejaVuSans-48"/>
       </defs>
       <use xlink:href="#DejaVuSans-48"/>
      </g>
     </g>
    </g>
    <g id="xtick_2">
     <g id="line2d_2">
      <g>
       <use style="stroke:#000000;stroke-width:0.8;" x="138.634034" xlink:href="#md09ebdc65e" y="307.584"/>
      </g>
     </g>
     <g id="text_2">
      <!-- 100 -->
      <g transform="translate(129.090284 322.182437)scale(0.1 -0.1)">
       <defs>
        <path d="M 12.40625 8.296875 
L 28.515625 8.296875 
L 28.515625 63.921875 
L 10.984375 60.40625 
L 10.984375 69.390625 
L 28.421875 72.90625 
L 38.28125 72.90625 
L 38.28125 8.296875 
L 54.390625 8.296875 
L 54.390625 0 
L 12.40625 0 
z
" id="DejaVuSans-49"/>
       </defs>
       <use xlink:href="#DejaVuSans-49"/>
       <use x="63.623047" xlink:href="#DejaVuSans-48"/>
       <use x="127.246094" xlink:href="#DejaVuSans-48"/>
      </g>
     </g>
    </g>
    <g id="xtick_3">
     <g id="line2d_3">
      <g>
       <use style="stroke:#000000;stroke-width:0.8;" x="203.43534" xlink:href="#md09ebdc65e" y="307.584"/>
      </g>
     </g>
     <g id="text_3">
      <!-- 200 -->
      <g transform="translate(193.89159 322.182437)scale(0.1 -0.1)">
       <defs>
        <path d="M 19.1875 8.296875 
L 53.609375 8.296875 
L 53.609375 0 
L 7.328125 0 
L 7.328125 8.296875 
Q 12.9375 14.109375 22.625 23.890625 
Q 32.328125 33.6875 34.8125 36.53125 
Q 39.546875 41.84375 41.421875 45.53125 
Q 43.3125 49.21875 43.3125 52.78125 
Q 43.3125 58.59375 39.234375 62.25 
Q 35.15625 65.921875 28.609375 65.921875 
Q 23.96875 65.921875 18.8125 64.3125 
Q 13.671875 62.703125 7.8125 59.421875 
L 7.8125 69.390625 
Q 13.765625 71.78125 18.9375 73 
Q 24.125 74.21875 28.421875 74.21875 
Q 39.75 74.21875 46.484375 68.546875 
Q 53.21875 62.890625 53.21875 53.421875 
Q 53.21875 48.921875 51.53125 44.890625 
Q 49.859375 40.875 45.40625 35.40625 
Q 44.1875 33.984375 37.640625 27.21875 
Q 31.109375 20.453125 19.1875 8.296875 
z
" id="DejaVuSans-50"/>
       </defs>
       <use xlink:href="#DejaVuSans-50"/>
       <use x="63.623047" xlink:href="#DejaVuSans-48"/>
       <use x="127.246094" xlink:href="#DejaVuSans-48"/>
      </g>
     </g>
    </g>
    <g id="xtick_4">
     <g id="line2d_4">
      <g>
       <use style="stroke:#000000;stroke-width:0.8;" x="268.236647" xlink:href="#md09ebdc65e" y="307.584"/>
      </g>
     </g>
     <g id="text_4">
      <!-- 300 -->
      <g transform="translate(258.692897 322.182437)scale(0.1 -0.1)">
       <defs>
        <path d="M 40.578125 39.3125 
Q 47.65625 37.796875 51.625 33 
Q 55.609375 28.21875 55.609375 21.1875 
Q 55.609375 10.40625 48.1875 4.484375 
Q 40.765625 -1.421875 27.09375 -1.421875 
Q 22.515625 -1.421875 17.65625 -0.515625 
Q 12.796875 0.390625 7.625 2.203125 
L 7.625 11.71875 
Q 11.71875 9.328125 16.59375 8.109375 
Q 21.484375 6.890625 26.8125 6.890625 
Q 36.078125 6.890625 40.9375 10.546875 
Q 45.796875 14.203125 45.796875 21.1875 
Q 45.796875 27.640625 41.28125 31.265625 
Q 36.765625 34.90625 28.71875 34.90625 
L 20.21875 34.90625 
L 20.21875 43.015625 
L 29.109375 43.015625 
Q 36.375 43.015625 40.234375 45.921875 
Q 44.09375 48.828125 44.09375 54.296875 
Q 44.09375 59.90625 40.109375 62.90625 
Q 36.140625 65.921875 28.71875 65.921875 
Q 24.65625 65.921875 20.015625 65.03125 
Q 15.375 64.15625 9.8125 62.3125 
L 9.8125 71.09375 
Q 15.4375 72.65625 20.34375 73.4375 
Q 25.25 74.21875 29.59375 74.21875 
Q 40.828125 74.21875 47.359375 69.109375 
Q 53.90625 64.015625 53.90625 55.328125 
Q 53.90625 49.265625 50.4375 45.09375 
Q 46.96875 40.921875 40.578125 39.3125 
z
" id="DejaVuSans-51"/>
       </defs>
       <use xlink:href="#DejaVuSans-51"/>
       <use x="63.623047" xlink:href="#DejaVuSans-48"/>
       <use x="127.246094" xlink:href="#DejaVuSans-48"/>
      </g>
     </g>
    </g>
    <g id="xtick_5">
     <g id="line2d_5">
      <g>
       <use style="stroke:#000000;stroke-width:0.8;" x="333.037953" xlink:href="#md09ebdc65e" y="307.584"/>
      </g>
     </g>
     <g id="text_5">
      <!-- 400 -->
      <g transform="translate(323.494203 322.182437)scale(0.1 -0.1)">
       <defs>
        <path d="M 37.796875 64.3125 
L 12.890625 25.390625 
L 37.796875 25.390625 
z
M 35.203125 72.90625 
L 47.609375 72.90625 
L 47.609375 25.390625 
L 58.015625 25.390625 
L 58.015625 17.1875 
L 47.609375 17.1875 
L 47.609375 0 
L 37.796875 0 
L 37.796875 17.1875 
L 4.890625 17.1875 
L 4.890625 26.703125 
z
" id="DejaVuSans-52"/>
       </defs>
       <use xlink:href="#DejaVuSans-52"/>
       <use x="63.623047" xlink:href="#DejaVuSans-48"/>
       <use x="127.246094" xlink:href="#DejaVuSans-48"/>
      </g>
     </g>
    </g>
    <g id="xtick_6">
     <g id="line2d_6">
      <g>
       <use style="stroke:#000000;stroke-width:0.8;" x="397.83926" xlink:href="#md09ebdc65e" y="307.584"/>
      </g>
     </g>
     <g id="text_6">
      <!-- 500 -->
      <g transform="translate(388.29551 322.182437)scale(0.1 -0.1)">
       <defs>
        <path d="M 10.796875 72.90625 
L 49.515625 72.90625 
L 49.515625 64.59375 
L 19.828125 64.59375 
L 19.828125 46.734375 
Q 21.96875 47.46875 24.109375 47.828125 
Q 26.265625 48.1875 28.421875 48.1875 
Q 40.625 48.1875 47.75 41.5 
Q 54.890625 34.8125 54.890625 23.390625 
Q 54.890625 11.625 47.5625 5.09375 
Q 40.234375 -1.421875 26.90625 -1.421875 
Q 22.3125 -1.421875 17.546875 -0.640625 
Q 12.796875 0.140625 7.71875 1.703125 
L 7.71875 11.625 
Q 12.109375 9.234375 16.796875 8.0625 
Q 21.484375 6.890625 26.703125 6.890625 
Q 35.15625 6.890625 40.078125 11.328125 
Q 45.015625 15.765625 45.015625 23.390625 
Q 45.015625 31 40.078125 35.4375 
Q 35.15625 39.890625 26.703125 39.890625 
Q 22.75 39.890625 18.8125 39.015625 
Q 14.890625 38.140625 10.796875 36.28125 
z
" id="DejaVuSans-53"/>
       </defs>
       <use xlink:href="#DejaVuSans-53"/>
       <use x="63.623047" xlink:href="#DejaVuSans-48"/>
       <use x="127.246094" xlink:href="#DejaVuSans-48"/>
      </g>
     </g>
    </g>
    <g id="text_7">
     <!-- Epoch -->
     <g transform="translate(220.849063 335.860562)scale(0.1 -0.1)">
      <defs>
       <path d="M 9.8125 72.90625 
L 55.90625 72.90625 
L 55.90625 64.59375 
L 19.671875 64.59375 
L 19.671875 43.015625 
L 54.390625 43.015625 
L 54.390625 34.71875 
L 19.671875 34.71875 
L 19.671875 8.296875 
L 56.78125 8.296875 
L 56.78125 0 
L 9.8125 0 
z
" id="DejaVuSans-69"/>
       <path d="M 18.109375 8.203125 
L 18.109375 -20.796875 
L 9.078125 -20.796875 
L 9.078125 54.6875 
L 18.109375 54.6875 
L 18.109375 46.390625 
Q 20.953125 51.265625 25.265625 53.625 
Q 29.59375 56 35.59375 56 
Q 45.5625 56 51.78125 48.09375 
Q 58.015625 40.1875 58.015625 27.296875 
Q 58.015625 14.40625 51.78125 6.484375 
Q 45.5625 -1.421875 35.59375 -1.421875 
Q 29.59375 -1.421875 25.265625 0.953125 
Q 20.953125 3.328125 18.109375 8.203125 
z
M 48.6875 27.296875 
Q 48.6875 37.203125 44.609375 42.84375 
Q 40.53125 48.484375 33.40625 48.484375 
Q 26.265625 48.484375 22.1875 42.84375 
Q 18.109375 37.203125 18.109375 27.296875 
Q 18.109375 17.390625 22.1875 11.75 
Q 26.265625 6.109375 33.40625 6.109375 
Q 40.53125 6.109375 44.609375 11.75 
Q 48.6875 17.390625 48.6875 27.296875 
z
" id="DejaVuSans-112"/>
       <path d="M 30.609375 48.390625 
Q 23.390625 48.390625 19.1875 42.75 
Q 14.984375 37.109375 14.984375 27.296875 
Q 14.984375 17.484375 19.15625 11.84375 
Q 23.34375 6.203125 30.609375 6.203125 
Q 37.796875 6.203125 41.984375 11.859375 
Q 46.1875 17.53125 46.1875 27.296875 
Q 46.1875 37.015625 41.984375 42.703125 
Q 37.796875 48.390625 30.609375 48.390625 
z
M 30.609375 56 
Q 42.328125 56 49.015625 48.375 
Q 55.71875 40.765625 55.71875 27.296875 
Q 55.71875 13.875 49.015625 6.21875 
Q 42.328125 -1.421875 30.609375 -1.421875 
Q 18.84375 -1.421875 12.171875 6.21875 
Q 5.515625 13.875 5.515625 27.296875 
Q 5.515625 40.765625 12.171875 48.375 
Q 18.84375 56 30.609375 56 
z
" id="DejaVuSans-111"/>
       <path d="M 48.78125 52.59375 
L 48.78125 44.1875 
Q 44.96875 46.296875 41.140625 47.34375 
Q 37.3125 48.390625 33.40625 48.390625 
Q 24.65625 48.390625 19.8125 42.84375 
Q 14.984375 37.3125 14.984375 27.296875 
Q 14.984375 17.28125 19.8125 11.734375 
Q 24.65625 6.203125 33.40625 6.203125 
Q 37.3125 6.203125 41.140625 7.25 
Q 44.96875 8.296875 48.78125 10.40625 
L 48.78125 2.09375 
Q 45.015625 0.34375 40.984375 -0.53125 
Q 36.96875 -1.421875 32.421875 -1.421875 
Q 20.0625 -1.421875 12.78125 6.34375 
Q 5.515625 14.109375 5.515625 27.296875 
Q 5.515625 40.671875 12.859375 48.328125 
Q 20.21875 56 33.015625 56 
Q 37.15625 56 41.109375 55.140625 
Q 45.0625 54.296875 48.78125 52.59375 
z
" id="DejaVuSans-99"/>
       <path d="M 54.890625 33.015625 
L 54.890625 0 
L 45.90625 0 
L 45.90625 32.71875 
Q 45.90625 40.484375 42.875 44.328125 
Q 39.84375 48.1875 33.796875 48.1875 
Q 26.515625 48.1875 22.3125 43.546875 
Q 18.109375 38.921875 18.109375 30.90625 
L 18.109375 0 
L 9.078125 0 
L 9.078125 75.984375 
L 18.109375 75.984375 
L 18.109375 46.1875 
Q 21.34375 51.125 25.703125 53.5625 
Q 30.078125 56 35.796875 56 
Q 45.21875 56 50.046875 50.171875 
Q 54.890625 44.34375 54.890625 33.015625 
z
" id="DejaVuSans-104"/>
      </defs>
      <use xlink:href="#DejaVuSans-69"/>
      <use x="63.183594" xlink:href="#DejaVuSans-112"/>
      <use x="126.660156" xlink:href="#DejaVuSans-111"/>
      <use x="187.841797" xlink:href="#DejaVuSans-99"/>
      <use x="242.822266" xlink:href="#DejaVuSans-104"/>
     </g>
    </g>
   </g>
   <g id="matplotlib.axis_2">
    <g id="ytick_1">
     <g id="line2d_7">
      <defs>
       <path d="M 0 0 
L -3.5 0 
" id="mef33bc5ee4" style="stroke:#000000;stroke-width:0.8;"/>
      </defs>
      <g>
       <use style="stroke:#000000;stroke-width:0.8;" x="57.6" xlink:href="#mef33bc5ee4" y="300.744584"/>
      </g>
     </g>
     <g id="text_8">
      <!-- 0.00 -->
      <g transform="translate(28.334375 304.543803)scale(0.1 -0.1)">
       <defs>
        <path d="M 10.6875 12.40625 
L 21 12.40625 
L 21 0 
L 10.6875 0 
z
" id="DejaVuSans-46"/>
       </defs>
       <use xlink:href="#DejaVuSans-48"/>
       <use x="63.623047" xlink:href="#DejaVuSans-46"/>
       <use x="95.410156" xlink:href="#DejaVuSans-48"/>
       <use x="159.033203" xlink:href="#DejaVuSans-48"/>
      </g>
     </g>
    </g>
    <g id="ytick_2">
     <g id="line2d_8">
      <g>
       <use style="stroke:#000000;stroke-width:0.8;" x="57.6" xlink:href="#mef33bc5ee4" y="260.100901"/>
      </g>
     </g>
     <g id="text_9">
      <!-- 0.01 -->
      <g transform="translate(28.334375 263.90012)scale(0.1 -0.1)">
       <use xlink:href="#DejaVuSans-48"/>
       <use x="63.623047" xlink:href="#DejaVuSans-46"/>
       <use x="95.410156" xlink:href="#DejaVuSans-48"/>
       <use x="159.033203" xlink:href="#DejaVuSans-49"/>
      </g>
     </g>
    </g>
    <g id="ytick_3">
     <g id="line2d_9">
      <g>
       <use style="stroke:#000000;stroke-width:0.8;" x="57.6" xlink:href="#mef33bc5ee4" y="219.457218"/>
      </g>
     </g>
     <g id="text_10">
      <!-- 0.02 -->
      <g transform="translate(28.334375 223.256437)scale(0.1 -0.1)">
       <use xlink:href="#DejaVuSans-48"/>
       <use x="63.623047" xlink:href="#DejaVuSans-46"/>
       <use x="95.410156" xlink:href="#DejaVuSans-48"/>
       <use x="159.033203" xlink:href="#DejaVuSans-50"/>
      </g>
     </g>
    </g>
    <g id="ytick_4">
     <g id="line2d_10">
      <g>
       <use style="stroke:#000000;stroke-width:0.8;" x="57.6" xlink:href="#mef33bc5ee4" y="178.813535"/>
      </g>
     </g>
     <g id="text_11">
      <!-- 0.03 -->
      <g transform="translate(28.334375 182.612753)scale(0.1 -0.1)">
       <use xlink:href="#DejaVuSans-48"/>
       <use x="63.623047" xlink:href="#DejaVuSans-46"/>
       <use x="95.410156" xlink:href="#DejaVuSans-48"/>
       <use x="159.033203" xlink:href="#DejaVuSans-51"/>
      </g>
     </g>
    </g>
    <g id="ytick_5">
     <g id="line2d_11">
      <g>
       <use style="stroke:#000000;stroke-width:0.8;" x="57.6" xlink:href="#mef33bc5ee4" y="138.169851"/>
      </g>
     </g>
     <g id="text_12">
      <!-- 0.04 -->
      <g transform="translate(28.334375 141.96907)scale(0.1 -0.1)">
       <use xlink:href="#DejaVuSans-48"/>
       <use x="63.623047" xlink:href="#DejaVuSans-46"/>
       <use x="95.410156" xlink:href="#DejaVuSans-48"/>
       <use x="159.033203" xlink:href="#DejaVuSans-52"/>
      </g>
     </g>
    </g>
    <g id="ytick_6">
     <g id="line2d_12">
      <g>
       <use style="stroke:#000000;stroke-width:0.8;" x="57.6" xlink:href="#mef33bc5ee4" y="97.526168"/>
      </g>
     </g>
     <g id="text_13">
      <!-- 0.05 -->
      <g transform="translate(28.334375 101.325387)scale(0.1 -0.1)">
       <use xlink:href="#DejaVuSans-48"/>
       <use x="63.623047" xlink:href="#DejaVuSans-46"/>
       <use x="95.410156" xlink:href="#DejaVuSans-48"/>
       <use x="159.033203" xlink:href="#DejaVuSans-53"/>
      </g>
     </g>
    </g>
    <g id="ytick_7">
     <g id="line2d_13">
      <g>
       <use style="stroke:#000000;stroke-width:0.8;" x="57.6" xlink:href="#mef33bc5ee4" y="56.882485"/>
      </g>
     </g>
     <g id="text_14">
      <!-- 0.06 -->
      <g transform="translate(28.334375 60.681704)scale(0.1 -0.1)">
       <defs>
        <path d="M 33.015625 40.375 
Q 26.375 40.375 22.484375 35.828125 
Q 18.609375 31.296875 18.609375 23.390625 
Q 18.609375 15.53125 22.484375 10.953125 
Q 26.375 6.390625 33.015625 6.390625 
Q 39.65625 6.390625 43.53125 10.953125 
Q 47.40625 15.53125 47.40625 23.390625 
Q 47.40625 31.296875 43.53125 35.828125 
Q 39.65625 40.375 33.015625 40.375 
z
M 52.59375 71.296875 
L 52.59375 62.3125 
Q 48.875 64.0625 45.09375 64.984375 
Q 41.3125 65.921875 37.59375 65.921875 
Q 27.828125 65.921875 22.671875 59.328125 
Q 17.53125 52.734375 16.796875 39.40625 
Q 19.671875 43.65625 24.015625 45.921875 
Q 28.375 48.1875 33.59375 48.1875 
Q 44.578125 48.1875 50.953125 41.515625 
Q 57.328125 34.859375 57.328125 23.390625 
Q 57.328125 12.15625 50.6875 5.359375 
Q 44.046875 -1.421875 33.015625 -1.421875 
Q 20.359375 -1.421875 13.671875 8.265625 
Q 6.984375 17.96875 6.984375 36.375 
Q 6.984375 53.65625 15.1875 63.9375 
Q 23.390625 74.21875 37.203125 74.21875 
Q 40.921875 74.21875 44.703125 73.484375 
Q 48.484375 72.75 52.59375 71.296875 
z
" id="DejaVuSans-54"/>
       </defs>
       <use xlink:href="#DejaVuSans-48"/>
       <use x="63.623047" xlink:href="#DejaVuSans-46"/>
       <use x="95.410156" xlink:href="#DejaVuSans-48"/>
       <use x="159.033203" xlink:href="#DejaVuSans-54"/>
      </g>
     </g>
    </g>
   </g>
   <g id="line2d_14">
    <path clip-path="url(#ped6bc3676e)" d="M 73.832727 53.568 
L 74.48074 235.831659 
L 75.128753 258.390311 
L 75.776766 267.913107 
L 77.072793 275.79525 
L 77.720806 277.992897 
L 79.016832 281.128003 
L 80.960871 284.443903 
L 81.608884 284.815792 
L 82.256897 285.718322 
L 82.90491 286.408841 
L 83.552923 286.598698 
L 84.200936 287.33558 
L 85.496962 287.837974 
L 86.144976 288.348747 
L 87.441002 289.047473 
L 88.089015 289.130958 
L 88.737028 288.743161 
L 89.385041 287.118302 
L 90.033054 289.561119 
L 90.681067 290.035324 
L 93.273119 290.332765 
L 93.921132 290.684771 
L 95.217158 290.754228 
L 95.865171 290.94708 
L 96.513185 290.902167 
L 97.161198 291.143965 
L 97.809211 291.136154 
L 98.457224 290.678557 
L 99.105237 291.323295 
L 99.75325 291.438441 
L 101.697289 291.427981 
L 102.345302 291.565221 
L 103.641328 291.477033 
L 104.289341 291.806307 
L 104.937354 291.864049 
L 105.585367 291.120925 
L 106.881394 291.901319 
L 108.17742 292.269324 
L 108.825433 292.175213 
L 110.121459 292.366828 
L 110.769472 292.313337 
L 111.417485 292.439913 
L 113.361524 292.486806 
L 114.65755 291.665837 
L 115.305563 292.431627 
L 115.953576 291.837958 
L 116.60159 292.520529 
L 117.897616 292.681426 
L 118.545629 291.99837 
L 119.193642 292.756209 
L 119.841655 292.710794 
L 120.489668 292.896279 
L 121.785694 292.914536 
L 123.08172 292.286936 
L 123.729733 292.98564 
L 124.377746 292.888968 
L 125.025759 293.122857 
L 128.265825 293.027632 
L 128.913838 293.226067 
L 129.561851 293.262005 
L 130.209864 293.111834 
L 130.857877 292.843305 
L 131.50589 293.302977 
L 132.801916 293.311052 
L 134.097942 293.406239 
L 134.745955 293.328354 
L 135.393968 292.332271 
L 136.041981 293.2206 
L 136.689995 293.42628 
L 138.634034 293.530768 
L 140.578073 293.379962 
L 141.226086 293.668209 
L 141.874099 293.247031 
L 142.522112 293.600609 
L 143.170125 293.677139 
L 143.818138 293.256117 
L 145.114164 293.416644 
L 145.762177 293.606868 
L 147.058204 293.74865 
L 147.706217 292.475341 
L 149.002243 293.843165 
L 150.298269 293.814881 
L 150.946282 293.671312 
L 151.594295 293.888841 
L 152.242308 293.766591 
L 152.890321 293.397074 
L 153.538334 293.692811 
L 154.83436 293.570044 
L 155.482373 293.362992 
L 156.130386 293.913383 
L 160.666478 293.97364 
L 161.314491 293.74412 
L 161.962504 285.584661 
L 162.610517 292.783121 
L 163.25853 293.95346 
L 163.906543 293.902136 
L 164.554556 294.082867 
L 167.794622 294.168524 
L 170.386674 294.125905 
L 171.6827 294.226475 
L 172.978726 294.188093 
L 174.274752 294.192663 
L 177.514818 294.136015 
L 178.162831 294.274254 
L 178.810844 294.106648 
L 179.458857 294.255542 
L 180.754883 294.168363 
L 181.402896 293.86267 
L 182.050909 293.018504 
L 182.698922 293.967183 
L 183.346935 294.279785 
L 187.235014 294.380852 
L 188.53104 294.377042 
L 189.827066 294.276913 
L 193.067131 294.356016 
L 195.659183 294.420936 
L 196.307197 294.303321 
L 196.95521 294.398482 
L 197.603223 294.337059 
L 198.251236 293.798893 
L 198.899249 294.022291 
L 199.547262 294.437842 
L 202.139314 294.404499 
L 203.43534 293.907468 
L 204.083353 294.517866 
L 204.731366 294.465648 
L 206.675406 294.571964 
L 209.267458 294.563511 
L 209.915471 294.423228 
L 210.563484 294.514302 
L 211.85951 294.42438 
L 212.507523 294.4623 
L 213.155536 294.040718 
L 213.803549 294.545246 
L 214.451562 294.478469 
L 215.099575 294.543417 
L 215.747588 294.058313 
L 216.395602 294.567336 
L 218.339641 294.658845 
L 218.987654 294.663831 
L 220.28368 294.358784 
L 220.931693 294.615026 
L 222.875732 294.69535 
L 223.523745 294.405664 
L 224.171758 294.551459 
L 224.819771 294.481971 
L 225.467784 294.676434 
L 226.115797 294.683848 
L 226.763811 293.425683 
L 228.059837 294.698059 
L 230.651889 294.760923 
L 231.299902 294.592314 
L 231.947915 294.756949 
L 232.595928 294.78927 
L 233.891954 294.432931 
L 234.539967 294.222252 
L 235.18798 294.564342 
L 235.835993 294.619171 
L 236.484007 294.452242 
L 237.13202 294.700015 
L 237.780033 294.825704 
L 244.260163 294.873396 
L 244.908176 294.661407 
L 245.556189 294.819022 
L 246.204203 294.713298 
L 248.148242 294.887504 
L 250.092281 294.460562 
L 250.740294 293.822305 
L 251.388307 294.164346 
L 252.03632 294.259702 
L 252.684333 294.76917 
L 253.332346 294.948612 
L 253.980359 294.842316 
L 254.628372 294.945423 
L 255.276385 294.857328 
L 255.924398 294.967879 
L 257.868438 294.916996 
L 259.164464 294.603785 
L 259.812477 294.940747 
L 261.756516 294.833231 
L 263.700555 294.881955 
L 264.996581 294.767668 
L 266.940621 294.975267 
L 267.588634 294.968911 
L 268.236647 293.942682 
L 268.88466 294.836423 
L 269.532673 294.551569 
L 270.180686 294.880824 
L 270.828699 294.990736 
L 272.124725 294.861884 
L 272.772738 294.995188 
L 273.420751 295.007529 
L 274.068764 294.672227 
L 274.716777 294.65899 
L 275.36479 294.951305 
L 276.012803 295.061215 
L 277.30883 294.983354 
L 277.956843 294.862477 
L 278.604856 294.467907 
L 279.252869 294.59086 
L 279.900882 294.97118 
L 280.548895 295.055337 
L 281.844921 294.92906 
L 282.492934 295.027677 
L 284.436973 295.061832 
L 285.084986 295.096824 
L 285.732999 294.957534 
L 287.029026 293.937219 
L 287.677039 295.052476 
L 288.325052 295.088761 
L 288.973065 294.830117 
L 289.621078 295.090593 
L 291.565117 295.082164 
L 292.21313 294.866823 
L 292.861143 295.052799 
L 293.509156 294.995189 
L 294.157169 295.152829 
L 296.749222 294.807838 
L 297.397235 293.916288 
L 298.045248 294.623688 
L 298.693261 295.076458 
L 299.989287 295.150073 
L 304.525378 295.162482 
L 306.469418 295.172494 
L 307.117431 295.132561 
L 307.765444 294.94977 
L 308.413457 294.514649 
L 309.06147 294.969544 
L 309.709483 294.751538 
L 310.357496 295.10669 
L 311.005509 295.206436 
L 312.301535 295.0731 
L 313.597561 295.108961 
L 315.5416 294.974308 
L 316.189614 295.18118 
L 321.373718 295.148053 
L 322.021731 294.626669 
L 322.669744 295.110697 
L 323.317757 295.115996 
L 323.96577 295.234212 
L 324.613783 295.225588 
L 325.261796 295.068941 
L 325.909809 295.205855 
L 327.205836 295.170864 
L 327.853849 295.101478 
L 328.501862 293.767516 
L 329.149875 294.685185 
L 329.797888 295.076137 
L 330.445901 294.862324 
L 331.093914 295.23515 
L 331.741927 295.147963 
L 332.38994 295.262735 
L 334.333979 295.247929 
L 335.630005 295.21882 
L 336.278019 295.17957 
L 336.926032 295.288532 
L 338.870071 295.013658 
L 339.518084 294.862766 
L 340.166097 295.231304 
L 341.462123 295.005981 
L 342.758149 295.285524 
L 345.998214 295.320907 
L 346.646228 295.152312 
L 347.942254 295.178755 
L 348.590267 294.564084 
L 349.23828 295.171318 
L 350.534306 295.145402 
L 351.182319 295.313219 
L 352.478345 295.302926 
L 355.71841 295.327944 
L 356.366424 295.118264 
L 357.66245 295.12706 
L 358.310463 295.271074 
L 358.958476 295.040853 
L 359.606489 295.014536 
L 360.254502 295.280848 
L 360.902515 294.44603 
L 362.198541 295.134497 
L 365.438606 295.340864 
L 369.326685 295.307356 
L 371.270724 295.361197 
L 371.918737 295.260955 
L 372.56675 295.365246 
L 375.158802 295.26296 
L 375.806815 294.890385 
L 376.454829 295.192716 
L 378.398868 295.336364 
L 379.046881 294.879845 
L 379.694894 295.059518 
L 380.342907 294.313182 
L 380.99092 295.257896 
L 381.638933 295.404292 
L 384.878998 295.406236 
L 388.119064 295.427669 
L 389.41509 295.292928 
L 390.711116 295.073602 
L 391.359129 294.769993 
L 392.007142 295.276048 
L 392.655155 295.315172 
L 393.303168 295.163284 
L 393.951181 295.350521 
L 395.89522 295.386787 
L 396.543234 295.135905 
L 397.191247 294.047469 
L 397.83926 295.027781 
L 398.487273 295.316688 
L 398.487273 295.316688 
" style="fill:none;stroke:#1f77b4;stroke-linecap:square;stroke-width:1.5;"/>
   </g>
   <g id="line2d_15">
    <path clip-path="url(#ped6bc3676e)" d="M 73.832727 220.298958 
L 74.48074 253.181044 
L 75.128753 266.979141 
L 75.776766 269.158812 
L 76.42478 276.521213 
L 77.072793 278.58761 
L 78.368819 281.830764 
L 79.016832 282.243736 
L 79.664845 283.851947 
L 80.960871 285.492797 
L 81.608884 285.882274 
L 82.256897 286.781217 
L 82.90491 287.423179 
L 83.552923 287.888794 
L 84.200936 287.245912 
L 84.848949 288.561384 
L 85.496962 288.484087 
L 86.144976 289.343839 
L 86.792989 289.569754 
L 88.089015 289.765115 
L 88.737028 288.575149 
L 89.385041 289.789338 
L 90.033054 290.464386 
L 90.681067 290.587755 
L 91.32908 290.557142 
L 91.977093 290.758782 
L 92.625106 290.58411 
L 93.273119 291.06713 
L 93.921132 291.209888 
L 94.569145 291.037206 
L 95.217158 291.306921 
L 95.865171 291.291794 
L 96.513185 291.561794 
L 97.161198 291.687223 
L 97.809211 290.400501 
L 98.457224 291.658866 
L 99.105237 291.838511 
L 99.75325 291.718168 
L 100.401263 291.720263 
L 101.049276 291.962305 
L 101.697289 291.455472 
L 102.345302 291.874684 
L 102.993315 291.293252 
L 103.641328 292.180013 
L 104.289341 292.053286 
L 104.937354 292.173743 
L 105.585367 291.197466 
L 106.233381 291.763999 
L 106.881394 292.548472 
L 112.065498 292.840298 
L 112.713511 292.481866 
L 113.361524 291.944188 
L 114.009537 292.081278 
L 114.65755 292.807047 
L 115.305563 289.612834 
L 115.953576 292.782126 
L 117.249603 293.048825 
L 117.897616 293.074793 
L 118.545629 292.840827 
L 119.193642 292.880853 
L 120.489668 293.197234 
L 121.785694 293.138952 
L 122.433707 293.133556 
L 123.08172 293.247432 
L 123.729733 293.022176 
L 124.377746 293.40222 
L 125.025759 293.312056 
L 126.321786 293.480887 
L 127.617812 293.311349 
L 128.265825 293.554276 
L 128.913838 293.612622 
L 129.561851 293.437056 
L 130.209864 291.6442 
L 130.857877 293.385612 
L 131.50589 293.61659 
L 132.153903 293.501577 
L 134.097942 293.687093 
L 134.745955 292.786305 
L 135.393968 292.86353 
L 136.041981 293.541235 
L 137.338008 293.722019 
L 138.634034 293.665302 
L 139.93006 293.314435 
L 140.578073 293.863251 
L 141.226086 293.940308 
L 141.874099 293.71158 
L 142.522112 293.905126 
L 143.818138 292.979526 
L 144.466151 293.532118 
L 145.114164 293.63265 
L 145.762177 293.951962 
L 146.410191 293.595075 
L 147.058204 293.900873 
L 147.706217 289.212521 
L 148.35423 293.978955 
L 149.002243 294.067058 
L 149.650256 294.023767 
L 150.298269 293.722652 
L 150.946282 294.071514 
L 151.594295 293.993301 
L 152.242308 293.249153 
L 152.890321 293.98483 
L 153.538334 293.050898 
L 154.186347 293.84073 
L 155.482373 294.037102 
L 160.666478 294.242112 
L 161.314491 289.2782 
L 161.962504 285.995666 
L 162.610517 293.998134 
L 165.202569 294.3837 
L 167.146609 294.396986 
L 169.738661 294.370695 
L 170.386674 294.354687 
L 171.034687 294.468807 
L 171.6827 294.287911 
L 172.330713 294.412714 
L 174.922765 294.357631 
L 176.866805 294.234394 
L 177.514818 294.461555 
L 178.162831 294.233697 
L 178.810844 294.386765 
L 179.458857 294.384225 
L 180.10687 294.503468 
L 182.050909 293.631029 
L 182.698922 294.341436 
L 183.346935 294.463233 
L 184.642961 294.193482 
L 185.290974 294.390977 
L 187.235014 294.537862 
L 188.53104 294.405795 
L 189.179053 294.497848 
L 189.827066 294.386885 
L 190.475079 294.150179 
L 191.123092 294.602161 
L 192.419118 294.598387 
L 193.067131 294.608448 
L 193.715144 293.914798 
L 194.363157 294.590233 
L 195.01117 294.411488 
L 196.95521 294.482457 
L 197.603223 293.909418 
L 198.251236 292.797204 
L 198.899249 294.629988 
L 200.195275 294.679925 
L 200.843288 294.646911 
L 201.491301 294.250337 
L 202.139314 294.732363 
L 202.787327 293.550064 
L 203.43534 294.561424 
L 204.083353 294.670695 
L 204.731366 294.630084 
L 205.379379 294.740379 
L 207.971432 294.773297 
L 208.619445 294.552824 
L 209.267458 294.657109 
L 210.563484 294.601835 
L 211.211497 294.400881 
L 211.85951 294.52116 
L 212.507523 293.641786 
L 213.155536 294.526436 
L 213.803549 294.719195 
L 214.451562 294.668183 
L 215.099575 294.270139 
L 216.395602 294.740306 
L 217.691628 294.849589 
L 219.635667 294.62094 
L 220.28368 294.813232 
L 220.931693 294.723091 
L 222.227719 294.884521 
L 223.523745 294.710691 
L 224.171758 294.515427 
L 224.819771 294.743201 
L 225.467784 294.772902 
L 226.763811 293.995527 
L 227.411824 294.819216 
L 228.70785 294.887798 
L 230.651889 294.758881 
L 231.299902 294.702421 
L 231.947915 294.836298 
L 232.595928 294.667084 
L 233.891954 294.701825 
L 234.539967 293.698103 
L 235.18798 294.709059 
L 236.484007 294.594032 
L 237.13202 294.940551 
L 239.724072 294.96201 
L 241.020098 295.002408 
L 242.316124 294.961801 
L 243.61215 294.894493 
L 244.260163 294.783646 
L 248.148242 294.943373 
L 248.796255 294.712395 
L 250.092281 294.850133 
L 250.740294 292.882258 
L 251.388307 293.261557 
L 252.03632 294.373959 
L 252.684333 295.007966 
L 253.332346 294.981851 
L 253.980359 295.104078 
L 254.628372 294.969264 
L 255.276385 295.103925 
L 257.868438 294.98715 
L 258.516451 294.351566 
L 259.164464 294.895241 
L 260.46049 295.028356 
L 261.108503 294.954313 
L 261.756516 295.015527 
L 262.404529 294.945831 
L 263.052542 295.006651 
L 264.348568 294.970313 
L 264.996581 295.009297 
L 265.644594 294.885557 
L 266.292608 295.065253 
L 266.940621 295.118333 
L 267.588634 294.811082 
L 268.88466 294.642017 
L 269.532673 294.940088 
L 270.180686 295.105139 
L 270.828699 295.107392 
L 271.476712 294.920383 
L 272.772738 295.105041 
L 273.420751 294.602978 
L 274.068764 294.598238 
L 274.716777 294.983426 
L 275.36479 295.152329 
L 276.660817 295.125693 
L 277.956843 294.466717 
L 278.604856 293.674157 
L 279.252869 294.990525 
L 279.900882 295.188603 
L 280.548895 295.194676 
L 281.196908 295.003606 
L 281.844921 294.941618 
L 282.492934 295.156748 
L 283.78896 295.112044 
L 284.436973 295.200678 
L 285.084986 295.135372 
L 285.732999 294.390162 
L 287.677039 295.222449 
L 288.325052 294.665854 
L 288.973065 295.156256 
L 289.621078 295.203687 
L 290.917104 295.051267 
L 292.21313 295.121187 
L 292.861143 295.011746 
L 293.509156 295.227789 
L 296.101208 295.063835 
L 296.749222 290.665895 
L 297.397235 294.491717 
L 298.045248 295.172659 
L 301.285313 295.186808 
L 301.933326 294.972795 
L 303.229352 295.250596 
L 303.877365 295.199703 
L 305.173391 295.238698 
L 306.469418 295.266327 
L 307.117431 294.901397 
L 307.765444 294.963193 
L 308.413457 294.820727 
L 309.06147 295.00018 
L 309.709483 295.038608 
L 310.357496 295.190577 
L 311.653522 295.192757 
L 312.301535 295.083474 
L 314.893587 295.136732 
L 315.5416 294.95446 
L 316.189614 295.317976 
L 318.781666 295.236516 
L 319.429679 295.317021 
L 320.077692 294.913722 
L 320.725705 295.122572 
L 321.373718 294.70733 
L 322.021731 295.202753 
L 322.669744 295.15368 
L 323.96577 295.251621 
L 324.613783 295.186731 
L 325.909809 295.329343 
L 326.557823 295.145506 
L 327.205836 294.831926 
L 327.853849 293.261356 
L 329.149875 295.212153 
L 330.445901 295.144572 
L 331.093914 295.287815 
L 333.037953 295.195308 
L 334.333979 295.34392 
L 336.926032 295.314143 
L 337.574045 295.325722 
L 338.222058 295.004697 
L 338.870071 295.283859 
L 339.518084 295.296478 
L 340.166097 295.143762 
L 341.462123 294.499684 
L 342.110136 295.309409 
L 345.350201 295.403677 
L 346.646228 295.178889 
L 347.294241 295.31631 
L 348.590267 294.954759 
L 349.23828 295.141384 
L 349.886293 294.258963 
L 350.534306 295.26199 
L 351.182319 295.419394 
L 353.774371 295.205753 
L 355.070397 295.372941 
L 355.71841 295.317196 
L 356.366424 294.835921 
L 357.014437 295.024194 
L 357.66245 295.372719 
L 358.310463 295.379063 
L 358.958476 294.806385 
L 359.606489 295.341739 
L 360.902515 294.793984 
L 361.550528 294.54192 
L 362.198541 295.218612 
L 363.494567 295.330705 
L 364.14258 295.22176 
L 364.790593 295.363301 
L 369.326685 295.402875 
L 369.974698 295.268712 
L 370.622711 295.409246 
L 372.56675 295.191725 
L 373.862776 295.386054 
L 374.510789 295.361541 
L 375.158802 294.949095 
L 375.806815 295.229694 
L 377.102842 295.272536 
L 378.398868 295.373231 
L 379.046881 295.042305 
L 379.694894 293.226346 
L 380.342907 295.132814 
L 380.99092 295.423825 
L 385.527011 295.417362 
L 386.823038 295.40649 
L 388.119064 295.443831 
L 388.767077 295.434179 
L 389.41509 295.248705 
L 390.063103 295.336545 
L 390.711116 294.685899 
L 391.359129 295.295559 
L 392.007142 295.336971 
L 392.655155 295.044546 
L 393.303168 295.407292 
L 395.247207 295.4655 
L 395.89522 295.062846 
L 396.543234 295.26494 
L 397.191247 292.858601 
L 397.83926 295.33459 
L 398.487273 295.438858 
L 398.487273 295.438858 
" style="fill:none;stroke:#ff7f0e;stroke-linecap:square;stroke-width:1.5;"/>
   </g>
   <g id="patch_3">
    <path d="M 57.6 307.584 
L 57.6 41.472 
" style="fill:none;stroke:#000000;stroke-linecap:square;stroke-linejoin:miter;stroke-width:0.8;"/>
   </g>
   <g id="patch_4">
    <path d="M 414.72 307.584 
L 414.72 41.472 
" style="fill:none;stroke:#000000;stroke-linecap:square;stroke-linejoin:miter;stroke-width:0.8;"/>
   </g>
   <g id="patch_5">
    <path d="M 57.6 307.584 
L 414.72 307.584 
" style="fill:none;stroke:#000000;stroke-linecap:square;stroke-linejoin:miter;stroke-width:0.8;"/>
   </g>
   <g id="patch_6">
    <path d="M 57.6 41.472 
L 414.72 41.472 
" style="fill:none;stroke:#000000;stroke-linecap:square;stroke-linejoin:miter;stroke-width:0.8;"/>
   </g>
   <g id="text_15">
    <!-- Pretrain loss -->
    <g transform="translate(199.1625 35.472)scale(0.12 -0.12)">
     <defs>
      <path d="M 19.671875 64.796875 
L 19.671875 37.40625 
L 32.078125 37.40625 
Q 38.96875 37.40625 42.71875 40.96875 
Q 46.484375 44.53125 46.484375 51.125 
Q 46.484375 57.671875 42.71875 61.234375 
Q 38.96875 64.796875 32.078125 64.796875 
z
M 9.8125 72.90625 
L 32.078125 72.90625 
Q 44.34375 72.90625 50.609375 67.359375 
Q 56.890625 61.8125 56.890625 51.125 
Q 56.890625 40.328125 50.609375 34.8125 
Q 44.34375 29.296875 32.078125 29.296875 
L 19.671875 29.296875 
L 19.671875 0 
L 9.8125 0 
z
" id="DejaVuSans-80"/>
      <path d="M 41.109375 46.296875 
Q 39.59375 47.171875 37.8125 47.578125 
Q 36.03125 48 33.890625 48 
Q 26.265625 48 22.1875 43.046875 
Q 18.109375 38.09375 18.109375 28.8125 
L 18.109375 0 
L 9.078125 0 
L 9.078125 54.6875 
L 18.109375 54.6875 
L 18.109375 46.1875 
Q 20.953125 51.171875 25.484375 53.578125 
Q 30.03125 56 36.53125 56 
Q 37.453125 56 38.578125 55.875 
Q 39.703125 55.765625 41.0625 55.515625 
z
" id="DejaVuSans-114"/>
      <path d="M 56.203125 29.59375 
L 56.203125 25.203125 
L 14.890625 25.203125 
Q 15.484375 15.921875 20.484375 11.0625 
Q 25.484375 6.203125 34.421875 6.203125 
Q 39.59375 6.203125 44.453125 7.46875 
Q 49.3125 8.734375 54.109375 11.28125 
L 54.109375 2.78125 
Q 49.265625 0.734375 44.1875 -0.34375 
Q 39.109375 -1.421875 33.890625 -1.421875 
Q 20.796875 -1.421875 13.15625 6.1875 
Q 5.515625 13.8125 5.515625 26.8125 
Q 5.515625 40.234375 12.765625 48.109375 
Q 20.015625 56 32.328125 56 
Q 43.359375 56 49.78125 48.890625 
Q 56.203125 41.796875 56.203125 29.59375 
z
M 47.21875 32.234375 
Q 47.125 39.59375 43.09375 43.984375 
Q 39.0625 48.390625 32.421875 48.390625 
Q 24.90625 48.390625 20.390625 44.140625 
Q 15.875 39.890625 15.1875 32.171875 
z
" id="DejaVuSans-101"/>
      <path d="M 18.3125 70.21875 
L 18.3125 54.6875 
L 36.8125 54.6875 
L 36.8125 47.703125 
L 18.3125 47.703125 
L 18.3125 18.015625 
Q 18.3125 11.328125 20.140625 9.421875 
Q 21.96875 7.515625 27.59375 7.515625 
L 36.8125 7.515625 
L 36.8125 0 
L 27.59375 0 
Q 17.1875 0 13.234375 3.875 
Q 9.28125 7.765625 9.28125 18.015625 
L 9.28125 47.703125 
L 2.6875 47.703125 
L 2.6875 54.6875 
L 9.28125 54.6875 
L 9.28125 70.21875 
z
" id="DejaVuSans-116"/>
      <path d="M 34.28125 27.484375 
Q 23.390625 27.484375 19.1875 25 
Q 14.984375 22.515625 14.984375 16.5 
Q 14.984375 11.71875 18.140625 8.90625 
Q 21.296875 6.109375 26.703125 6.109375 
Q 34.1875 6.109375 38.703125 11.40625 
Q 43.21875 16.703125 43.21875 25.484375 
L 43.21875 27.484375 
z
M 52.203125 31.203125 
L 52.203125 0 
L 43.21875 0 
L 43.21875 8.296875 
Q 40.140625 3.328125 35.546875 0.953125 
Q 30.953125 -1.421875 24.3125 -1.421875 
Q 15.921875 -1.421875 10.953125 3.296875 
Q 6 8.015625 6 15.921875 
Q 6 25.140625 12.171875 29.828125 
Q 18.359375 34.515625 30.609375 34.515625 
L 43.21875 34.515625 
L 43.21875 35.40625 
Q 43.21875 41.609375 39.140625 45 
Q 35.0625 48.390625 27.6875 48.390625 
Q 23 48.390625 18.546875 47.265625 
Q 14.109375 46.140625 10.015625 43.890625 
L 10.015625 52.203125 
Q 14.9375 54.109375 19.578125 55.046875 
Q 24.21875 56 28.609375 56 
Q 40.484375 56 46.34375 49.84375 
Q 52.203125 43.703125 52.203125 31.203125 
z
" id="DejaVuSans-97"/>
      <path d="M 9.421875 54.6875 
L 18.40625 54.6875 
L 18.40625 0 
L 9.421875 0 
z
M 9.421875 75.984375 
L 18.40625 75.984375 
L 18.40625 64.59375 
L 9.421875 64.59375 
z
" id="DejaVuSans-105"/>
      <path d="M 54.890625 33.015625 
L 54.890625 0 
L 45.90625 0 
L 45.90625 32.71875 
Q 45.90625 40.484375 42.875 44.328125 
Q 39.84375 48.1875 33.796875 48.1875 
Q 26.515625 48.1875 22.3125 43.546875 
Q 18.109375 38.921875 18.109375 30.90625 
L 18.109375 0 
L 9.078125 0 
L 9.078125 54.6875 
L 18.109375 54.6875 
L 18.109375 46.1875 
Q 21.34375 51.125 25.703125 53.5625 
Q 30.078125 56 35.796875 56 
Q 45.21875 56 50.046875 50.171875 
Q 54.890625 44.34375 54.890625 33.015625 
z
" id="DejaVuSans-110"/>
      <path id="DejaVuSans-32"/>
      <path d="M 9.421875 75.984375 
L 18.40625 75.984375 
L 18.40625 0 
L 9.421875 0 
z
" id="DejaVuSans-108"/>
      <path d="M 44.28125 53.078125 
L 44.28125 44.578125 
Q 40.484375 46.53125 36.375 47.5 
Q 32.28125 48.484375 27.875 48.484375 
Q 21.1875 48.484375 17.84375 46.4375 
Q 14.5 44.390625 14.5 40.28125 
Q 14.5 37.15625 16.890625 35.375 
Q 19.28125 33.59375 26.515625 31.984375 
L 29.59375 31.296875 
Q 39.15625 29.25 43.1875 25.515625 
Q 47.21875 21.78125 47.21875 15.09375 
Q 47.21875 7.46875 41.1875 3.015625 
Q 35.15625 -1.421875 24.609375 -1.421875 
Q 20.21875 -1.421875 15.453125 -0.5625 
Q 10.6875 0.296875 5.421875 2 
L 5.421875 11.28125 
Q 10.40625 8.6875 15.234375 7.390625 
Q 20.0625 6.109375 24.8125 6.109375 
Q 31.15625 6.109375 34.5625 8.28125 
Q 37.984375 10.453125 37.984375 14.40625 
Q 37.984375 18.0625 35.515625 20.015625 
Q 33.0625 21.96875 24.703125 23.78125 
L 21.578125 24.515625 
Q 13.234375 26.265625 9.515625 29.90625 
Q 5.8125 33.546875 5.8125 39.890625 
Q 5.8125 47.609375 11.28125 51.796875 
Q 16.75 56 26.8125 56 
Q 31.78125 56 36.171875 55.265625 
Q 40.578125 54.546875 44.28125 53.078125 
z
" id="DejaVuSans-115"/>
     </defs>
     <use xlink:href="#DejaVuSans-80"/>
     <use x="58.552734" xlink:href="#DejaVuSans-114"/>
     <use x="97.416016" xlink:href="#DejaVuSans-101"/>
     <use x="158.939453" xlink:href="#DejaVuSans-116"/>
     <use x="198.148438" xlink:href="#DejaVuSans-114"/>
     <use x="239.261719" xlink:href="#DejaVuSans-97"/>
     <use x="300.541016" xlink:href="#DejaVuSans-105"/>
     <use x="328.324219" xlink:href="#DejaVuSans-110"/>
     <use x="391.703125" xlink:href="#DejaVuSans-32"/>
     <use x="423.490234" xlink:href="#DejaVuSans-108"/>
     <use x="451.273438" xlink:href="#DejaVuSans-111"/>
     <use x="512.455078" xlink:href="#DejaVuSans-115"/>
     <use x="564.554688" xlink:href="#DejaVuSans-115"/>
    </g>
   </g>
   <g id="legend_1">
    <g id="patch_7">
     <path d="M 303.845 78.82825 
L 407.72 78.82825 
Q 409.72 78.82825 409.72 76.82825 
L 409.72 48.472 
Q 409.72 46.472 407.72 46.472 
L 303.845 46.472 
Q 301.845 46.472 301.845 48.472 
L 301.845 76.82825 
Q 301.845 78.82825 303.845 78.82825 
z
" style="fill:#ffffff;opacity:0.8;stroke:#cccccc;stroke-linejoin:miter;"/>
    </g>
    <g id="line2d_16">
     <path d="M 305.845 54.570437 
L 325.845 54.570437 
" style="fill:none;stroke:#1f77b4;stroke-linecap:square;stroke-width:1.5;"/>
    </g>
    <g id="line2d_17"/>
    <g id="text_16">
     <!-- Training loss -->
     <g transform="translate(333.845 58.070437)scale(0.1 -0.1)">
      <defs>
       <path d="M -0.296875 72.90625 
L 61.375 72.90625 
L 61.375 64.59375 
L 35.5 64.59375 
L 35.5 0 
L 25.59375 0 
L 25.59375 64.59375 
L -0.296875 64.59375 
z
" id="DejaVuSans-84"/>
       <path d="M 45.40625 27.984375 
Q 45.40625 37.75 41.375 43.109375 
Q 37.359375 48.484375 30.078125 48.484375 
Q 22.859375 48.484375 18.828125 43.109375 
Q 14.796875 37.75 14.796875 27.984375 
Q 14.796875 18.265625 18.828125 12.890625 
Q 22.859375 7.515625 30.078125 7.515625 
Q 37.359375 7.515625 41.375 12.890625 
Q 45.40625 18.265625 45.40625 27.984375 
z
M 54.390625 6.78125 
Q 54.390625 -7.171875 48.1875 -13.984375 
Q 42 -20.796875 29.203125 -20.796875 
Q 24.46875 -20.796875 20.265625 -20.09375 
Q 16.0625 -19.390625 12.109375 -17.921875 
L 12.109375 -9.1875 
Q 16.0625 -11.328125 19.921875 -12.34375 
Q 23.78125 -13.375 27.78125 -13.375 
Q 36.625 -13.375 41.015625 -8.765625 
Q 45.40625 -4.15625 45.40625 5.171875 
L 45.40625 9.625 
Q 42.625 4.78125 38.28125 2.390625 
Q 33.9375 0 27.875 0 
Q 17.828125 0 11.671875 7.65625 
Q 5.515625 15.328125 5.515625 27.984375 
Q 5.515625 40.671875 11.671875 48.328125 
Q 17.828125 56 27.875 56 
Q 33.9375 56 38.28125 53.609375 
Q 42.625 51.21875 45.40625 46.390625 
L 45.40625 54.6875 
L 54.390625 54.6875 
z
" id="DejaVuSans-103"/>
      </defs>
      <use xlink:href="#DejaVuSans-84"/>
      <use x="46.333984" xlink:href="#DejaVuSans-114"/>
      <use x="87.447266" xlink:href="#DejaVuSans-97"/>
      <use x="148.726562" xlink:href="#DejaVuSans-105"/>
      <use x="176.509766" xlink:href="#DejaVuSans-110"/>
      <use x="239.888672" xlink:href="#DejaVuSans-105"/>
      <use x="267.671875" xlink:href="#DejaVuSans-110"/>
      <use x="331.050781" xlink:href="#DejaVuSans-103"/>
      <use x="394.527344" xlink:href="#DejaVuSans-32"/>
      <use x="426.314453" xlink:href="#DejaVuSans-108"/>
      <use x="454.097656" xlink:href="#DejaVuSans-111"/>
      <use x="515.279297" xlink:href="#DejaVuSans-115"/>
      <use x="567.378906" xlink:href="#DejaVuSans-115"/>
     </g>
    </g>
    <g id="line2d_18">
     <path d="M 305.845 69.248562 
L 325.845 69.248562 
" style="fill:none;stroke:#ff7f0e;stroke-linecap:square;stroke-width:1.5;"/>
    </g>
    <g id="line2d_19"/>
    <g id="text_17">
     <!-- Validation loss -->
     <g transform="translate(333.845 72.748562)scale(0.1 -0.1)">
      <defs>
       <path d="M 28.609375 0 
L 0.78125 72.90625 
L 11.078125 72.90625 
L 34.1875 11.53125 
L 57.328125 72.90625 
L 67.578125 72.90625 
L 39.796875 0 
z
" id="DejaVuSans-86"/>
       <path d="M 45.40625 46.390625 
L 45.40625 75.984375 
L 54.390625 75.984375 
L 54.390625 0 
L 45.40625 0 
L 45.40625 8.203125 
Q 42.578125 3.328125 38.25 0.953125 
Q 33.9375 -1.421875 27.875 -1.421875 
Q 17.96875 -1.421875 11.734375 6.484375 
Q 5.515625 14.40625 5.515625 27.296875 
Q 5.515625 40.1875 11.734375 48.09375 
Q 17.96875 56 27.875 56 
Q 33.9375 56 38.25 53.625 
Q 42.578125 51.265625 45.40625 46.390625 
z
M 14.796875 27.296875 
Q 14.796875 17.390625 18.875 11.75 
Q 22.953125 6.109375 30.078125 6.109375 
Q 37.203125 6.109375 41.296875 11.75 
Q 45.40625 17.390625 45.40625 27.296875 
Q 45.40625 37.203125 41.296875 42.84375 
Q 37.203125 48.484375 30.078125 48.484375 
Q 22.953125 48.484375 18.875 42.84375 
Q 14.796875 37.203125 14.796875 27.296875 
z
" id="DejaVuSans-100"/>
      </defs>
      <use xlink:href="#DejaVuSans-86"/>
      <use x="60.658203" xlink:href="#DejaVuSans-97"/>
      <use x="121.9375" xlink:href="#DejaVuSans-108"/>
      <use x="149.720703" xlink:href="#DejaVuSans-105"/>
      <use x="177.503906" xlink:href="#DejaVuSans-100"/>
      <use x="240.980469" xlink:href="#DejaVuSans-97"/>
      <use x="302.259766" xlink:href="#DejaVuSans-116"/>
      <use x="341.46875" xlink:href="#DejaVuSans-105"/>
      <use x="369.251953" xlink:href="#DejaVuSans-111"/>
      <use x="430.433594" xlink:href="#DejaVuSans-110"/>
      <use x="493.8125" xlink:href="#DejaVuSans-32"/>
      <use x="525.599609" xlink:href="#DejaVuSans-108"/>
      <use x="553.382812" xlink:href="#DejaVuSans-111"/>
      <use x="614.564453" xlink:href="#DejaVuSans-115"/>
      <use x="666.664062" xlink:href="#DejaVuSans-115"/>
     </g>
    </g>
   </g>
  </g>
 </g>
 <defs>
  <clipPath id="ped6bc3676e">
   <rect height="266.112" width="357.12" x="57.6" y="41.472"/>
  </clipPath>
 </defs>
</svg>
