<?xml version="1.0" encoding="utf-8" standalone="no"?>
<!DOCTYPE svg PUBLIC "-//W3C//DTD SVG 1.1//EN"
  "http://www.w3.org/Graphics/SVG/1.1/DTD/svg11.dtd">
<!-- Created with matplotlib (https://matplotlib.org/) -->
<svg height="345.6pt" version="1.1" viewBox="0 0 460.8 345.6" width="460.8pt" xmlns="http://www.w3.org/2000/svg" xmlns:xlink="http://www.w3.org/1999/xlink">
 <metadata>
  <rdf:RDF xmlns:cc="http://creativecommons.org/ns#" xmlns:dc="http://purl.org/dc/elements/1.1/" xmlns:rdf="http://www.w3.org/1999/02/22-rdf-syntax-ns#">
   <cc:Work>
    <dc:type rdf:resource="http://purl.org/dc/dcmitype/StillImage"/>
    <dc:date>2021-07-19T23:46:13.867902</dc:date>
    <dc:format>image/svg+xml</dc:format>
    <dc:creator>
     <cc:Agent>
      <dc:title>Matplotlib v3.3.3, https://matplotlib.org/</dc:title>
     </cc:Agent>
    </dc:creator>
   </cc:Work>
  </rdf:RDF>
 </metadata>
 <defs>
  <style type="text/css">*{stroke-linecap:butt;stroke-linejoin:round;}</style>
 </defs>
 <g id="figure_1">
  <g id="patch_1">
   <path d="M 0 345.6 
L 460.8 345.6 
L 460.8 0 
L 0 0 
z
" style="fill:#ffffff;"/>
  </g>
  <g id="axes_1">
   <g id="patch_2">
    <path d="M 57.6 307.584 
L 414.72 307.584 
L 414.72 41.472 
L 57.6 41.472 
z
" style="fill:#ffffff;"/>
   </g>
   <g id="PathCollection_1">
    <defs>
     <path d="M 0 2.236068 
C 0.593012 2.236068 1.161816 2.000462 1.581139 1.581139 
C 2.000462 1.161816 2.236068 0.593012 2.236068 -0 
C 2.236068 -0.593012 2.000462 -1.161816 1.581139 -1.581139 
C 1.161816 -2.000462 0.593012 -2.236068 0 -2.236068 
C -0.593012 -2.236068 -1.161816 -2.000462 -1.581139 -1.581139 
C -2.000462 -1.161816 -2.236068 -0.593012 -2.236068 0 
C -2.236068 0.593012 -2.000462 1.161816 -1.581139 1.581139 
C -1.161816 2.000462 -0.593012 2.236068 0 2.236068 
z
" id="C0_0_da7306e71c"/>
    </defs>
    <g clip-path="url(#p4a51fe2b23)">
     <use style="fill:#0000ff;stroke:#0000ff;" x="220.275834" xlink:href="#C0_0_da7306e71c" y="74.343763"/>
    </g>
    <g clip-path="url(#p4a51fe2b23)">
     <use style="fill:#0000ff;stroke:#0000ff;" x="222.805313" xlink:href="#C0_0_da7306e71c" y="83.301721"/>
    </g>
    <g clip-path="url(#p4a51fe2b23)">
     <use style="fill:#0000ff;stroke:#0000ff;" x="224.391493" xlink:href="#C0_0_da7306e71c" y="93.141356"/>
    </g>
    <g clip-path="url(#p4a51fe2b23)">
     <use style="fill:#0000ff;stroke:#0000ff;" x="216.309476" xlink:href="#C0_0_da7306e71c" y="60.789663"/>
    </g>
    <g clip-path="url(#p4a51fe2b23)">
     <use style="fill:#0000ff;stroke:#0000ff;" x="216.138114" xlink:href="#C0_0_da7306e71c" y="61.229927"/>
    </g>
    <g clip-path="url(#p4a51fe2b23)">
     <use style="fill:#0000ff;stroke:#0000ff;" x="213.889106" xlink:href="#C0_0_da7306e71c" y="60.491069"/>
    </g>
    <g clip-path="url(#p4a51fe2b23)">
     <use style="fill:#0000ff;stroke:#0000ff;" x="213.551451" xlink:href="#C0_0_da7306e71c" y="57.961277"/>
    </g>
    <g clip-path="url(#p4a51fe2b23)">
     <use style="fill:#0000ff;stroke:#0000ff;" x="215.137443" xlink:href="#C0_0_da7306e71c" y="59.069179"/>
    </g>
    <g clip-path="url(#p4a51fe2b23)">
     <use style="fill:#0000ff;stroke:#0000ff;" x="224.215256" xlink:href="#C0_0_da7306e71c" y="106.522366"/>
    </g>
    <g clip-path="url(#p4a51fe2b23)">
     <use style="fill:#fe0100;stroke:#fe0100;" x="394.383281" xlink:href="#C0_0_da7306e71c" y="168.392104"/>
    </g>
    <g clip-path="url(#p4a51fe2b23)">
     <use style="fill:#fe0100;stroke:#fe0100;" x="391.84487" xlink:href="#C0_0_da7306e71c" y="186.610806"/>
    </g>
    <g clip-path="url(#p4a51fe2b23)">
     <use style="fill:#fe0100;stroke:#fe0100;" x="378.929863" xlink:href="#C0_0_da7306e71c" y="190.128719"/>
    </g>
    <g clip-path="url(#p4a51fe2b23)">
     <use style="fill:#0000ff;stroke:#0000ff;" x="246.865224" xlink:href="#C0_0_da7306e71c" y="259.919612"/>
    </g>
    <g clip-path="url(#p4a51fe2b23)">
     <use style="fill:#0000ff;stroke:#0000ff;" x="236.751743" xlink:href="#C0_0_da7306e71c" y="84.659248"/>
    </g>
    <g clip-path="url(#p4a51fe2b23)">
     <use style="fill:#0000ff;stroke:#0000ff;" x="216.414521" xlink:href="#C0_0_da7306e71c" y="65.130393"/>
    </g>
    <g clip-path="url(#p4a51fe2b23)">
     <use style="fill:#0000ff;stroke:#0000ff;" x="215.661575" xlink:href="#C0_0_da7306e71c" y="61.963517"/>
    </g>
    <g clip-path="url(#p4a51fe2b23)">
     <use style="fill:#0000ff;stroke:#0000ff;" x="213.941803" xlink:href="#C0_0_da7306e71c" y="63.097727"/>
    </g>
    <g clip-path="url(#p4a51fe2b23)">
     <use style="fill:#0000ff;stroke:#0000ff;" x="213.329498" xlink:href="#C0_0_da7306e71c" y="64.484063"/>
    </g>
    <g clip-path="url(#p4a51fe2b23)">
     <use style="fill:#0000ff;stroke:#0000ff;" x="225.3774" xlink:href="#C0_0_da7306e71c" y="74.249489"/>
    </g>
    <g clip-path="url(#p4a51fe2b23)">
     <use style="fill:#0000ff;stroke:#0000ff;" x="223.316643" xlink:href="#C0_0_da7306e71c" y="105.72361"/>
    </g>
    <g clip-path="url(#p4a51fe2b23)">
     <use style="fill:#fe0100;stroke:#fe0100;" x="402.02" xlink:href="#C0_0_da7306e71c" y="156.402226"/>
    </g>
    <g clip-path="url(#p4a51fe2b23)">
     <use style="fill:#fe0100;stroke:#fe0100;" x="398.03938" xlink:href="#C0_0_da7306e71c" y="163.096151"/>
    </g>
    <g clip-path="url(#p4a51fe2b23)">
     <use style="fill:#fe0100;stroke:#fe0100;" x="230.782309" xlink:href="#C0_0_da7306e71c" y="291.094723"/>
    </g>
    <g clip-path="url(#p4a51fe2b23)">
     <use style="fill:#fe0100;stroke:#fe0100;" x="388.045102" xlink:href="#C0_0_da7306e71c" y="206.346411"/>
    </g>
    <g clip-path="url(#p4a51fe2b23)">
     <use style="fill:#fe0100;stroke:#fe0100;" x="386.87933" xlink:href="#C0_0_da7306e71c" y="205.65881"/>
    </g>
    <g clip-path="url(#p4a51fe2b23)">
     <use style="fill:#fe0100;stroke:#fe0100;" x="382.175232" xlink:href="#C0_0_da7306e71c" y="201.89652"/>
    </g>
    <g clip-path="url(#p4a51fe2b23)">
     <use style="fill:#fe0100;stroke:#fe0100;" x="388.834564" xlink:href="#C0_0_da7306e71c" y="197.585067"/>
    </g>
    <g clip-path="url(#p4a51fe2b23)">
     <use style="fill:#fe0100;stroke:#fe0100;" x="384.087785" xlink:href="#C0_0_da7306e71c" y="173.487079"/>
    </g>
    <g clip-path="url(#p4a51fe2b23)">
     <use style="fill:#fe0100;stroke:#fe0100;" x="379.457278" xlink:href="#C0_0_da7306e71c" y="111.385807"/>
    </g>
    <g clip-path="url(#p4a51fe2b23)">
     <use style="fill:#0000ff;stroke:#0000ff;" x="239.294562" xlink:href="#C0_0_da7306e71c" y="80.008351"/>
    </g>
    <g clip-path="url(#p4a51fe2b23)">
     <use style="fill:#0000ff;stroke:#0000ff;" x="239.824357" xlink:href="#C0_0_da7306e71c" y="78.612297"/>
    </g>
    <g clip-path="url(#p4a51fe2b23)">
     <use style="fill:#0000ff;stroke:#0000ff;" x="238.823164" xlink:href="#C0_0_da7306e71c" y="80.320783"/>
    </g>
    <g clip-path="url(#p4a51fe2b23)">
     <use style="fill:#0000ff;stroke:#0000ff;" x="238.118053" xlink:href="#C0_0_da7306e71c" y="76.561217"/>
    </g>
    <g clip-path="url(#p4a51fe2b23)">
     <use style="fill:#0000ff;stroke:#0000ff;" x="237.45821" xlink:href="#C0_0_da7306e71c" y="69.722209"/>
    </g>
    <g clip-path="url(#p4a51fe2b23)">
     <use style="fill:#0000ff;stroke:#0000ff;" x="236.336167" xlink:href="#C0_0_da7306e71c" y="69.955842"/>
    </g>
    <g clip-path="url(#p4a51fe2b23)">
     <use style="fill:#0000ff;stroke:#0000ff;" x="258.010608" xlink:href="#C0_0_da7306e71c" y="262.824391"/>
    </g>
    <g clip-path="url(#p4a51fe2b23)">
     <use style="fill:#fe0100;stroke:#fe0100;" x="356.263538" xlink:href="#C0_0_da7306e71c" y="152.152264"/>
    </g>
    <g clip-path="url(#p4a51fe2b23)">
     <use style="fill:#fe0100;stroke:#fe0100;" x="382.506995" xlink:href="#C0_0_da7306e71c" y="176.24224"/>
    </g>
    <g clip-path="url(#p4a51fe2b23)">
     <use style="fill:#fe0100;stroke:#fe0100;" x="381.464181" xlink:href="#C0_0_da7306e71c" y="179.359124"/>
    </g>
    <g clip-path="url(#p4a51fe2b23)">
     <use style="fill:#fe0100;stroke:#fe0100;" x="378.997228" xlink:href="#C0_0_da7306e71c" y="188.251484"/>
    </g>
    <g clip-path="url(#p4a51fe2b23)">
     <use style="fill:#fe0100;stroke:#fe0100;" x="380.075506" xlink:href="#C0_0_da7306e71c" y="193.376113"/>
    </g>
    <g clip-path="url(#p4a51fe2b23)">
     <use style="fill:#fe0100;stroke:#fe0100;" x="375.332627" xlink:href="#C0_0_da7306e71c" y="184.845555"/>
    </g>
    <g clip-path="url(#p4a51fe2b23)">
     <use style="fill:#fe0100;stroke:#fe0100;" x="372.669175" xlink:href="#C0_0_da7306e71c" y="185.452661"/>
    </g>
    <g clip-path="url(#p4a51fe2b23)">
     <use style="fill:#fe0100;stroke:#fe0100;" x="366.639262" xlink:href="#C0_0_da7306e71c" y="150.360126"/>
    </g>
    <g clip-path="url(#p4a51fe2b23)">
     <use style="fill:#0000ff;stroke:#0000ff;" x="225.859263" xlink:href="#C0_0_da7306e71c" y="110.060817"/>
    </g>
    <g clip-path="url(#p4a51fe2b23)">
     <use style="fill:#0000ff;stroke:#0000ff;" x="224.699468" xlink:href="#C0_0_da7306e71c" y="99.522424"/>
    </g>
    <g clip-path="url(#p4a51fe2b23)">
     <use style="fill:#0000ff;stroke:#0000ff;" x="232.85519" xlink:href="#C0_0_da7306e71c" y="73.624404"/>
    </g>
    <g clip-path="url(#p4a51fe2b23)">
     <use style="fill:#0000ff;stroke:#0000ff;" x="230.470585" xlink:href="#C0_0_da7306e71c" y="75.100107"/>
    </g>
    <g clip-path="url(#p4a51fe2b23)">
     <use style="fill:#0000ff;stroke:#0000ff;" x="232.500918" xlink:href="#C0_0_da7306e71c" y="69.970718"/>
    </g>
    <g clip-path="url(#p4a51fe2b23)">
     <use style="fill:#0000ff;stroke:#0000ff;" x="230.436182" xlink:href="#C0_0_da7306e71c" y="71.129523"/>
    </g>
    <g clip-path="url(#p4a51fe2b23)">
     <use style="fill:#0000ff;stroke:#0000ff;" x="230.11538" xlink:href="#C0_0_da7306e71c" y="85.283184"/>
    </g>
    <g clip-path="url(#p4a51fe2b23)">
     <use style="fill:#fe0100;stroke:#fe0100;" x="239.79349" xlink:href="#C0_0_da7306e71c" y="284.308022"/>
    </g>
    <g clip-path="url(#p4a51fe2b23)">
     <use style="fill:#fe0100;stroke:#fe0100;" x="386.445684" xlink:href="#C0_0_da7306e71c" y="208.092437"/>
    </g>
    <g clip-path="url(#p4a51fe2b23)">
     <use style="fill:#fe0100;stroke:#fe0100;" x="388.907961" xlink:href="#C0_0_da7306e71c" y="175.905669"/>
    </g>
    <g clip-path="url(#p4a51fe2b23)">
     <use style="fill:#fe0100;stroke:#fe0100;" x="389.339112" xlink:href="#C0_0_da7306e71c" y="176.355612"/>
    </g>
    <g clip-path="url(#p4a51fe2b23)">
     <use style="fill:#fe0100;stroke:#fe0100;" x="391.647135" xlink:href="#C0_0_da7306e71c" y="186.739951"/>
    </g>
    <g clip-path="url(#p4a51fe2b23)">
     <use style="fill:#fe0100;stroke:#fe0100;" x="387.982702" xlink:href="#C0_0_da7306e71c" y="190.60089"/>
    </g>
    <g clip-path="url(#p4a51fe2b23)">
     <use style="fill:#fe0100;stroke:#fe0100;" x="386.593785" xlink:href="#C0_0_da7306e71c" y="188.020293"/>
    </g>
    <g clip-path="url(#p4a51fe2b23)">
     <use style="fill:#fe0100;stroke:#fe0100;" x="383.777169" xlink:href="#C0_0_da7306e71c" y="205.409861"/>
    </g>
    <g clip-path="url(#p4a51fe2b23)">
     <use style="fill:#fe0100;stroke:#fe0100;" x="366.376245" xlink:href="#C0_0_da7306e71c" y="157.082239"/>
    </g>
    <g clip-path="url(#p4a51fe2b23)">
     <use style="fill:#fe0100;stroke:#fe0100;" x="370.146364" xlink:href="#C0_0_da7306e71c" y="146.520605"/>
    </g>
    <g clip-path="url(#p4a51fe2b23)">
     <use style="fill:#0000ff;stroke:#0000ff;" x="232.684725" xlink:href="#C0_0_da7306e71c" y="59.074966"/>
    </g>
    <g clip-path="url(#p4a51fe2b23)">
     <use style="fill:#0000ff;stroke:#0000ff;" x="233.056056" xlink:href="#C0_0_da7306e71c" y="69.20228"/>
    </g>
    <g clip-path="url(#p4a51fe2b23)">
     <use style="fill:#0000ff;stroke:#0000ff;" x="226.031249" xlink:href="#C0_0_da7306e71c" y="97.403835"/>
    </g>
    <g clip-path="url(#p4a51fe2b23)">
     <use style="fill:#0000ff;stroke:#0000ff;" x="225.763012" xlink:href="#C0_0_da7306e71c" y="96.065399"/>
    </g>
    <g clip-path="url(#p4a51fe2b23)">
     <use style="fill:#0000ff;stroke:#0000ff;" x="230.551739" xlink:href="#C0_0_da7306e71c" y="83.218943"/>
    </g>
    <g clip-path="url(#p4a51fe2b23)">
     <use style="fill:#0000ff;stroke:#0000ff;" x="231.511631" xlink:href="#C0_0_da7306e71c" y="76.355293"/>
    </g>
    <g clip-path="url(#p4a51fe2b23)">
     <use style="fill:#0000ff;stroke:#0000ff;" x="231.874812" xlink:href="#C0_0_da7306e71c" y="70.888169"/>
    </g>
    <g clip-path="url(#p4a51fe2b23)">
     <use style="fill:#0000ff;stroke:#0000ff;" x="234.220883" xlink:href="#C0_0_da7306e71c" y="68.069942"/>
    </g>
    <g clip-path="url(#p4a51fe2b23)">
     <use style="fill:#0000ff;stroke:#0000ff;" x="236.584105" xlink:href="#C0_0_da7306e71c" y="67.466479"/>
    </g>
    <g clip-path="url(#p4a51fe2b23)">
     <use style="fill:#fe0100;stroke:#fe0100;" x="357.45317" xlink:href="#C0_0_da7306e71c" y="164.831968"/>
    </g>
    <g clip-path="url(#p4a51fe2b23)">
     <use style="fill:#fe0100;stroke:#fe0100;" x="380.080883" xlink:href="#C0_0_da7306e71c" y="192.395036"/>
    </g>
    <g clip-path="url(#p4a51fe2b23)">
     <use style="fill:#fe0100;stroke:#fe0100;" x="381.009315" xlink:href="#C0_0_da7306e71c" y="197.832365"/>
    </g>
    <g clip-path="url(#p4a51fe2b23)">
     <use style="fill:#fe0100;stroke:#fe0100;" x="373.236122" xlink:href="#C0_0_da7306e71c" y="173.01858"/>
    </g>
    <g clip-path="url(#p4a51fe2b23)">
     <use style="fill:#fe0100;stroke:#fe0100;" x="366.231244" xlink:href="#C0_0_da7306e71c" y="171.589558"/>
    </g>
    <g clip-path="url(#p4a51fe2b23)">
     <use style="fill:#fe0100;stroke:#fe0100;" x="362.346452" xlink:href="#C0_0_da7306e71c" y="169.774288"/>
    </g>
    <g clip-path="url(#p4a51fe2b23)">
     <use style="fill:#0000ff;stroke:#0000ff;" x="234.063371" xlink:href="#C0_0_da7306e71c" y="240.612347"/>
    </g>
    <g clip-path="url(#p4a51fe2b23)">
     <use style="fill:#0000ff;stroke:#0000ff;" x="235.190222" xlink:href="#C0_0_da7306e71c" y="238.431848"/>
    </g>
    <g clip-path="url(#p4a51fe2b23)">
     <use style="fill:#0000ff;stroke:#0000ff;" x="225.50952" xlink:href="#C0_0_da7306e71c" y="249.703767"/>
    </g>
    <g clip-path="url(#p4a51fe2b23)">
     <use style="fill:#0000ff;stroke:#0000ff;" x="244.763197" xlink:href="#C0_0_da7306e71c" y="262.680806"/>
    </g>
    <g clip-path="url(#p4a51fe2b23)">
     <use style="fill:#0000ff;stroke:#0000ff;" x="260.794231" xlink:href="#C0_0_da7306e71c" y="261.079925"/>
    </g>
    <g clip-path="url(#p4a51fe2b23)">
     <use style="fill:#fe0100;stroke:#fe0100;" x="381.742918" xlink:href="#C0_0_da7306e71c" y="105.255968"/>
    </g>
    <g clip-path="url(#p4a51fe2b23)">
     <use style="fill:#fe0100;stroke:#fe0100;" x="378.42626" xlink:href="#C0_0_da7306e71c" y="122.472985"/>
    </g>
    <g clip-path="url(#p4a51fe2b23)">
     <use style="fill:#fe0100;stroke:#fe0100;" x="372.915235" xlink:href="#C0_0_da7306e71c" y="117.509223"/>
    </g>
    <g clip-path="url(#p4a51fe2b23)">
     <use style="fill:#fe0100;stroke:#fe0100;" x="375.880679" xlink:href="#C0_0_da7306e71c" y="116.003241"/>
    </g>
    <g clip-path="url(#p4a51fe2b23)">
     <use style="fill:#0000ff;stroke:#0000ff;" x="235.134272" xlink:href="#C0_0_da7306e71c" y="265.435761"/>
    </g>
    <g clip-path="url(#p4a51fe2b23)">
     <use style="fill:#0000ff;stroke:#0000ff;" x="219.591065" xlink:href="#C0_0_da7306e71c" y="244.252424"/>
    </g>
    <g clip-path="url(#p4a51fe2b23)">
     <use style="fill:#fe0100;stroke:#fe0100;" x="382.129402" xlink:href="#C0_0_da7306e71c" y="115.984528"/>
    </g>
    <g clip-path="url(#p4a51fe2b23)">
     <use style="fill:#fe0100;stroke:#fe0100;" x="370.762968" xlink:href="#C0_0_da7306e71c" y="126.279664"/>
    </g>
    <g clip-path="url(#p4a51fe2b23)">
     <use style="fill:#fe0100;stroke:#fe0100;" x="372.607914" xlink:href="#C0_0_da7306e71c" y="134.923327"/>
    </g>
    <g clip-path="url(#p4a51fe2b23)">
     <use style="fill:#fe0100;stroke:#fe0100;" x="368.418853" xlink:href="#C0_0_da7306e71c" y="140.279563"/>
    </g>
    <g clip-path="url(#p4a51fe2b23)">
     <use style="fill:#fe0100;stroke:#fe0100;" x="367.716788" xlink:href="#C0_0_da7306e71c" y="140.993787"/>
    </g>
    <g clip-path="url(#p4a51fe2b23)">
     <use style="fill:#fe0100;stroke:#fe0100;" x="357.820662" xlink:href="#C0_0_da7306e71c" y="124.625517"/>
    </g>
    <g clip-path="url(#p4a51fe2b23)">
     <use style="fill:#fe0100;stroke:#fe0100;" x="368.186842" xlink:href="#C0_0_da7306e71c" y="115.51838"/>
    </g>
    <g clip-path="url(#p4a51fe2b23)">
     <use style="fill:#fe0100;stroke:#fe0100;" x="360.765056" xlink:href="#C0_0_da7306e71c" y="145.80123"/>
    </g>
    <g clip-path="url(#p4a51fe2b23)">
     <use style="fill:#0000ff;stroke:#0000ff;" x="250.98749" xlink:href="#C0_0_da7306e71c" y="261.277314"/>
    </g>
    <g clip-path="url(#p4a51fe2b23)">
     <use style="fill:#0000ff;stroke:#0000ff;" x="239.009012" xlink:href="#C0_0_da7306e71c" y="262.372649"/>
    </g>
    <g clip-path="url(#p4a51fe2b23)">
     <use style="fill:#0000ff;stroke:#0000ff;" x="234.11226" xlink:href="#C0_0_da7306e71c" y="263.644119"/>
    </g>
    <g clip-path="url(#p4a51fe2b23)">
     <use style="fill:#0000ff;stroke:#0000ff;" x="221.064358" xlink:href="#C0_0_da7306e71c" y="256.24633"/>
    </g>
    <g clip-path="url(#p4a51fe2b23)">
     <use style="fill:#0000ff;stroke:#0000ff;" x="221.746148" xlink:href="#C0_0_da7306e71c" y="265.869564"/>
    </g>
    <g clip-path="url(#p4a51fe2b23)">
     <use style="fill:#0000ff;stroke:#0000ff;" x="223.34318" xlink:href="#C0_0_da7306e71c" y="267.431259"/>
    </g>
    <g clip-path="url(#p4a51fe2b23)">
     <use style="fill:#0000ff;stroke:#0000ff;" x="227.47482" xlink:href="#C0_0_da7306e71c" y="267.46797"/>
    </g>
    <g clip-path="url(#p4a51fe2b23)">
     <use style="fill:#0000ff;stroke:#0000ff;" x="226.170648" xlink:href="#C0_0_da7306e71c" y="272.214947"/>
    </g>
    <g clip-path="url(#p4a51fe2b23)">
     <use style="fill:#0000ff;stroke:#0000ff;" x="245.018583" xlink:href="#C0_0_da7306e71c" y="262.186333"/>
    </g>
    <g clip-path="url(#p4a51fe2b23)">
     <use style="fill:#0000ff;stroke:#0000ff;" x="248.26509" xlink:href="#C0_0_da7306e71c" y="262.819233"/>
    </g>
    <g clip-path="url(#p4a51fe2b23)">
     <use style="fill:#fe0100;stroke:#fe0100;" x="275.201891" xlink:href="#C0_0_da7306e71c" y="257.072748"/>
    </g>
    <g clip-path="url(#p4a51fe2b23)">
     <use style="fill:#fe0100;stroke:#fe0100;" x="378.61685" xlink:href="#C0_0_da7306e71c" y="114.715378"/>
    </g>
    <g clip-path="url(#p4a51fe2b23)">
     <use style="fill:#fe0100;stroke:#fe0100;" x="364.887649" xlink:href="#C0_0_da7306e71c" y="114.813819"/>
    </g>
    <g clip-path="url(#p4a51fe2b23)">
     <use style="fill:#fe0100;stroke:#fe0100;" x="359.448228" xlink:href="#C0_0_da7306e71c" y="133.870299"/>
    </g>
    <g clip-path="url(#p4a51fe2b23)">
     <use style="fill:#fe0100;stroke:#fe0100;" x="360.093949" xlink:href="#C0_0_da7306e71c" y="144.782696"/>
    </g>
    <g clip-path="url(#p4a51fe2b23)">
     <use style="fill:#fe0100;stroke:#fe0100;" x="364.824256" xlink:href="#C0_0_da7306e71c" y="125.488983"/>
    </g>
    <g clip-path="url(#p4a51fe2b23)">
     <use style="fill:#fe0100;stroke:#fe0100;" x="369.453698" xlink:href="#C0_0_da7306e71c" y="130.440487"/>
    </g>
    <g clip-path="url(#p4a51fe2b23)">
     <use style="fill:#0000ff;stroke:#0000ff;" x="219.852635" xlink:href="#C0_0_da7306e71c" y="260.900656"/>
    </g>
    <g clip-path="url(#p4a51fe2b23)">
     <use style="fill:#0000ff;stroke:#0000ff;" x="229.804504" xlink:href="#C0_0_da7306e71c" y="268.534551"/>
    </g>
    <g clip-path="url(#p4a51fe2b23)">
     <use style="fill:#0000ff;stroke:#0000ff;" x="227.793998" xlink:href="#C0_0_da7306e71c" y="270.224184"/>
    </g>
    <g clip-path="url(#p4a51fe2b23)">
     <use style="fill:#fe0100;stroke:#fe0100;" x="373.502312" xlink:href="#C0_0_da7306e71c" y="172.421211"/>
    </g>
    <g clip-path="url(#p4a51fe2b23)">
     <use style="fill:#fe0100;stroke:#fe0100;" x="371.617592" xlink:href="#C0_0_da7306e71c" y="141.361258"/>
    </g>
    <g clip-path="url(#p4a51fe2b23)">
     <use style="fill:#fe0100;stroke:#fe0100;" x="370.352262" xlink:href="#C0_0_da7306e71c" y="139.970606"/>
    </g>
    <g clip-path="url(#p4a51fe2b23)">
     <use style="fill:#fe0100;stroke:#fe0100;" x="358.209374" xlink:href="#C0_0_da7306e71c" y="139.006403"/>
    </g>
    <g clip-path="url(#p4a51fe2b23)">
     <use style="fill:#fe0100;stroke:#fe0100;" x="356.699316" xlink:href="#C0_0_da7306e71c" y="140.988338"/>
    </g>
    <g clip-path="url(#p4a51fe2b23)">
     <use style="fill:#fe0100;stroke:#fe0100;" x="355.741574" xlink:href="#C0_0_da7306e71c" y="129.762903"/>
    </g>
    <g clip-path="url(#p4a51fe2b23)">
     <use style="fill:#fe0100;stroke:#fe0100;" x="365.512465" xlink:href="#C0_0_da7306e71c" y="126.742895"/>
    </g>
    <g clip-path="url(#p4a51fe2b23)">
     <use style="fill:#0000ff;stroke:#0000ff;" x="230.390436" xlink:href="#C0_0_da7306e71c" y="237.489461"/>
    </g>
    <g clip-path="url(#p4a51fe2b23)">
     <use style="fill:#0000ff;stroke:#0000ff;" x="230.060599" xlink:href="#C0_0_da7306e71c" y="237.746074"/>
    </g>
    <g clip-path="url(#p4a51fe2b23)">
     <use style="fill:#0000ff;stroke:#0000ff;" x="221.175967" xlink:href="#C0_0_da7306e71c" y="228.760043"/>
    </g>
    <g clip-path="url(#p4a51fe2b23)">
     <use style="fill:#0000ff;stroke:#0000ff;" x="220.220139" xlink:href="#C0_0_da7306e71c" y="226.630299"/>
    </g>
    <g clip-path="url(#p4a51fe2b23)">
     <use style="fill:#0000ff;stroke:#0000ff;" x="219.257316" xlink:href="#C0_0_da7306e71c" y="227.048492"/>
    </g>
    <g clip-path="url(#p4a51fe2b23)">
     <use style="fill:#0000ff;stroke:#0000ff;" x="215.876472" xlink:href="#C0_0_da7306e71c" y="240.207463"/>
    </g>
    <g clip-path="url(#p4a51fe2b23)">
     <use style="fill:#0000ff;stroke:#0000ff;" x="247.202358" xlink:href="#C0_0_da7306e71c" y="262.03144"/>
    </g>
    <g clip-path="url(#p4a51fe2b23)">
     <use style="fill:#0000ff;stroke:#0000ff;" x="260.998046" xlink:href="#C0_0_da7306e71c" y="260.144156"/>
    </g>
    <g clip-path="url(#p4a51fe2b23)">
     <use style="fill:#fe0100;stroke:#fe0100;" x="369.28067" xlink:href="#C0_0_da7306e71c" y="121.407911"/>
    </g>
    <g clip-path="url(#p4a51fe2b23)">
     <use style="fill:#fe0100;stroke:#fe0100;" x="364.878638" xlink:href="#C0_0_da7306e71c" y="166.064486"/>
    </g>
    <g clip-path="url(#p4a51fe2b23)">
     <use style="fill:#fe0100;stroke:#fe0100;" x="363.778366" xlink:href="#C0_0_da7306e71c" y="167.793281"/>
    </g>
    <g clip-path="url(#p4a51fe2b23)">
     <use style="fill:#fe0100;stroke:#fe0100;" x="361.135601" xlink:href="#C0_0_da7306e71c" y="163.926822"/>
    </g>
    <g clip-path="url(#p4a51fe2b23)">
     <use style="fill:#fe0100;stroke:#fe0100;" x="358.147968" xlink:href="#C0_0_da7306e71c" y="156.54502"/>
    </g>
    <g clip-path="url(#p4a51fe2b23)">
     <use style="fill:#fe0100;stroke:#fe0100;" x="361.161834" xlink:href="#C0_0_da7306e71c" y="127.167984"/>
    </g>
    <g clip-path="url(#p4a51fe2b23)">
     <use style="fill:#fe0100;stroke:#fe0100;" x="365.352276" xlink:href="#C0_0_da7306e71c" y="176.351453"/>
    </g>
    <g clip-path="url(#p4a51fe2b23)">
     <use style="fill:#00ff00;stroke:#00ff00;" x="102.13976" xlink:href="#C0_0_da7306e71c" y="155.614957"/>
    </g>
    <g clip-path="url(#p4a51fe2b23)">
     <use style="fill:#00ff00;stroke:#00ff00;" x="98.990313" xlink:href="#C0_0_da7306e71c" y="159.179638"/>
    </g>
    <g clip-path="url(#p4a51fe2b23)">
     <use style="fill:#00ff00;stroke:#00ff00;" x="85.614043" xlink:href="#C0_0_da7306e71c" y="141.933427"/>
    </g>
    <g clip-path="url(#p4a51fe2b23)">
     <use style="fill:#00ff00;stroke:#00ff00;" x="85.199273" xlink:href="#C0_0_da7306e71c" y="142.875142"/>
    </g>
    <g clip-path="url(#p4a51fe2b23)">
     <use style="fill:#00ff00;stroke:#00ff00;" x="85.113661" xlink:href="#C0_0_da7306e71c" y="144.045002"/>
    </g>
    <g clip-path="url(#p4a51fe2b23)">
     <use style="fill:#00ff00;stroke:#00ff00;" x="87.055748" xlink:href="#C0_0_da7306e71c" y="137.636469"/>
    </g>
    <g clip-path="url(#p4a51fe2b23)">
     <use style="fill:#00ff00;stroke:#00ff00;" x="87.404401" xlink:href="#C0_0_da7306e71c" y="112.2551"/>
    </g>
    <g clip-path="url(#p4a51fe2b23)">
     <use style="fill:#00ff00;stroke:#00ff00;" x="95.240333" xlink:href="#C0_0_da7306e71c" y="116.706685"/>
    </g>
    <g clip-path="url(#p4a51fe2b23)">
     <use style="fill:#00ff00;stroke:#00ff00;" x="99.048969" xlink:href="#C0_0_da7306e71c" y="118.387149"/>
    </g>
    <g clip-path="url(#p4a51fe2b23)">
     <use style="fill:#00ff00;stroke:#00ff00;" x="83.059396" xlink:href="#C0_0_da7306e71c" y="141.391184"/>
    </g>
    <g clip-path="url(#p4a51fe2b23)">
     <use style="fill:#00ff00;stroke:#00ff00;" x="95.191922" xlink:href="#C0_0_da7306e71c" y="122.543034"/>
    </g>
    <g clip-path="url(#p4a51fe2b23)">
     <use style="fill:#00ff00;stroke:#00ff00;" x="99.48578" xlink:href="#C0_0_da7306e71c" y="128.367627"/>
    </g>
    <g clip-path="url(#p4a51fe2b23)">
     <use style="fill:#00ff00;stroke:#00ff00;" x="102.203101" xlink:href="#C0_0_da7306e71c" y="142.50944"/>
    </g>
    <g clip-path="url(#p4a51fe2b23)">
     <use style="fill:#00ff00;stroke:#00ff00;" x="86.928861" xlink:href="#C0_0_da7306e71c" y="101.687686"/>
    </g>
    <g clip-path="url(#p4a51fe2b23)">
     <use style="fill:#00ff00;stroke:#00ff00;" x="104.336298" xlink:href="#C0_0_da7306e71c" y="143.018157"/>
    </g>
    <g clip-path="url(#p4a51fe2b23)">
     <use style="fill:#00ff00;stroke:#00ff00;" x="91.891015" xlink:href="#C0_0_da7306e71c" y="110.297248"/>
    </g>
    <g clip-path="url(#p4a51fe2b23)">
     <use style="fill:#00ff00;stroke:#00ff00;" x="87.867854" xlink:href="#C0_0_da7306e71c" y="94.664518"/>
    </g>
    <g clip-path="url(#p4a51fe2b23)">
     <use style="fill:#00ff00;stroke:#00ff00;" x="87.272372" xlink:href="#C0_0_da7306e71c" y="92.093195"/>
    </g>
    <g clip-path="url(#p4a51fe2b23)">
     <use style="fill:#00ff00;stroke:#00ff00;" x="105.155543" xlink:href="#C0_0_da7306e71c" y="150.231602"/>
    </g>
    <g clip-path="url(#p4a51fe2b23)">
     <use style="fill:#00ff00;stroke:#00ff00;" x="101.027128" xlink:href="#C0_0_da7306e71c" y="156.274779"/>
    </g>
    <g clip-path="url(#p4a51fe2b23)">
     <use style="fill:#00ff00;stroke:#00ff00;" x="94.185619" xlink:href="#C0_0_da7306e71c" y="108.033168"/>
    </g>
    <g clip-path="url(#p4a51fe2b23)">
     <use style="fill:#00ff00;stroke:#00ff00;" x="89.502504" xlink:href="#C0_0_da7306e71c" y="117.779873"/>
    </g>
    <g clip-path="url(#p4a51fe2b23)">
     <use style="fill:#00ff00;stroke:#00ff00;" x="75.585082" xlink:href="#C0_0_da7306e71c" y="115.073862"/>
    </g>
    <g clip-path="url(#p4a51fe2b23)">
     <use style="fill:#00ff00;stroke:#00ff00;" x="80.278328" xlink:href="#C0_0_da7306e71c" y="89.158882"/>
    </g>
    <g clip-path="url(#p4a51fe2b23)">
     <use style="fill:#00ff00;stroke:#00ff00;" x="78.701674" xlink:href="#C0_0_da7306e71c" y="91.064172"/>
    </g>
    <g clip-path="url(#p4a51fe2b23)">
     <use style="fill:#00ff00;stroke:#00ff00;" x="76.015767" xlink:href="#C0_0_da7306e71c" y="125.921408"/>
    </g>
    <g clip-path="url(#p4a51fe2b23)">
     <use style="fill:#00ff00;stroke:#00ff00;" x="75.328848" xlink:href="#C0_0_da7306e71c" y="86.078764"/>
    </g>
    <g clip-path="url(#p4a51fe2b23)">
     <use style="fill:#00ff00;stroke:#00ff00;" x="86.732355" xlink:href="#C0_0_da7306e71c" y="112.515811"/>
    </g>
    <g clip-path="url(#p4a51fe2b23)">
     <use style="fill:#00ff00;stroke:#00ff00;" x="100.734877" xlink:href="#C0_0_da7306e71c" y="130.487459"/>
    </g>
    <g clip-path="url(#p4a51fe2b23)">
     <use style="fill:#00ff00;stroke:#00ff00;" x="97.206919" xlink:href="#C0_0_da7306e71c" y="122.62203"/>
    </g>
    <g clip-path="url(#p4a51fe2b23)">
     <use style="fill:#00ff00;stroke:#00ff00;" x="73.365783" xlink:href="#C0_0_da7306e71c" y="89.447019"/>
    </g>
    <g clip-path="url(#p4a51fe2b23)">
     <use style="fill:#00ff00;stroke:#00ff00;" x="73.418838" xlink:href="#C0_0_da7306e71c" y="88.902055"/>
    </g>
    <g clip-path="url(#p4a51fe2b23)">
     <use style="fill:#00ff00;stroke:#00ff00;" x="87.688462" xlink:href="#C0_0_da7306e71c" y="95.861016"/>
    </g>
    <g clip-path="url(#p4a51fe2b23)">
     <use style="fill:#00ff00;stroke:#00ff00;" x="72.793489" xlink:href="#C0_0_da7306e71c" y="98.060088"/>
    </g>
    <g clip-path="url(#p4a51fe2b23)">
     <use style="fill:#00ff00;stroke:#00ff00;" x="84.994404" xlink:href="#C0_0_da7306e71c" y="106.472972"/>
    </g>
    <g clip-path="url(#p4a51fe2b23)">
     <use style="fill:#00ff00;stroke:#00ff00;" x="79.06612" xlink:href="#C0_0_da7306e71c" y="95.893269"/>
    </g>
    <g clip-path="url(#p4a51fe2b23)">
     <use style="fill:#00ff00;stroke:#00ff00;" x="96.909075" xlink:href="#C0_0_da7306e71c" y="142.330761"/>
    </g>
    <g clip-path="url(#p4a51fe2b23)">
     <use style="fill:#00ff00;stroke:#00ff00;" x="71.393544" xlink:href="#C0_0_da7306e71c" y="96.591383"/>
    </g>
    <g clip-path="url(#p4a51fe2b23)">
     <use style="fill:#00ff00;stroke:#00ff00;" x="71.684503" xlink:href="#C0_0_da7306e71c" y="95.809107"/>
    </g>
    <g clip-path="url(#p4a51fe2b23)">
     <use style="fill:#00ff00;stroke:#00ff00;" x="70.3" xlink:href="#C0_0_da7306e71c" y="96.678894"/>
    </g>
    <g clip-path="url(#p4a51fe2b23)">
     <use style="fill:#00ff00;stroke:#00ff00;" x="74.193646" xlink:href="#C0_0_da7306e71c" y="112.886805"/>
    </g>
    <g clip-path="url(#p4a51fe2b23)">
     <use style="fill:#00ff00;stroke:#00ff00;" x="104.224341" xlink:href="#C0_0_da7306e71c" y="150.955922"/>
    </g>
    <g clip-path="url(#p4a51fe2b23)">
     <use style="fill:#00ff00;stroke:#00ff00;" x="101.947106" xlink:href="#C0_0_da7306e71c" y="145.822963"/>
    </g>
    <g clip-path="url(#p4a51fe2b23)">
     <use style="fill:#00ff00;stroke:#00ff00;" x="98.848303" xlink:href="#C0_0_da7306e71c" y="123.911246"/>
    </g>
    <g clip-path="url(#p4a51fe2b23)">
     <use style="fill:#00ff00;stroke:#00ff00;" x="75.419909" xlink:href="#C0_0_da7306e71c" y="109.835786"/>
    </g>
    <g clip-path="url(#p4a51fe2b23)">
     <use style="fill:#00ff00;stroke:#00ff00;" x="72.228419" xlink:href="#C0_0_da7306e71c" y="107.492544"/>
    </g>
    <g clip-path="url(#p4a51fe2b23)">
     <use style="fill:#00ff00;stroke:#00ff00;" x="75.866109" xlink:href="#C0_0_da7306e71c" y="118.37997"/>
    </g>
    <g clip-path="url(#p4a51fe2b23)">
     <use style="fill:#00ff00;stroke:#00ff00;" x="77.884136" xlink:href="#C0_0_da7306e71c" y="127.737644"/>
    </g>
   </g>
   <g id="PathCollection_2">
    <defs>
     <path d="M 0 5 
C 1.326016 5 2.597899 4.473168 3.535534 3.535534 
C 4.473168 2.597899 5 1.326016 5 0 
C 5 -1.326016 4.473168 -2.597899 3.535534 -3.535534 
C 2.597899 -4.473168 1.326016 -5 0 -5 
C -1.326016 -5 -2.597899 -4.473168 -3.535534 -3.535534 
C -4.473168 -2.597899 -5 -1.326016 -5 0 
C -5 1.326016 -4.473168 2.597899 -3.535534 3.535534 
C -2.597899 4.473168 -1.326016 5 0 5 
z
" id="m3e8c0d6f03" style="stroke:#000000;"/>
    </defs>
    <g clip-path="url(#p4a51fe2b23)">
     <use style="stroke:#000000;" x="235.206761" xlink:href="#m3e8c0d6f03" y="238.838422"/>
     <use style="stroke:#000000;" x="372.190885" xlink:href="#m3e8c0d6f03" y="160.60189"/>
     <use style="stroke:#000000;" x="87.96878" xlink:href="#m3e8c0d6f03" y="111.884979"/>
     <use style="stroke:#000000;" x="176.018123" xlink:href="#m3e8c0d6f03" y="-1"/>
     <use style="stroke:#000000;" x="-1" xlink:href="#m3e8c0d6f03" y="51.697555"/>
     <use style="stroke:#000000;" x="12833.986875" xlink:href="#m3e8c0d6f03" y="16716.237035"/>
     <use style="stroke:#000000;" x="-1" xlink:href="#m3e8c0d6f03" y="16716.237035"/>
    </g>
   </g>
   <g id="patch_3">
    <path clip-path="url(#p4a51fe2b23)" d="M 4149.69959 11551.547844 
L 146.686721 16711.225967 
L -4913.358078 10097.437812 
L 242.109361 17.933153 
z
" style="fill:#1f77b4;opacity:0.4;"/>
   </g>
   <g id="patch_4">
    <path clip-path="url(#p4a51fe2b23)" d="M 4149.69959 11551.547844 
L 242.109361 17.933153 
L 1699.859241 -14319.020838 
L 13061.367999 243.449305 
z
" style="fill:#ff7f0e;opacity:0.4;"/>
   </g>
   <g id="patch_5">
    <path clip-path="url(#p4a51fe2b23)" d="M 242.109361 17.933153 
L -4913.358078 10097.437812 
L -12599.061349 243.449305 
L 146.686721 -16361.254531 
L 1699.859241 -14319.020838 
z
" style="fill:#2ca02c;opacity:0.4;"/>
   </g>
   <g id="patch_6">
    <path clip-path="url(#p4a51fe2b23)" d="M 1699.859241 -14319.020838 
L 13061.367999 243.449305 
L 38435.968308 243.449305 
L 146.686721 -49306.829991 
L 146.686721 -16361.254531 
z
" style="fill:#d62728;opacity:0.4;"/>
   </g>
   <g id="patch_7">
    <path clip-path="url(#p4a51fe2b23)" d="M -37973.661659 243.449305 
L -12599.061349 243.449305 
L 146.686721 -16361.254531 
L 146.686721 -49306.829991 
z
" style="fill:#9467bd;opacity:0.4;"/>
   </g>
   <g id="patch_8">
    <path clip-path="url(#p4a51fe2b23)" d="M 146.686721 16711.225967 
L 146.686721 49656.801427 
L 38435.968308 243.449305 
L 13061.367999 243.449305 
L 4149.69959 11551.547844 
z
" style="fill:#8c564b;opacity:0.4;"/>
   </g>
   <g id="patch_9">
    <path clip-path="url(#p4a51fe2b23)" d="M 146.686721 49656.801427 
L 146.686721 16711.225967 
L -4913.358078 10097.437812 
L -12599.061349 243.449305 
L -37973.661659 243.449305 
z
" style="fill:#e377c2;opacity:0.4;"/>
   </g>
   <g id="matplotlib.axis_1">
    <g id="xtick_1">
     <g id="line2d_1">
      <defs>
       <path d="M 0 0 
L 0 3.5 
" id="m28bd45b60c" style="stroke:#000000;stroke-width:0.8;"/>
      </defs>
      <g>
       <use style="stroke:#000000;stroke-width:0.8;" x="83.18672" xlink:href="#m28bd45b60c" y="307.584"/>
      </g>
     </g>
     <g id="text_1">
      <!-- −5 -->
      <g transform="translate(75.815626 322.182437)scale(0.1 -0.1)">
       <defs>
        <path d="M 10.59375 35.5 
L 73.1875 35.5 
L 73.1875 27.203125 
L 10.59375 27.203125 
z
" id="DejaVuSans-8722"/>
        <path d="M 10.796875 72.90625 
L 49.515625 72.90625 
L 49.515625 64.59375 
L 19.828125 64.59375 
L 19.828125 46.734375 
Q 21.96875 47.46875 24.109375 47.828125 
Q 26.265625 48.1875 28.421875 48.1875 
Q 40.625 48.1875 47.75 41.5 
Q 54.890625 34.8125 54.890625 23.390625 
Q 54.890625 11.625 47.5625 5.09375 
Q 40.234375 -1.421875 26.90625 -1.421875 
Q 22.3125 -1.421875 17.546875 -0.640625 
Q 12.796875 0.140625 7.71875 1.703125 
L 7.71875 11.625 
Q 12.109375 9.234375 16.796875 8.0625 
Q 21.484375 6.890625 26.703125 6.890625 
Q 35.15625 6.890625 40.078125 11.328125 
Q 45.015625 15.765625 45.015625 23.390625 
Q 45.015625 31 40.078125 35.4375 
Q 35.15625 39.890625 26.703125 39.890625 
Q 22.75 39.890625 18.8125 39.015625 
Q 14.890625 38.140625 10.796875 36.28125 
z
" id="DejaVuSans-53"/>
       </defs>
       <use xlink:href="#DejaVuSans-8722"/>
       <use x="83.789062" xlink:href="#DejaVuSans-53"/>
      </g>
     </g>
    </g>
    <g id="xtick_2">
     <g id="line2d_2">
      <g>
       <use style="stroke:#000000;stroke-width:0.8;" x="146.686721" xlink:href="#m28bd45b60c" y="307.584"/>
      </g>
     </g>
     <g id="text_2">
      <!-- 0 -->
      <g transform="translate(143.505471 322.182437)scale(0.1 -0.1)">
       <defs>
        <path d="M 31.78125 66.40625 
Q 24.171875 66.40625 20.328125 58.90625 
Q 16.5 51.421875 16.5 36.375 
Q 16.5 21.390625 20.328125 13.890625 
Q 24.171875 6.390625 31.78125 6.390625 
Q 39.453125 6.390625 43.28125 13.890625 
Q 47.125 21.390625 47.125 36.375 
Q 47.125 51.421875 43.28125 58.90625 
Q 39.453125 66.40625 31.78125 66.40625 
z
M 31.78125 74.21875 
Q 44.046875 74.21875 50.515625 64.515625 
Q 56.984375 54.828125 56.984375 36.375 
Q 56.984375 17.96875 50.515625 8.265625 
Q 44.046875 -1.421875 31.78125 -1.421875 
Q 19.53125 -1.421875 13.0625 8.265625 
Q 6.59375 17.96875 6.59375 36.375 
Q 6.59375 54.828125 13.0625 64.515625 
Q 19.53125 74.21875 31.78125 74.21875 
z
" id="DejaVuSans-48"/>
       </defs>
       <use xlink:href="#DejaVuSans-48"/>
      </g>
     </g>
    </g>
    <g id="xtick_3">
     <g id="line2d_3">
      <g>
       <use style="stroke:#000000;stroke-width:0.8;" x="210.186721" xlink:href="#m28bd45b60c" y="307.584"/>
      </g>
     </g>
     <g id="text_3">
      <!-- 5 -->
      <g transform="translate(207.005471 322.182437)scale(0.1 -0.1)">
       <use xlink:href="#DejaVuSans-53"/>
      </g>
     </g>
    </g>
    <g id="xtick_4">
     <g id="line2d_4">
      <g>
       <use style="stroke:#000000;stroke-width:0.8;" x="273.686722" xlink:href="#m28bd45b60c" y="307.584"/>
      </g>
     </g>
     <g id="text_4">
      <!-- 10 -->
      <g transform="translate(267.324222 322.182437)scale(0.1 -0.1)">
       <defs>
        <path d="M 12.40625 8.296875 
L 28.515625 8.296875 
L 28.515625 63.921875 
L 10.984375 60.40625 
L 10.984375 69.390625 
L 28.421875 72.90625 
L 38.28125 72.90625 
L 38.28125 8.296875 
L 54.390625 8.296875 
L 54.390625 0 
L 12.40625 0 
z
" id="DejaVuSans-49"/>
       </defs>
       <use xlink:href="#DejaVuSans-49"/>
       <use x="63.623047" xlink:href="#DejaVuSans-48"/>
      </g>
     </g>
    </g>
    <g id="xtick_5">
     <g id="line2d_5">
      <g>
       <use style="stroke:#000000;stroke-width:0.8;" x="337.186723" xlink:href="#m28bd45b60c" y="307.584"/>
      </g>
     </g>
     <g id="text_5">
      <!-- 15 -->
      <g transform="translate(330.824223 322.182437)scale(0.1 -0.1)">
       <use xlink:href="#DejaVuSans-49"/>
       <use x="63.623047" xlink:href="#DejaVuSans-53"/>
      </g>
     </g>
    </g>
    <g id="xtick_6">
     <g id="line2d_6">
      <g>
       <use style="stroke:#000000;stroke-width:0.8;" x="400.686724" xlink:href="#m28bd45b60c" y="307.584"/>
      </g>
     </g>
     <g id="text_6">
      <!-- 20 -->
      <g transform="translate(394.324224 322.182437)scale(0.1 -0.1)">
       <defs>
        <path d="M 19.1875 8.296875 
L 53.609375 8.296875 
L 53.609375 0 
L 7.328125 0 
L 7.328125 8.296875 
Q 12.9375 14.109375 22.625 23.890625 
Q 32.328125 33.6875 34.8125 36.53125 
Q 39.546875 41.84375 41.421875 45.53125 
Q 43.3125 49.21875 43.3125 52.78125 
Q 43.3125 58.59375 39.234375 62.25 
Q 35.15625 65.921875 28.609375 65.921875 
Q 23.96875 65.921875 18.8125 64.3125 
Q 13.671875 62.703125 7.8125 59.421875 
L 7.8125 69.390625 
Q 13.765625 71.78125 18.9375 73 
Q 24.125 74.21875 28.421875 74.21875 
Q 39.75 74.21875 46.484375 68.546875 
Q 53.21875 62.890625 53.21875 53.421875 
Q 53.21875 48.921875 51.53125 44.890625 
Q 49.859375 40.875 45.40625 35.40625 
Q 44.1875 33.984375 37.640625 27.21875 
Q 31.109375 20.453125 19.1875 8.296875 
z
" id="DejaVuSans-50"/>
       </defs>
       <use xlink:href="#DejaVuSans-50"/>
       <use x="63.623047" xlink:href="#DejaVuSans-48"/>
      </g>
     </g>
    </g>
   </g>
   <g id="matplotlib.axis_2">
    <g id="ytick_1">
     <g id="line2d_7">
      <defs>
       <path d="M 0 0 
L -3.5 0 
" id="m6c6e09cae0" style="stroke:#000000;stroke-width:0.8;"/>
      </defs>
      <g>
       <use style="stroke:#000000;stroke-width:0.8;" x="57.6" xlink:href="#m6c6e09cae0" y="276.427859"/>
      </g>
     </g>
     <g id="text_7">
      <!-- −2 -->
      <g transform="translate(35.857813 280.227077)scale(0.1 -0.1)">
       <use xlink:href="#DejaVuSans-8722"/>
       <use x="83.789062" xlink:href="#DejaVuSans-50"/>
      </g>
     </g>
    </g>
    <g id="ytick_2">
     <g id="line2d_8">
      <g>
       <use style="stroke:#000000;stroke-width:0.8;" x="57.6" xlink:href="#m6c6e09cae0" y="243.449305"/>
      </g>
     </g>
     <g id="text_8">
      <!-- 0 -->
      <g transform="translate(44.2375 247.248523)scale(0.1 -0.1)">
       <use xlink:href="#DejaVuSans-48"/>
      </g>
     </g>
    </g>
    <g id="ytick_3">
     <g id="line2d_9">
      <g>
       <use style="stroke:#000000;stroke-width:0.8;" x="57.6" xlink:href="#m6c6e09cae0" y="210.470751"/>
      </g>
     </g>
     <g id="text_9">
      <!-- 2 -->
      <g transform="translate(44.2375 214.269969)scale(0.1 -0.1)">
       <use xlink:href="#DejaVuSans-50"/>
      </g>
     </g>
    </g>
    <g id="ytick_4">
     <g id="line2d_10">
      <g>
       <use style="stroke:#000000;stroke-width:0.8;" x="57.6" xlink:href="#m6c6e09cae0" y="177.492197"/>
      </g>
     </g>
     <g id="text_10">
      <!-- 4 -->
      <g transform="translate(44.2375 181.291415)scale(0.1 -0.1)">
       <defs>
        <path d="M 37.796875 64.3125 
L 12.890625 25.390625 
L 37.796875 25.390625 
z
M 35.203125 72.90625 
L 47.609375 72.90625 
L 47.609375 25.390625 
L 58.015625 25.390625 
L 58.015625 17.1875 
L 47.609375 17.1875 
L 47.609375 0 
L 37.796875 0 
L 37.796875 17.1875 
L 4.890625 17.1875 
L 4.890625 26.703125 
z
" id="DejaVuSans-52"/>
       </defs>
       <use xlink:href="#DejaVuSans-52"/>
      </g>
     </g>
    </g>
    <g id="ytick_5">
     <g id="line2d_11">
      <g>
       <use style="stroke:#000000;stroke-width:0.8;" x="57.6" xlink:href="#m6c6e09cae0" y="144.513643"/>
      </g>
     </g>
     <g id="text_11">
      <!-- 6 -->
      <g transform="translate(44.2375 148.312861)scale(0.1 -0.1)">
       <defs>
        <path d="M 33.015625 40.375 
Q 26.375 40.375 22.484375 35.828125 
Q 18.609375 31.296875 18.609375 23.390625 
Q 18.609375 15.53125 22.484375 10.953125 
Q 26.375 6.390625 33.015625 6.390625 
Q 39.65625 6.390625 43.53125 10.953125 
Q 47.40625 15.53125 47.40625 23.390625 
Q 47.40625 31.296875 43.53125 35.828125 
Q 39.65625 40.375 33.015625 40.375 
z
M 52.59375 71.296875 
L 52.59375 62.3125 
Q 48.875 64.0625 45.09375 64.984375 
Q 41.3125 65.921875 37.59375 65.921875 
Q 27.828125 65.921875 22.671875 59.328125 
Q 17.53125 52.734375 16.796875 39.40625 
Q 19.671875 43.65625 24.015625 45.921875 
Q 28.375 48.1875 33.59375 48.1875 
Q 44.578125 48.1875 50.953125 41.515625 
Q 57.328125 34.859375 57.328125 23.390625 
Q 57.328125 12.15625 50.6875 5.359375 
Q 44.046875 -1.421875 33.015625 -1.421875 
Q 20.359375 -1.421875 13.671875 8.265625 
Q 6.984375 17.96875 6.984375 36.375 
Q 6.984375 53.65625 15.1875 63.9375 
Q 23.390625 74.21875 37.203125 74.21875 
Q 40.921875 74.21875 44.703125 73.484375 
Q 48.484375 72.75 52.59375 71.296875 
z
" id="DejaVuSans-54"/>
       </defs>
       <use xlink:href="#DejaVuSans-54"/>
      </g>
     </g>
    </g>
    <g id="ytick_6">
     <g id="line2d_12">
      <g>
       <use style="stroke:#000000;stroke-width:0.8;" x="57.6" xlink:href="#m6c6e09cae0" y="111.535089"/>
      </g>
     </g>
     <g id="text_12">
      <!-- 8 -->
      <g transform="translate(44.2375 115.334307)scale(0.1 -0.1)">
       <defs>
        <path d="M 31.78125 34.625 
Q 24.75 34.625 20.71875 30.859375 
Q 16.703125 27.09375 16.703125 20.515625 
Q 16.703125 13.921875 20.71875 10.15625 
Q 24.75 6.390625 31.78125 6.390625 
Q 38.8125 6.390625 42.859375 10.171875 
Q 46.921875 13.96875 46.921875 20.515625 
Q 46.921875 27.09375 42.890625 30.859375 
Q 38.875 34.625 31.78125 34.625 
z
M 21.921875 38.8125 
Q 15.578125 40.375 12.03125 44.71875 
Q 8.5 49.078125 8.5 55.328125 
Q 8.5 64.0625 14.71875 69.140625 
Q 20.953125 74.21875 31.78125 74.21875 
Q 42.671875 74.21875 48.875 69.140625 
Q 55.078125 64.0625 55.078125 55.328125 
Q 55.078125 49.078125 51.53125 44.71875 
Q 48 40.375 41.703125 38.8125 
Q 48.828125 37.15625 52.796875 32.3125 
Q 56.78125 27.484375 56.78125 20.515625 
Q 56.78125 9.90625 50.3125 4.234375 
Q 43.84375 -1.421875 31.78125 -1.421875 
Q 19.734375 -1.421875 13.25 4.234375 
Q 6.78125 9.90625 6.78125 20.515625 
Q 6.78125 27.484375 10.78125 32.3125 
Q 14.796875 37.15625 21.921875 38.8125 
z
M 18.3125 54.390625 
Q 18.3125 48.734375 21.84375 45.5625 
Q 25.390625 42.390625 31.78125 42.390625 
Q 38.140625 42.390625 41.71875 45.5625 
Q 45.3125 48.734375 45.3125 54.390625 
Q 45.3125 60.0625 41.71875 63.234375 
Q 38.140625 66.40625 31.78125 66.40625 
Q 25.390625 66.40625 21.84375 63.234375 
Q 18.3125 60.0625 18.3125 54.390625 
z
" id="DejaVuSans-56"/>
       </defs>
       <use xlink:href="#DejaVuSans-56"/>
      </g>
     </g>
    </g>
    <g id="ytick_7">
     <g id="line2d_13">
      <g>
       <use style="stroke:#000000;stroke-width:0.8;" x="57.6" xlink:href="#m6c6e09cae0" y="78.556535"/>
      </g>
     </g>
     <g id="text_13">
      <!-- 10 -->
      <g transform="translate(37.875 82.355753)scale(0.1 -0.1)">
       <use xlink:href="#DejaVuSans-49"/>
       <use x="63.623047" xlink:href="#DejaVuSans-48"/>
      </g>
     </g>
    </g>
    <g id="ytick_8">
     <g id="line2d_14">
      <g>
       <use style="stroke:#000000;stroke-width:0.8;" x="57.6" xlink:href="#m6c6e09cae0" y="45.577981"/>
      </g>
     </g>
     <g id="text_14">
      <!-- 12 -->
      <g transform="translate(37.875 49.377199)scale(0.1 -0.1)">
       <use xlink:href="#DejaVuSans-49"/>
       <use x="63.623047" xlink:href="#DejaVuSans-50"/>
      </g>
     </g>
    </g>
   </g>
   <g id="patch_10">
    <path d="M 57.6 307.584 
L 57.6 41.472 
" style="fill:none;stroke:#000000;stroke-linecap:square;stroke-linejoin:miter;stroke-width:0.8;"/>
   </g>
   <g id="patch_11">
    <path d="M 414.72 307.584 
L 414.72 41.472 
" style="fill:none;stroke:#000000;stroke-linecap:square;stroke-linejoin:miter;stroke-width:0.8;"/>
   </g>
   <g id="patch_12">
    <path d="M 57.6 307.584 
L 414.72 307.584 
" style="fill:none;stroke:#000000;stroke-linecap:square;stroke-linejoin:miter;stroke-width:0.8;"/>
   </g>
   <g id="patch_13">
    <path d="M 57.6 41.472 
L 414.72 41.472 
" style="fill:none;stroke:#000000;stroke-linecap:square;stroke-linejoin:miter;stroke-width:0.8;"/>
   </g>
  </g>
 </g>
 <defs>
  <clipPath id="p4a51fe2b23">
   <rect height="266.112" width="357.12" x="57.6" y="41.472"/>
  </clipPath>
 </defs>
</svg>
