<?xml version="1.0" encoding="utf-8" standalone="no"?>
<!DOCTYPE svg PUBLIC "-//W3C//DTD SVG 1.1//EN"
  "http://www.w3.org/Graphics/SVG/1.1/DTD/svg11.dtd">
<!-- Created with matplotlib (https://matplotlib.org/) -->
<svg height="345.6pt" version="1.1" viewBox="0 0 460.8 345.6" width="460.8pt" xmlns="http://www.w3.org/2000/svg" xmlns:xlink="http://www.w3.org/1999/xlink">
 <metadata>
  <rdf:RDF xmlns:cc="http://creativecommons.org/ns#" xmlns:dc="http://purl.org/dc/elements/1.1/" xmlns:rdf="http://www.w3.org/1999/02/22-rdf-syntax-ns#">
   <cc:Work>
    <dc:type rdf:resource="http://purl.org/dc/dcmitype/StillImage"/>
    <dc:date>2021-07-14T14:10:11.248812</dc:date>
    <dc:format>image/svg+xml</dc:format>
    <dc:creator>
     <cc:Agent>
      <dc:title>Matplotlib v3.3.3, https://matplotlib.org/</dc:title>
     </cc:Agent>
    </dc:creator>
   </cc:Work>
  </rdf:RDF>
 </metadata>
 <defs>
  <style type="text/css">*{stroke-linecap:butt;stroke-linejoin:round;}</style>
 </defs>
 <g id="figure_1">
  <g id="patch_1">
   <path d="M 0 345.6 
L 460.8 345.6 
L 460.8 0 
L 0 0 
z
" style="fill:#ffffff;"/>
  </g>
  <g id="axes_1">
   <g id="patch_2">
    <path d="M 57.6 307.584 
L 414.72 307.584 
L 414.72 41.472 
L 57.6 41.472 
z
" style="fill:#ffffff;"/>
   </g>
   <g id="PathCollection_1">
    <defs>
     <path d="M 0 2.236068 
C 0.593012 2.236068 1.161816 2.000462 1.581139 1.581139 
C 2.000462 1.161816 2.236068 0.593012 2.236068 -0 
C 2.236068 -0.593012 2.000462 -1.161816 1.581139 -1.581139 
C 1.161816 -2.000462 0.593012 -2.236068 0 -2.236068 
C -0.593012 -2.236068 -1.161816 -2.000462 -1.581139 -1.581139 
C -2.000462 -1.161816 -2.236068 -0.593012 -2.236068 0 
C -2.236068 0.593012 -2.000462 1.161816 -1.581139 1.581139 
C -1.161816 2.000462 -0.593012 2.236068 0 2.236068 
z
" id="C0_0_16c7536b01"/>
    </defs>
    <g clip-path="url(#p8c20944732)">
     <use style="fill:#00ff00;stroke:#00ff00;" x="324.289066" xlink:href="#C0_0_16c7536b01" y="58.414708"/>
    </g>
    <g clip-path="url(#p8c20944732)">
     <use style="fill:#00ff00;stroke:#00ff00;" x="324.893384" xlink:href="#C0_0_16c7536b01" y="55.319525"/>
    </g>
    <g clip-path="url(#p8c20944732)">
     <use style="fill:#00ff00;stroke:#00ff00;" x="309.334621" xlink:href="#C0_0_16c7536b01" y="67.562436"/>
    </g>
    <g clip-path="url(#p8c20944732)">
     <use style="fill:#00ff00;stroke:#00ff00;" x="301.494357" xlink:href="#C0_0_16c7536b01" y="72.533036"/>
    </g>
    <g clip-path="url(#p8c20944732)">
     <use style="fill:#00ff00;stroke:#00ff00;" x="321.374115" xlink:href="#C0_0_16c7536b01" y="51.778417"/>
    </g>
    <g clip-path="url(#p8c20944732)">
     <use style="fill:#00ff00;stroke:#00ff00;" x="320.053244" xlink:href="#C0_0_16c7536b01" y="50.794283"/>
    </g>
    <g clip-path="url(#p8c20944732)">
     <use style="fill:#00ff00;stroke:#00ff00;" x="299.772888" xlink:href="#C0_0_16c7536b01" y="74.269406"/>
    </g>
    <g clip-path="url(#p8c20944732)">
     <use style="fill:#00ff00;stroke:#00ff00;" x="321.100869" xlink:href="#C0_0_16c7536b01" y="51.309198"/>
    </g>
    <g clip-path="url(#p8c20944732)">
     <use style="fill:#00ff00;stroke:#00ff00;" x="354.581421" xlink:href="#C0_0_16c7536b01" y="90.082871"/>
    </g>
    <g clip-path="url(#p8c20944732)">
     <use style="fill:#00ff00;stroke:#00ff00;" x="376.633103" xlink:href="#C0_0_16c7536b01" y="183.548409"/>
    </g>
    <g clip-path="url(#p8c20944732)">
     <use style="fill:#0000ff;stroke:#0000ff;" x="359.849164" xlink:href="#C0_0_16c7536b01" y="296.28831"/>
    </g>
    <g clip-path="url(#p8c20944732)">
     <use style="fill:#0000ff;stroke:#0000ff;" x="343.846541" xlink:href="#C0_0_16c7536b01" y="278.095351"/>
    </g>
    <g clip-path="url(#p8c20944732)">
     <use style="fill:#00ff00;stroke:#00ff00;" x="370.860968" xlink:href="#C0_0_16c7536b01" y="179.637499"/>
    </g>
    <g clip-path="url(#p8c20944732)">
     <use style="fill:#00ff00;stroke:#00ff00;" x="376.441353" xlink:href="#C0_0_16c7536b01" y="146.014399"/>
    </g>
    <g clip-path="url(#p8c20944732)">
     <use style="fill:#00ff00;stroke:#00ff00;" x="312.518168" xlink:href="#C0_0_16c7536b01" y="70.579721"/>
    </g>
    <g clip-path="url(#p8c20944732)">
     <use style="fill:#00ff00;stroke:#00ff00;" x="327.132337" xlink:href="#C0_0_16c7536b01" y="57.849917"/>
    </g>
    <g clip-path="url(#p8c20944732)">
     <use style="fill:#00ff00;stroke:#00ff00;" x="309.724736" xlink:href="#C0_0_16c7536b01" y="70.630414"/>
    </g>
    <g clip-path="url(#p8c20944732)">
     <use style="fill:#00ff00;stroke:#00ff00;" x="331.472679" xlink:href="#C0_0_16c7536b01" y="56.880577"/>
    </g>
    <g clip-path="url(#p8c20944732)">
     <use style="fill:#00ff00;stroke:#00ff00;" x="316.464487" xlink:href="#C0_0_16c7536b01" y="63.989323"/>
    </g>
    <g clip-path="url(#p8c20944732)">
     <use style="fill:#00ff00;stroke:#00ff00;" x="350.954203" xlink:href="#C0_0_16c7536b01" y="89.816407"/>
    </g>
    <g clip-path="url(#p8c20944732)">
     <use style="fill:#00ff00;stroke:#00ff00;" x="375.339677" xlink:href="#C0_0_16c7536b01" y="194.725607"/>
    </g>
    <g clip-path="url(#p8c20944732)">
     <use style="fill:#0000ff;stroke:#0000ff;" x="368.480674" xlink:href="#C0_0_16c7536b01" y="259.028968"/>
    </g>
    <g clip-path="url(#p8c20944732)">
     <use style="fill:#0000ff;stroke:#0000ff;" x="367.83864" xlink:href="#C0_0_16c7536b01" y="295.393823"/>
    </g>
    <g clip-path="url(#p8c20944732)">
     <use style="fill:#0000ff;stroke:#0000ff;" x="365.902531" xlink:href="#C0_0_16c7536b01" y="294.956961"/>
    </g>
    <g clip-path="url(#p8c20944732)">
     <use style="fill:#0000ff;stroke:#0000ff;" x="361.525216" xlink:href="#C0_0_16c7536b01" y="292.273031"/>
    </g>
    <g clip-path="url(#p8c20944732)">
     <use style="fill:#0000ff;stroke:#0000ff;" x="358.660827" xlink:href="#C0_0_16c7536b01" y="292.447661"/>
    </g>
    <g clip-path="url(#p8c20944732)">
     <use style="fill:#0000ff;stroke:#0000ff;" x="359.62549" xlink:href="#C0_0_16c7536b01" y="288.595308"/>
    </g>
    <g clip-path="url(#p8c20944732)">
     <use style="fill:#0000ff;stroke:#0000ff;" x="335.270949" xlink:href="#C0_0_16c7536b01" y="274.940456"/>
    </g>
    <g clip-path="url(#p8c20944732)">
     <use style="fill:#0000ff;stroke:#0000ff;" x="343.00254" xlink:href="#C0_0_16c7536b01" y="271.190678"/>
    </g>
    <g clip-path="url(#p8c20944732)">
     <use style="fill:#00ff00;stroke:#00ff00;" x="328.126083" xlink:href="#C0_0_16c7536b01" y="108.336925"/>
    </g>
    <g clip-path="url(#p8c20944732)">
     <use style="fill:#00ff00;stroke:#00ff00;" x="335.637278" xlink:href="#C0_0_16c7536b01" y="104.774195"/>
    </g>
    <g clip-path="url(#p8c20944732)">
     <use style="fill:#00ff00;stroke:#00ff00;" x="328.092197" xlink:href="#C0_0_16c7536b01" y="108.578371"/>
    </g>
    <g clip-path="url(#p8c20944732)">
     <use style="fill:#00ff00;stroke:#00ff00;" x="328.999416" xlink:href="#C0_0_16c7536b01" y="107.48901"/>
    </g>
    <g clip-path="url(#p8c20944732)">
     <use style="fill:#00ff00;stroke:#00ff00;" x="336.397859" xlink:href="#C0_0_16c7536b01" y="104.273851"/>
    </g>
    <g clip-path="url(#p8c20944732)">
     <use style="fill:#00ff00;stroke:#00ff00;" x="349.02993" xlink:href="#C0_0_16c7536b01" y="97.993657"/>
    </g>
    <g clip-path="url(#p8c20944732)">
     <use style="fill:#00ff00;stroke:#00ff00;" x="380.106878" xlink:href="#C0_0_16c7536b01" y="81.879803"/>
    </g>
    <g clip-path="url(#p8c20944732)">
     <use style="fill:#0000ff;stroke:#0000ff;" x="368.282005" xlink:href="#C0_0_16c7536b01" y="269.889712"/>
    </g>
    <g clip-path="url(#p8c20944732)">
     <use style="fill:#0000ff;stroke:#0000ff;" x="363.074259" xlink:href="#C0_0_16c7536b01" y="287.261536"/>
    </g>
    <g clip-path="url(#p8c20944732)">
     <use style="fill:#0000ff;stroke:#0000ff;" x="367.054179" xlink:href="#C0_0_16c7536b01" y="293.939656"/>
    </g>
    <g clip-path="url(#p8c20944732)">
     <use style="fill:#0000ff;stroke:#0000ff;" x="358.65227" xlink:href="#C0_0_16c7536b01" y="298.261717"/>
    </g>
    <g clip-path="url(#p8c20944732)">
     <use style="fill:#0000ff;stroke:#0000ff;" x="360.487615" xlink:href="#C0_0_16c7536b01" y="294.768706"/>
    </g>
    <g clip-path="url(#p8c20944732)">
     <use style="fill:#0000ff;stroke:#0000ff;" x="355.853806" xlink:href="#C0_0_16c7536b01" y="285.83549"/>
    </g>
    <g clip-path="url(#p8c20944732)">
     <use style="fill:#0000ff;stroke:#0000ff;" x="339.032645" xlink:href="#C0_0_16c7536b01" y="267.978853"/>
    </g>
    <g clip-path="url(#p8c20944732)">
     <use style="fill:#0000ff;stroke:#0000ff;" x="335.355799" xlink:href="#C0_0_16c7536b01" y="271.192247"/>
    </g>
    <g clip-path="url(#p8c20944732)">
     <use style="fill:#00ff00;stroke:#00ff00;" x="372.022127" xlink:href="#C0_0_16c7536b01" y="140.172192"/>
    </g>
    <g clip-path="url(#p8c20944732)">
     <use style="fill:#00ff00;stroke:#00ff00;" x="375.664553" xlink:href="#C0_0_16c7536b01" y="139.956288"/>
    </g>
    <g clip-path="url(#p8c20944732)">
     <use style="fill:#00ff00;stroke:#00ff00;" x="369.334567" xlink:href="#C0_0_16c7536b01" y="139.761383"/>
    </g>
    <g clip-path="url(#p8c20944732)">
     <use style="fill:#00ff00;stroke:#00ff00;" x="368.969933" xlink:href="#C0_0_16c7536b01" y="140.592229"/>
    </g>
    <g clip-path="url(#p8c20944732)">
     <use style="fill:#00ff00;stroke:#00ff00;" x="369.493994" xlink:href="#C0_0_16c7536b01" y="140.68252"/>
    </g>
    <g clip-path="url(#p8c20944732)">
     <use style="fill:#00ff00;stroke:#00ff00;" x="370.398754" xlink:href="#C0_0_16c7536b01" y="140.178335"/>
    </g>
    <g clip-path="url(#p8c20944732)">
     <use style="fill:#00ff00;stroke:#00ff00;" x="374.117416" xlink:href="#C0_0_16c7536b01" y="145.415567"/>
    </g>
    <g clip-path="url(#p8c20944732)">
     <use style="fill:#00ff00;stroke:#00ff00;" x="374.749577" xlink:href="#C0_0_16c7536b01" y="169.020784"/>
    </g>
    <g clip-path="url(#p8c20944732)">
     <use style="fill:#00ff00;stroke:#00ff00;" x="358.891363" xlink:href="#C0_0_16c7536b01" y="181.835522"/>
    </g>
    <g clip-path="url(#p8c20944732)">
     <use style="fill:#0000ff;stroke:#0000ff;" x="372.867881" xlink:href="#C0_0_16c7536b01" y="210.657527"/>
    </g>
    <g clip-path="url(#p8c20944732)">
     <use style="fill:#0000ff;stroke:#0000ff;" x="386.362535" xlink:href="#C0_0_16c7536b01" y="237.444308"/>
    </g>
    <g clip-path="url(#p8c20944732)">
     <use style="fill:#0000ff;stroke:#0000ff;" x="381.917942" xlink:href="#C0_0_16c7536b01" y="246.228592"/>
    </g>
    <g clip-path="url(#p8c20944732)">
     <use style="fill:#0000ff;stroke:#0000ff;" x="362.37116" xlink:href="#C0_0_16c7536b01" y="266.855764"/>
    </g>
    <g clip-path="url(#p8c20944732)">
     <use style="fill:#0000ff;stroke:#0000ff;" x="358.571079" xlink:href="#C0_0_16c7536b01" y="268.680425"/>
    </g>
    <g clip-path="url(#p8c20944732)">
     <use style="fill:#0000ff;stroke:#0000ff;" x="354.291269" xlink:href="#C0_0_16c7536b01" y="266.943284"/>
    </g>
    <g clip-path="url(#p8c20944732)">
     <use style="fill:#0000ff;stroke:#0000ff;" x="358.230403" xlink:href="#C0_0_16c7536b01" y="254.307705"/>
    </g>
    <g clip-path="url(#p8c20944732)">
     <use style="fill:#0000ff;stroke:#0000ff;" x="356.922949" xlink:href="#C0_0_16c7536b01" y="254.113328"/>
    </g>
    <g clip-path="url(#p8c20944732)">
     <use style="fill:#00ff00;stroke:#00ff00;" x="371.600775" xlink:href="#C0_0_16c7536b01" y="84.377247"/>
    </g>
    <g clip-path="url(#p8c20944732)">
     <use style="fill:#00ff00;stroke:#00ff00;" x="377.484956" xlink:href="#C0_0_16c7536b01" y="83.259828"/>
    </g>
    <g clip-path="url(#p8c20944732)">
     <use style="fill:#00ff00;stroke:#00ff00;" x="385.900473" xlink:href="#C0_0_16c7536b01" y="79.619893"/>
    </g>
    <g clip-path="url(#p8c20944732)">
     <use style="fill:#00ff00;stroke:#00ff00;" x="366.58112" xlink:href="#C0_0_16c7536b01" y="88.322603"/>
    </g>
    <g clip-path="url(#p8c20944732)">
     <use style="fill:#00ff00;stroke:#00ff00;" x="380.910074" xlink:href="#C0_0_16c7536b01" y="79.369272"/>
    </g>
    <g clip-path="url(#p8c20944732)">
     <use style="fill:#00ff00;stroke:#00ff00;" x="380.388758" xlink:href="#C0_0_16c7536b01" y="81.844828"/>
    </g>
    <g clip-path="url(#p8c20944732)">
     <use style="fill:#00ff00;stroke:#00ff00;" x="380.013242" xlink:href="#C0_0_16c7536b01" y="80.960942"/>
    </g>
    <g clip-path="url(#p8c20944732)">
     <use style="fill:#00ff00;stroke:#00ff00;" x="380.183647" xlink:href="#C0_0_16c7536b01" y="81.148459"/>
    </g>
    <g clip-path="url(#p8c20944732)">
     <use style="fill:#00ff00;stroke:#00ff00;" x="378.66079" xlink:href="#C0_0_16c7536b01" y="81.153278"/>
    </g>
    <g clip-path="url(#p8c20944732)">
     <use style="fill:#0000ff;stroke:#0000ff;" x="374.330722" xlink:href="#C0_0_16c7536b01" y="202.563047"/>
    </g>
    <g clip-path="url(#p8c20944732)">
     <use style="fill:#0000ff;stroke:#0000ff;" x="365.713105" xlink:href="#C0_0_16c7536b01" y="297.488659"/>
    </g>
    <g clip-path="url(#p8c20944732)">
     <use style="fill:#0000ff;stroke:#0000ff;" x="359.306083" xlink:href="#C0_0_16c7536b01" y="297.703532"/>
    </g>
    <g clip-path="url(#p8c20944732)">
     <use style="fill:#0000ff;stroke:#0000ff;" x="348.251377" xlink:href="#C0_0_16c7536b01" y="280.382465"/>
    </g>
    <g clip-path="url(#p8c20944732)">
     <use style="fill:#0000ff;stroke:#0000ff;" x="336.040963" xlink:href="#C0_0_16c7536b01" y="269.763274"/>
    </g>
    <g clip-path="url(#p8c20944732)">
     <use style="fill:#0000ff;stroke:#0000ff;" x="345.687299" xlink:href="#C0_0_16c7536b01" y="273.35947"/>
    </g>
    <g clip-path="url(#p8c20944732)">
     <use style="fill:#00ff00;stroke:#00ff00;" x="394.73538" xlink:href="#C0_0_16c7536b01" y="168.104688"/>
    </g>
    <g clip-path="url(#p8c20944732)">
     <use style="fill:#00ff00;stroke:#00ff00;" x="393.108138" xlink:href="#C0_0_16c7536b01" y="166.588702"/>
    </g>
    <g clip-path="url(#p8c20944732)">
     <use style="fill:#00ff00;stroke:#00ff00;" x="380.917602" xlink:href="#C0_0_16c7536b01" y="165.081251"/>
    </g>
    <g clip-path="url(#p8c20944732)">
     <use style="fill:#00ff00;stroke:#00ff00;" x="383.076738" xlink:href="#C0_0_16c7536b01" y="165.488495"/>
    </g>
    <g clip-path="url(#p8c20944732)">
     <use style="fill:#00ff00;stroke:#00ff00;" x="383.196808" xlink:href="#C0_0_16c7536b01" y="166.540454"/>
    </g>
    <g clip-path="url(#p8c20944732)">
     <use style="fill:#0000ff;stroke:#0000ff;" x="391.719474" xlink:href="#C0_0_16c7536b01" y="239.722545"/>
    </g>
    <g clip-path="url(#p8c20944732)">
     <use style="fill:#0000ff;stroke:#0000ff;" x="356.491953" xlink:href="#C0_0_16c7536b01" y="250.863162"/>
    </g>
    <g clip-path="url(#p8c20944732)">
     <use style="fill:#0000ff;stroke:#0000ff;" x="357.66144" xlink:href="#C0_0_16c7536b01" y="250.343066"/>
    </g>
    <g clip-path="url(#p8c20944732)">
     <use style="fill:#0000ff;stroke:#0000ff;" x="359.433605" xlink:href="#C0_0_16c7536b01" y="249.425252"/>
    </g>
    <g clip-path="url(#p8c20944732)">
     <use style="fill:#00ff00;stroke:#00ff00;" x="309.409275" xlink:href="#C0_0_16c7536b01" y="176.250297"/>
    </g>
    <g clip-path="url(#p8c20944732)">
     <use style="fill:#00ff00;stroke:#00ff00;" x="304.694675" xlink:href="#C0_0_16c7536b01" y="181.335316"/>
    </g>
    <g clip-path="url(#p8c20944732)">
     <use style="fill:#fe0100;stroke:#fe0100;" x="368.193649" xlink:href="#C0_0_16c7536b01" y="202.27654"/>
    </g>
    <g clip-path="url(#p8c20944732)">
     <use style="fill:#0000ff;stroke:#0000ff;" x="386.942934" xlink:href="#C0_0_16c7536b01" y="236.189719"/>
    </g>
    <g clip-path="url(#p8c20944732)">
     <use style="fill:#0000ff;stroke:#0000ff;" x="391.813224" xlink:href="#C0_0_16c7536b01" y="238.745754"/>
    </g>
    <g clip-path="url(#p8c20944732)">
     <use style="fill:#0000ff;stroke:#0000ff;" x="390.945133" xlink:href="#C0_0_16c7536b01" y="240.686943"/>
    </g>
    <g clip-path="url(#p8c20944732)">
     <use style="fill:#0000ff;stroke:#0000ff;" x="391.661249" xlink:href="#C0_0_16c7536b01" y="239.771085"/>
    </g>
    <g clip-path="url(#p8c20944732)">
     <use style="fill:#0000ff;stroke:#0000ff;" x="390.329648" xlink:href="#C0_0_16c7536b01" y="232.577489"/>
    </g>
    <g clip-path="url(#p8c20944732)">
     <use style="fill:#0000ff;stroke:#0000ff;" x="388.489156" xlink:href="#C0_0_16c7536b01" y="233.067386"/>
    </g>
    <g clip-path="url(#p8c20944732)">
     <use style="fill:#0000ff;stroke:#0000ff;" x="372.696962" xlink:href="#C0_0_16c7536b01" y="228.07882"/>
    </g>
    <g clip-path="url(#p8c20944732)">
     <use style="fill:#00ff00;stroke:#00ff00;" x="316.158307" xlink:href="#C0_0_16c7536b01" y="157.698743"/>
    </g>
    <g clip-path="url(#p8c20944732)">
     <use style="fill:#00ff00;stroke:#00ff00;" x="286.086349" xlink:href="#C0_0_16c7536b01" y="184.502427"/>
    </g>
    <g clip-path="url(#p8c20944732)">
     <use style="fill:#00ff00;stroke:#00ff00;" x="285.783486" xlink:href="#C0_0_16c7536b01" y="184.921125"/>
    </g>
    <g clip-path="url(#p8c20944732)">
     <use style="fill:#00ff00;stroke:#00ff00;" x="289.66712" xlink:href="#C0_0_16c7536b01" y="185.280241"/>
    </g>
    <g clip-path="url(#p8c20944732)">
     <use style="fill:#00ff00;stroke:#00ff00;" x="286.085263" xlink:href="#C0_0_16c7536b01" y="184.859044"/>
    </g>
    <g clip-path="url(#p8c20944732)">
     <use style="fill:#00ff00;stroke:#00ff00;" x="290.229546" xlink:href="#C0_0_16c7536b01" y="183.314617"/>
    </g>
    <g clip-path="url(#p8c20944732)">
     <use style="fill:#00ff00;stroke:#00ff00;" x="292.024563" xlink:href="#C0_0_16c7536b01" y="181.769062"/>
    </g>
    <g clip-path="url(#p8c20944732)">
     <use style="fill:#00ff00;stroke:#00ff00;" x="293.189228" xlink:href="#C0_0_16c7536b01" y="183.231567"/>
    </g>
    <g clip-path="url(#p8c20944732)">
     <use style="fill:#00ff00;stroke:#00ff00;" x="313.344254" xlink:href="#C0_0_16c7536b01" y="182.966864"/>
    </g>
    <g clip-path="url(#p8c20944732)">
     <use style="fill:#00ff00;stroke:#00ff00;" x="318.269472" xlink:href="#C0_0_16c7536b01" y="182.9582"/>
    </g>
    <g clip-path="url(#p8c20944732)">
     <use style="fill:#00ff00;stroke:#00ff00;" x="334.248024" xlink:href="#C0_0_16c7536b01" y="180.442109"/>
    </g>
    <g clip-path="url(#p8c20944732)">
     <use style="fill:#fe0100;stroke:#fe0100;" x="360.999383" xlink:href="#C0_0_16c7536b01" y="194.203717"/>
    </g>
    <g clip-path="url(#p8c20944732)">
     <use style="fill:#0000ff;stroke:#0000ff;" x="372.327735" xlink:href="#C0_0_16c7536b01" y="212.482307"/>
    </g>
    <g clip-path="url(#p8c20944732)">
     <use style="fill:#0000ff;stroke:#0000ff;" x="388.793983" xlink:href="#C0_0_16c7536b01" y="237.479925"/>
    </g>
    <g clip-path="url(#p8c20944732)">
     <use style="fill:#0000ff;stroke:#0000ff;" x="390.096596" xlink:href="#C0_0_16c7536b01" y="237.716283"/>
    </g>
    <g clip-path="url(#p8c20944732)">
     <use style="fill:#0000ff;stroke:#0000ff;" x="385.486154" xlink:href="#C0_0_16c7536b01" y="230.687616"/>
    </g>
    <g clip-path="url(#p8c20944732)">
     <use style="fill:#0000ff;stroke:#0000ff;" x="379.850499" xlink:href="#C0_0_16c7536b01" y="231.080973"/>
    </g>
    <g clip-path="url(#p8c20944732)">
     <use style="fill:#00ff00;stroke:#00ff00;" x="315.970635" xlink:href="#C0_0_16c7536b01" y="154.901949"/>
    </g>
    <g clip-path="url(#p8c20944732)">
     <use style="fill:#00ff00;stroke:#00ff00;" x="318.112351" xlink:href="#C0_0_16c7536b01" y="154.795024"/>
    </g>
    <g clip-path="url(#p8c20944732)">
     <use style="fill:#00ff00;stroke:#00ff00;" x="321.024539" xlink:href="#C0_0_16c7536b01" y="155.308988"/>
    </g>
    <g clip-path="url(#p8c20944732)">
     <use style="fill:#fe0100;stroke:#fe0100;" x="345.472773" xlink:href="#C0_0_16c7536b01" y="184.611628"/>
    </g>
    <g clip-path="url(#p8c20944732)">
     <use style="fill:#fe0100;stroke:#fe0100;" x="359.888597" xlink:href="#C0_0_16c7536b01" y="195.361241"/>
    </g>
    <g clip-path="url(#p8c20944732)">
     <use style="fill:#fe0100;stroke:#fe0100;" x="364.949533" xlink:href="#C0_0_16c7536b01" y="200.050539"/>
    </g>
    <g clip-path="url(#p8c20944732)">
     <use style="fill:#0000ff;stroke:#0000ff;" x="372.534847" xlink:href="#C0_0_16c7536b01" y="219.280268"/>
    </g>
    <g clip-path="url(#p8c20944732)">
     <use style="fill:#0000ff;stroke:#0000ff;" x="376.701162" xlink:href="#C0_0_16c7536b01" y="222.232273"/>
    </g>
    <g clip-path="url(#p8c20944732)">
     <use style="fill:#0000ff;stroke:#0000ff;" x="373.552493" xlink:href="#C0_0_16c7536b01" y="222.475128"/>
    </g>
    <g clip-path="url(#p8c20944732)">
     <use style="fill:#0000ff;stroke:#0000ff;" x="376.493402" xlink:href="#C0_0_16c7536b01" y="225.911362"/>
    </g>
    <g clip-path="url(#p8c20944732)">
     <use style="fill:#00ff00;stroke:#00ff00;" x="389.276553" xlink:href="#C0_0_16c7536b01" y="164.785173"/>
    </g>
    <g clip-path="url(#p8c20944732)">
     <use style="fill:#00ff00;stroke:#00ff00;" x="390.366355" xlink:href="#C0_0_16c7536b01" y="162.290068"/>
    </g>
    <g clip-path="url(#p8c20944732)">
     <use style="fill:#00ff00;stroke:#00ff00;" x="385.217805" xlink:href="#C0_0_16c7536b01" y="158.579579"/>
    </g>
    <g clip-path="url(#p8c20944732)">
     <use style="fill:#00ff00;stroke:#00ff00;" x="386.141224" xlink:href="#C0_0_16c7536b01" y="159.551231"/>
    </g>
    <g clip-path="url(#p8c20944732)">
     <use style="fill:#00ff00;stroke:#00ff00;" x="383.610785" xlink:href="#C0_0_16c7536b01" y="156.687715"/>
    </g>
    <g clip-path="url(#p8c20944732)">
     <use style="fill:#00ff00;stroke:#00ff00;" x="379.195314" xlink:href="#C0_0_16c7536b01" y="159.746171"/>
    </g>
    <g clip-path="url(#p8c20944732)">
     <use style="fill:#00ff00;stroke:#00ff00;" x="378.902799" xlink:href="#C0_0_16c7536b01" y="160.670348"/>
    </g>
    <g clip-path="url(#p8c20944732)">
     <use style="fill:#00ff00;stroke:#00ff00;" x="375.03586" xlink:href="#C0_0_16c7536b01" y="162.244504"/>
    </g>
    <g clip-path="url(#p8c20944732)">
     <use style="fill:#0000ff;stroke:#0000ff;" x="385.076065" xlink:href="#C0_0_16c7536b01" y="243.506004"/>
    </g>
    <g clip-path="url(#p8c20944732)">
     <use style="fill:#0000ff;stroke:#0000ff;" x="347.966524" xlink:href="#C0_0_16c7536b01" y="262.495788"/>
    </g>
    <g clip-path="url(#p8c20944732)">
     <use style="fill:#0000ff;stroke:#0000ff;" x="357.199245" xlink:href="#C0_0_16c7536b01" y="251.482453"/>
    </g>
    <g clip-path="url(#p8c20944732)">
     <use style="fill:#0000ff;stroke:#0000ff;" x="359.649999" xlink:href="#C0_0_16c7536b01" y="249.18688"/>
    </g>
    <g clip-path="url(#p8c20944732)">
     <use style="fill:#0000ff;stroke:#0000ff;" x="361.64035" xlink:href="#C0_0_16c7536b01" y="248.409195"/>
    </g>
    <g clip-path="url(#p8c20944732)">
     <use style="fill:#0000ff;stroke:#0000ff;" x="357.877091" xlink:href="#C0_0_16c7536b01" y="250.52142"/>
    </g>
    <g clip-path="url(#p8c20944732)">
     <use style="fill:#0000ff;stroke:#0000ff;" x="374.627334" xlink:href="#C0_0_16c7536b01" y="231.784688"/>
    </g>
    <g clip-path="url(#p8c20944732)">
     <use style="fill:#fe0100;stroke:#fe0100;" x="87.596892" xlink:href="#C0_0_16c7536b01" y="207.169895"/>
    </g>
    <g clip-path="url(#p8c20944732)">
     <use style="fill:#fe0100;stroke:#fe0100;" x="89.86377" xlink:href="#C0_0_16c7536b01" y="208.096188"/>
    </g>
    <g clip-path="url(#p8c20944732)">
     <use style="fill:#fe0100;stroke:#fe0100;" x="92.009925" xlink:href="#C0_0_16c7536b01" y="208.506948"/>
    </g>
    <g clip-path="url(#p8c20944732)">
     <use style="fill:#fe0100;stroke:#fe0100;" x="94.393021" xlink:href="#C0_0_16c7536b01" y="209.566428"/>
    </g>
    <g clip-path="url(#p8c20944732)">
     <use style="fill:#fe0100;stroke:#fe0100;" x="95.535056" xlink:href="#C0_0_16c7536b01" y="209.076499"/>
    </g>
    <g clip-path="url(#p8c20944732)">
     <use style="fill:#fe0100;stroke:#fe0100;" x="100.924743" xlink:href="#C0_0_16c7536b01" y="206.616371"/>
    </g>
    <g clip-path="url(#p8c20944732)">
     <use style="fill:#fe0100;stroke:#fe0100;" x="103.602431" xlink:href="#C0_0_16c7536b01" y="208.005624"/>
    </g>
    <g clip-path="url(#p8c20944732)">
     <use style="fill:#fe0100;stroke:#fe0100;" x="114.489705" xlink:href="#C0_0_16c7536b01" y="211.285489"/>
    </g>
    <g clip-path="url(#p8c20944732)">
     <use style="fill:#fe0100;stroke:#fe0100;" x="124.568535" xlink:href="#C0_0_16c7536b01" y="219.106755"/>
    </g>
    <g clip-path="url(#p8c20944732)">
     <use style="fill:#fe0100;stroke:#fe0100;" x="128.076899" xlink:href="#C0_0_16c7536b01" y="208.338794"/>
    </g>
    <g clip-path="url(#p8c20944732)">
     <use style="fill:#fe0100;stroke:#fe0100;" x="103.795484" xlink:href="#C0_0_16c7536b01" y="202.506344"/>
    </g>
    <g clip-path="url(#p8c20944732)">
     <use style="fill:#fe0100;stroke:#fe0100;" x="101.771354" xlink:href="#C0_0_16c7536b01" y="201.065211"/>
    </g>
    <g clip-path="url(#p8c20944732)">
     <use style="fill:#fe0100;stroke:#fe0100;" x="95.907529" xlink:href="#C0_0_16c7536b01" y="191.854396"/>
    </g>
    <g clip-path="url(#p8c20944732)">
     <use style="fill:#fe0100;stroke:#fe0100;" x="91.885768" xlink:href="#C0_0_16c7536b01" y="174.49411"/>
    </g>
    <g clip-path="url(#p8c20944732)">
     <use style="fill:#fe0100;stroke:#fe0100;" x="106.608411" xlink:href="#C0_0_16c7536b01" y="196.141304"/>
    </g>
    <g clip-path="url(#p8c20944732)">
     <use style="fill:#fe0100;stroke:#fe0100;" x="104.355381" xlink:href="#C0_0_16c7536b01" y="193.341395"/>
    </g>
    <g clip-path="url(#p8c20944732)">
     <use style="fill:#fe0100;stroke:#fe0100;" x="109.364373" xlink:href="#C0_0_16c7536b01" y="193.507841"/>
    </g>
    <g clip-path="url(#p8c20944732)">
     <use style="fill:#fe0100;stroke:#fe0100;" x="110.235405" xlink:href="#C0_0_16c7536b01" y="190.726922"/>
    </g>
    <g clip-path="url(#p8c20944732)">
     <use style="fill:#fe0100;stroke:#fe0100;" x="105.340857" xlink:href="#C0_0_16c7536b01" y="183.375005"/>
    </g>
    <g clip-path="url(#p8c20944732)">
     <use style="fill:#fe0100;stroke:#fe0100;" x="104.857605" xlink:href="#C0_0_16c7536b01" y="180.131322"/>
    </g>
    <g clip-path="url(#p8c20944732)">
     <use style="fill:#fe0100;stroke:#fe0100;" x="101.21668" xlink:href="#C0_0_16c7536b01" y="173.161636"/>
    </g>
    <g clip-path="url(#p8c20944732)">
     <use style="fill:#fe0100;stroke:#fe0100;" x="96.332378" xlink:href="#C0_0_16c7536b01" y="172.738007"/>
    </g>
    <g clip-path="url(#p8c20944732)">
     <use style="fill:#fe0100;stroke:#fe0100;" x="99.061648" xlink:href="#C0_0_16c7536b01" y="178.70841"/>
    </g>
    <g clip-path="url(#p8c20944732)">
     <use style="fill:#fe0100;stroke:#fe0100;" x="103.147567" xlink:href="#C0_0_16c7536b01" y="191.6966"/>
    </g>
    <g clip-path="url(#p8c20944732)">
     <use style="fill:#fe0100;stroke:#fe0100;" x="86.213513" xlink:href="#C0_0_16c7536b01" y="197.282279"/>
    </g>
    <g clip-path="url(#p8c20944732)">
     <use style="fill:#fe0100;stroke:#fe0100;" x="77.58462" xlink:href="#C0_0_16c7536b01" y="200.540241"/>
    </g>
    <g clip-path="url(#p8c20944732)">
     <use style="fill:#fe0100;stroke:#fe0100;" x="109.851241" xlink:href="#C0_0_16c7536b01" y="211.050342"/>
    </g>
    <g clip-path="url(#p8c20944732)">
     <use style="fill:#fe0100;stroke:#fe0100;" x="109.775632" xlink:href="#C0_0_16c7536b01" y="212.503221"/>
    </g>
    <g clip-path="url(#p8c20944732)">
     <use style="fill:#fe0100;stroke:#fe0100;" x="121.967278" xlink:href="#C0_0_16c7536b01" y="220.520804"/>
    </g>
    <g clip-path="url(#p8c20944732)">
     <use style="fill:#fe0100;stroke:#fe0100;" x="118.004502" xlink:href="#C0_0_16c7536b01" y="221.915131"/>
    </g>
    <g clip-path="url(#p8c20944732)">
     <use style="fill:#fe0100;stroke:#fe0100;" x="109.514355" xlink:href="#C0_0_16c7536b01" y="214.691356"/>
    </g>
    <g clip-path="url(#p8c20944732)">
     <use style="fill:#fe0100;stroke:#fe0100;" x="113.175184" xlink:href="#C0_0_16c7536b01" y="212.706421"/>
    </g>
    <g clip-path="url(#p8c20944732)">
     <use style="fill:#fe0100;stroke:#fe0100;" x="120.073852" xlink:href="#C0_0_16c7536b01" y="212.379764"/>
    </g>
    <g clip-path="url(#p8c20944732)">
     <use style="fill:#fe0100;stroke:#fe0100;" x="126.588814" xlink:href="#C0_0_16c7536b01" y="217.932337"/>
    </g>
    <g clip-path="url(#p8c20944732)">
     <use style="fill:#fe0100;stroke:#fe0100;" x="107.855579" xlink:href="#C0_0_16c7536b01" y="193.482273"/>
    </g>
    <g clip-path="url(#p8c20944732)">
     <use style="fill:#fe0100;stroke:#fe0100;" x="100.808941" xlink:href="#C0_0_16c7536b01" y="188.168556"/>
    </g>
    <g clip-path="url(#p8c20944732)">
     <use style="fill:#fe0100;stroke:#fe0100;" x="102.368912" xlink:href="#C0_0_16c7536b01" y="217.871742"/>
    </g>
    <g clip-path="url(#p8c20944732)">
     <use style="fill:#fe0100;stroke:#fe0100;" x="89.51075" xlink:href="#C0_0_16c7536b01" y="213.974759"/>
    </g>
    <g clip-path="url(#p8c20944732)">
     <use style="fill:#fe0100;stroke:#fe0100;" x="90.674925" xlink:href="#C0_0_16c7536b01" y="215.432097"/>
    </g>
    <g clip-path="url(#p8c20944732)">
     <use style="fill:#fe0100;stroke:#fe0100;" x="88.567808" xlink:href="#C0_0_16c7536b01" y="216.991017"/>
    </g>
    <g clip-path="url(#p8c20944732)">
     <use style="fill:#fe0100;stroke:#fe0100;" x="88.964246" xlink:href="#C0_0_16c7536b01" y="216.032403"/>
    </g>
    <g clip-path="url(#p8c20944732)">
     <use style="fill:#fe0100;stroke:#fe0100;" x="87.242067" xlink:href="#C0_0_16c7536b01" y="184.437838"/>
    </g>
    <g clip-path="url(#p8c20944732)">
     <use style="fill:#fe0100;stroke:#fe0100;" x="81.629385" xlink:href="#C0_0_16c7536b01" y="181.419468"/>
    </g>
    <g clip-path="url(#p8c20944732)">
     <use style="fill:#fe0100;stroke:#fe0100;" x="77.801064" xlink:href="#C0_0_16c7536b01" y="183.714642"/>
    </g>
    <g clip-path="url(#p8c20944732)">
     <use style="fill:#fe0100;stroke:#fe0100;" x="78.849573" xlink:href="#C0_0_16c7536b01" y="184.489069"/>
    </g>
    <g clip-path="url(#p8c20944732)">
     <use style="fill:#fe0100;stroke:#fe0100;" x="80.392147" xlink:href="#C0_0_16c7536b01" y="185.244021"/>
    </g>
    <g clip-path="url(#p8c20944732)">
     <use style="fill:#fe0100;stroke:#fe0100;" x="92.455078" xlink:href="#C0_0_16c7536b01" y="187.675907"/>
    </g>
    <g clip-path="url(#p8c20944732)">
     <use style="fill:#fe0100;stroke:#fe0100;" x="91.323565" xlink:href="#C0_0_16c7536b01" y="186.929036"/>
    </g>
   </g>
   <g id="PathCollection_2">
    <defs>
     <path d="M 0 5 
C 1.326016 5 2.597899 4.473168 3.535534 3.535534 
C 4.473168 2.597899 5 1.326016 5 0 
C 5 -1.326016 4.473168 -2.597899 3.535534 -3.535534 
C 2.597899 -4.473168 1.326016 -5 0 -5 
C -1.326016 -5 -2.597899 -4.473168 -3.535534 -3.535534 
C -4.473168 -2.597899 -5 -1.326016 -5 0 
C -5 1.326016 -4.473168 2.597899 -3.535534 3.535534 
C -2.597899 4.473168 -1.326016 5 0 5 
z
" id="meeac241a6b" style="stroke:#000000;"/>
    </defs>
    <g clip-path="url(#p8c20944732)">
     <use style="stroke:#000000;" x="359.908704" xlink:href="#meeac241a6b" y="259.910673"/>
     <use style="stroke:#000000;" x="97.829032" xlink:href="#meeac241a6b" y="189.684613"/>
     <use style="stroke:#000000;" x="383.354844" xlink:href="#meeac241a6b" y="163.180488"/>
     <use style="stroke:#000000;" x="733.409538" xlink:href="#meeac241a6b" y="-1"/>
     <use style="stroke:#000000;" x="-1" xlink:href="#meeac241a6b" y="188.043717"/>
     <use style="stroke:#000000;" x="20075.529594" xlink:href="#meeac241a6b" y="9553.199796"/>
     <use style="stroke:#000000;" x="-1" xlink:href="#meeac241a6b" y="9553.199796"/>
    </g>
   </g>
   <g id="patch_3">
    <path clip-path="url(#p8c20944732)" d="M -7086.806857 6165.560733 
L 252.899522 205.283325 
L 18335.769076 1159.022107 
L 110.893776 9572.166218 
z
" style="fill:#1f77b4;opacity:0.4;"/>
   </g>
   <g id="patch_4">
    <path clip-path="url(#p8c20944732)" d="M -7086.806857 6165.560733 
L -19866.516716 240.239126 
L -3087.210584 -7624.422267 
L 252.899522 205.283325 
z
" style="fill:#ff7f0e;opacity:0.4;"/>
   </g>
   <g id="patch_5">
    <path clip-path="url(#p8c20944732)" d="M 252.899522 205.283325 
L -3087.210584 -7624.422267 
L 110.893776 -9149.227162 
L 20349.182655 240.239126 
L 18335.769076 1159.022107 
z
" style="fill:#2ca02c;opacity:0.4;"/>
   </g>
   <g id="patch_6">
    <path clip-path="url(#p8c20944732)" d="M 20349.182655 240.239126 
L 60278.45429 240.239126 
L 110.893776 -27775.148502 
L 110.893776 -9149.227162 
z
" style="fill:#d62728;opacity:0.4;"/>
   </g>
   <g id="patch_7">
    <path clip-path="url(#p8c20944732)" d="M -59795.788351 240.239126 
L -19866.516716 240.239126 
L -3087.210584 -7624.422267 
L 110.893776 -9149.227162 
L 110.893776 -27775.148502 
z
" style="fill:#9467bd;opacity:0.4;"/>
   </g>
   <g id="patch_8">
    <path clip-path="url(#p8c20944732)" d="M 110.893776 9572.166218 
L 110.893776 28198.087558 
L 60278.45429 240.239126 
L 20349.182655 240.239126 
L 18335.769076 1159.022107 
z
" style="fill:#8c564b;opacity:0.4;"/>
   </g>
   <g id="patch_9">
    <path clip-path="url(#p8c20944732)" d="M 110.893776 28198.087558 
L 110.893776 9572.166218 
L -7086.806857 6165.560733 
L -19866.516716 240.239126 
L -59795.788351 240.239126 
z
" style="fill:#e377c2;opacity:0.4;"/>
   </g>
   <g id="matplotlib.axis_1">
    <g id="xtick_1">
     <g id="line2d_1">
      <defs>
       <path d="M 0 0 
L 0 3.5 
" id="m9ebc21e06a" style="stroke:#000000;stroke-width:0.8;"/>
      </defs>
      <g>
       <use style="stroke:#000000;stroke-width:0.8;" x="70.924535" xlink:href="#m9ebc21e06a" y="307.584"/>
      </g>
     </g>
     <g id="text_1">
      <!-- −2 -->
      <g transform="translate(63.553441 322.182437)scale(0.1 -0.1)">
       <defs>
        <path d="M 10.59375 35.5 
L 73.1875 35.5 
L 73.1875 27.203125 
L 10.59375 27.203125 
z
" id="DejaVuSans-8722"/>
        <path d="M 19.1875 8.296875 
L 53.609375 8.296875 
L 53.609375 0 
L 7.328125 0 
L 7.328125 8.296875 
Q 12.9375 14.109375 22.625 23.890625 
Q 32.328125 33.6875 34.8125 36.53125 
Q 39.546875 41.84375 41.421875 45.53125 
Q 43.3125 49.21875 43.3125 52.78125 
Q 43.3125 58.59375 39.234375 62.25 
Q 35.15625 65.921875 28.609375 65.921875 
Q 23.96875 65.921875 18.8125 64.3125 
Q 13.671875 62.703125 7.8125 59.421875 
L 7.8125 69.390625 
Q 13.765625 71.78125 18.9375 73 
Q 24.125 74.21875 28.421875 74.21875 
Q 39.75 74.21875 46.484375 68.546875 
Q 53.21875 62.890625 53.21875 53.421875 
Q 53.21875 48.921875 51.53125 44.890625 
Q 49.859375 40.875 45.40625 35.40625 
Q 44.1875 33.984375 37.640625 27.21875 
Q 31.109375 20.453125 19.1875 8.296875 
z
" id="DejaVuSans-50"/>
       </defs>
       <use xlink:href="#DejaVuSans-8722"/>
       <use x="83.789062" xlink:href="#DejaVuSans-50"/>
      </g>
     </g>
    </g>
    <g id="xtick_2">
     <g id="line2d_2">
      <g>
       <use style="stroke:#000000;stroke-width:0.8;" x="110.893776" xlink:href="#m9ebc21e06a" y="307.584"/>
      </g>
     </g>
     <g id="text_2">
      <!-- 0 -->
      <g transform="translate(107.712526 322.182437)scale(0.1 -0.1)">
       <defs>
        <path d="M 31.78125 66.40625 
Q 24.171875 66.40625 20.328125 58.90625 
Q 16.5 51.421875 16.5 36.375 
Q 16.5 21.390625 20.328125 13.890625 
Q 24.171875 6.390625 31.78125 6.390625 
Q 39.453125 6.390625 43.28125 13.890625 
Q 47.125 21.390625 47.125 36.375 
Q 47.125 51.421875 43.28125 58.90625 
Q 39.453125 66.40625 31.78125 66.40625 
z
M 31.78125 74.21875 
Q 44.046875 74.21875 50.515625 64.515625 
Q 56.984375 54.828125 56.984375 36.375 
Q 56.984375 17.96875 50.515625 8.265625 
Q 44.046875 -1.421875 31.78125 -1.421875 
Q 19.53125 -1.421875 13.0625 8.265625 
Q 6.59375 17.96875 6.59375 36.375 
Q 6.59375 54.828125 13.0625 64.515625 
Q 19.53125 74.21875 31.78125 74.21875 
z
" id="DejaVuSans-48"/>
       </defs>
       <use xlink:href="#DejaVuSans-48"/>
      </g>
     </g>
    </g>
    <g id="xtick_3">
     <g id="line2d_3">
      <g>
       <use style="stroke:#000000;stroke-width:0.8;" x="150.863017" xlink:href="#m9ebc21e06a" y="307.584"/>
      </g>
     </g>
     <g id="text_3">
      <!-- 2 -->
      <g transform="translate(147.681767 322.182437)scale(0.1 -0.1)">
       <use xlink:href="#DejaVuSans-50"/>
      </g>
     </g>
    </g>
    <g id="xtick_4">
     <g id="line2d_4">
      <g>
       <use style="stroke:#000000;stroke-width:0.8;" x="190.832258" xlink:href="#m9ebc21e06a" y="307.584"/>
      </g>
     </g>
     <g id="text_4">
      <!-- 4 -->
      <g transform="translate(187.651008 322.182437)scale(0.1 -0.1)">
       <defs>
        <path d="M 37.796875 64.3125 
L 12.890625 25.390625 
L 37.796875 25.390625 
z
M 35.203125 72.90625 
L 47.609375 72.90625 
L 47.609375 25.390625 
L 58.015625 25.390625 
L 58.015625 17.1875 
L 47.609375 17.1875 
L 47.609375 0 
L 37.796875 0 
L 37.796875 17.1875 
L 4.890625 17.1875 
L 4.890625 26.703125 
z
" id="DejaVuSans-52"/>
       </defs>
       <use xlink:href="#DejaVuSans-52"/>
      </g>
     </g>
    </g>
    <g id="xtick_5">
     <g id="line2d_5">
      <g>
       <use style="stroke:#000000;stroke-width:0.8;" x="230.801499" xlink:href="#m9ebc21e06a" y="307.584"/>
      </g>
     </g>
     <g id="text_5">
      <!-- 6 -->
      <g transform="translate(227.620249 322.182437)scale(0.1 -0.1)">
       <defs>
        <path d="M 33.015625 40.375 
Q 26.375 40.375 22.484375 35.828125 
Q 18.609375 31.296875 18.609375 23.390625 
Q 18.609375 15.53125 22.484375 10.953125 
Q 26.375 6.390625 33.015625 6.390625 
Q 39.65625 6.390625 43.53125 10.953125 
Q 47.40625 15.53125 47.40625 23.390625 
Q 47.40625 31.296875 43.53125 35.828125 
Q 39.65625 40.375 33.015625 40.375 
z
M 52.59375 71.296875 
L 52.59375 62.3125 
Q 48.875 64.0625 45.09375 64.984375 
Q 41.3125 65.921875 37.59375 65.921875 
Q 27.828125 65.921875 22.671875 59.328125 
Q 17.53125 52.734375 16.796875 39.40625 
Q 19.671875 43.65625 24.015625 45.921875 
Q 28.375 48.1875 33.59375 48.1875 
Q 44.578125 48.1875 50.953125 41.515625 
Q 57.328125 34.859375 57.328125 23.390625 
Q 57.328125 12.15625 50.6875 5.359375 
Q 44.046875 -1.421875 33.015625 -1.421875 
Q 20.359375 -1.421875 13.671875 8.265625 
Q 6.984375 17.96875 6.984375 36.375 
Q 6.984375 53.65625 15.1875 63.9375 
Q 23.390625 74.21875 37.203125 74.21875 
Q 40.921875 74.21875 44.703125 73.484375 
Q 48.484375 72.75 52.59375 71.296875 
z
" id="DejaVuSans-54"/>
       </defs>
       <use xlink:href="#DejaVuSans-54"/>
      </g>
     </g>
    </g>
    <g id="xtick_6">
     <g id="line2d_6">
      <g>
       <use style="stroke:#000000;stroke-width:0.8;" x="270.770739" xlink:href="#m9ebc21e06a" y="307.584"/>
      </g>
     </g>
     <g id="text_6">
      <!-- 8 -->
      <g transform="translate(267.589489 322.182437)scale(0.1 -0.1)">
       <defs>
        <path d="M 31.78125 34.625 
Q 24.75 34.625 20.71875 30.859375 
Q 16.703125 27.09375 16.703125 20.515625 
Q 16.703125 13.921875 20.71875 10.15625 
Q 24.75 6.390625 31.78125 6.390625 
Q 38.8125 6.390625 42.859375 10.171875 
Q 46.921875 13.96875 46.921875 20.515625 
Q 46.921875 27.09375 42.890625 30.859375 
Q 38.875 34.625 31.78125 34.625 
z
M 21.921875 38.8125 
Q 15.578125 40.375 12.03125 44.71875 
Q 8.5 49.078125 8.5 55.328125 
Q 8.5 64.0625 14.71875 69.140625 
Q 20.953125 74.21875 31.78125 74.21875 
Q 42.671875 74.21875 48.875 69.140625 
Q 55.078125 64.0625 55.078125 55.328125 
Q 55.078125 49.078125 51.53125 44.71875 
Q 48 40.375 41.703125 38.8125 
Q 48.828125 37.15625 52.796875 32.3125 
Q 56.78125 27.484375 56.78125 20.515625 
Q 56.78125 9.90625 50.3125 4.234375 
Q 43.84375 -1.421875 31.78125 -1.421875 
Q 19.734375 -1.421875 13.25 4.234375 
Q 6.78125 9.90625 6.78125 20.515625 
Q 6.78125 27.484375 10.78125 32.3125 
Q 14.796875 37.15625 21.921875 38.8125 
z
M 18.3125 54.390625 
Q 18.3125 48.734375 21.84375 45.5625 
Q 25.390625 42.390625 31.78125 42.390625 
Q 38.140625 42.390625 41.71875 45.5625 
Q 45.3125 48.734375 45.3125 54.390625 
Q 45.3125 60.0625 41.71875 63.234375 
Q 38.140625 66.40625 31.78125 66.40625 
Q 25.390625 66.40625 21.84375 63.234375 
Q 18.3125 60.0625 18.3125 54.390625 
z
" id="DejaVuSans-56"/>
       </defs>
       <use xlink:href="#DejaVuSans-56"/>
      </g>
     </g>
    </g>
    <g id="xtick_7">
     <g id="line2d_7">
      <g>
       <use style="stroke:#000000;stroke-width:0.8;" x="310.73998" xlink:href="#m9ebc21e06a" y="307.584"/>
      </g>
     </g>
     <g id="text_7">
      <!-- 10 -->
      <g transform="translate(304.37748 322.182437)scale(0.1 -0.1)">
       <defs>
        <path d="M 12.40625 8.296875 
L 28.515625 8.296875 
L 28.515625 63.921875 
L 10.984375 60.40625 
L 10.984375 69.390625 
L 28.421875 72.90625 
L 38.28125 72.90625 
L 38.28125 8.296875 
L 54.390625 8.296875 
L 54.390625 0 
L 12.40625 0 
z
" id="DejaVuSans-49"/>
       </defs>
       <use xlink:href="#DejaVuSans-49"/>
       <use x="63.623047" xlink:href="#DejaVuSans-48"/>
      </g>
     </g>
    </g>
    <g id="xtick_8">
     <g id="line2d_8">
      <g>
       <use style="stroke:#000000;stroke-width:0.8;" x="350.709221" xlink:href="#m9ebc21e06a" y="307.584"/>
      </g>
     </g>
     <g id="text_8">
      <!-- 12 -->
      <g transform="translate(344.346721 322.182437)scale(0.1 -0.1)">
       <use xlink:href="#DejaVuSans-49"/>
       <use x="63.623047" xlink:href="#DejaVuSans-50"/>
      </g>
     </g>
    </g>
    <g id="xtick_9">
     <g id="line2d_9">
      <g>
       <use style="stroke:#000000;stroke-width:0.8;" x="390.678462" xlink:href="#m9ebc21e06a" y="307.584"/>
      </g>
     </g>
     <g id="text_9">
      <!-- 14 -->
      <g transform="translate(384.315962 322.182437)scale(0.1 -0.1)">
       <use xlink:href="#DejaVuSans-49"/>
       <use x="63.623047" xlink:href="#DejaVuSans-52"/>
      </g>
     </g>
    </g>
   </g>
   <g id="matplotlib.axis_2">
    <g id="ytick_1">
     <g id="line2d_10">
      <defs>
       <path d="M 0 0 
L -3.5 0 
" id="m3d7470d573" style="stroke:#000000;stroke-width:0.8;"/>
      </defs>
      <g>
       <use style="stroke:#000000;stroke-width:0.8;" x="57.6" xlink:href="#m3d7470d573" y="286.850541"/>
      </g>
     </g>
     <g id="text_10">
      <!-- −5 -->
      <g transform="translate(35.857813 290.649759)scale(0.1 -0.1)">
       <defs>
        <path d="M 10.796875 72.90625 
L 49.515625 72.90625 
L 49.515625 64.59375 
L 19.828125 64.59375 
L 19.828125 46.734375 
Q 21.96875 47.46875 24.109375 47.828125 
Q 26.265625 48.1875 28.421875 48.1875 
Q 40.625 48.1875 47.75 41.5 
Q 54.890625 34.8125 54.890625 23.390625 
Q 54.890625 11.625 47.5625 5.09375 
Q 40.234375 -1.421875 26.90625 -1.421875 
Q 22.3125 -1.421875 17.546875 -0.640625 
Q 12.796875 0.140625 7.71875 1.703125 
L 7.71875 11.625 
Q 12.109375 9.234375 16.796875 8.0625 
Q 21.484375 6.890625 26.703125 6.890625 
Q 35.15625 6.890625 40.078125 11.328125 
Q 45.015625 15.765625 45.015625 23.390625 
Q 45.015625 31 40.078125 35.4375 
Q 35.15625 39.890625 26.703125 39.890625 
Q 22.75 39.890625 18.8125 39.015625 
Q 14.890625 38.140625 10.796875 36.28125 
z
" id="DejaVuSans-53"/>
       </defs>
       <use xlink:href="#DejaVuSans-8722"/>
       <use x="83.789062" xlink:href="#DejaVuSans-53"/>
      </g>
     </g>
    </g>
    <g id="ytick_2">
     <g id="line2d_11">
      <g>
       <use style="stroke:#000000;stroke-width:0.8;" x="57.6" xlink:href="#m3d7470d573" y="240.239126"/>
      </g>
     </g>
     <g id="text_11">
      <!-- 0 -->
      <g transform="translate(44.2375 244.038345)scale(0.1 -0.1)">
       <use xlink:href="#DejaVuSans-48"/>
      </g>
     </g>
    </g>
    <g id="ytick_3">
     <g id="line2d_12">
      <g>
       <use style="stroke:#000000;stroke-width:0.8;" x="57.6" xlink:href="#m3d7470d573" y="193.627711"/>
      </g>
     </g>
     <g id="text_12">
      <!-- 5 -->
      <g transform="translate(44.2375 197.42693)scale(0.1 -0.1)">
       <use xlink:href="#DejaVuSans-53"/>
      </g>
     </g>
    </g>
    <g id="ytick_4">
     <g id="line2d_13">
      <g>
       <use style="stroke:#000000;stroke-width:0.8;" x="57.6" xlink:href="#m3d7470d573" y="147.016296"/>
      </g>
     </g>
     <g id="text_13">
      <!-- 10 -->
      <g transform="translate(37.875 150.815515)scale(0.1 -0.1)">
       <use xlink:href="#DejaVuSans-49"/>
       <use x="63.623047" xlink:href="#DejaVuSans-48"/>
      </g>
     </g>
    </g>
    <g id="ytick_5">
     <g id="line2d_14">
      <g>
       <use style="stroke:#000000;stroke-width:0.8;" x="57.6" xlink:href="#m3d7470d573" y="100.404882"/>
      </g>
     </g>
     <g id="text_14">
      <!-- 15 -->
      <g transform="translate(37.875 104.2041)scale(0.1 -0.1)">
       <use xlink:href="#DejaVuSans-49"/>
       <use x="63.623047" xlink:href="#DejaVuSans-53"/>
      </g>
     </g>
    </g>
    <g id="ytick_6">
     <g id="line2d_15">
      <g>
       <use style="stroke:#000000;stroke-width:0.8;" x="57.6" xlink:href="#m3d7470d573" y="53.793467"/>
      </g>
     </g>
     <g id="text_15">
      <!-- 20 -->
      <g transform="translate(37.875 57.592686)scale(0.1 -0.1)">
       <use xlink:href="#DejaVuSans-50"/>
       <use x="63.623047" xlink:href="#DejaVuSans-48"/>
      </g>
     </g>
    </g>
   </g>
   <g id="patch_10">
    <path d="M 57.6 307.584 
L 57.6 41.472 
" style="fill:none;stroke:#000000;stroke-linecap:square;stroke-linejoin:miter;stroke-width:0.8;"/>
   </g>
   <g id="patch_11">
    <path d="M 414.72 307.584 
L 414.72 41.472 
" style="fill:none;stroke:#000000;stroke-linecap:square;stroke-linejoin:miter;stroke-width:0.8;"/>
   </g>
   <g id="patch_12">
    <path d="M 57.6 307.584 
L 414.72 307.584 
" style="fill:none;stroke:#000000;stroke-linecap:square;stroke-linejoin:miter;stroke-width:0.8;"/>
   </g>
   <g id="patch_13">
    <path d="M 57.6 41.472 
L 414.72 41.472 
" style="fill:none;stroke:#000000;stroke-linecap:square;stroke-linejoin:miter;stroke-width:0.8;"/>
   </g>
  </g>
 </g>
 <defs>
  <clipPath id="p8c20944732">
   <rect height="266.112" width="357.12" x="57.6" y="41.472"/>
  </clipPath>
 </defs>
</svg>
